<?xml version="1.0" encoding="utf-8"?>
<!-- Generator: Adobe Illustrator 18.0.0, SVG Export Plug-In . SVG Version: 6.00 Build 0)  -->
<!DOCTYPE svg PUBLIC "-//W3C//DTD SVG 1.1//EN" "http://www.w3.org/Graphics/SVG/1.1/DTD/svg11.dtd">
<svg version="1.1" id="Layer_1" xmlns="http://www.w3.org/2000/svg" xmlns:xlink="http://www.w3.org/1999/xlink" x="0px" y="0px"
	 viewBox="0 0 34.6 34.6" enable-background="new 0 0 34.6 34.6" xml:space="preserve">
<path fill="#000000" d="M0,0v34.6h34.6V0H0z M22.3,10.8c-0.9,0-1.9,0-2.4,0c-0.4,0-0.9,0.5-0.9,0.8s0,2.3,0,2.3s2.7,0,3.1,0
	c-0.1,1.7-0.4,3.4-0.4,3.4H19v10.1l-4.1,0V17.3h-2.6v-3.4H15c0,0,0-2.2,0-2.7c0-0.5-0.1-3.8,4.2-3.8c0.6,0,2,0,3.2,0
	C22.3,8.8,22.3,10.3,22.3,10.8z"/>
</svg>
