<?xml version="1.0" encoding="utf-8"?>
<!-- Generator: Adobe Illustrator 18.0.0, SVG Export Plug-In . SVG Version: 6.00 Build 0)  -->
<!DOCTYPE svg PUBLIC "-//W3C//DTD SVG 1.1//EN" "http://www.w3.org/Graphics/SVG/1.1/DTD/svg11.dtd">
<svg version="1.1" id="Layer_1" xmlns="http://www.w3.org/2000/svg" xmlns:xlink="http://www.w3.org/1999/xlink" x="0px" y="0px"
	 viewBox="0.4 286.3 190.4 219.2" enable-background="new 0.4 286.3 190.4 219.2" xml:space="preserve">
<g>
	<g>
		<g id="oVTuLB_3_">
			<g>
				<path d="M59.3,289.4c2.3-0.5,3.8-2.3,6.4-2.3c3.3,0,6.4-1,9.7-0.8c3.6,0.3,7.1,0.8,10.7,1.3c1.5,0.3,2.8,1.3,4.1,2
					c1.5,0.8,3.3,1.5,4.8,2.5c0,0-0.3,0.3-0.5,0.5c0.3,0.5,0.8,0.8,1,1.3c1.3,3.8,3.1,7.4,3.3,11.4c0.3,2.5,0.5,5.1,0.8,7.6
					c0,0.5,0.3,1,0.5,1.5c-0.3,0.5-0.8,1.3-1.3,2.3c1.3,0,2.3,0,3.3,0c2-0.3,3.8-0.5,5.9-0.5c1.5,0,3.1,0,4.8,0
					c3.3-0.3,6.4-0.3,9.7-0.8c2.8-0.5,4.3,0.8,5.6,2.5c-0.3,1-0.5,1.5-0.8,2.3c-0.8,0.5-1.5,1.3-2,1.5c-1,0-2,0-3.1,0
					c-0.8,0-1.8,0-2.5,0c-1.3,0-2.5,0-3.8,0c0,0.3,0,0.3,0,0.5c0.3,0.3,0.5,0.5,0.8,0.5c2,1.3,4.1,2.3,5.9,3.6c0.5,0.3,0.5,1,1,1.3
					c1,0.8,2.5,1.3,3.3,2c2,2.8,5.1,4.3,6.9,7.4c1,1.8,2.8,3.3,4.1,4.8c1,1.3,2,2.8,3.1,4.3c0.8,1.5,2,2.8,2.5,4.3
					c1,2.5,2.3,5.1,3.6,7.6c0.3,0.5,0.5,0.8,1,1.3c0.5,2.3,1.3,4.6,2,6.9s1,4.6,2.5,6.6c0,0-0.3,0.3-0.3,0.5
					c0.3,1.5,0.8,3.1,1.3,4.6c0,0.3,0.3,0.5,0.3,0.8c0,2.8,0.3,5.3,0.3,8.1c0,1,0,2.3,0,3.3c0,1.8,0,3.3,0,5.1c0,0.3-0.5,0.8-0.8,1
					c0,3.6-0.8,6.9-1.8,10.4c-0.5-0.3-0.8-0.5-0.8-0.5c-0.3,1.3-0.5,2.8-1,4.1c-0.8,1.8-2,3.6-2.3,5.3c-0.3,2.3-1.8,3.8-2.5,5.9
					c-1.5,1.8-2.8,4.3-4.8,6.4c-3.1,2.8-5.3,6.4-8.1,9.4c-1.8,2-3.8,3.8-5.9,5.6c-3.1,2.3-5.9,4.8-9.7,6.1c-2.3,0.8-4.3,2-6.6,3.1
					c-1.3,0.5-2.8,1-4.3,1.8c-0.8,0.5-1.8,1-2.3,1.3c1.8,2.8,3.3,5.6,5.1,8.4c0.5,0.8,1.3,1.5,1.8,2c0,0.3-0.3,0.8,0,1
					c0.8,0.8,1.3,1.8,1.5,2.8c0.8,1.8,2,3.6,3.3,5.3l0.3,0.3c0.3,1,0.5,2,1,2.8c1,2.5,2.3,5.1,3.6,7.6c0.8,1.5,1.5,2.8,2.3,4.1
					c3.1-1.3,5.9-2.5,8.4-3.8c0-0.3-0.3-0.5-0.3-1c0.8,0.3,1.3,0.5,1.8,0.5c1.3-0.3,2.5-0.8,3.6-1.3c0.8-0.3,1.3-0.8,1.8-1
					c1-0.3,2.3-0.5,3.3-1c1-0.3,3.6,0.8,3.8,1.8c0,0.3,0,0.5,0,0.5c-1,0.3-0.5,1-0.8,1.8c-1,2-1.5,4.1-3.3,5.6c-2,2-3.8,4.1-6.1,5.6
					c-1.8,1-3.3,3.3-5.9,3.1c-0.3,0-0.3,0.3-0.5,0.5c-0.3,0.3-0.8,0.5-1,0.8c-1,0.8-3.1,0-2.8,2c-0.5,0-1,0-1.5,0
					c-0.5,0.3-1,0.8-1.5,0.8c-1.3,0.3-2.5,0.5-3.8,0.8c-0.8,0.3-1.8,0.5-2,0.3c-1-1-3.1-1.5-3.1-3.6c0-0.8-0.8-1.8-1.3-2.3
					c-1.3-1.5-2.5-2.8-3.6-4.1s-1.3-2.8-2.3-3.6c-1.3-1-2-2.5-3.1-3.8c-1.5-2.3-2.8-5.1-4.3-7.6c-0.3-0.5-1-1-1.5-1.5
					c-1.3-1.5-2.3-3.3-3.6-4.8c-2-2.3-3.6-5.3-6.4-6.6c-0.8,2.3-1.5,4.3-2.5,6.6h-0.3c-1,2.3-2,4.8-3.1,7.1c-0.5,0-1.3,0-1.5,0.5
					c-0.8,1.3-1.3,2.5-2,3.8c-0.3,0.3-0.5,0.8-0.8,1c-0.8,1-0.5,2.3-2.3,2.5c-0.8,0-1.5,0.5-2.3,0.5c-0.8,0-1.5,0.3-2,0
					c-1.3-0.3-2.5-0.5-3.8-0.5c-0.5-0.3-1-0.8-1.5-1c-1.3-0.5-3.1-0.8-3.8-1.8c-1-1.3-2.3-1.8-3.6-2.5c-0.3,0-0.5-0.3-1-0.3
					c-0.5-0.3-1.5-0.5-1.5-0.3c-0.5,1-1.8,1.8-1,3.1c-0.3,0.3-0.5,0.3-0.8,0.5v0.5c-0.3,0.5-0.8,0.8-1,1.3c-0.5,0.8-0.8,1.5-1,2
					c-1.3,2.3-2.5,4.3-3.8,6.4c-0.8,1.3-1.5,2.8-3.3,2.8c-0.5,0-1,0.3-1.3,0.5c-0.8-0.5-1.5-0.8-2-1.3c-0.5-1-1-2.3-1-3.6
					c-0.5-3.3-0.8-6.4-1.3-9.7c0-1,0.3-2.3,0-3.3c-0.8-1.8-0.5-3.6-0.8-5.3c0-0.3-0.3-1-0.3-1c1.3-0.8,0.5-2,0.5-3.1
					c0-1.8,0.5-3.3,1.5-4.8c0.3-0.3,0.5-0.5,0.8-0.8c2-0.3,4.1-0.5,6.1-0.5c2.5,0,5.1,0.5,7.9,1c1.3,0.3,2.3,1,3.6,1.3
					c1.8,0.5,3.8,0.8,5.3,1c0.8-2,1.3-3.8,2-5.6c-0.8-0.8-0.5-3.1,0.8-4.1c-3.1,0.3-6.1-0.5-8.9-1.3c-0.5-0.3-1-0.8-1.3-0.8
					c-1.8,0.3-3.6-0.3-5.1-1c-0.8-0.3-1.5-0.5-2.3-0.8c-1.8-0.5-3.8-1.3-5.6-2c-2-0.8-3.8-1.8-5.9-2.8c-1.8-1-3.6-1.8-5.6-3.1
					c0.5-0.3,0.8-0.3,1-0.5c-1.8-0.3-3.3-0.5-4.8-0.8v-0.3c0.3-0.3,0.5-0.3,1-0.5c-0.3-0.3-0.5-0.5-0.8-0.5
					c-0.3-0.3-0.5-0.5-0.8-0.8c-0.5-0.5-1-1.3-1.5-1.5c-2-0.3-2.8-2-4.1-3.1c-0.8-0.8-1.3-1.5-2-2.5s-1.8-1.8-2.5-2.8
					c-0.8-1.3-1.8-2.5-2.3-3.8c-0.8-1.8-2.3-3.1-2.5-5.1c-0.3-1-1-2-1.3-3.1c-0.8-2.3-2-4.3-2.8-6.6c-0.8-1.5-0.8-3.6-1.5-5.1
					c-1.3-2.5-1.5-5.3-2-8.1c-0.3-2-0.5-4.3-1.3-6.4c-0.3-0.8,0-1.5-0.3-2.3c-0.3-1.5-0.8-3.1-1-4.8c-0.3-0.8,0-1.3,0-2
					c0-1.8-0.5-3.8-0.3-5.6c0-2.3,0.3-4.3,0.5-6.6c0.5-2.5,0.8-5.3,1.5-7.9c0.5-1.8,1.5-3.3,1.8-5.1c0-2.3,1.3-4.1,1.8-6.1
					c0.3-1.8,1.5-3.6,2.5-5.3c1.5-2.8,3.1-5.3,4.8-7.9c1.3-1.5,2.8-2.8,4.3-4.3c1.5-1.3,3.1-2.5,4.6-4.1c1.8-1.5,3.6-3.6,5.6-4.8
					c3.1-1.8,6.6-3.3,9.9-4.8c1.8-0.8,3.6-1,5.3-1.5c0.8-0.3,1.5-0.5,2.3-0.8v-0.3c-1,0-1.8,0-2.8,0c-1.5,0-3.1,0-4.6,0
					s-3.1-0.5-4.6-0.5c-2.3,0-4.3,0.3-6.6,0.5c-1.3,0-2.5-0.3-3.6,0c-1,0-2-1.3-3.3-0.5c0,0,0,0-0.3,0c0-0.3,0-0.5,0-0.3
					c-0.8-0.8-1.3-1.5-1.8-2c0.8-0.3,1.5-0.5,2-0.8c-0.3-0.3-0.8-0.5-0.8-0.8c1-1,1.8-1.8,2.5-2.5c1,0.3,2,1,3.3,1.3
					c2,0.3,3.8,0.3,5.9,0.5s4.1,0.5,6.1,0.5c1.3,0,2.8-0.3,4.1,0c1.8,0.5,3.6-0.3,5.3,0c0.5,0,0.8,0.3,1,0.3
					c0.5-0.3,0.8-0.3,1.3-0.3c0.8,0,1.8,0.3,2.5,0.3c0.8,0,1.3-0.3,1.3-1.3s0.3-1.8,0.5-2.8c0.3-1.8,0.3-3.3,0.5-5.1
					c0-0.3-0.3-0.3-0.3-0.5c-0.3-0.3-0.5-0.5-0.5-0.5c0.3,0,0.5,0,0.8,0c-0.3-0.8-0.3-1.8-0.5-2.5c-0.5-1.8-0.3-3.6,0.5-5.3
					c0.3-0.3,0.3-0.8,0.3-1c0-0.8,0-1.8,0.3-2.5c0.5-1,1-2,1.8-2.8c0.3-0.5,0.8-1,1.3-1.3c0.5-0.5,1.3-1,2-1.8c-0.5,0-1-0.3-1.5-0.3
					C57.7,290.7,58.5,289.4,59.3,289.4z M129.2,345.1c0.5-1.3,0.8-2.5,1-3.8c0-0.5-0.3-1-0.5-1.5c-0.5-0.5-1-1-1.5-1.5
					c-1-1-2.3-2.3-3.3-3.3c-0.3-0.3-0.8-0.8-1-1c-2.5-2-4.8-4.3-7.4-6.4c-0.8-0.8-2.3-0.8-3.1-1.5c-1.3-1.5-3.3-1.8-4.8-2.5
					c-2-1-4.1-1.5-6.1-1.8c-0.8,0-1.5,0.5-2.3,0.5c-1.3,0-2.3,0.5-3.6,0.8c-0.3,0-0.5-0.5-0.8-0.8c-0.3,0.3-0.3,0.8-0.5,1
					c-0.5,0.3-1-1.5-1.5,0c0,0-0.8,0-1,0c-0.8-0.3-1.3-0.5-2-0.5c-3.1,0.3-6.1,0.8-9.4,1c-2.8,0-5.6-0.3-8.4-0.3
					c-2.3,0-4.3,0-6.6,0.8c-1.8,0.8-4.1,1-6.1,1.3c-0.8,0.3-1.5,0-2.3,0.3c-0.5,0.3-0.8,0.8-1.3,1.3c-0.3-0.3-0.5-0.5-0.8-0.5
					c-1,0.3-2,0.3-2.8,0.5c-2.3,0.8-4.8,1.3-7.1,2s-4.6,1.5-6.9,2.3c-1.5,0.5-2.8,1.5-4.3,2c-1.3,0.5-2.5,1-3.6,1.8
					c-1.5,1.3-2.8,2.5-4.3,3.8l-0.3,0.3c-1.8,1.5-3.6,2.8-5.3,4.3c0,0-0.3,0-0.3,0.3c4.6,7.1,8.6,14.5,13.7,21.4
					c0.8-1.5,1.3-2.8,1.8-3.8c0.8-1.8,1.3-3.6,2-5.3c1.3-2.5,2.5-5.1,3.8-7.6c0.8-1.5,1.8-3.1,2.8-4.6c0.5-0.8,1.3-1.5,1.5-2.3
					c0.5-1.3,1-2.5,1.8-3.6c0.3-0.3,0.8-0.5,1-0.8c0.8,1,2,0.8,2.8-0.3c2,0.8,3.1,2.5,3.8,4.6c0.3,0.5,0.5,1,0.8,1.3
					c2,2,2.8,4.6,4.1,7.1c1.5,3.1,3.3,5.9,4.8,8.9c0.8,1.3,1.5,2.8,2.5,4.1c1.5-3.3,2.8-6.9,4.3-10.2c0.8-1.8,2-3.6,3.1-5.6
					c0.5-1,0.8-2.3,1.3-3.6c0.3-0.8,1-1.3,1.5-2c1.3-2.3,2.3-4.8,3.3-7.4c0.3-0.8,0.8-1.5,0.8-2.5c0.3-1.8,1.5-1,2.5-1
					c3.1,0.3,3.8,2.8,4.8,4.6c2.5,4.1,5.1,8.1,7.4,12.2c1.3,2,2.3,4.3,3.3,6.6c0.3,0.5,0.8,1,1.5,1.8c0.5-1.3,1-2,1.3-3.1
					c0.8-2.3,1.5-4.6,2.5-6.9c0.8-1.8,2.3-3.3,3.3-5.1s1.5-3.6,2.3-5.3c0.3-0.8,0.3-1.5,1.3-1.3c0-0.5,0-1,0-1.5c0.5,0,1,0,1.5,0.3
					c1,0.5,2.3,1,3.1,1.3c0,0.5,0,0.8,0,1c1.3,2.3,2.3,4.8,3.6,7.1c1,1.8,2,3.6,2.3,5.6c0.3,1.5,0.8,3.1,1.5,4.3
					c0,0.3,0.8,0.5,1,0.8C127.2,350.5,128.2,347.9,129.2,345.1z M112.2,439.2c-0.3,0.3-0.8,0.3-1,0.5c-0.8,0.5-1.3,0.3-2,0
					c-2.3-1.3-3.8-3.3-5.3-5.1c-1.3-1.5-2.5-3.1-3.3-4.8c-0.3-0.5-0.8-0.5-1-1c-0.5-1-0.8-1.8-1.5-2.8c-1.3-2-2.8-3.8-4.1-5.6
					c-0.8-1-1.5-2.3-2.3-3.3c-0.3,0-0.3,0-0.3,0.3c-0.8,1.8-1.8,3.6-2.3,5.3c-0.5,1.5-0.8,3.3-1.3,5.1c-0.5,1.3-1.3,2.5-1.8,3.8
					c-0.5,1-0.5,2.3-1,3.6c-0.5,1.5-1,3.1-1.5,4.3c-0.5,1.5,0,3.3-1.5,4.3c-0.5,0.3-1,0.5-1.5,0.5c0-0.3-0.3-0.3-0.3-0.5
					c-0.3,0.5-0.5,0.8-1,1.3c-0.3-0.5-0.8-1-1-1.5c-0.8,0.3-1.5,0.3-1.8-1c-0.5-1.5-1.8-2.8-2.8-4.3c-1-1.5-2-2.8-2.8-4.3
					c-1.8-3.1-3.3-5.9-4.8-8.9c-0.8-1.5-1.5-3.3-2.3-4.8c-0.8-1.3-1.5-2.3-2.5-3.6c-0.8,2.5-1.3,5.1-2,7.6c-0.5,2-1.3,4.3-1.8,6.4
					c-0.5,1.8-1,3.8-1.5,5.6c0,0.5,0.3,1,0.3,1.8c-1-0.3-1,2.5-2.8,0.5c0,0.8,0,1.3-0.3,2c-2.3-1.5-4.3-3.1-6.4-4.6h0.3
					c-0.3-0.5-0.8-1.3-1-1.8c-1.3-1.8-2.8-3.3-3.8-5.1c-1-1.5-2-3.1-3.1-4.6c-0.3-0.5-0.8-0.5-1.3-1c-1.5,2.5-2,5.1-2.3,7.6
					c0,0.3,0,0.5,0,0.5c-1.5,2.5-2.3,5.3-2.5,8.1c-0.3,1-0.5,1.8-1,2.8c-0.3,0.3-1,0.3-2,0.8c1.8,1,3.6,2,5.3,3.1
					c0.8,0.5,1.3,1,2,1.3c2.5,0.8,4.8,1.8,7.4,2.8c1.3,0.5,2.8,1.3,4.1,1.8c0.8,0.3,1.5,0.5,2.3,0.8c2.5,0.5,5.1,1.3,7.6,1.8
					c2.3,0.5,4.8,0.5,7.1,0.8c2.8,0.3,5.3,0.8,8.1,0.5c3.8,0,7.6-0.5,11.7-0.8c2.5-0.3,5.3-0.5,7.9-1c1.5-0.3,3.1-1.5,4.8-1.8
					c1-0.3,1.8-1,3.1-0.8c1,0.3,2.5-0.8,3.6-1.3c1-0.5,2.3-1,3.3-1.5c0.3,0,0.3,0,0.5-0.3c2.8-1.5,5.9-2.8,8.6-4.3
					c1.5-0.8,2.5-2,3.8-3.1c3.3-2.3,5.6-5.1,8.1-7.9l0.3-0.3c-3.1-3.1-6.4-6.1-8.4-10.4c-0.8,2-1,4.1-2,5.6c-1,1.8-2,3.6-2.8,5.3
					c-0.5,1.3-0.8,2.5-1.3,3.8c-0.5,1-1,2.3-1.8,3.6C112.4,440.3,112.4,439.8,112.2,439.2z M63.1,319.2c2,0,4.1-0.3,6.1-0.5
					c2.5-0.3,5.1-0.5,7.6-1c1.8-0.3,3.6-0.5,5.6-0.5c3.3-0.3,6.4-0.5,9.7-0.5c0.5,0,1,0,0.8-1c-0.3-0.5,0.3-1,0.3-1.5
					c0.3-1.3,0.3-2.5,0.5-3.8c0,0-1-0.3-1.5-0.3c-0.8,0-1.5,0-2.3-0.3c-1.3-0.3-2.8-0.5-4.1,0c-1,0.3-2,0-3.1,0
					c-1.8,0-3.3,0.3-5.1,0.3c-1.5,0-2.8-0.3-4.3-0.3s-3.3,0.3-4.8,0.5c-1,0-2,0.3-3.1,0.3c-2.3,0-4.8,0.3-7.1,0.3
					c-1.3,0-1,1-0.8,1.8c0,2.3,0.3,4.3,0.3,6.6C59.5,319.2,61.3,319.4,63.1,319.2z M125.7,399.8c0.3,0,0.5,0,0.8,0
					c-0.5-3.6,0-7.4-1.5-10.9C125.1,392.4,125.4,396.3,125.7,399.8z M114.2,392.9c0-0.3-0.3-0.8-0.3-1c1-0.3,0-1.3,0.5-1.5
					c-1.3-1.3-0.3-2.8-0.5-4.3c0-0.3,0.5-0.5,1-1l-0.3-0.3c-0.5,0-1,0.3-1,0.3c0,3.3,0,6.6,0,9.9
					C114.7,394.7,114.2,393.7,114.2,392.9z M134,384c-1,0.8-1.5,5.9-1.3,8.4c0.3,0,0.3,0,0.5,0C133.5,389.6,133.8,386.8,134,384z
					 M86.5,407.7c0.3,0,0.5,0,0.8,0c0.5,0,1.3,0,1.8,0c0-0.5-0.3-1-0.3-1.5s0.3-1,0.5-1.8C87,404.4,87.5,406.7,86.5,407.7z
					 M103.8,404.1c1.5-2.3,1.3-4.3,0.5-6.6c-0.3,0-0.3,0-0.5,0C103.8,399.8,103.8,402.1,103.8,404.1z M129.2,400.6
					c0.5-0.8,1-1,1-1.3c0-1.8,0-3.6-0.3-5.1c-0.3,0-0.5,0-0.8,0C129.2,396,129.2,398,129.2,400.6z M129.2,410c0.3,0,0.3,0,0.5,0
					c0.5-2,0.5-4.1-0.5-6.1C129.2,405.9,129.2,408,129.2,410z M114.7,379.5c-0.3-0.5-0.5-0.8-1-1.3c0,1.3-0.5,2,0.5,2.8
					c0.3,0,0,0.8-0.3,1c-0.3,0.5-0.3,0.8,0.3,1.3c0.3,0.3,0,0.5,0.3,1c-0.3-1.5,1.5-3.1-0.8-4.3
					C114.2,379.7,114.2,379.7,114.7,379.5z M110.6,434.7c0.3-1.3,0.5-2.3,0.8-3.3C109.1,432.1,108.9,432.9,110.6,434.7z M19.3,386.6
					c0.3,0,0.5,0,0.5,0c0.3-1.8,0.3-3.6,0-5.3c-0.3,0-0.3,0-0.5,0C19.3,383,19.3,384.8,19.3,386.6z M69.4,375.9
					c0.3,1,0.3,1.8,0.5,3.1c0.8-1.8,1-3.1,1.8-4.8C70.7,374.9,70,375.4,69.4,375.9z M122.9,399.3c0.3-0.3,0.5-0.5,0.5-0.8
					c-0.5-1,0.3-2.8-1.8-3.3C122.1,396.5,122.3,397.8,122.9,399.3z M114,372.9c0,1.5,0.3,2.8,0.3,4.1h0.3c0.3-1,0.5-2,0.8-3.3
					C115,373.4,114.5,373.1,114,372.9z M85,346.4c-0.3,0.8-0.5,1.5-0.5,1.8c1.3-0.3,2-0.5,3.3-0.8C86.7,347.2,86,346.9,85,346.4z
					 M59.5,409.7c-0.8,0.5-1.3,1-2,1.5c1.3,0.3,2,0.3,3.1,0.5C60.3,411.3,60,410.8,59.5,409.7z M38.4,417.1c-0.5,0.5-1,1-1.5,1.5
					c0.5,0.3,1.3,0.8,1.8,1.3c0.3,0,0.3-0.3,0.5-0.3C38.9,418.9,38.9,418.1,38.4,417.1z M134.8,359.1c-0.5,2.3-0.3,3.8,1,4.3
					C135.3,361.9,135.1,360.6,134.8,359.1z M109.1,382.5c0.3,0,0.8,0.3,1,0.3c0-1,0.3-2.3,0.3-3.6c-0.3,0-0.3,0-0.5,0
					C109.6,380.2,109.4,381.5,109.1,382.5z M124.6,418.6c-0.5-0.3-1-0.8-1.8-1c-1,1.5,1.3,1.5,1.5,2.5
					C124.4,419.7,124.6,419.1,124.6,418.6z M50.4,397.8c0.5,0,1.3,0,2-0.3c-0.3-0.8-0.5-1.5-0.5-2.3C51.4,396.3,50.9,397,50.4,397.8
					z M22.4,361.7h-0.3c-0.8,2,1,1.8,1.8,2.3l0.3-0.3C23.7,362.9,23.1,362.4,22.4,361.7z"/>
				<path d="M162.3,423.5c2.8,0.8,5.6,1.8,8.4,2.8c1.5,0.5,3.1,1.5,4.6,2.3c1,0.8,2,1.8,2.8,2.5c0.8,0.8,1.3,1.8,1.5,2.5
					c0.5,1.3,1,2.8,1,4.1c0,1.5-0.3,3.3-1,4.3c-1,1.3-2.8,2-4.3,2.8c-0.5,0.3-1.5,0.3-1.8-0.3c-0.5-0.8-1.8-0.8-2.8-1.3
					c-1.3-1-2.5-2-3.6-3.3c-1.3-1.5-2.8-2.8-4.1-4.3c-0.5-0.5-1-1.3-1.5-2c-0.3-0.5-0.5-1.3-0.8-1.5c-1-1-2.3-2-3.6-3.3
					c-1-1-1.5-2.3-1.3-3.8c1-0.5,2.8,0.5,2.8-1.5C160,423.5,161.3,423.2,162.3,423.5z M175.8,434.7c-1.8-2.3-4.3-3.6-7.1-4.1
					c-0.5-0.5-0.8-1.5-2-1c-0.3,0.3-1.3-0.5-2-0.8c3.1,4.6,6.9,8.6,11.7,11.4C177,439,176.8,436.2,175.8,434.7z"/>
				<path d="M190.3,392.9c0,0.5,0.8,1,0.5,1.3c-1,1.3-0.3,3.1-1.8,4.3c-0.8,0.8-1.5,2-3.1,2c-0.5,0-0.8,0.3-1.3,0.3
					c-2,0.5-3.8,1-6.1,0c-0.8-0.3-2-0.3-3.1-0.8c-1-0.5-1.5-2-3.1-1.5v-0.3c-1.3-1.3-2.5-2.8-3.8-4.1c-0.8-0.8-1.8-1.5-2.5-2.3
					c-0.3-0.3-0.5-1.3,0.5-1.8c1.3-0.8,3.3,0,4.1-2c0,0,0.3,0,0.5,0c2.5-0.3,5.1-0.8,7.9-0.8c4.3-0.3,8.4,0,10.9,4.3
					c0.3,0.3,0.5,0.3,0.8,0.5C190.5,392.4,190.3,392.7,190.3,392.9z M179.3,395.2c1.5,1,3.3,1.3,5.3,1.3c0.5-0.8,1-1.5,1.3-2.3
					c0-0.5-0.5-1.5-1-1.8c-2.5-1-5.1-1-7.6-1c-1,0-1.8,0.3-2.8,0.5l-0.3,0.3C175.8,393.2,177.5,394.2,179.3,395.2z"/>
			</g>
		</g>
		<path fill="#FFFFFF" d="M92.8,408.5c-0.8,0.3-0.8,0.5-0.5,0.8c0.8-0.3,0.5-1.3,0.5-1.8c0-1.5-0.3-3.3,0-4.8c0.3-2,0.5-4.3,0-6.4
			c-1-3.8-1.8-8.1-4.6-11.2c-1.3-1.3-3.1-3.1-4.6-3.8c-1.8-0.8-4.1-0.5-5.3,1c-1,1-2.3,2.3-2.5,3.6c-0.3,0.8-0.3,1.5-0.5,2
			c-0.3,0.8-0.3,2-0.8,2.3c-0.3-0.3-0.3-0.8-0.5-1.3c-0.3-0.5-0.8-0.8-1.3-1.3c-0.8-0.8-1.5-1.5-2.3-2.3c-0.5-0.3-1.3-0.5-1.8-0.8
			c-0.8-0.5-1.3-1-2-1.3c-1-0.5-2.3-0.8-3.3-0.8c-1.5,0-2,0.5-2.8,1.8c-0.5,0.8-1.3,1.8-1.3,2.8c-0.3,1,0.3,2.8,0.5,3.8
			c0.5,1.3,1,2.3,2,3.1c2.3,2.3,4.1,4.3,6.6,6.1c3.1,2,6.1,4.1,9.2,5.6c1.3,0.8,2.8,1.3,4.3,1.5c1,0.3,1.8,0.5,2.8,0.8
			c0.5,0.3,1,0,1.8,0c1,0.3,2,0.8,2.8,1c1,0.3,2,0.3,3.3,0.3"/>
	</g>
</g>
</svg>
