<?xml version="1.0" encoding="utf-8"?>
<!-- Generator: Adobe Illustrator 19.0.0, SVG Export Plug-In . SVG Version: 6.00 Build 0)  -->
<!DOCTYPE svg PUBLIC "-//W3C//DTD SVG 1.1//EN" "http://www.w3.org/Graphics/SVG/1.1/DTD/svg11.dtd">
<svg version="1.1" id="Layer_1" xmlns="http://www.w3.org/2000/svg" xmlns:xlink="http://www.w3.org/1999/xlink" x="0px" y="0px"
	 viewBox="0 0 386.8 163.7" enable-background="new 0 0 386.8 163.7" xml:space="preserve">
<g>
	<path fill="none" d="M280,41.3c-0.1-0.2-0.2-0.3-0.3-0.4c-0.1-0.2-0.3-0.4-0.4-0.6c-0.7-1.4-1.9-2.1-3.2-2.6
		c-0.9-0.3-1.9-0.4-2.8-0.5c-1-0.1-1.9-0.1-2.9-0.2c-0.3,0-0.5,0.1-0.5,0.4c0,1.2,0,2.4,0,3.5c0,0.8,0.1,1.7,0.1,2.5
		c0,0.9-0.1,1.8,0,2.7c0,0.8,0.2,1.6,0,2.5c0,0.1,0,0.2,0,0.3c0,1,0,1.9,0,2.9c0,0.6,0.1,1.2,0.1,1.8c0,0.8,0,1.5,0,2.3
		c0,0.3,0.1,0.5,0.5,0.5c0.4,0,0.7,0,1.1-0.1c0,0,0,0,0,0.1c0.5,0,1,0,1.6-0.1c0.6-0.1,1.1-0.2,1.6-0.4c0.2,0,0.5-0.1,0.7-0.1
		c1.3-0.6,2.7-1.1,3.6-2.4c0.3-0.4,0.5-0.7,0.8-1c0.6-0.8,0.7-1.7,1-2.6c0.1-0.4,0.1-0.9,0.2-1.4c0-0.2,0.1-0.5,0.1-0.7
		c0-0.9,0-1.8-0.1-2.6C281,43.7,280.4,42.5,280,41.3z"/>
	<path fill="none" d="M243,65.7c-0.2-0.6-0.6-1.2-0.9-1.8c-0.1-0.1-0.2-0.3-0.3-0.4c-0.6-1.4-1.8-2.3-3.1-2.9
		c-1.4-0.6-2.8-0.8-4.3-0.8c-0.4,0-0.6,0.2-0.6,0.6c0,0.4,0,0.8,0,1.2c0,0.7,0,1.5,0,2.2c0,0.6,0,1.1,0,1.7c0,0.7,0,1.3,0,2
		c0,0.5,0,1.1,0,1.6c0,0.4,0,0.8,0,1.2c0,0.2,0,0.3,0,0.5c0,0.7,0,1.5,0,2.2c0,0,0,0-0.1,0c0,1.1,0,2.2,0,3.3c0,1.6,0,3.1,0,4.7
		c0,0.6,0.2,0.7,0.7,0.6c0.6-0.1,1.2-0.2,1.7-0.3c1.3-0.2,2.5-0.8,3.6-1.4c0.1,0,0.2-0.1,0.2-0.2c0.7-0.9,1.6-1.5,2.2-2.5
		c0.5-0.9,1-1.9,1.1-2.9c0.2-1,0.2-2,0.3-3c0.1-0.9,0.1-1.8-0.1-2.7C243.5,67.7,243.3,66.7,243,65.7z"/>
	<path fill="none" d="M313,59.6c-0.3-1.6-0.5-3.2-0.8-4.8c-0.1-0.6-0.2-1.2-0.2-1.8c0,0,0,0,0,0c0-0.2,0-0.4,0-0.6
		c-0.2-1.4-0.5-2.8-0.7-4.3c-0.1-0.3,0-0.7-0.4-0.7c-0.1,0-0.3,0.5-0.3,0.8c-0.1,0.4-0.1,0.8-0.1,1.2c-0.1,0.6-0.2,1.2-0.2,1.9
		c-0.1,0.7-0.1,1.4-0.2,2c-0.1,0.5-0.3,1.1-0.3,1.6c-0.1,1.3-0.1,2.7-0.4,4c-0.3,1.5-0.2,3.1-0.7,4.6c-0.2,0.5,0.1,0.7,0.5,0.7
		c1,0,2,0,2.9,0c0.4,0,0.8,0,1.1,0.1c0.3,0,0.5-0.1,0.4-0.4c-0.1-0.6-0.1-1.1-0.2-1.7C313.3,61.4,313.1,60.5,313,59.6z"/>
	<path fill="none" d="M234.5,50.9c0.3,0,0.6,0.1,0.9,0c0.9-0.2,1.9-0.3,2.8-0.6c1.5-0.6,2.6-1.5,3.2-3c0.4-1,0.7-2,0.6-3
		c0.1-1.3-0.1-2.6-0.4-3.8c-0.4-1.4-1.3-2.4-2.5-3.1c-0.7-0.4-1.6-0.6-2.5-0.8c-0.6-0.1-1.2-0.2-1.8-0.3c-0.7-0.1-1,0.2-1,0.9
		c0,0.4,0,0.8,0,1.2c0,0.8,0,1.5-0.1,2.3c0,0.1,0,0.1,0,0.2c0,1.2,0,2.5,0,3.7c0,0.8,0,1.6,0,2.4c0,0.4,0,0.9,0,1.3
		c0,0.7,0,1.3-0.1,2C233.9,50.6,234.1,50.8,234.5,50.9z"/>
	<path fill="none" d="M162.7,68.8c-0.1-0.8-0.3-1.5-0.6-2.3c-0.1-0.4-0.3-0.8-0.5-1.2c-0.3-0.7-0.7-1.5-1.1-2.1
		c-0.3-0.5-0.7-1-1.1-1.4c-0.5-0.5-1-0.9-1.7-1c-0.2-0.1-0.4-0.2-0.7-0.3c-0.2-0.1-0.4-0.2-0.5-0.2c-1.1-0.1-2.2-0.2-3.2-0.3
		c-0.5,0-0.6,0.2-0.6,0.6c0,0.9,0,1.9,0,2.8c0,0.6,0,1.2,0,1.8c0,0.8,0,1.5,0,2.3c0,0.7,0,1.4,0,2.1c0,0.3,0,0.5,0,0.8
		c0,1.1,0,2.2,0.1,3.3c0,0.1,0,0.1,0,0.2c0,1.1-0.1,2.1-0.1,3.2c0,0.1,0,0.1,0,0.2c0,0.6,0.1,1.2,0.1,1.8c0,0.8,0,1.6,0,2.4
		c0,0.3,0.2,0.5,0.5,0.5c0.9-0.1,1.8-0.2,2.7-0.5c1-0.3,1.9-0.6,2.7-1.2c0.4-0.3,0.8-0.5,1.2-0.8c0.5-0.6,1.1-1.2,1.5-1.9
		c0.5-0.8,0.9-1.6,1.1-2.5c0.3-1.4,0.4-2.8,0.5-4.2c0,0,0,0-0.1,0C162.8,70.2,162.8,69.5,162.7,68.8z"/>
	<path fill="none" d="M152.7,49.7c-0.1,1.2,0,1.3,1.2,1.4c0.6-0.1,1.2-0.2,1.8-0.4c0.5-0.1,1-0.3,1.5-0.5c0.3-0.1,0.6-0.3,0.9-0.4
		c1-0.5,1.6-1.4,2-2.3c0.3-0.7,0.4-1.5,0.6-2.2c0.2-0.8,0.3-1.7,0.1-2.5c-0.1-0.7-0.2-1.3-0.4-2c-0.4-1.9-1.7-3.1-3.4-3.8
		c-0.7-0.3-1.6-0.4-2.4-0.5c-0.5-0.1-0.9-0.1-1.4-0.1c-0.4,0-0.5,0.2-0.5,0.5c0,0.9,0,1.8,0,2.7c0,0.2,0,0.4,0,0.6
		c0,0.4,0,0.8,0,1.1c0,0.4,0,0.7,0,1.1c0,0.4,0,0.8,0,1.2c0,0.2,0.1,0.4,0.1,0.5c0,0.8-0.1,1.6-0.1,2.4c0,0.1,0,0.2,0,0.4
		C152.7,47.8,152.8,48.8,152.7,49.7z"/>
	<path d="M172.5,65.1c-0.6-2.3-1.4-4.6-3.1-6.4c-1.1-1.2-2.3-2.2-3.6-3.1c-0.5-0.3-0.5-0.5,0-0.9c1.1-1.1,2.3-2.1,3.1-3.5
		c0.9-1.5,1.8-3,1.9-4.9c0-0.1,0.1-0.3,0.1-0.4c0.5-1.3,0.3-2.7,0.3-4c0-0.9-0.3-1.9-0.4-2.8c-0.3-2.2-1.2-4.1-2.5-5.9
		c-0.1-0.1-0.1-0.2-0.2-0.3c-0.8-0.8-1.5-1.6-2.4-2.3c-0.2-0.2-0.6-0.3-0.8-0.5c-0.2-0.1-0.4-0.1-0.6-0.2c-1.8-1-3.5-1.8-5.6-2
		c-0.3,0-0.6-0.1-0.9-0.2c-1.1-0.3-2.1-0.3-3.2-0.2c-0.7,0-1.3,0-2,0c-1,0-1.9-0.1-2.9-0.1c-1.3,0-2.7,0-4,0c-0.8,0-1.7-0.1-2.5-0.1
		c0,0-0.1,0-0.1,0c-0.3,0-0.4,0.2-0.4,0.5c0.2,0.6,0.1,1.2,0,1.8c-0.1,0.7,0,1.4,0,2.1c0,1.9,0.1,3.8,0.1,5.7c0,1.8,0,3.5-0.1,5.3
		c0,0.2,0,0.4,0,0.6c0,0.4,0,0.8,0,1.2c0,0.7,0,1.4,0,2.1c0,0.5,0,1,0,1.5c0,0.4,0,0.8,0,1.1c0,0.4,0.1,0.7,0.1,1.1
		c0,0.5-0.1,1.1-0.1,1.6c0,0.5,0.1,1,0.1,1.6c0,1.3-0.1,2.6-0.1,4c0,1.1,0.1,2.3,0.1,3.4c0,0.8,0,1.7,0,2.5c0,0.4,0,0.7,0,1.1
		c0,0.9,0.1,1.7,0.1,2.6c0,0.8,0,1.7-0.1,2.5c0,0.5-0.1,0.9-0.1,1.4c0.1,1.3,0.2,2.5,0,3.8c0,0.1,0,0.2,0,0.3c0,1,0.1,2.1,0.1,3.1
		c0,0.7-0.1,1.4-0.1,2.1c0,0.4,0,0.7,0,1.1c0,1.1,0,2.2,0,3.4c0,1.3,0.1,2.5,0.1,3.8c0,0.5-0.1,1.1-0.1,1.6c0,0.6,0.2,0.8,0.8,0.8
		c0.6,0,1.3-0.1,1.9-0.1c1.3,0,2.6,0.1,3.9,0.1c0.6,0,1.2,0,1.8,0c0.4,0,0.8,0.1,1.2,0c1-0.1,2.1-0.1,3.1-0.2c0,0,0,0,0,0
		c0.9-0.1,1.7-0.1,2.6-0.2c0.5-0.1,1.1-0.2,1.6-0.4c0.4-0.1,0.7-0.2,1-0.3c0.5-0.1,0.9-0.3,1.4-0.4c0.3-0.1,0.6-0.2,0.9-0.4
		c0.9-0.5,1.9-1.1,2.8-1.6c0,0,0,0,0.1-0.1c0.8-0.7,1.7-1.3,2.4-2c0.6-0.6,1.2-1.3,1.8-2c0.4-0.5,0.7-1.2,1-1.8c0.6-0.9,0.8-2,1.2-3
		c0-0.1,0-0.2,0.1-0.3c0.1-0.3,0.1-0.7,0.2-1c0.3-1,0.5-2,0.4-3.1c0-0.3,0.1-0.6,0.1-0.9c0.1-0.7,0.2-1.4,0.2-2.1c0-1-0.1-2-0.1-3
		C172.8,67.1,172.8,66,172.5,65.1z M152.7,46.6c0-0.8,0.1-1.6,0.1-2.4c0-0.2,0-0.4-0.1-0.5c0-0.4,0-0.8,0-1.2c0-0.4,0-0.7,0-1.1
		c0-0.4,0-0.8,0-1.1c0-0.2,0-0.4,0-0.6c0-0.9,0-1.8,0-2.7c0-0.4,0.1-0.6,0.5-0.5c0.5,0,0.9,0,1.4,0.1c0.8,0.1,1.6,0.2,2.4,0.5
		c1.7,0.7,3,1.8,3.4,3.8c0.1,0.7,0.2,1.3,0.4,2c0.1,0.9,0,1.7-0.1,2.5c-0.2,0.7-0.3,1.5-0.6,2.2c-0.4,0.9-1,1.8-2,2.3
		c-0.3,0.1-0.6,0.3-0.9,0.4c-0.5,0.2-1,0.3-1.5,0.5c-0.6,0.1-1.2,0.2-1.8,0.4c-1.2-0.1-1.2-0.2-1.2-1.4c0-0.9,0-1.8,0-2.7
		C152.7,46.8,152.7,46.7,152.7,46.6z M162.4,75.1c-0.2,0.9-0.6,1.7-1.1,2.5c-0.4,0.7-0.9,1.3-1.5,1.9c-0.3,0.3-0.8,0.5-1.2,0.8
		c-0.8,0.6-1.8,0.9-2.7,1.2c-0.9,0.2-1.8,0.3-2.7,0.5c-0.3,0.1-0.5-0.1-0.5-0.5c0-0.8,0-1.6,0-2.4c0-0.6,0-1.2-0.1-1.8
		c0-0.1,0-0.1,0-0.2c0-1.1,0.1-2.1,0.1-3.2c0-0.1,0-0.1,0-0.2c0-1.1,0-2.2-0.1-3.3c0-0.3,0-0.5,0-0.8c0-0.7,0-1.4,0-2.1
		c0-0.8,0-1.5,0-2.3c0-0.6,0-1.2,0-1.8c0-0.9,0-1.9,0-2.8c0-0.5,0.1-0.7,0.6-0.6c1.1,0.1,2.2,0.2,3.2,0.3c0.2,0,0.4,0.1,0.5,0.2
		c0.2,0.1,0.4,0.3,0.7,0.3c0.7,0.2,1.2,0.6,1.7,1c0.4,0.4,0.8,0.9,1.1,1.4c0.4,0.7,0.7,1.4,1.1,2.1c0.2,0.4,0.4,0.8,0.5,1.2
		c0.2,0.8,0.4,1.5,0.6,2.3c0.1,0.7,0.1,1.4,0.1,2c0,0,0,0,0.1,0C162.7,72.3,162.7,73.7,162.4,75.1z"/>
	<path d="M202.3,86.4c0-0.9,0-1.9,0-2.8c0-0.7,0-1.3,0-2c0-0.3-0.2-0.5-0.5-0.5c-0.9,0-1.7-0.1-2.6-0.1c-1.5,0-2.9,0.1-4.4,0.1
		c-1.3,0-2.6,0-4-0.1c-0.2,0-0.4-0.1-0.4-0.3c0-0.7-0.2-1.3,0-2c0-0.2,0-0.4,0-0.5c0-1.2,0-2.4-0.1-3.6c0-0.6,0-1.2,0-1.8
		c0-0.6,0-1.2,0-1.8c0-0.4,0-0.8,0-1.2c0-0.3,0-0.6,0-1c0-0.6,0-1.2,0-1.9c0-0.7,0-1.3,0-2c0-1,0,1.1,0,0.1c0-0.6,0-1.2,0-1.8
		c0-0.6,0.1-0.7,0.7-0.6c1,0,1.9,0.1,2.9,0.1c1.2,0,2.4-0.1,3.6-0.1c0.1,0,0.2,0,0.3,0c0.5,0,1.1,0.1,1.6,0.1c0.4,0,0.8,0,1.1,0
		c0.6,0,0.7-0.1,0.7-0.7c0-1.1,0-2.2,0-3.4c0-0.7,0-1.4,0-2.1c0-0.9-0.1-1.9,0-2.8c0-0.7,0-0.8-0.7-0.8c-0.9,0-1.8,0.1-2.7,0.2
		c-1.3,0-2.7,0-4-0.1c-1,0-1.9,0-2.9,0c-0.3,0-0.5-0.1-0.5-0.4c0-0.9-0.1-1.8-0.1-2.7c0-0.9,0-4.8,0-5.6c0-0.6,0-1.2,0-1.8
		c0-0.2,0-0.3,0-0.5c0-0.5,0-1,0.1-1.5c0-0.3,0.1-0.7,0.1-1c0-0.5,0-1-0.1-1.5c0-0.5,0.1-0.6,0.7-0.6c0.5,0,1,0.1,1.6,0.1
		c1.2,0,2.4-0.1,3.6-0.1c1.4,0,2.7,0.1,4.1,0.1c0,0,0,0,0,0c0.2,0,0.3,0,0.5,0c0.2,0,0.3,0,0.5,0c0.4,0,0.5-0.1,0.5-0.6
		c0-0.3-0.1-0.5-0.1-0.8c0-0.9,0.1-1.8,0-2.8c-0.1-0.9,0.1-1.9,0.1-2.9c0-0.6,0-1.2,0-1.8c0.1-0.8-0.1-1-0.9-1c-1.3,0-2.5,0-3.8,0
		c-0.4,0-0.8,0-1.1,0c-1.2,0-2.4,0.1-3.6,0.1c-1,0-1.9,0-2.9,0c-0.9,0-1.7,0-2.6-0.1c-0.2,0-0.5,0-0.7,0c-0.7,0-1.3,0.1-2,0.1
		c-0.6,0-1.1,0-1.7,0c-0.7,0-1.3,0-2,0c-0.5,0-0.6,0.1-0.6,0.6c0,1.2,0,2.5,0,3.7c0,0.3-0.1,0.6-0.1,0.9c0,0.7,0,1.4,0,2.1
		c0,1,0,1.9,0,2.9c0,0.1,0,0.1,0,0.2c0,0.4,0,0.8,0,1.2c0,0.2,0,0.4,0,0.5c0,1.3,0.1,2.6,0.1,3.8c0,1-0.3,2,0,2.9c0,0.1,0,0.3,0,0.4
		c0,0.6-0.1,1.2-0.1,1.8c0,0.9,0.1,1.9,0.1,2.8c0,1.4,0,2.7,0,4.1c0,0.6,0.1,1.1,0.1,1.7c0,1,0,2,0,3c0,1.2,0.1,2.4,0.1,3.6
		c0,1,0,1.9,0,2.9c0,0.8-0.1,1.5-0.1,2.3c0,0.4,0,0.8,0,1.1c0,0.4-0.1,0.8,0,1.2c0,0.7,0.1,1.4,0.1,2.1c0,0.3-0.1,0.6-0.1,0.9
		c0,0.5,0,1,0,1.4c0,0.1,0.1,0.3,0.1,0.4c-0.1,0.8,0,1.5,0,2.3c0,1.1,0,2.2-0.1,3.2c0,0.8,0,1.6,0,2.4c0,0.3,0,0.7,0,1
		c0,1.5-0.1,3.1-0.1,4.6c0,0.1,0,0.3,0,0.4c0,0.3,0.2,0.5,0.6,0.5c0.5,0,1-0.1,1.4-0.1c1.2,0,2.3,0,3.5,0c1.2,0,2.4,0,3.5,0
		c0.9,0,1.8,0,2.7,0c1,0,2,0,3,0c0.6,0,1.2,0,1.8,0c1,0,2,0.1,2.9,0.1c0.8,0,1.6,0,2.4,0c0.4,0,0.6-0.1,0.5-0.6c0-0.4,0-0.8,0-1.3
		C202.3,88.1,202.3,87.3,202.3,86.4z"/>
	<path d="M252.5,61.3c-0.1-0.2-0.2-0.4-0.3-0.5c-0.2-0.3-0.4-0.6-0.6-0.8c-0.5-0.7-0.9-1.5-1.6-2c-1-0.8-1.9-1.5-2.9-2.3
		c0,0-0.1-0.1-0.1-0.1c-0.4-0.3-0.4-0.5-0.1-0.8c0.5-0.5,1-0.9,1.5-1.4c0.8-0.9,1.6-1.8,2.1-3c0.2-0.5,0.5-1,0.7-1.5
		c0.1-0.2,0.2-0.5,0.3-0.7c0.1-0.4,0.2-0.9,0.4-1.3c0.4-0.9,0.3-1.9,0.5-2.9c0.1-0.7,0-1.5,0-2.2c0-0.4-0.1-0.8-0.1-1.2
		c0-1-0.2-2-0.6-2.9c-0.2-0.6-0.5-1.2-0.7-1.9c-0.3-0.9-1-1.6-1.4-2.5c-0.1-0.1-0.2-0.2-0.3-0.3c-0.3-0.3-0.5-0.5-0.8-0.8
		c-0.7-0.8-1.4-1.5-2.4-1.9c-0.2-0.1-0.4-0.3-0.7-0.4c-0.6-0.3-1.3-0.7-1.9-1c-0.9-0.3-1.8-0.6-2.8-0.7c-1.8-0.3-3.6-0.6-5.5-0.5
		c-0.4,0-0.9,0-1.3,0c-0.9,0-1.7-0.1-2.6-0.1c-0.5,0-0.9,0.1-1.4,0.1c-0.6,0-1.2-0.1-1.8-0.1c-1.2,0-2.4,0.1-3.6,0.1
		c-0.5,0-0.6,0.1-0.6,0.6c0,1.4,0,2.7,0,4.1c0,1.8,0,3.7,0.1,5.5c0,0.1,0,0.3,0,0.4c0,1.4-0.1,2.7-0.1,4.1c0,1.2,0.1,2.5,0.1,3.7
		c0,1.1-0.1,2.3-0.1,3.4c0,0.8,0,1.5,0.1,2.3c0.1,1.7-0.1,3.5,0,5.2c0.1,1.5-0.1,3.1-0.1,4.6c0,0.2,0,0.3,0,0.5c0,0.7,0,1.5,0,2.2
		c0,0.9,0,1.7,0,2.6c0,0.7,0.1,1.4,0.1,2.2c0,1,0,2,0,2.9c0,1.3,0,2.5,0,3.8c0,0.6,0,1.1,0,1.7c0,0.5,0,0.9,0,1.4c0,1,0.1,2,0.1,3
		c0,1.1-0.1,2.1-0.1,3.2c0,1.8,0,3.6,0,5.4c0,0.5,0.2,0.7,0.7,0.6c0.3,0,0.6-0.1,0.9-0.1c1.1,0,2.2,0.1,3.3,0.1c0.6,0,1.2,0.1,1.8,0
		c0.6-0.1,1.2-0.1,1.8,0c0.3,0.1,0.5,0,0.8,0c1-0.1,2.1-0.2,3.1-0.3c0,0,0,0.1,0,0.1c0.3,0,0.7-0.1,1-0.1c0.8-0.1,1.7-0.2,2.5-0.4
		c1-0.2,2-0.5,3-0.8c1-0.4,1.9-0.9,2.8-1.4c1.2-0.7,2.3-1.5,3.3-2.5c0.5-0.5,1-1.1,1.5-1.6c0.7-0.8,1.4-1.6,1.7-2.7
		c0-0.1,0.2-0.3,0.2-0.4c0.1-0.3,0.3-0.5,0.4-0.8c0.5-1.3,0.7-2.6,1-3.9c0.3-1.4,0.4-2.9,0.4-4.3c0-0.8-0.1-1.7,0-2.5
		c0.2-1.1-0.1-2.2-0.2-3.2C253.7,64.3,253.2,62.8,252.5,61.3z M233.9,46.8c0-0.8,0-1.6,0-2.4c0-1.2,0-2.5,0-3.7c0-0.1,0-0.1,0-0.2
		c0-0.8,0-1.5,0.1-2.3c0-0.4,0-0.8,0-1.2c-0.1-0.8,0.2-1,1-0.9c0.6,0.1,1.2,0.1,1.8,0.3c0.8,0.2,1.7,0.4,2.5,0.8
		c1.2,0.7,2.1,1.7,2.5,3.1c0.3,1.2,0.5,2.5,0.4,3.8c0.1,1-0.2,2-0.6,3c-0.6,1.5-1.8,2.5-3.2,3c-0.9,0.3-1.8,0.5-2.8,0.6
		c-0.3,0.1-0.6,0-0.9,0c-0.4,0-0.6-0.3-0.6-0.7c0-0.7,0.1-1.3,0.1-2C234,47.7,233.9,47.3,233.9,46.8z M244,71.4c-0.1,1-0.1,2-0.3,3
		c-0.2,1-0.6,2-1.1,2.9c-0.6,1-1.5,1.6-2.2,2.5c-0.1,0.1-0.1,0.1-0.2,0.2c-1.2,0.6-2.3,1.2-3.6,1.4c-0.6,0.1-1.2,0.2-1.7,0.3
		c-0.6,0.1-0.7-0.1-0.7-0.6c0-1.6,0-3.1,0-4.7c0-1.1,0-2.2,0-3.3c0,0,0,0,0.1,0c0-0.7,0-1.5,0-2.2c0-0.2,0-0.3,0-0.5
		c0-0.4,0-0.8,0-1.2c0-0.5,0-1.1,0-1.6c0-0.7,0-1.3,0-2c0-0.6,0-1.1,0-1.7c0-0.7,0-1.5,0-2.2c0-0.4,0-0.8,0-1.2
		c0-0.5,0.1-0.6,0.6-0.6c1.5,0,3,0.2,4.3,0.8c1.3,0.6,2.5,1.5,3.1,2.9c0.1,0.1,0.2,0.3,0.3,0.4c0.3,0.6,0.7,1.2,0.9,1.8
		c0.3,1,0.5,2,0.8,3C244.1,69.6,244,70.5,244,71.4z"/>
	<path d="M290.9,43.9c0-0.1,0-0.2,0-0.3c-0.1-0.4-0.1-0.9-0.2-1.3c-0.1-0.5-0.2-1-0.3-1.6c0-0.2-0.1-0.4-0.1-0.6
		c-0.3-0.8-0.6-1.7-0.9-2.5c0-0.1-0.1-0.2-0.1-0.3c-0.6-0.9-1.1-1.8-1.7-2.7c-0.4-0.6-0.9-1.3-1.5-1.8c-0.5-0.5-1-0.8-1.5-1.2
		c-1-0.9-2.1-1.6-3.2-2.1c-1.2-0.5-2.4-1.1-3.7-1.2c-1.2-0.2-2.3-0.5-3.5-0.6c-1.2-0.1-2.4-0.3-3.7-0.2c-0.5,0.1-1.1,0-1.7,0
		c-1.7,0-3.3,0-5,0c-1.2,0-2.3,0-3.5,0c-0.5,0-0.7,0.2-0.7,0.7c0,1.6,0,3.2,0,4.8c0,1.2,0.1,2.4,0.1,3.6c0,0.9-0.1,1.8,0,2.8
		c0.1,1.4,0,2.7,0,4.1c0,1.2-0.1,2.5-0.1,3.7c0,0.4,0.1,0.9,0.1,1.3c0,0.8-0.1,1.6-0.1,2.4c0,0.6,0,1.2,0,1.8c0,0.9,0.1,1.8,0,2.7
		c-0.1,1.5-0.2,3,0.1,4.5c0,0.3,0,0.6,0,0.8c0,0.6,0,1.1,0,1.7c0,0.1,0,0.3,0,0.4c-0.2,1.6-0.1,3.2,0,4.9c0,0.2,0,0.5,0,0.7
		c0,0.5-0.1,1-0.1,1.5c0,1.5,0.1,2.9,0.1,4.4c0,1.3-0.1,2.6-0.1,4c0,0.9,0.1,1.8,0.1,2.7c0,0.7,0,1.4,0,2.1c0,0.8,0,1.5,0,2.3
		c0,0.4-0.1,0.8-0.1,1.1c0,1.2,0,2.4,0.1,3.6c0,0.3,0.1,0.5,0.5,0.5c0.6,0,1.1,0,1.7,0c0.8,0,1.5-0.1,2.3,0c0.9,0,1.8,0.2,2.8,0
		c0.2,0,0.3,0,0.5,0c0.4,0,0.8,0.1,1.2,0.1c0,0,0,0,0,0c0.2,0,0.5,0,0.7,0c0.5,0,0.6-0.1,0.6-0.6c0-0.6-0.1-1.3-0.1-1.9
		c0-0.9,0-1.8,0-2.7c0-0.1,0-0.3,0-0.4c0-1,0-2,0-2.9c0-0.8-0.1-1.6,0-2.5c0-0.8,0.1-1.5,0.1-2.3c0-1.1,0-2.3,0-3.4
		c0-1.6-0.1-3.3-0.1-4.9c0-1,0-2,0.1-2.9c0-0.3,0.2-0.4,0.5-0.4c0.9,0,1.7,0,2.6,0c0.4,0,0.6,0.1,0.7,0.5c0.3,1.1,0.6,2.2,1,3.2
		c0.3,0.8,0.6,1.7,0.8,2.5c0.2,0.5,0.3,1.1,0.4,1.7c0.4,1.1,0.8,2.2,1.1,3.3c0.1,0.4,0.2,0.9,0.4,1.3c0.3,1.1,0.6,2.2,0.9,3.3
		c0,0.1,0.1,0.2,0.1,0.3c0.3,0.9,0.6,1.8,0.9,2.7c0.3,0.9,0.5,1.9,0.8,2.8c0.2,0.9,0.5,1.8,0.7,2.6c0.1,0.3,0.2,0.6,0.5,0.6
		c0.8,0,1.7,0,2.5,0c0.4,0,0.8,0,1.2,0c0.9,0,1.9,0.1,2.8,0.1c0.8,0,1.6,0,2.4,0c0.1,0,0.1,0,0.2,0c0.4,0,0.5-0.2,0.4-0.6
		c-0.1-0.4-0.2-0.8-0.3-1.2c-0.1-0.4-0.2-0.7-0.3-1.1c-0.5-1.4-1.1-2.9-1.4-4.4c0-0.1-0.1-0.3-0.1-0.4c-0.3-0.9-0.6-1.8-0.9-2.8
		c-0.1-0.3-0.1-0.7-0.2-1c-0.4-1.3-0.9-2.6-1.3-3.9c-0.1-0.4-0.1-0.8-0.3-1.2c-0.3-0.9-0.6-1.8-0.9-2.8c-0.2-0.6-0.4-1.3-0.5-1.9
		c-0.2-0.7-0.3-1.4-0.5-2c-0.4-1.3-0.8-2.7-1.2-4c-0.1-0.3,0-0.4,0.2-0.6c0.8-0.7,1.6-1.4,2.3-2.1c0.7-0.8,1.4-1.7,2.1-2.6
		c1.3-1.8,2.3-3.8,2.9-5.9c0.4-1.7,0.9-3.3,0.8-5C291,46.1,291.2,45,290.9,43.9z M281,48.4c-0.1,0.5-0.1,0.9-0.2,1.4
		c-0.3,0.9-0.4,1.9-1,2.6c-0.3,0.3-0.6,0.7-0.8,1c-0.9,1.3-2.3,1.8-3.6,2.4c-0.2,0.1-0.5,0.1-0.7,0.1c-0.5,0.1-1.1,0.3-1.6,0.4
		c-0.5,0.1-1,0.1-1.6,0.1c0,0,0,0,0-0.1c-0.4,0-0.7,0-1.1,0.1c-0.3,0-0.5-0.1-0.5-0.5c0-0.8,0-1.5,0-2.3c0-0.6-0.1-1.2-0.1-1.8
		c0-1,0-1.9,0-2.9c0-0.1,0-0.2,0-0.3c0.3-0.8,0.1-1.6,0-2.5c0-0.9,0-1.8,0-2.7c0-0.8-0.1-1.7-0.1-2.5c0-1.2,0-2.4,0-3.5
		c0-0.3,0.2-0.4,0.5-0.4c1,0.1,1.9,0.1,2.9,0.2c0.9,0.1,1.9,0.2,2.8,0.5c1.3,0.5,2.5,1.3,3.2,2.6c0.1,0.2,0.3,0.4,0.4,0.6
		c0.1,0.2,0.3,0.3,0.3,0.4c0.4,1.2,1,2.4,1.1,3.7c0,0.9,0.1,1.7,0.1,2.6C281.1,47.9,281,48.1,281,48.4z"/>
	<path d="M328.8,89.4c-0.4-1.9-0.8-3.7-1.3-5.6c0-0.1,0-0.3-0.1-0.4c-0.2-1.3-0.5-2.5-0.7-3.8c-0.2-1-0.5-2-0.7-3.1
		c-0.2-1.2-0.4-2.4-0.6-3.6c-0.1-0.7-0.4-1.5-0.5-2.2c-0.3-1.5-0.8-3-0.9-4.5c0-0.2-0.1-0.3-0.2-0.5c-0.1-0.2-0.2-0.4-0.2-0.6
		c-0.4-1.9-0.6-3.9-1.2-5.8c-0.1-0.3-0.1-0.6-0.1-0.9c-0.1-0.5-0.1-1-0.2-1.5c-0.2-1-0.5-2.1-0.8-3.1c-0.4-1.9-0.8-3.7-1.1-5.6
		c-0.2-0.8-0.4-1.7-0.5-2.5c-0.2-1.1-0.4-2.3-0.6-3.4c-0.2-0.9-0.4-1.7-0.6-2.6c-0.6-2.7-1.2-5.5-1.7-8.2c-0.2-1.2-0.5-2.4-0.7-3.5
		c-0.1-0.5-0.2-0.6-0.7-0.5c-0.9,0-1.8,0-2.7,0c-0.4,0-0.8,0-1.2,0c-0.6,0-1.2,0.1-1.8,0.1c-1,0-1.9-0.1-2.9-0.1c0,0,0,0.1,0,0.1
		c-0.2,0-0.4,0-0.7,0c-0.7,0-0.8,0.2-0.9,0.8c-0.1,1.1-0.3,2.3-0.5,3.4c-0.2,0.9-0.4,1.8-0.5,2.8c-0.2,1.4-0.5,2.9-0.7,4.3
		c0,0.2-0.1,0.4-0.1,0.5c-0.3,1.1-0.5,2.3-0.8,3.4c0,0.1,0,0.3,0,0.4c-0.1,0.5-0.1,1-0.2,1.5c-0.1,0.7-0.3,1.4-0.4,2.1
		c-0.2,1.1-0.3,2.2-0.5,3.3c-0.1,0.7-0.3,1.5-0.5,2.2c-0.1,0.3-0.1,0.6-0.1,0.9c-0.2,1-0.5,2-0.6,3c-0.2,1.7-0.5,3.4-0.9,5
		c-0.2,1-0.3,2-0.4,2.9c-0.1,0.5-0.2,1-0.3,1.5c-0.2,1-0.4,2-0.6,3.1c0,0.1,0,0.2,0,0.3c0,0.3-0.1,0.6-0.2,0.9
		c-0.1,0.5-0.4,1.1-0.3,1.6c0,1-0.4,1.9-0.4,2.9c0,0.5-0.1,1-0.3,1.5c-0.3,1-0.5,2.1-0.6,3.2c0,0.2-0.1,0.4-0.1,0.5
		c-0.2,1.1-0.5,2.2-0.7,3.3c-0.1,0.5-0.2,1-0.3,1.5c-0.1,0.3-0.1,0.6-0.1,0.9c0,0.3,0,0.6-0.1,0.9c-0.1,0.6-0.3,1.2-0.4,1.9
		c-0.1,0.6-0.2,1.3-0.3,1.9c-0.1,0.5,0.1,0.6,0.5,0.6c0.5,0,1,0,1.4,0c0.4,0,0.7,0,1.1,0c0.2,0,0.5,0,0.7,0c0.4,0,0.8,0.1,1.2,0
		c1.6-0.3,3.2,0.1,4.9,0c0.4,0,0.5-0.1,0.6-0.5c0.1-0.7,0.2-1.4,0.3-2.1c0.1-0.6,0.2-1.1,0.3-1.7c0.1-0.7,0.2-1.5,0.3-2.2
		c0.1-0.4,0.3-0.8,0.4-1.3c0.2-1.2,0.3-2.3,0.5-3.5c0.3-1.5,0.6-3,0.8-4.5c0-0.1,0-0.2,0-0.3c0.1-0.5,0.1-0.9,0.3-1.4
		c0-0.2,0.3-0.3,0.5-0.3c0.2-0.1,0.4,0,0.6,0c0.9,0,1.8,0.1,2.7,0.1c1,0,2.1-0.1,3.1-0.1c0.4,0,0.6,0.1,0.7,0.5
		c0.1,0.4,0.2,0.7,0.2,1c0.1,0.4,0.2,0.8,0.3,1.2c0.2,1.2,0.5,2.4,0.7,3.5c0.2,1,0.4,2,0.6,3c0.2,0.9,0.4,1.8,0.7,2.7
		c0.1,0.3,0.2,0.7,0.3,1c0.3,1.5,0.5,2.9,0.8,4.4c0,0.1,0.3,0.4,0.4,0.4c0.7,0,1.4,0.1,2,0c1.3,0,2.6-0.1,3.9-0.1
		c1.2,0,2.4,0.1,3.6,0.1c0.5,0,0.6-0.1,0.5-0.6C328.9,89.9,328.8,89.6,328.8,89.4z M313.2,64.4c-0.4,0-0.8-0.1-1.1-0.1
		c-1,0-2,0-2.9,0c-0.5,0-0.7-0.3-0.5-0.7c0.5-1.5,0.3-3.1,0.7-4.6c0.3-1.3,0.3-2.7,0.4-4c0.1-0.5,0.2-1.1,0.3-1.6
		c0.1-0.7,0.1-1.4,0.2-2c0.1-0.6,0.2-1.2,0.2-1.9c0-0.4,0-0.8,0.1-1.2c0.1-0.3,0.2-0.8,0.3-0.8c0.4,0,0.4,0.4,0.4,0.7
		c0.2,1.4,0.5,2.8,0.7,4.3c0,0.2,0,0.4,0,0.6c0,0,0,0,0,0c0.1,0.6,0.1,1.2,0.2,1.8c0.2,1.6,0.5,3.2,0.8,4.8c0.1,0.9,0.3,1.7,0.5,2.6
		c0.1,0.6,0.2,1.1,0.2,1.7C313.7,64.3,313.5,64.4,313.2,64.4z"/>
	<path d="M358,27.5c-1.2,0-2.3,0-3.5,0c-0.3,0-0.6,0-0.9,0c-0.6,0-1.2,0.1-1.8,0.1c-1,0-2-0.1-3-0.1c-0.3,0-0.5,0.1-0.5,0.4
		c-0.1,0.7-0.2,1.3-0.4,2c-0.2,1.3-0.5,2.7-0.7,4c-0.2,1.2-0.4,2.3-0.6,3.5c-0.1,0.5-0.2,0.9-0.3,1.4c-0.2,1.1-0.4,2.1-0.6,3.2
		c0,0.1,0,0.1,0,0.2c0,0.3-0.1,0.6-0.1,0.9c-0.1,0.6-0.2,1.2-0.3,1.8c-0.1,0.3-0.1,0.7-0.1,1c-0.1,0.8-0.3,1.5-0.4,2.3
		c-0.1,0.4-0.2,0.8-0.2,1.3c-0.1,0.8-0.3,1.5-0.4,2.3c-0.1,0.4-0.1,0.7-0.2,1.1c-0.2,1-0.4,2-0.6,3c-0.1,0.6,0,1.2-0.3,1.8
		c-0.1,0.2-0.1,0.5-0.1,0.7c-0.1,0.6-0.2,1.3-0.3,1.9c-0.1,0.5-0.2,1-0.3,1.5c-0.1,0.4-0.2,0.8-0.3,1.2c0,0-0.1,0-0.1,0
		c-0.1-0.5-0.3-1-0.4-1.5c-0.1-0.6-0.2-1.3-0.4-2c-0.1-0.4-0.2-0.8-0.3-1.2c-0.2-1.1-0.3-2.2-0.5-3.3c-0.2-1.1-0.4-2.1-0.6-3.1
		c0-0.2-0.1-0.5-0.1-0.7c-0.1-0.4-0.2-0.9-0.2-1.3c-0.1-0.6-0.2-1.2-0.3-1.8c-0.1-0.8-0.2-1.6-0.3-2.4c-0.2-1-0.4-1.9-0.6-2.9
		c-0.2-0.9-0.3-1.7-0.5-2.6c0-0.1,0-0.2,0-0.4c-0.2-1-0.3-2-0.5-3c0-0.2-0.1-0.4-0.2-0.6c-0.3-1.6-0.5-3.3-0.8-4.9
		c0-0.2-0.1-0.3-0.1-0.5c-0.1-0.4-0.2-0.8-0.2-1.3c-0.1-0.5-0.1-0.9-0.2-1.4c-0.1-0.3-0.3-0.5-0.6-0.5c-1.1,0-2.3,0-3.4-0.1
		c-0.9,0-1.9,0-2.8,0c-1,0-2,0-3,0c-0.3,0-0.5,0.1-0.5,0.5c0.1,0.7,0.2,1.3,0.3,2c0.2,0.9,0.4,1.8,0.5,2.7c0,0.1,0,0.2,0,0.2
		c0.2,1.3,0.5,2.7,0.7,4c0.2,1,0.4,2.1,0.7,3.1c0.2,1.1,0.5,2.2,0.7,3.3c0.2,1.2,0.3,2.4,0.7,3.5c0.4,1.5,0.7,3.1,1,4.7
		c0.1,0.7,0.3,1.3,0.4,2c0.2,0.9,0.3,1.9,0.5,2.8c0.2,1.1,0.5,2.2,0.7,3.3c0.2,1,0.3,2.1,0.6,3.1c0.1,0.6,0.4,1.2,0.5,1.9
		c0.1,0.8,0.2,1.7,0.4,2.5c0.3,0.9,0.4,1.9,0.5,2.8c0.3,1.5,0.6,2.9,0.9,4.4c0.3,1.6,0.7,3.1,1,4.7c0.1,0.5,0.1,1,0.2,1.6
		c0.2,1.4,0.6,2.7,0.8,4.1c0.2,1.3,0.5,2.5,0.7,3.8c0.1,0.5,0.2,1,0.3,1.5c0.1,0.5,0.3,0.8,0.9,0.8c1.1,0,2.2,0,3.3,0
		c0.6,0,1.1,0,1.7,0c1,0,1.9,0,2.9,0c0.3,0,0.4-0.2,0.5-0.5c0.2-1,0.4-1.9,0.6-2.9c0-0.2,0-0.3,0.1-0.5c0.1-0.6,0.2-1.3,0.4-1.9
		c0.1-0.5,0.3-1,0.4-1.5c0.2-1.3,0.5-2.5,0.7-3.8c0.2-0.9,0.3-1.8,0.5-2.7c0.2-1,0.4-2.1,0.6-3.1c0.2-0.9,0.5-1.9,0.7-2.8
		c0-0.2,0.1-0.3,0.1-0.5c0-0.5,0-1,0.3-1.5c0.1-0.1,0.1-0.3,0.1-0.4c0.1-0.4,0.1-0.8,0.2-1.2c0.4-2,0.8-3.9,1.2-5.9
		c0.4-1.8,0.7-3.5,1-5.3c0.1-0.3,0.1-0.5,0.2-0.8c0.2-0.8,0.3-1.6,0.5-2.4c0.2-1,0.5-2.1,0.7-3.1c0-0.2,0-0.3,0-0.5
		c0.1-0.7,0.3-1.5,0.4-2.2c0.1-0.4,0.2-0.7,0.3-1.1c0.3-1.4,0.5-2.7,0.7-4.1c0.2-1.1,0.5-2.2,0.7-3.2c0-0.1,0-0.1,0-0.2
		c0.2-0.9,0.3-1.9,0.5-2.8c0.2-0.8,0.3-1.7,0.5-2.5c0.3-1.3,0.5-2.7,0.8-4c0.1-0.4,0.2-0.8,0.3-1.3C358.8,27.6,358.6,27.4,358,27.5z
		"/>
	<path d="M386.8,83.7c0-0.7,0-1.4,0-2c0-0.6-0.1-0.7-0.7-0.7c-0.4,0-0.7,0.1-1.1,0.1c-0.6,0-1.2,0-1.7,0c-0.6,0-1.2,0.1-1.8,0.1
		c-1.1,0-2.2-0.1-3.3-0.1c-1,0-1.9,0-2.9,0.1c-0.4,0-0.5-0.1-0.5-0.5c0-0.4,0-0.9,0-1.3c0-0.6,0-1.2,0-1.8c0-0.7,0.1-1.5,0.1-2.2
		c0-1.3,0-2.7,0-4c0-0.5,0-1,0-1.5c0-0.7,0-1.5-0.1-2.2c0-0.1,0-0.2,0-0.2c0-0.4,0-0.8,0-1.1c0-0.6-0.1-1.2-0.1-1.8
		c0-1.4,0-2.8,0.1-4.2c0-0.1,0-0.2,0-0.3c0-0.5,0.1-0.6,0.6-0.5c0.4,0,0.8,0.2,1.2,0.1c0.9-0.2,1.7-0.1,2.5,0c0.6,0,1.3,0.1,2,0
		c1.4,0,2.8-0.2,4.2,0c0.4,0,0.6-0.1,0.6-0.5c0-0.4-0.1-0.7-0.1-1.1c0-1.1,0-2.2,0-3.2c0-1.1,0-2.1,0.1-3.2c0-0.4,0.1-0.8,0.1-1.1
		c0-0.3-0.1-0.5-0.4-0.6c-0.5,0-1,0-1.6,0c-0.3,0-0.6,0.1-0.9,0.1c-0.9,0-1.7,0-2.6-0.1c-1.3,0-2.7,0-4,0c0,0,0,0.1,0,0.1
		c-0.3,0-0.6,0-0.9,0c-0.3,0-0.4-0.1-0.4-0.4c0-1.3-0.1-2.5-0.1-3.8c0-1.2-0.1-2.4,0-3.6c0.1-1.2,0-2.3-0.1-3.5
		c-0.1-1.5,0.1-1.6,1.5-1.6c0.1,0,0.2,0,0.3,0c0.4,0,0.8,0.1,1.2,0.1c0.9,0,1.7-0.1,2.6-0.1c0.7,0,1.4,0,2.1,0
		c0.4,0,0.7,0.1,1.1,0.1c0.8,0,1.6,0,2.4,0c0.3,0,0.5-0.1,0.5-0.4c0-0.5,0-0.9-0.1-1.4c0-0.8-0.1-1.6-0.1-2.4c0-1.6,0.1-3.3,0.1-4.9
		c0-0.3-0.1-0.5-0.5-0.6c-0.4,0-0.8-0.1-1.3-0.1c-1.2,0-2.3,0.1-3.5,0.1c-0.1,0-0.2,0-0.3,0c-1,0-2,0-3.1-0.1c-0.5,0-1-0.1-1.6,0
		c-0.9,0-1.8,0.1-2.7,0.1c-0.9,0-1.7-0.1-2.6-0.1c-1,0-1.9,0.1-2.9,0.1c-1,0-2,0-3,0c-0.5,0-0.6,0.1-0.6,0.6c0,0.7,0.1,1.4,0,2
		c0,1.5-0.1,3-0.1,4.4c0,1.1,0,2.2,0.1,3.3c0,0.6,0,1.2,0,1.8c0,0.5,0,1.1,0,1.6c0,0.5,0.1,1.1,0.1,1.6c0,1.1-0.1,2.1-0.2,3.2
		c0,0.1,0,0.3,0,0.4c0,0.9,0.1,1.9,0.1,2.8c0,1.2,0,2.4-0.1,3.7c0,1.2,0,2.3,0,3.5c0,0.6,0,1.2,0,1.8c0.1,1.3,0.2,2.5,0.1,3.8
		c-0.1,0.8,0,1.6-0.1,2.4c-0.1,1.2,0,2.4,0,3.6c0,0.8,0,1.7,0,2.5c0,0.7,0.1,1.5,0.1,2.2c0,0.6-0.1,1.2-0.1,1.8c0,1.5,0,2.9,0.1,4.4
		c0,1.1,0,2.2,0.1,3.3c0,0.3,0,0.6,0,0.9c0,0.5-0.1,1.1-0.1,1.6c0,0.4,0.1,0.7,0.1,1.1c0,1,0,2-0.1,3c0,0.4,0,0.8-0.1,1.2
		c-0.1,0.6,0.2,0.8,0.7,0.7c0.4-0.1,0.7-0.2,1.1-0.2c0.6,0,1.3,0,1.9,0c0.2,0,0.4,0,0.7,0c1.1,0,2.2,0.1,3.4,0.1c0,0,0.1,0,0.1,0
		c0.4,0,0.7,0,1.1,0c1.3,0,2.6,0,3.8,0c0.7,0,1.3-0.1,2,0c1.1,0.1,2.3,0.2,3.4,0c0.2,0,0.4,0,0.6,0c1,0.1,2,0.1,3,0.1
		c0.1,0,0.4-0.2,0.4-0.3c0.1-0.7,0.1-1.4,0.1-2c0-0.3,0-0.7,0-1.1C386.8,86.1,386.8,84.9,386.8,83.7z"/>
	<path d="M185.5,14.7c0.4-0.5,0.3-1.1-0.1-1.5c-0.4-0.3-1-0.2-1.4,0.3c-0.4,0.5-0.9,1-1.3,1.5c-0.5,0.5-1.1,1.1-1.7,1.6
		c-1.2,1-2.5,2-3.7,3c-0.3,0.3-0.7,0.4-1.1,0.7c-0.9,0.6-2.6-0.2-3.1-1c-0.1-0.1,0-0.2,0.1-0.3c0.3-0.2,0.6-0.4,0.8-0.7
		c0.6-0.7,1.3-1.3,1.9-2.1c0.7-0.8,1.3-1.7,1.6-2.8c0.1-0.6,0.2-1.2,0.3-1.9c0.1-0.5,0-1-0.2-1.5c-0.2-0.6-0.7-1-1.3-1.1
		c-0.5-0.1-1,0-1.4,0.2c-0.8,0.4-1.5,1-2.1,1.7c-0.5,0.6-1,1.3-1.2,2.1c-0.3,1.1-0.5,2.2-0.7,3.3c-0.1,0.6-0.2,1.3-0.1,1.9
		c0,0.1-0.1,0.3-0.2,0.4c-0.8,0.8-1.6,1.6-2.5,2.2c-0.3,0.2-0.6,0.4-0.9,0.6c-0.1,0.1-0.3,0.1-0.3-0.1c0-0.6-0.1-1.1,0.2-1.7
		c0.3-0.5,0.5-1,0.8-1.4c0.7-1.4,1.3-2.8,2-4.2c0.4-0.8,0.6-1.7,0.5-2.6c0-0.3-0.1-0.6-0.4-0.9c-0.5-0.5-1-0.5-1.6-0.3
		c-1.1,0.2-2.1,0.8-3.1,1.4c-0.9,0.6-1.5,1.4-2.1,2.2c-0.2,0.3-0.5,0.6-0.7,0.9c0,0-0.1,0-0.1,0c0-0.1,0.1-0.2,0.1-0.4
		c0.5-1,1-2,1.5-3c0.2-0.5,0.5-1,0.7-1.6c0.5-1.1,0.9-2.2,1.4-3.3c0-0.1,0.2-0.2,0.3-0.2c0.6-0.1,1.1-0.2,1.7-0.2
		c1.4-0.1,2.9-0.3,4.3-0.3c1-0.1,2-0.1,3-0.1c0.7,0,1.4,0,2.1,0c0.5,0,1.1,0,1.6,0.1c0.4,0,0.9,0.1,1.3,0.1c1,0.1,2.1,0.3,3.1,0.5
		c0.4,0.1,0.7,0,1-0.4c0.4-0.6,0.1-1.4-0.7-1.5c-2-0.4-4.1-0.6-6.2-0.7c-2.4,0-4.7,0-7.1,0.2c-1.1,0.1-2.1,0.2-3.2,0.3
		c-0.2,0-0.3-0.1-0.2-0.3c0.1-0.3,0.2-0.6,0.4-0.9c0.2-0.4,0.1-0.9-0.2-1.2c-0.3-0.3-0.8-0.3-1.1-0.1c-0.2,0.2-0.4,0.4-0.5,0.6
		c-0.2,0.7-0.7,1.3-1,1.9c-0.1,0.1-0.2,0.2-0.3,0.2c-1.8,0.3-3.6,0.6-5.4,0.8c-0.1,0-0.2,0-0.3,0c0.1-0.1,0.1-0.2,0.2-0.3
		c0.5-0.8,1-1.6,1.5-2.4c0.3-0.4,0.4-0.9,0.6-1.4c0.2-0.5-0.2-1-0.6-1.1c-0.6-0.1-1.1,0.2-1.2,0.7c0,0.2-0.1,0.3-0.2,0.5
		c-1,1.5-2,3-2.9,4.5c-0.1,0.1-0.3,0.2-0.4,0.2c-0.4,0.1-0.7,0.1-1.1,0.2c-3.1,0.7-6.2,1.4-9.3,2.1c-0.8,0.2-1.5,0.4-2.2,0.6
		c-0.4,0.1-0.7,0.5-0.7,1c0,0.4,0.3,0.8,0.7,0.9c0.2,0,0.4,0,0.7,0c3.4-0.9,6.9-1.7,10.3-2.4c0.1,0,0.2,0,0.4,0
		c-0.1,0.1-0.1,0.2-0.1,0.3c-0.1,0.2-0.3,0.4-0.4,0.7c-0.4,0.7-0.8,1.4-1.1,2.1c-0.5,0.8-1,1.6-1.4,2.5c-0.8,1.6-1.4,3.3-1.8,5.1
		c-0.2,0.9-0.3,1.7-0.1,2.6c0.3,1.5,1.4,2,2.6,2c1-0.1,1.9-0.6,2.6-1.3c0.8-0.9,1.6-1.8,2.4-2.8c0.9-1.2,1.9-2.4,2.8-3.6
		c0.1-0.1,0.2-0.2,0.2-0.3c0,0,0,0,0.1,0c0,0.1,0,0.2-0.1,0.3c-0.3,0.6-0.6,1.1-0.9,1.7c-0.7,1.3-1.3,2.6-2,3.9
		c-0.2,0.4-0.1,1,0.3,1.2c0.4,0.3,1,0.2,1.4-0.3c0.1-0.2,0.2-0.3,0.4-0.5c0.6-0.7,1.2-1.4,1.7-2.1c0.7-0.9,1.4-1.8,2.2-2.7
		c0.6-0.6,1.1-1.3,1.7-1.9c0.4-0.5,0.8-1,1.2-1.4c0.6-0.6,1.3-1.1,2.1-1.4c0.2-0.1,0.3-0.1,0.5-0.2c0,0.2,0,0.4-0.1,0.5
		c-0.3,0.6-0.6,1.2-0.9,1.8c-0.5,1.2-1,2.3-1.6,3.4c-0.3,0.6-0.7,1.2-0.7,1.8c0,0.6,0,1.2,0,1.9c0,0.4,0.2,0.7,0.4,1
		c0.6,0.6,1.4,0.8,2.2,0.4c0.6-0.3,1.2-0.6,1.7-1c0.7-0.5,1.4-1.1,2-1.7c0.2-0.1,0.3-0.1,0.4,0c0.5,0.7,1.2,1.1,1.9,1.4
		c1.3,0.5,2.5,0.5,3.7-0.2c0.6-0.4,1.2-0.8,1.8-1.2c1.3-1,2.6-2.1,3.9-3.2C183.8,16.6,184.7,15.7,185.5,14.7z M159.6,12.2
		c-0.8,1.1-1.6,2.2-2.4,3.3c-0.8,1-1.6,2.1-2.4,3.1c-0.7,0.8-1.4,1.6-2.1,2.4c-0.2,0.2-0.5,0.4-0.8,0.6c-0.5,0.3-0.9,0-0.9-0.6
		c0-0.5,0-1,0.1-1.5c0.3-1.4,0.8-2.7,1.3-4c0.3-0.8,0.7-1.6,1.2-2.4c0.5-0.8,0.9-1.7,1.4-2.6c0.5-0.9,1.1-1.8,1.6-2.6
		c0.1-0.1,0.3-0.2,0.4-0.2c1.4-0.2,2.8-0.5,4.2-0.7c0.5-0.1,1-0.2,1.5-0.2c0.1,0,0.2,0,0.4,0c0,0.1-0.1,0.2-0.1,0.2
		c-0.7,1.1-1.3,2.3-2,3.4C160.5,10.9,160,11.5,159.6,12.2z M172.7,16.7C172.7,16.7,172.6,16.7,172.7,16.7c-0.1-0.1-0.1-0.2,0-0.3
		c0.2-0.9,0.4-1.9,0.7-2.8c0.1-0.6,0.5-1,0.9-1.5c0.3-0.4,0.7-0.7,1.1-1c0.1-0.1,0.2-0.1,0.3-0.1c0,0.1,0.1,0.2,0.1,0.3
		c0,1.5-0.6,2.8-1.6,3.9c-0.4,0.5-0.8,0.9-1.3,1.4C172.8,16.6,172.7,16.7,172.7,16.7z"/>
	<path fill="#FFFFFF" d="M163,6.6c-0.2,0-0.3,0-0.4,0c-0.5,0.1-1,0.1-1.5,0.2c-1.4,0.2-2.8,0.5-4.2,0.7c-0.1,0-0.3,0.1-0.4,0.2
		c-0.6,0.9-1.1,1.7-1.6,2.6c-0.5,0.8-0.9,1.7-1.4,2.6c-0.5,0.8-0.9,1.5-1.2,2.4c-0.5,1.3-1,2.6-1.3,4c-0.1,0.5-0.1,1-0.1,1.5
		c0,0.6,0.4,0.8,0.9,0.6c0.3-0.1,0.6-0.3,0.8-0.6c0.7-0.8,1.4-1.6,2.1-2.4c0.8-1,1.6-2,2.4-3.1c0.8-1.1,1.6-2.2,2.4-3.3
		c0.5-0.6,1-1.2,1.4-1.9c0.7-1.1,1.3-2.3,2-3.4C163,6.8,163,6.7,163,6.6z"/>
	<path fill="#FFFFFF" d="M175.7,11.3c0-0.1-0.1-0.2-0.1-0.3c-0.1,0-0.2,0-0.3,0.1c-0.4,0.3-0.8,0.6-1.1,1c-0.4,0.4-0.8,0.9-0.9,1.5
		c-0.2,0.9-0.4,1.9-0.7,2.8c0,0.1,0,0.2,0,0.3c0,0,0,0,0.1,0c0,0,0.1-0.1,0.1-0.1c0.4-0.5,0.9-0.9,1.3-1.4
		C175.1,14.1,175.7,12.8,175.7,11.3z"/>
</g>
<g>
	<g id="oVTuLB_2_">
		<g>
			<path fill-rule="evenodd" clip-rule="evenodd" d="M41.6,12.9c1.6-0.4,2.7-1.6,4.5-1.6c2.3,0,4.5-0.7,6.8-0.5
				c2.5,0.2,4.9,0.5,7.4,1c1,0.2,1.9,0.9,2.8,1.4c1.1,0.6,2.3,1.1,3.4,1.7c0,0-0.2,0.2-0.3,0.3c0.3,0.3,0.6,0.5,0.6,0.8
				c0.9,2.6,2,5.2,2.2,8c0.1,1.8,0.3,3.5,0.5,5.3c0,0.4,0.2,0.8,0.3,1.1c-0.2,0.4-0.5,0.9-0.9,1.6c0.9,0,1.6,0.1,2.3,0
				c1.4-0.1,2.7-0.3,4.1-0.4c1.1-0.1,2.2,0,3.3,0c2.2-0.1,4.5-0.2,6.7-0.5c1.9-0.3,3,0.5,3.8,1.7c-0.2,0.6-0.4,1.1-0.6,1.5
				c-0.5,0.4-1.1,0.8-1.4,1.1c-0.7,0-1.4,0.1-2.1,0.1c-0.6,0-1.2,0-1.8,0c-0.9,0-1.8,0-2.7,0c0,0.1,0,0.2,0,0.3
				c0.2,0.1,0.3,0.3,0.5,0.4c1.4,0.8,2.8,1.6,4.1,2.5c0.3,0.2,0.4,0.7,0.7,0.9c0.7,0.5,1.7,0.8,2.2,1.5c1.4,1.9,3.5,3,4.7,5.1
				c0.7,1.3,1.9,2.2,2.8,3.4c0.8,1,1.5,2,2.1,3c0.6,1,1.3,1.9,1.8,3.1c0.7,1.9,1.6,3.6,2.4,5.4c0.1,0.3,0.4,0.5,0.6,0.8
				c0.4,1.6,0.9,3.2,1.4,4.8c0.5,1.5,0.8,3.2,1.8,4.7c0,0-0.2,0.2-0.2,0.3c0.3,1.1,0.6,2.2,0.8,3.2c0.1,0.2,0.1,0.4,0.1,0.6
				c0.1,1.9,0.1,3.8,0.2,5.7c0,0.8,0,1.5,0,2.3c0,1.2,0,2.4-0.1,3.5c0,0.2-0.3,0.5-0.5,0.7c0.1,2.5-0.6,4.8-1.3,7.2
				c-0.3-0.2-0.5-0.3-0.6-0.3c-0.2,1-0.4,1.9-0.7,2.9c-0.5,1.2-1.4,2.4-1.6,3.7c-0.2,1.6-1.2,2.7-1.8,4c-0.8,1.6-1.7,3.3-3.1,4.6
				c-2.1,2-3.8,4.4-5.8,6.5c-1.3,1.4-2.7,2.7-4.2,3.8c-2.1,1.6-4.1,3.3-6.7,4.2c-1.6,0.5-3,1.5-4.5,2.2c-1,0.4-2,0.7-2.9,1.1
				c-0.6,0.3-1.2,0.6-1.6,0.8c1.2,2,2.3,3.9,3.5,5.8c0.3,0.6,0.8,1,1.3,1.5c0,0.1-0.1,0.5,0,0.7c0.5,0.6,0.8,1.2,1.1,1.9
				c0.5,1.3,1.5,2.5,2.2,3.7c0.1,0.1,0.1,0.2,0.1,0.3c0.2,0.7,0.4,1.3,0.7,2c0.8,1.8,1.6,3.6,2.4,5.4c0.5,1,1.1,2,1.6,2.9
				c2.1-0.9,4-1.8,5.9-2.7c-0.1-0.2-0.1-0.4-0.3-0.7c0.5,0.1,0.9,0.4,1.3,0.4c0.9-0.2,1.7-0.5,2.5-0.9c0.5-0.2,0.9-0.5,1.3-0.7
				c0.7-0.2,1.5-0.4,2.3-0.6c0.6-0.2,2.4,0.6,2.7,1.3c0,0.1,0,0.4,0,0.4c-0.6,0.2-0.4,0.8-0.6,1.2c-0.6,1.4-1.1,2.8-2.2,3.9
				c-1.4,1.3-2.6,2.8-4.2,3.8c-1.3,0.8-2.2,2.3-4,2.2c-0.1,0-0.2,0.2-0.4,0.3c-0.2,0.2-0.5,0.3-0.8,0.5c-0.7,0.5-2.1,0-1.9,1.4
				c-0.4,0-0.8-0.1-1.1,0c-0.4,0.1-0.7,0.5-1.1,0.6c-0.9,0.2-1.8,0.4-2.7,0.5c-0.5,0.1-1.2,0.4-1.4,0.2c-0.8-0.8-2.1-1-2.2-2.4
				c0-0.6-0.6-1.2-1-1.6c-0.8-1-1.8-1.9-2.5-2.9c-0.6-0.8-0.9-2-1.7-2.6c-0.9-0.7-1.4-1.7-2-2.6c-1.1-1.7-2-3.5-3-5.3
				c-0.3-0.4-0.8-0.7-1.1-1.2c-0.8-1.1-1.6-2.3-2.4-3.3c-1.4-1.6-2.4-3.7-4.4-4.6c-0.6,1.5-1.1,3-1.7,4.6c0,0-0.2-0.1-0.2-0.1
				c-0.7,1.7-1.5,3.4-2.2,5c-0.3,0.1-0.9,0.1-1.1,0.3c-0.6,0.8-0.9,1.7-1.4,2.6c-0.1,0.2-0.3,0.4-0.4,0.7c-0.5,0.6-0.5,1.7-1.5,1.8
				c-0.5,0.1-1,0.3-1.6,0.4c-0.5,0.1-1,0.1-1.5,0c-0.9-0.1-1.8-0.3-2.7-0.4c-0.3-0.2-0.7-0.5-1.1-0.7c-0.9-0.4-2.1-0.5-2.6-1.2
				c-0.7-0.9-1.6-1.3-2.5-1.7c-0.2-0.1-0.4-0.2-0.7-0.3c-0.4-0.1-1.1-0.4-1.1-0.3c-0.4,0.7-1.2,1.3-0.7,2.1
				c-0.2,0.1-0.4,0.2-0.5,0.4c-0.1,0.1,0,0.3,0,0.4c-0.2,0.3-0.5,0.5-0.7,0.9c-0.3,0.5-0.5,1-0.7,1.5c-0.9,1.5-1.7,3-2.8,4.5
				c-0.6,0.8-1.1,1.9-2.4,2c-0.3,0-0.6,0.2-0.9,0.3c-0.5-0.3-1.1-0.5-1.3-0.9c-0.4-0.8-0.6-1.7-0.7-2.5c-0.3-2.2-0.5-4.5-0.8-6.7
				c-0.1-0.7,0.2-1.6-0.1-2.2c-0.6-1.3-0.3-2.5-0.5-3.8c0-0.2-0.2-0.6-0.1-0.7c0.8-0.6,0.3-1.4,0.4-2.1c0.1-1.2,0.4-2.3,1.1-3.4
				c0.1-0.2,0.4-0.4,0.6-0.4c1.4-0.1,2.8-0.3,4.2-0.3c1.8,0.1,3.6,0.4,5.4,0.7c0.8,0.1,1.6,0.6,2.4,0.8c1.3,0.3,2.6,0.5,3.8,0.7
				c0.5-1.3,0.9-2.6,1.4-3.9c-0.6-0.6-0.4-2.1,0.6-2.8c-2.2,0.1-4.2-0.3-6.2-0.9c-0.3-0.1-0.6-0.5-0.9-0.5c-1.3,0.2-2.4-0.1-3.6-0.6
				c-0.5-0.2-1.1-0.3-1.7-0.5c-1.3-0.4-2.6-0.8-3.8-1.4c-1.4-0.6-2.7-1.3-4.1-2c-1.2-0.6-2.5-1.3-3.8-2.1c0.4-0.2,0.5-0.2,0.7-0.3
				c-1.2-0.2-2.3-0.3-3.4-0.5c0-0.1,0-0.2,0-0.3c0.2-0.1,0.4-0.2,0.6-0.3c-0.2-0.1-0.4-0.3-0.5-0.4c-0.2-0.2-0.3-0.3-0.5-0.5
				c-0.4-0.4-0.7-1-1.1-1c-1.4-0.3-2-1.4-2.8-2.2c-0.5-0.5-0.9-1.1-1.4-1.7c-0.6-0.7-1.2-1.3-1.7-2c-0.6-0.8-1.2-1.7-1.5-2.7
				c-0.5-1.2-1.6-2.1-1.8-3.5c-0.1-0.7-0.7-1.4-0.9-2.1c-0.5-1.6-1.4-3-2-4.5c-0.4-1.2-0.5-2.5-1-3.6c-0.8-1.8-1-3.8-1.3-5.7
				c-0.2-1.5-0.4-2.9-0.9-4.3C1,88,1.1,87.4,1,86.9c-0.2-1.1-0.5-2.2-0.7-3.3c-0.1-0.5,0-0.9,0-1.4C0.2,80.9,0,79.6,0,78.3
				c0-1.5,0.2-3.1,0.4-4.6c0.3-1.8,0.6-3.6,1.1-5.4c0.3-1.2,1.1-2.3,1.2-3.5c0.1-1.5,1-2.7,1.3-4.2c0.3-1.3,1.1-2.5,1.9-3.7
				c1.1-1.9,2.2-3.7,3.4-5.5c0.8-1.1,1.9-2,3-3c1-1,2.2-1.8,3.2-2.8c1.3-1.1,2.5-2.5,3.9-3.3c2.2-1.3,4.5-2.3,6.9-3.4
				c1.2-0.5,2.5-0.7,3.7-1c0.5-0.1,1.1-0.3,1.6-0.5c0-0.1,0-0.2-0.1-0.3c-0.6,0-1.3,0-1.9,0c-1,0-2.1,0.1-3.1,0
				c-1.1-0.1-2.1-0.4-3.1-0.4c-1.5,0-3.1,0.2-4.6,0.3c-0.8,0-1.7-0.1-2.5-0.1c-0.8,0-1.4-0.9-2.3-0.4c0,0-0.1,0-0.2-0.1
				c0-0.1,0.1-0.3,0-0.2c-0.5-0.5-0.9-1-1.2-1.4c0.6-0.2,1-0.4,1.5-0.5c-0.2-0.2-0.5-0.4-0.6-0.5c0.7-0.7,1.2-1.2,1.8-1.8
				c0.7,0.2,1.5,0.7,2.3,0.8c1.3,0.2,2.7,0.2,4,0.4c1.4,0.1,2.8,0.3,4.3,0.4c1,0.1,2-0.2,2.9,0c1.3,0.3,2.5-0.1,3.8-0.1
				c0.3,0,0.6,0.2,0.7,0.2c0.4-0.1,0.6-0.2,0.9-0.2c0.6,0,1.2,0.1,1.8,0.1c0.6,0,0.8-0.2,0.8-0.9c0-0.6,0.2-1.3,0.3-1.9
				c0.1-1.2,0.3-2.4,0.4-3.5c0-0.1-0.2-0.2-0.3-0.3c-0.1-0.1-0.3-0.3-0.4-0.4c0.2,0,0.4,0,0.5,0c-0.1-0.6-0.2-1.2-0.4-1.8
				c-0.4-1.3-0.2-2.6,0.4-3.8c0.1-0.2,0.2-0.5,0.2-0.7c0.1-0.6,0-1.2,0.2-1.8c0.3-0.7,0.8-1.4,1.2-2c0.2-0.3,0.5-0.6,0.8-0.9
				c0.4-0.4,0.8-0.8,1.3-1.2c-0.4-0.1-0.7-0.1-1.1-0.2C40.6,13.8,41,13,41.6,12.9z M90.1,52c0.3-0.8,0.5-1.7,0.7-2.6
				c0.1-0.3-0.2-0.7-0.4-1c-0.3-0.4-0.7-0.7-1-1c-0.8-0.8-1.5-1.6-2.2-2.4c-0.2-0.3-0.5-0.5-0.8-0.7c-1.7-1.5-3.3-3.1-5.1-4.5
				c-0.6-0.5-1.6-0.5-2.1-1c-1-1.1-2.3-1.3-3.4-1.8c-1.3-0.7-2.8-1.1-4.3-1.3c-0.5-0.1-1,0.3-1.6,0.4c-0.8,0.1-1.7,0.4-2.5,0.5
				c-0.2,0-0.4-0.3-0.6-0.5c-0.1,0.2-0.2,0.5-0.3,0.7c-0.4,0.1-0.7-1-1.1-0.1c0,0.1-0.5,0-0.7-0.1c-0.5-0.1-0.9-0.4-1.4-0.3
				c-2.2,0.2-4.3,0.5-6.5,0.6c-2,0.1-3.9-0.2-5.9-0.1c-1.5,0-3,0-4.5,0.5c-1.3,0.5-2.8,0.6-4.2,0.9c-0.5,0.1-1.1,0-1.5,0.2
				c-0.4,0.1-0.6,0.5-0.9,0.9c-0.2-0.2-0.4-0.4-0.5-0.4C38.5,39,38,39,37.4,39.2c-1.7,0.5-3.3,0.9-5,1.4c-1.6,0.5-3.2,1-4.8,1.6
				c-1.1,0.4-2,1-3.1,1.4c-0.9,0.4-1.8,0.7-2.5,1.2c-1.1,0.8-2,1.8-3,2.7c-0.1,0.1-0.1,0.2-0.2,0.2c-1.2,1-2.5,2-3.7,2.9
				c-0.1,0-0.1,0.1-0.1,0.1c3.1,5,5.9,10.2,9.5,15c0.5-1.1,0.9-1.9,1.2-2.7c0.5-1.2,0.9-2.5,1.5-3.7c0.9-1.8,1.8-3.6,2.7-5.3
				c0.6-1.1,1.3-2.1,1.9-3.2c0.4-0.6,0.8-1.1,1.1-1.7c0.4-0.8,0.7-1.7,1.2-2.5c0.1-0.2,0.5-0.4,0.7-0.5c0.5,0.7,1.5,0.6,1.9-0.1
				c1.4,0.6,2.1,1.8,2.6,3.1c0.1,0.3,0.3,0.7,0.5,0.9c1.4,1.4,1.9,3.2,2.8,4.9c1.1,2.1,2.2,4.2,3.3,6.2c0.5,1,1.1,1.9,1.7,2.9
				c1-2.3,2-4.7,3.1-7c0.6-1.3,1.4-2.5,2.1-3.8c0.4-0.8,0.6-1.6,1-2.4c0.2-0.5,0.7-0.9,1-1.4c0.8-1.7,1.6-3.4,2.3-5
				c0.2-0.5,0.5-1.1,0.6-1.7c0.2-1.3,1.1-0.7,1.7-0.6c2.1,0.1,2.6,1.9,3.4,3.3c1.7,2.8,3.4,5.7,5.1,8.5c0.9,1.5,1.5,3.1,2.3,4.6
				c0.2,0.4,0.6,0.7,1,1.2c0.4-0.8,0.7-1.5,0.9-2.1c0.6-1.6,1.1-3.3,1.9-4.8c0.6-1.3,1.6-2.3,2.3-3.6c0.6-1.2,1.1-2.5,1.6-3.8
				c0.2-0.5,0.2-1,0.9-0.9c0-0.3,0-0.7,0-1c0.4,0.1,0.8,0.1,1.1,0.2c0.8,0.3,1.5,0.7,2.1,0.9c0,0.3-0.1,0.6,0,0.8
				c0.8,1.7,1.5,3.4,2.5,5c0.7,1.2,1.3,2.4,1.6,3.8c0.2,1,0.6,2,1,3c0.1,0.2,0.5,0.3,0.8,0.6C88.7,55.8,89.4,53.9,90.1,52z
				 M77.9,117.5c-0.3,0.1-0.5,0.2-0.7,0.3c-0.5,0.3-0.9,0.2-1.5-0.1c-1.6-0.9-2.6-2.3-3.7-3.5c-1-1-1.8-2.1-2.4-3.3
				c-0.1-0.3-0.6-0.4-0.7-0.7c-0.3-0.6-0.6-1.3-1-1.9c-0.9-1.3-1.9-2.6-2.8-4c-0.5-0.8-1.1-1.5-1.6-2.3c-0.1,0.1-0.2,0.1-0.3,0.1
				c-0.6,1.2-1.2,2.5-1.7,3.7c-0.4,1.1-0.5,2.4-0.8,3.5c-0.3,0.9-0.9,1.7-1.2,2.6c-0.3,0.8-0.4,1.6-0.7,2.5c-0.3,1-0.7,2-1.1,3
				c-0.4,1,0,2.2-1,3c-0.3,0.2-0.7,0.3-1.1,0.4c0-0.1-0.1-0.2-0.1-0.3c-0.2,0.3-0.4,0.5-0.6,0.9c-0.3-0.4-0.5-0.7-0.7-1
				c-0.6,0.1-1,0.2-1.3-0.7c-0.3-1.1-1.2-2-1.9-3c-0.7-1-1.4-2-2-3c-1.2-2.1-2.3-4.2-3.4-6.3c-0.6-1.1-1-2.3-1.6-3.4
				c-0.4-0.8-1.1-1.6-1.8-2.6c-0.5,1.8-0.9,3.5-1.4,5.3c-0.4,1.5-0.9,2.9-1.3,4.4c-0.4,1.3-0.8,2.6-1.1,3.9
				c-0.1,0.3,0.1,0.7,0.2,1.2c-0.7-0.1-0.8,1.7-2,0.4c0,0.5-0.1,0.8-0.1,1.4c-1.5-1.1-3-2.1-4.4-3.2c0.1,0,0.1,0,0.2-0.1
				c-0.3-0.4-0.5-0.9-0.8-1.3c-0.9-1.2-1.8-2.3-2.7-3.5c-0.8-1-1.4-2.2-2.2-3.2c-0.2-0.3-0.5-0.4-0.8-0.7c-1.1,1.7-1.4,3.5-1.7,5.3
				c0,0.1,0,0.3,0,0.4c-1,1.8-1.6,3.7-1.9,5.7c-0.1,0.6-0.3,1.3-0.7,1.9c-0.2,0.3-0.7,0.3-1.3,0.4c1.3,0.7,2.5,1.4,3.7,2.1
				c0.5,0.3,0.9,0.6,1.5,0.8c1.7,0.5,3.4,1.3,5.1,2c0.9,0.4,1.9,0.9,2.8,1.3c0.5,0.2,1,0.4,1.5,0.6c1.7,0.4,3.5,0.9,5.2,1.2
				c1.7,0.3,3.3,0.4,5,0.6c1.9,0.2,3.8,0.5,5.7,0.5c2.7,0,5.4-0.3,8.1-0.6c1.8-0.2,3.7-0.3,5.5-0.6c1.1-0.2,2.2-1,3.3-1.2
				c0.7-0.2,1.2-0.7,2.1-0.5c0.8,0.1,1.7-0.6,2.5-0.9c0.8-0.3,1.6-0.7,2.4-1c0.1,0,0.2,0,0.3-0.1c2-1,4-2,6.1-2.9
				c1.1-0.5,1.8-1.4,2.8-2.1c2.2-1.5,3.9-3.6,5.7-5.5c0.1-0.1,0.2-0.1,0.2-0.1c-2.1-2.2-4.3-4.3-5.7-7.3c-0.5,1.5-0.8,2.9-1.5,4
				c-0.8,1.2-1.3,2.4-2,3.6c-0.4,0.8-0.6,1.8-1,2.6c-0.3,0.8-0.7,1.5-1.2,2.5C78,118,77.9,117.8,77.9,117.5z M44.1,33.7
				c1.4-0.1,2.9-0.2,4.3-0.4c1.8-0.2,3.6-0.4,5.3-0.6c1.3-0.1,2.6-0.3,3.8-0.3c2.2-0.1,4.5-0.3,6.7-0.4c0.4,0,0.8-0.1,0.5-0.7
				c-0.1-0.3,0.2-0.7,0.3-1c0.1-0.9,0.3-1.7,0.3-2.6c0,0-0.7-0.1-1.1-0.2c-0.5-0.1-1-0.1-1.5-0.1c-1-0.1-1.9-0.3-2.9,0
				c-0.7,0.2-1.4,0-2.1,0c-1.2,0-2.3,0.1-3.5,0.1c-1,0-2-0.3-2.9-0.2c-1.1,0-2.3,0.2-3.4,0.3c-0.7,0.1-1.4,0.2-2.1,0.2
				c-1.7,0.1-3.3,0.1-5,0.2c-0.9,0-0.6,0.7-0.6,1.2c0,1.5,0.1,3.1,0.2,4.6C41.6,33.7,42.9,33.8,44.1,33.7z M87.3,90.1
				c0.2,0,0.3,0,0.5,0c-0.3-2.5,0-5.1-1-7.6C87,85,87.1,87.5,87.3,90.1z M79.4,85.3c0-0.2-0.1-0.5-0.2-0.7c0.8-0.2-0.1-0.8,0.3-1.1
				c-0.9-0.9-0.1-2-0.3-3c0-0.2,0.4-0.4,0.6-0.6c-0.1-0.1-0.1-0.1-0.2-0.2c-0.3,0.1-0.7,0.1-0.8,0.1c0,2.3,0,4.5,0,6.9
				C79.8,86.4,79.4,85.8,79.4,85.3z M93.2,79.2c-0.6,0.5-1.2,4.1-0.9,5.8c0.1,0,0.2,0,0.4,0C92.9,83.1,93.1,81.1,93.2,79.2z
				 M60,95.3c0.2,0,0.3,0,0.5,0.1c0.4,0,0.8,0.1,1.2,0.1c-0.1-0.3-0.2-0.7-0.2-1c0-0.4,0.2-0.8,0.3-1.3C60.4,93.1,60.7,94.7,60,95.3
				z M72.1,93c1-1.5,0.9-3,0.3-4.6c-0.1,0-0.2,0-0.3,0C72.2,89.9,72.1,91.4,72.1,93z M89.9,90.5c0.4-0.4,0.7-0.7,0.7-0.9
				c0-1.2-0.1-2.4-0.1-3.6c-0.2,0-0.3,0-0.5,0C89.9,87.5,89.9,88.8,89.9,90.5z M89.8,97.1c0.1,0,0.2,0,0.4,0
				c0.3-1.4,0.4-2.9-0.3-4.3C89.8,94.2,89.8,95.7,89.8,97.1z M79.7,75.9c-0.2-0.3-0.4-0.5-0.7-1c-0.1,0.8-0.4,1.4,0.3,1.9
				c0.1,0.1,0,0.5-0.1,0.8c-0.2,0.3-0.2,0.5,0.2,1c0.1,0.2,0.1,0.4,0.2,0.7c-0.2-1,1.1-2.1-0.5-3C79.4,76.1,79.5,76,79.7,75.9z
				 M76.8,114.3c0.2-0.8,0.4-1.5,0.6-2.3C75.7,112.3,75.6,113,76.8,114.3z M13.5,80.3c0.1,0,0.3,0,0.4,0c0.2-1.2,0.3-2.5-0.1-3.7
				c-0.1,0-0.2,0-0.3,0C13.5,77.8,13.5,79.1,13.5,80.3z M48.3,73.1c0.1,0.7,0.2,1.2,0.4,2c0.5-1.2,0.8-2.2,1.2-3.3
				C49.3,72.4,48.7,72.8,48.3,73.1z M85.4,89.6c0.1-0.1,0.4-0.4,0.4-0.5c-0.3-0.8,0.2-2-1.3-2.4C84.9,87.8,85.1,88.6,85.4,89.6z
				 M79.3,71.2c0.1,1,0.1,2,0.2,2.9c0.1,0,0.1,0,0.2,0c0.2-0.7,0.4-1.4,0.6-2.3C80,71.6,79.7,71.4,79.3,71.2z M59.3,52.7
				c-0.2,0.5-0.3,1-0.4,1.3c0.8-0.2,1.4-0.3,2.3-0.5C60.5,53.2,60,53,59.3,52.7z M41.2,96.7c-0.5,0.4-0.9,0.7-1.4,1.1
				c0.8,0.2,1.4,0.3,2.2,0.4C41.8,97.8,41.6,97.3,41.2,96.7z M26.7,101.8c-0.4,0.4-0.7,0.8-1,1.1c0.4,0.3,0.8,0.5,1.2,0.8
				c0.1-0.1,0.2-0.2,0.3-0.3C27,102.9,26.8,102.4,26.7,101.8z M93.9,61.7c-0.3,1.5-0.1,2.7,0.6,3C94.3,63.7,94.1,62.8,93.9,61.7z
				 M75.9,78c0.2,0.1,0.5,0.1,0.7,0.2c0.1-0.8,0.1-1.6,0.2-2.4c-0.1,0-0.2,0-0.3-0.1C76.4,76.4,76.2,77.2,75.9,78z M86.6,103.2
				c-0.4-0.3-0.8-0.5-1.2-0.7c-0.7,1.1,1,1,1,1.7C86.4,103.8,86.5,103.5,86.6,103.2z M35,88.4c0.4,0,0.9-0.1,1.5-0.1
				c-0.2-0.6-0.3-1-0.4-1.6C35.7,87.3,35.4,87.8,35,88.4z M15.7,63.1c0,0-0.1,0-0.2,0c-0.5,1.3,0.7,1.2,1.2,1.6
				c0.1-0.1,0.1-0.2,0.2-0.3C16.5,64,16.1,63.5,15.7,63.1z"/>
			<path fill-rule="evenodd" clip-rule="evenodd" d="M112.8,106.7c2,0.5,3.9,1.2,5.8,1.9c1.1,0.4,2.2,1,3.2,1.7
				c0.7,0.5,1.4,1.2,2,1.9c0.4,0.5,0.8,1.2,1,1.8c0.3,0.9,0.7,1.9,0.7,2.8c0,1-0.2,2.3-0.8,3c-0.7,0.9-2,1.4-3.1,1.9
				c-0.3,0.2-1,0.1-1.2-0.1c-0.5-0.8-1.3-0.8-1.9-1.3c-0.9-0.7-1.7-1.5-2.5-2.3c-1-1-1.8-2-2.7-3.1c-0.4-0.4-0.7-0.9-1-1.3
				c-0.2-0.3-0.3-0.8-0.6-1.1c-0.8-0.8-1.6-1.5-2.4-2.3c-0.8-0.7-1-1.6-0.9-2.6c0.7-0.3,1.9,0.3,1.9-1.1
				C111.2,106.7,112,106.5,112.8,106.7z M122,114.6c-1.3-1.7-3-2.5-5-2.9c-0.4-0.3-0.4-1.1-1.4-0.6c-0.3,0.1-0.8-0.4-1.3-0.5
				c2.1,3.2,4.7,6,8.1,7.9C123,117.5,122.7,115.6,122,114.6z"/>
			<path fill-rule="evenodd" clip-rule="evenodd" d="M132.4,85.6c0,0.3,0.4,0.7,0.4,0.9c-0.7,0.9-0.2,2.2-1.3,3
				c-0.7,0.5-1.1,1.4-2.1,1.4c-0.3,0-0.6,0.1-0.9,0.2c-1.4,0.4-2.7,0.7-4.2,0c-0.7-0.3-1.6-0.4-2.3-0.7c-0.7-0.3-1-1.4-2.1-1.1
				c0,0,0-0.1-0.1-0.2c-0.9-0.9-1.8-1.9-2.7-2.8c-0.6-0.6-1.3-1-1.7-1.7c-0.1-0.1-0.3-0.8,0.4-1.2c1-0.5,2.4,0,2.9-1.4
				c0,0,0.2,0,0.3,0c1.8-0.2,3.6-0.5,5.4-0.6c3-0.1,5.8,0.1,7.6,3c0.1,0.2,0.4,0.2,0.6,0.3C132.6,85.1,132.4,85.4,132.4,85.6z
				 M124.6,87.1c1.1,0.7,2.4,0.9,3.7,0.9c0.3-0.5,0.8-1.1,0.9-1.6c0.1-0.4-0.3-1.1-0.6-1.3c-1.7-0.7-3.5-0.7-5.4-0.7
				c-0.6,0-1.3,0.2-1.9,0.3c-0.1,0.1-0.1,0.2-0.2,0.3C122.3,85.7,123.5,86.4,124.6,87.1z"/>
		</g>
	</g>
	<path fill="#FFFFFF" d="M64.6,95.8c-0.5,0.2-0.6,0.4-0.3,0.6c0.5-0.3,0.3-0.8,0.3-1.2c0-1.1-0.1-2.3,0.1-3.3c0.3-1.4,0.5-3,0-4.5
		c-0.8-2.6-1.1-5.7-3.2-7.7c-0.9-0.8-2.1-2.1-3.2-2.6c-1.2-0.6-2.8-0.4-3.7,0.6c-0.6,0.7-1.5,1.5-1.8,2.5c-0.1,0.4-0.2,1-0.3,1.4
		c-0.1,0.4-0.2,1.3-0.5,1.7c-0.3-0.2-0.2-0.5-0.4-0.8c-0.2-0.3-0.6-0.6-0.9-0.8c-0.5-0.5-1-1.1-1.6-1.5c-0.4-0.2-0.8-0.4-1.2-0.6
		c-0.5-0.3-0.9-0.7-1.4-0.9c-0.7-0.3-1.6-0.6-2.3-0.5c-1,0.1-1.4,0.4-1.9,1.2c-0.4,0.6-0.8,1.3-1,2c-0.1,0.7,0.1,1.9,0.3,2.6
		c0.3,0.8,0.8,1.6,1.4,2.2c1.5,1.5,2.8,3,4.6,4.3c2.1,1.5,4.2,2.8,6.4,4c1,0.5,1.9,0.8,2.9,1.1c0.7,0.2,1.3,0.4,1.9,0.6
		c0.4,0.1,0.8,0,1.2,0.1c0.7,0.1,1.4,0.5,2,0.7c0.8,0.3,1.5,0.2,2.3,0.2"/>
</g>
<g>
	<path fill="none" d="M164.3,116.4c-0.1-0.6-0.1-1.2-0.2-1.7c0-0.2-0.1-0.3-0.2-0.5c-0.2-1-0.6-2-0.9-2.9c-0.1-0.2-0.2-0.3-0.3-0.4
		c-0.1-0.2-0.3-0.4-0.4-0.6c-0.7-1.4-1.9-2.1-3.2-2.6c-0.9-0.3-1.9-0.4-2.8-0.5c-1-0.1-1.9-0.2-2.9-0.2c-0.3,0-0.5,0.1-0.5,0.4
		c0,1.2,0,2.4,0,3.5c0,0.9,0.1,1.7,0.1,2.6c0,0.9-0.1,1.8,0,2.8c0,0.8,0.2,1.6,0,2.5c0,0.1,0,0.2,0,0.3c0,1,0,1.9,0,2.9
		c0,0,0,0,0,0.1c0,1.3,0,2.6,0,3.9c0,0.8,0,1.6,0,2.4c0,0.7-0.1,1.5,0.1,2.3c0.1,0.6,0.4,1.2,1,1.1c0.4-0.1,0.9-0.3,1.2-0.5
		c0.4-0.2,0.7-0.6,1.1-0.7c0.2,0,0.4,0,0.6,0c0.2-0.1,0.3-0.2,0.4-0.4c0.2-0.2,0.4-0.4,0.6-0.5c0.4-0.3,0.8-0.5,1.2-0.8
		c0.3-0.2,0.5-0.3,0.8-0.5c0.2-0.2,0.4-0.4,0.6-0.6c0.3-0.3,0.7-0.7,0.9-1.1c0.2-0.4,0.3-0.7,0.6-1.1c0.1-0.2,0.4-0.3,0.5-0.5
		c0.2-0.2,0.2-0.5,0.3-0.7c0.2-0.5,0.5-0.9,0.7-1.3c0.2-0.5,0.4-1,0.5-1.4c0.1-0.5,0.2-1,0.3-1.5c0-0.2,0-0.4,0.1-0.7
		c0.1-0.3,0.1-0.5,0.1-0.8c0-0.3-0.1-0.5-0.1-0.8C164.3,117.2,164.3,116.8,164.3,116.4z"/>
	<path fill="none" d="M201.2,119.2c-0.2-0.6-0.3-1.2-0.1-1.9c0-0.3-0.1-0.5-0.1-0.8c0.1,0.3,0.1,0.5,0.1,0.8
		C200.8,118,201,118.6,201.2,119.2z"/>
	<path fill="none" d="M307.2,129.6c-0.3-1.6-0.5-3.2-0.8-4.8c-0.1-0.6-0.2-1.2-0.2-1.8c0,0,0,0,0,0c0-0.2,0-0.4,0-0.6
		c-0.1-0.9-0.3-1.8-0.4-2.6c-0.2-1-0.5-2-0.7-3c-0.1-0.4-0.2-0.8-0.3-1.2c-0.1-0.2-0.2-0.4-0.4-0.5c-0.1-0.1-0.2,0-0.3,0.1
		c0,0.1,0,0.1,0,0.2c0,0.1-0.1,0.1-0.1,0.2c0,0.1,0,0.2-0.1,0.4c-0.1,0.2-0.1,0.3-0.1,0.4c-0.1,0.3-0.1,0.7-0.2,1
		c-0.1,0.2-0.1,0.4-0.1,0.6c-0.1,0.2-0.1,0.4-0.2,0.7c-0.1,0.2-0.1,0.5-0.1,0.7c0,0.2-0.1,0.3-0.1,0.5c0,0.1,0.1,0.3,0,0.4
		c0,0.4-0.1,0.8-0.2,1.2c-0.1,0.7-0.1,1.4-0.2,2c-0.1,0.5-0.3,1.1-0.3,1.6c-0.1,1.3-0.1,2.7-0.4,4c-0.3,1.5-0.2,3.1-0.7,4.6
		c-0.2,0.5,0.1,0.7,0.6,0.7c1,0,3.5,0,4.5,0c0.4,0,0.8,0,1.1,0.1c0.3,0,0.5-0.1,0.4-0.4c-0.1-0.6-0.1-1.1-0.2-1.7
		C307.5,131.4,307.3,130.5,307.2,129.6z"/>
	<path d="M323.1,159.5c-0.4-1.9-0.8-3.7-1.3-5.6c0-0.1,0-0.3-0.1-0.4c-0.2-1.3-0.5-2.5-0.7-3.8c-0.2-1-0.5-2-0.7-3.1
		c-0.2-1.2-0.4-2.4-0.6-3.6c-0.1-0.7-0.4-1.5-0.5-2.2c-0.3-1.5-0.8-3-0.9-4.6c0-0.2-0.1-0.3-0.2-0.5c-0.1-0.2-0.2-0.4-0.2-0.6
		c-0.4-1.9-0.6-3.9-1.2-5.8c-0.1-0.3-0.1-0.6-0.1-0.9c-0.1-0.5-0.1-1-0.2-1.6c-0.2-1.1-0.5-2.1-0.8-3.1c-0.4-1.9-0.8-3.7-1.1-5.6
		c-0.2-0.8-0.4-1.7-0.5-2.5c-0.2-1.1-0.4-2.3-0.6-3.4c-0.2-0.9-0.4-1.7-0.6-2.6c-0.6-2.7-1.2-5.5-1.7-8.2c-0.2-1.2-0.5-2.4-0.7-3.5
		c-0.1-0.5-0.2-0.6-0.7-0.5c-0.9,0-1.8,0-2.8,0c-0.4,0-0.8,0-1.2,0c-0.6,0-2.8,0.1-3.4,0.1c-1,0-1.9-0.1-2.9-0.1c0,0,0,0.1,0,0.1
		c-0.2,0-0.4,0-0.7,0c-0.7,0-0.8,0.2-0.9,0.8c-0.1,1.1-0.3,2.3-0.5,3.4c-0.2,0.9-0.4,1.8-0.6,2.8c-0.2,1.4-0.5,2.9-0.7,4.3
		c0,0.2-0.1,0.4-0.1,0.5c-0.3,1.2-0.5,2.3-0.8,3.5c0,0.1,0,0.3,0,0.4c-0.1,0.5-0.1,1-0.2,1.5c-0.1,0.7-0.3,1.4-0.4,2.1
		c-0.2,1.1-0.3,2.2-0.5,3.3c-0.1,0.7-0.3,1.5-0.5,2.2c-0.1,0.3-0.1,0.6-0.1,0.9c-0.2,1-0.5,2-0.6,3c-0.2,1.7-0.5,3.4-0.9,5
		c-0.2,1-0.3,2-0.4,2.9c-0.1,0.5-0.2,1-0.3,1.5c-0.2,1-0.4,2.1-0.6,3.1c0,0.1,0,0.2,0,0.3c0,0.3-0.1,0.6-0.2,0.9
		c-0.1,0.5-0.4,1.1-0.3,1.6c0,1-0.4,1.9-0.4,2.9c0,0.5-0.1,1-0.3,1.5c-0.3,1.1-0.5,2.1-0.6,3.2c0,0.2-0.1,0.4-0.1,0.5
		c-0.2,1.1-0.5,2.2-0.7,3.3c-0.1,0.5-0.2,1-0.3,1.5c-0.1,0.3-0.1,0.6-0.1,0.9c0,0.3,0,0.6-0.1,0.9c-0.1,0.6-0.3,1.2-0.4,1.9
		c-0.1,0.6-0.2,1.3-0.3,1.9c-0.1,0.5,0.1,0.6,0.5,0.6c0.5,0,1,0,1.5,0c0.4,0,0.7,0,1.1,0c0.2,0,0.5,0,0.7,0c0.4,0,0.9,0.1,1.3,0
		c1.6-0.3,3.3,0.1,4.9,0c0.4,0,0.5-0.1,0.6-0.5c0.1-0.7,0.2-1.4,0.3-2.1c0.1-0.6,0.2-1.1,0.3-1.7c0.1-0.7,0.2-1.5,0.3-2.2
		c0.1-0.4,0.3-0.8,0.4-1.3c0.2-1.2,0.3-2.3,0.5-3.5c0.3-1.5,0.6-3,0.8-4.5c0-0.1,0-0.2,0-0.3c0.1-0.5,0.1-0.9,0.3-1.4
		c0-0.2,0.3-0.3,0.5-0.3c0.2-0.1,0.4,0,0.6,0c0.9,0,3.4,0.1,4.3,0.1c1,0,2.1-0.1,3.1-0.1c0.4,0,0.6,0.1,0.7,0.5
		c0.1,0.4,0.2,0.7,0.2,1c0.1,0.4,0.2,0.8,0.3,1.3c0.2,1.2,0.5,2.4,0.7,3.5c0.2,1,0.4,2,0.6,3c0.2,0.9,0.4,1.8,0.7,2.7
		c0.1,0.3,0.2,0.7,0.3,1c0.3,1.5,0.5,2.9,0.8,4.4c0,0.2,0.3,0.4,0.4,0.4c0.7,0,1.4,0.1,2,0c1.3,0,2.6-0.1,3.9-0.1
		c1.2,0,2.4,0.1,3.6,0.1c0.5,0,0.6-0.1,0.5-0.6C323.2,160,323.1,159.7,323.1,159.5z M307.5,134.4c-0.4,0-0.8-0.1-1.1-0.1
		c-1,0-3.6,0-4.5,0c-0.5,0-0.7-0.3-0.6-0.7c0.5-1.5,0.3-3.1,0.7-4.6c0.3-1.3,0.3-2.7,0.4-4c0.1-0.6,0.2-1.1,0.3-1.6
		c0.1-0.7,0.1-1.4,0.2-2c0-0.4,0.1-0.8,0.2-1.2c0-0.1,0-0.3,0-0.4c0-0.2,0.1-0.3,0.1-0.5c0-0.2,0.1-0.5,0.1-0.7
		c0.1-0.2,0.1-0.4,0.2-0.7c0.1-0.2,0.1-0.4,0.1-0.6c0.1-0.3,0.2-0.7,0.2-1c0-0.2,0-0.3,0.1-0.4c0.1-0.1,0.1-0.2,0.1-0.4
		c0-0.1,0.1-0.1,0.1-0.2c0-0.1,0-0.1,0-0.2c0.1-0.1,0.2-0.1,0.3-0.1c0.2,0.1,0.3,0.3,0.4,0.5c0.1,0.4,0.2,0.8,0.3,1.2
		c0.3,1,0.6,2,0.7,3c0.1,0.9,0.3,1.8,0.4,2.6c0,0.2,0,0.4,0,0.6c0,0,0,0,0,0c0.1,0.6,0.1,1.2,0.2,1.8c0.2,1.6,0.5,3.2,0.8,4.8
		c0.1,0.9,0.3,1.7,0.5,2.6c0.1,0.6,0.2,1.1,0.2,1.7C307.9,134.3,307.8,134.4,307.5,134.4z"/>
	<path d="M173.9,113.8c0-0.1,0-0.2,0-0.3c-0.1-0.5-0.1-0.9-0.2-1.4c-0.1-0.5-0.2-1-0.3-1.6c0-0.2-0.1-0.4-0.1-0.6
		c-0.3-0.8-0.6-1.7-0.9-2.5c0-0.1-0.1-0.2-0.1-0.3c-0.6-0.9-1.1-1.8-1.7-2.7c-0.4-0.6-1-1.3-1.5-1.8c-0.5-0.5-1-0.8-1.5-1.2
		c-1-0.9-2.1-1.6-3.3-2.1c-1.2-0.5-2.4-1.1-3.7-1.2c-1.2-0.2-2.3-0.5-3.5-0.6c-1.2-0.1-2.4-0.3-3.7-0.2c-0.6,0.1-1.1,0-1.7,0
		c-1.7,0-3.3,0-5,0c-1.2,0-2.3,0-3.5,0c-0.5,0-0.7,0.2-0.7,0.7c0,1.6,0,3.2,0,4.8c0,1.2,0.1,2.4,0.1,3.7c0,0.9-0.1,1.9,0,2.8
		c0.1,1.4,0,2.8,0,4.1c0,1.2-0.1,2.5-0.1,3.7c0,0.4,0.1,0.9,0.1,1.3c0,0.8-0.1,1.6-0.1,2.4c0,0.6,0,1.2,0,1.8c0,0.9,0.1,1.8,0,2.8
		c-0.1,1.5-0.2,3,0.1,4.6c0,0.3,0,0.6,0,0.8c0,0.6,0,1.1,0,1.7c0,0.1,0,0.3,0,0.4c-0.2,1.6-0.1,3.2,0,4.9c0,0.2,0,0.5,0,0.7
		c0,0.5-0.1,1-0.1,1.5c0,1.5,0.1,2.9,0.1,4.4c0,1.3-0.1,2.7-0.1,4c0,0.9,0.1,1.8,0.1,2.8c0,0.7,0,1.4,0,2.1c0,0.8,0,1.5,0,2.3
		c0,0.4-0.1,0.8-0.1,1.1c0,1.2,0,2.4,0.1,3.6c0,0.3,0.1,0.5,0.5,0.5c0.6,0,1.1,0,1.7,0c0.8,0,1.5-0.1,2.3,0c0.9,0,1.8,0.2,2.8,0
		c0.2,0,0.3,0,0.5,0c0.4,0,0.8,0.1,1.2,0.1c0.2,0,0.5,0,0.7,0c0.5,0,0.6-0.1,0.6-0.6c0-0.6-0.1-1.3-0.1-1.9c0-0.9,0-1.8,0-2.7
		c0-0.1,0-0.3,0-0.4c0-1,0-2,0-2.9c0-0.8-0.1-1.6,0-2.5c0-0.8,0.1-1.5,0.1-2.3c0-1.2,0-2.3,0-3.5c0-0.5,0.1-1-0.1-1.5
		c0-0.1-0.2-0.2-0.1-0.4c0-0.4,0.7-0.6,1-0.7c0.6-0.3,1.2-0.5,1.8-0.8c0.2-0.1,0.5-0.1,0.7-0.2c0.2-0.1,0.4-0.2,0.7-0.3
		c0.6-0.2,1.1-0.6,1.7-0.8c0.5-0.2,1.1-0.3,1.7-0.6c0.5-0.2,1.1-0.5,1.6-0.8c0.5-0.3,0.9-0.5,1.4-0.8c0.2-0.2,0.5-0.3,0.8-0.5
		c0.2-0.2,0.4-0.5,0.7-0.7c0.4-0.4,0.7-0.8,1.1-1.1c0.2-0.2,0.5-0.4,0.7-0.6c0.2-0.2,0.4-0.5,0.7-0.8c0.4-0.4,0.9-0.7,1.2-1.2
		c0.2-0.3,0.4-0.5,0.6-0.7c0.2-0.2,0.4-0.5,0.6-0.8c0.4-0.4,0.7-0.8,0.9-1.4c0.1-0.2,0.1-0.5,0.2-0.7c0.2-0.2,0.4-0.5,0.6-0.7
		c0.8-0.7,0.9-1.9,1.2-2.9c0.3-1.3,0.9-2.4,1.2-3.7c0.1-0.6,0.1-1.2,0.3-1.7c0.1-0.3,0.1-0.4,0.2-0.7c0-0.1,0.3-0.9,0.2-1
		c0-0.3,0-0.6,0-1C174,116,174.2,114.9,173.9,113.8z M164.4,119.2c-0.1,0.2,0,0.4-0.1,0.7c-0.1,0.5-0.2,1-0.3,1.5
		c-0.2,0.5-0.3,1-0.5,1.4c-0.2,0.5-0.5,0.9-0.7,1.3c-0.1,0.2-0.1,0.5-0.3,0.7c-0.2,0.2-0.4,0.3-0.5,0.5c-0.3,0.3-0.4,0.7-0.6,1.1
		c-0.2,0.4-0.6,0.8-0.9,1.1c-0.2,0.2-0.3,0.4-0.6,0.6c-0.2,0.2-0.5,0.3-0.8,0.5c-0.4,0.3-0.8,0.5-1.2,0.8c-0.2,0.2-0.5,0.3-0.6,0.5
		c-0.1,0.2-0.2,0.3-0.4,0.4c-0.2,0.1-0.4,0-0.6,0c-0.4,0.1-0.7,0.5-1.1,0.7c-0.4,0.2-0.8,0.5-1.2,0.5c-0.7,0.1-0.9-0.5-1-1.1
		c-0.1-0.7-0.1-1.5-0.1-2.3c0-0.8,0-1.6,0-2.4c0-1.3,0-2.6,0-3.9c0,0,0,0,0-0.1c0-1,0-1.9,0-2.9c0-0.1,0-0.2,0-0.3
		c0.3-0.8,0.1-1.6,0-2.5c0-0.9,0-1.8,0-2.8c0-0.9-0.1-1.7-0.1-2.6c0-1.2,0-2.4,0-3.5c0-0.3,0.2-0.4,0.5-0.4c1,0.1,1.9,0.1,2.9,0.2
		c1,0.1,1.9,0.2,2.8,0.5c1.3,0.5,2.5,1.3,3.2,2.6c0.1,0.2,0.3,0.4,0.4,0.6c0.1,0.2,0.3,0.3,0.3,0.4c0.4,1,0.8,1.9,0.9,2.9
		c0,0.2,0.1,0.4,0.2,0.5c0.1,0.5,0.1,1.2,0.2,1.7c0.1,0.4,0.1,0.8,0.1,1.2c0,0.3,0.1,0.5,0.1,0.8
		C164.5,118.7,164.4,118.9,164.4,119.2z"/>
	<path d="M248.1,120.7c0-0.2,0.1-0.4,0-0.7c-0.1-0.7-0.2-1.4-0.3-2.1c-0.1-0.4-0.3-0.8-0.3-1.2c0.1-0.9-0.2-1.6-0.5-2.4
		c-0.2-0.6-0.1-1.2-0.3-1.8c-0.5-1.5-1.1-3-1.7-4.5c-0.2-0.4-0.5-0.8-0.8-1.2c-0.2-0.2-0.3-0.5-0.5-0.7c-0.5-0.8-0.9-1.6-1.5-2.2
		c-0.8-0.9-1.8-1.6-2.7-2.4c-1.5-1.3-3.2-2.1-5.2-2.4c-0.5-0.1-1-0.1-1.4-0.2c-1-0.5-2.1-0.2-3.2-0.3c-0.8-0.1-1.6,0.1-2.4,0.2
		c-0.2,0-0.3-0.1-0.5-0.1c-0.4,0-0.9-0.1-1.3-0.1c-1.1,0-2.3,0.1-3.4,0.1c-0.5,0-0.9-0.1-1.4-0.1c-0.7,0-1.4,0.1-2.1,0.2
		c0,0,0,0,0-0.1c-0.1,0-0.1,0-0.2,0c-0.5,0-1.1-0.2-1.4,0c-0.3,0.3-0.3,0.9-0.3,1.4c-0.1,0.9-0.3,1.8-0.2,2.7c0.2,1.4,0.2,2.9,0,4.3
		c0,0.2-0.1,0.5,0,0.7c0.3,1.8,0,3.6,0,5.4c0,1.1,0,2.3,0,3.4c0,0.8,0.2,1.6,0.2,2.4c0,1.3-0.1,2.7-0.2,4c0,0.2,0,0.4,0,0.6
		c0,0.9,0,1.8,0.1,2.7c0,0.6,0.1,1.2,0.1,1.8c0,0.8-0.1,1.5-0.1,2.3c0,0.8-0.1,1.7-0.1,2.5c0,0.6,0.1,1.1,0.1,1.7c0,0.5,0,1.1,0,1.6
		c0,0.5-0.1,1-0.1,1.5c0.2,2,0.3,4,0,5.9c-0.1,0.5,0,1,0,1.5c0,0.5,0.2,1,0.1,1.5c0,1.6-0.1,3.3-0.2,4.9c0,0.1,0,0.1,0,0.2
		c0.1,1.1,0.1,2.1,0.2,3.2c0,0.7,0,1.3-0.1,2c0,0.7-0.1,1.4-0.2,2.1c0,0.4,0.2,0.6,0.7,0.5c1.2-0.1,2.4-0.1,3.6-0.1c0.5,0,1,0,1.5,0
		c0.8,0,1.6-0.2,2.4-0.1c1.5,0.2,2.9,0,4.3-0.1c0.4,0,0.9,0.1,1.3,0c0.9-0.2,1.9-0.3,2.8-0.7c1.5-0.6,2.9-1.4,4.3-2.2
		c0.6-0.3,1.3-0.6,1.8-1c1.1-1,2.2-2.2,3.2-3.3c0,0,0.1-0.1,0.1-0.2c0.8-1.5,1.6-2.9,2.4-4.4c0.6-1.2,1.2-2.4,1.8-3.7
		c0.2-0.4,0.2-0.9,0.3-1.4c0.2-0.9,0.4-1.8,0.6-2.7c0.2-0.7,0.5-1.4,0.3-2.1c-0.1-0.2,0.1-0.5,0.1-0.7c0.1-0.3,0.2-0.5,0.2-0.8
		c0.1-0.9,0.1-1.9,0.1-2.8c0.1-2,0.2-4,0.3-5.9c0-0.2,0-0.3,0-0.5C248.5,124.8,248.3,122.7,248.1,120.7z M237.7,128.4
		c-0.4,1.3-0.3,2.7-0.1,4c0.1,0.5,0,1.1-0.1,1.6c-0.2,1.3-0.4,2.6-0.5,4c-0.1,0.8-0.3,1.6-0.4,2.4c-0.1,0.9-0.1,1.8-0.4,2.6
		c-0.6,1.5-1.3,2.9-2.1,4.4c-0.3,0.5-0.7,0.9-1,1.4c-0.4,0.6-0.8,1.1-1.6,1.1c-0.2,0-0.4,0.1-0.6,0.2c-0.9,0.5-1.9,0.7-3,0.7
		c-0.5,0-0.7-0.2-0.7-0.6c0-0.4,0.1-0.8,0.1-1.2c0-1.2,0-2.4,0-3.7c0,0,0-0.1,0-0.1c0.6-1.4-0.1-2.9,0.1-4.4c0.1-0.5,0-1,0-1.5
		c0-0.3,0-0.7,0-1c0-0.2,0.1-0.3,0.1-0.5c-0.1-0.9-0.2-1.7-0.2-2.6c0-0.5,0.2-1.1,0.2-1.6c0-2.2,0-4.5,0-6.7c0-0.5-0.2-1-0.2-1.5
		c0-0.7,0.1-1.4,0.2-2c0-0.2,0.1-0.5,0.1-0.6c-0.5-1.2-0.2-2.5-0.2-3.7c0-1,0.5-2.1,0.2-3c-0.4-1.1-0.3-2.2-0.3-3.4
		c0-0.7,0.2-1.5,0.3-2.2c0-0.9,0-1.7,0-2.6c-0.1-0.6,0-0.7,0.6-0.6c1.1,0.2,2.2,0.3,3.3,0.5c0.5,0.1,1,0.4,1.3,0.7
		c1.8,1.4,2.7,3.4,3.2,5.6c0.2,0.9,0.6,1.9,0.8,2.8c0.1,0.5,0.2,1.1,0.2,1.6c-0.1,0-0.1,0-0.2,0c0.1,0.6,0.3,1.1,0.4,1.7
		c0,0.2,0.1,0.3,0.1,0.5c0.1,2.4,0.2,4.9,0.3,7.3C237.7,128.2,237.7,128.3,237.7,128.4z"/>
	<path d="M212.5,126.9c0.1-0.9-0.1-1.9-0.1-2.8c-0.1-0.7-0.2-1.5-0.3-2.2c0-0.3,0-0.6-0.1-0.8c-0.1-1-0.3-2-0.4-3.1
		c-0.2-1.3-0.5-2.6-0.8-3.8c-0.1-0.3-0.1-0.6-0.3-0.9c-0.1-0.4-0.4-0.7-0.5-1c-0.2-0.8-0.3-1.6-0.6-2.4c-0.4-1-0.8-2-1.5-2.9
		c-0.9-1.2-1.4-2.7-2.7-3.6c-0.1-0.1-0.1-0.2-0.2-0.3c-0.4-0.4-0.7-0.9-1.1-1.3c-0.7-0.6-1.4-1.2-2.1-1.7c-0.2-0.1-0.4-0.2-0.6-0.3
		c-0.6-0.3-1.1-0.6-1.7-0.8c-0.5-0.2-1.1-0.6-1.7-0.6c-1.4-0.2-2.8-0.3-4.3-0.4c-0.3,0-0.7,0-1.1,0.1c-0.7,0.1-1.4,0.3-2.2,0.4
		c-0.2,0-0.4,0-0.6,0.1c-1,0.8-2.3,1-3.3,2c-1,1-2.4,1.7-3.1,3c-0.6,0.9-1.2,1.8-1.7,2.8c-0.1,0.2-0.3,0.4-0.4,0.5
		c-0.3,0.4-0.7,0.8-0.9,1.3c-0.7,1.9-1.4,3.9-2.1,5.9c-0.2,0.6-0.4,1.3-0.6,2c-0.3,1.3-0.5,2.6-0.8,3.9c-0.3,1.6-0.5,3.1-0.8,4.7
		c0,0.2,0,0.4,0,0.7c0,1,0,1.9,0,2.9c0,0.6-0.1,1.2-0.1,1.7c0.1,1.7,0.2,3.3,0.2,5c-0.1,0-0.1,0-0.2,0c0.1,0.3,0.2,0.7,0.2,1
		c0.1,0.6,0.3,1.3,0.4,1.9c0.3,1.9,0.5,3.8,0.8,5.6c0.1,0.5,0.3,0.9,0.5,1.3c0.1,0.2,0.2,0.5,0.2,0.7c0.2,1.5,0.5,2.9,1.5,4.1
		c0.1,0.1,0.1,0.2,0.2,0.4c0.2,1.4,1.1,2.5,1.9,3.7c0.2,0.2,0.3,0.5,0.4,0.8c0.4,0.6,0.8,1.3,1.3,1.8c0.6,0.7,1.3,1.3,2,2
		c0.5,0.4,0.9,0.9,1.5,1.2c1.1,0.5,2.3,0.8,3.3,1.4c1.3,0.7,2.7,0.5,4,0.6c1.2,0.1,2.5-0.5,3.7-0.7c1.6-0.3,2.9-1.2,4.1-2.1
		c0.8-0.6,1.5-1.4,2.3-2c0.7-0.5,1.2-1.2,1.6-1.9c0.9-1.6,1.6-3.3,2.6-4.9c1.1-1.7,1.4-3.7,2.1-5.6c0.4-1.1,0.4-2.4,0.6-3.6
		c0.1-0.5,0.2-1,0.3-1.4c0.2-0.9,0.4-1.9,0.5-2.8c0.1-1.6,0-3.1,0.3-4.7C212.8,129.8,212.4,128.4,212.5,126.9z M201.9,133.4
		c0.1,1.3-0.3,2.6-0.4,3.9c0,1.4-0.4,2.8-0.7,4.1c-0.1,0.3-0.1,0.7-0.1,1.1c0,0.9-0.1,1.6-0.6,2.4c-0.1,0.1-0.2,0.2-0.2,0.4
		c0,1.9-1.3,3.4-2.1,5c-1,2.2-4.1,2.7-6,1.3c-0.1-0.1-0.2-0.1-0.2-0.2c-0.4-1.2-1.6-1.9-1.8-3.3c-0.1-1.1-0.8-2.2-1.1-3.3
		c-0.5-1.6-0.8-3.2-1.2-4.9c0-0.1-0.1-0.2-0.1-0.3c0.2-1.3-0.2-2.5-0.4-3.7c-0.2-1.2,0-2.5,0-3.8c0-0.5,0-1-0.1-1.5
		c0-0.2-0.1-0.3-0.1-0.5c0.1-1.6,0.1-3.2,0.2-4.7c0-0.3,0-0.6,0-0.9c0.1-1,0.1-2.1,0.2-3.1c0.1-0.7,0.2-1.4,0.4-2.1
		c0.2-1.1,0.3-2.1,0.6-3.1c0.3-1.1,0.6-2.2,0.9-3.2c0.2-0.5,0.5-0.9,0.7-1.3c0.1-0.1,0.2-0.2,0.3-0.4c0.2-1.2,1.1-1.9,1.7-2.8
		c0.9-1.3,3.2-1.5,4.4-0.4c0.9,0.8,1.8,1.6,2.2,2.8c0.1,0.2,0.3,0.4,0.4,0.6c0.3,0.5,0.6,1.1,0.8,1.6c0.4,1.2,0.7,2.4,1.1,3.6
		c0.1,0.3,0.1,0.5,0.1,0.8c-0.2,0.7,0,1.3,0.1,1.9c0.1,0.2,0.1,0.4,0.2,0.6c0.2,0.6,0.1,1.2,0.2,1.8c0.1,0.6,0.2,1.2,0.2,1.9
		c0,2,0,4,0.1,6c0,0.1,0,0.2,0,0.3C202.3,131,201.8,132.2,201.9,133.4z"/>
	<path d="M352.6,139.4c-0.1-0.3-0.2-0.5-0.4-0.7c-0.5-0.8-1-1.5-1.5-2.3c-0.5-0.9-0.9-1.8-1.5-2.6c-1.2-1.7-2.6-3.2-3.9-4.8
		c-1.3-1.7-2.6-3.4-3.9-5.2c-0.6-0.8-1.1-1.5-1.7-2.3c-1.2-1.6-2.5-3.2-3.6-5c-0.9-1.4-1.4-3-1.6-4.6c-0.2-1.3-0.2-2.5,1.1-3.3
		c0.2-0.1,0.2-0.3,0.4-0.5c0.3-0.3,0.5-0.6,0.9-0.7c1.1-0.3,2.2-0.5,3.4-0.7c0.6-0.1,1.2-0.1,1.7,0c1.1,0.1,2.2,0.3,3.3,0.6
		c0.6,0.1,1.2,0.4,1.8,0.5c0.7,0.2,1.4,0.3,2.1,0.5c0.5,0.1,0.7,0,0.7-0.4c0.1-1.1,0.1-2.3,0.1-3.4c0-1.7-0.1-3.4,0.4-5.1
		c0.1-0.3,0-0.6,0.1-0.9c0-0.5-0.2-0.8-0.8-0.8c-0.4,0-0.9,0.1-1.3,0c-1.3-0.4-2.6-0.3-3.9-0.3c-1.5,0-3-0.1-4.5-0.1
		c-0.8,0-1.5,0.1-2.3,0.2c-1.1,0.1-2.1,0.2-3.2,0.5c-1.1,0.3-2.1,0.7-3.2,1.1c-0.3,0.1-0.6,0.1-0.9,0.3c-0.6,0.3-1.2,0.5-1.8,0.8
		c-0.4,0.2-0.8,0.5-1.1,0.8c-0.7,0.6-1.5,1.3-2.2,2c-1,0.9-1.5,2.2-2.1,3.3c-0.6,0.9-0.9,1.8-1.1,2.8c-0.1,0.5-0.2,1.1-0.1,1.6
		c0.1,1.6,0.1,3.1,0.4,4.6c0.3,1.3,0.8,2.5,1.4,3.7c0.4,0.9,1,1.8,1.5,2.6c0.5,0.7,1.1,1.4,1.6,2.1c0.5,0.6,0.9,1.2,1.4,1.8
		c0.8,1,1.6,1.9,2.5,2.9c0.7,0.8,1.3,1.6,1.9,2.4c0.1,0.1,0.1,0.3,0.2,0.4c0.2,0.3,0.4,0.5,0.6,0.8c0.2,0.2,0.4,0.4,0.6,0.6
		c0.6,0.8,1.1,1.6,1.8,2.4c0.8,1,1.6,1.9,2.4,2.9c0.6,0.8,1,1.6,1.5,2.4c0.5,0.8,1.1,1.5,1.6,2.2c0.1,0.2,0.2,0.4,0.3,0.6
		c0.2,0.4,0.3,0.9,0.5,1.4c1,1.8,0.2,3.3-0.5,4.9c-0.1,0.2-0.3,0.4-0.5,0.4c-1.2,0.4-2.2,0.9-3.6,0.7c-1.5-0.2-3-0.5-4.4-0.9
		c-0.5-0.1-1-0.4-1.5-0.6c-0.5-0.2-1-0.4-1.5-0.6c-0.4-0.2-0.9-0.2-1.2-0.5c-1.2-0.8-2.5-1.6-3.7-2.4c-0.2-0.1-0.4-0.2-0.8-0.4
		c0.1,1,0.2,1.7,0.3,2.5c0.3,1.8,0.6,3.6,0.9,5.3c0.2,1.2,0.4,2.3,0.6,3.5c0.1,0.4,0,0.8,0.1,1.2c0,0.2,0.1,0.6,0.2,0.6
		c0.6,0.4,1.2,0.7,1.8,0.9c1,0.3,2,0.6,3,0.8c0.5,0.1,1,0.3,1.6,0.4c1.2,0.1,2.3,0.2,3.5,0.4c1.3,0.3,2.6,0.1,3.9,0
		c1.4-0.1,2.8-0.4,4.2-0.9c1.5-0.5,2.7-1.5,3.9-2.4c0.7-0.5,1.4-1,1.8-1.7c0.9-1.5,1.8-3.1,2.5-4.7c0.4-0.9,0.3-2,0.7-3
		c0.6-1.5,0.1-3.1,0-4.6C353.5,142.3,353,140.8,352.6,139.4z"/>
	<path d="M287.7,105.7c-0.1-1,0.2-1.9,0.6-2.8c0.4-0.8,0.1-1.4-0.6-2c-1.4-1.1-3.1-1.6-4.7-2.1c-1.3-0.4-2.5-1-3.9-1
		c-1.2,0-2.4-0.3-3.8-0.5c-1.3,0.2-2.7,0.4-4.2,0.6c-0.1,0-0.3,0.1-0.4,0.1c-1.8-0.2-3.3,0.7-4.8,1.4c-1.4,0.7-2.7,1.6-4,2.5
		c-0.7,0.5-1.3,1-1.8,1.7c-0.8,1.1-1.5,2.2-2.2,3.3c-0.4,0.6-0.6,1.2-1,1.8c-0.8,1.3-1.5,2.7-1.9,4.2c-0.3,0.8-0.6,1.6-0.8,2.4
		c-0.1,0.5-0.2,1-0.2,1.5c0,0.2,0,0.4-0.1,0.5c-0.3,1.4-0.7,2.7-1,4.1c-0.1,0.7-0.1,1.5-0.1,2.2c0,0.2,0,0.5,0,0.7
		c-0.2,1.3-0.6,2.6-0.2,3.9c0.1,0.3,0,0.6,0,0.9c0,1.5-0.2,3-0.1,4.5c0.1,1.8,0.4,3.6,0.7,5.3c0.4,1.9,0.8,3.9,1.5,5.8
		c0.5,1.5,1.3,2.9,1.9,4.3c0.3,0.6,0.3,1.2,0.6,1.8c0.7,1.2,1.5,2.3,2.3,3.4c0.2,0.3,0.5,0.6,0.8,0.9c0.7,0.8,1.5,1.5,2.2,2.3
		c0.2,0.2,0.4,0.3,0.6,0.4c0.6,0.3,1,0.6,1.7,0.6c0.5,0,1,0.4,1.4,0.6c0.3,0.1,0.6,0.3,0.9,0.3c0.6,0.2,1.3,0.3,2,0.5
		c0.3,0.1,0.7,0.2,1,0.2c0.3,0,0.6,0.1,0.9,0.1c0.7,0.1,1.4,0.1,2.1,0.1c0.5,0,0.9-0.1,1.3-0.1c0.4,0,0.8,0,1.2,0
		c0.5-0.1,0.9-0.1,1.4-0.1c0.7,0,1.3-0.2,2-0.2c0.6,0,1-0.4,1.2-0.9c0.2-0.4,0.4-0.7,0.6-1.1c0.6-1.1,1-2.4,1.8-3.5
		c0.6-0.9,0.8-2,1.3-2.9c0.2-0.5,0.4-1,0.6-1.5c0.1-0.3,0.4-0.6,0.3-0.9c-0.1-0.9-2,0.4-2.4,0.5c-0.8,0.3-1.5,0.4-2.3,0.7
		c-0.3,0.1-0.6,0.1-0.9,0.2c-0.4,0.1-0.8,0.2-1.2,0.3c-0.8,0.2-1.7,0-2.5,0c-0.8,0-1.5,0-2.3-0.1c-0.6-0.1-1.3-0.2-1.9-0.4
		c-0.8-0.3-1.5-0.8-2.2-1.3c-0.6-0.4-1.1-1-1.5-1.6c-0.2-0.3-0.4-0.6-0.6-0.9c-0.1-0.2-0.3-0.3-0.4-0.5c-0.1-0.2-0.2-0.3-0.3-0.4
		c-0.3-0.4-0.3-0.9-0.6-1.3c-0.3-0.3-0.3-0.7-0.4-1.1c-0.1-0.4-0.3-0.8-0.4-1.3c-0.1-0.4-0.1-0.9-0.2-1.3c-0.1-0.4-0.2-0.8-0.4-1.2
		c-0.1-0.5,0-1-0.1-1.6c0-0.6-0.2-1.2-0.3-1.8c0-0.2,0-0.5,0-0.7c0-0.3-0.1-0.5-0.1-0.8c-0.1-1.9,0-3.8,0-5.7c0-0.5,0-1,0-1.5
		c0-0.5,0.1-1,0.1-1.5c0-0.5,0.1-1,0.3-1.5c0.1-0.4,0.2-0.8,0.2-1.3c0.1-0.5,0.1-1.1,0.3-1.6c0.1-0.4,0.2-0.9,0.3-1.3
		c0.1-0.4,0.2-0.7,0.4-1.1c0.2-0.4,0.2-0.7,0.3-1.1c0.1-0.3,0.3-0.6,0.4-0.9c0.1-0.3,0.1-0.7,0.2-1c0.1-0.2,0.3-0.3,0.4-0.5
		c0.1-0.1,0-0.3,0-0.4c0.1-0.4,0.4-0.6,0.5-1c0.2-0.8,0.5-1.4,1-2.1c0.2-0.3,0.4-0.8,0.6-1.1c0.1-0.2,0.1-0.3,0.3-0.5
		c0.1-0.1,0.3-0.3,0.4-0.4c0.3-0.3,0.5-0.6,0.9-0.8c0.4-0.2,0.7-0.4,1.1-0.6c0.4-0.2,0.7-0.4,1-0.6c0.2-0.1,0.4-0.1,0.6-0.2
		c0.1,0,0.2-0.1,0.3-0.2c0.2-0.1,0.5-0.1,0.8-0.1c1.6-0.2,3.3-0.3,4.8,0.4c1.2,0.5,2.2,1.4,3.2,2.1c0.7,0.5,1.3,1.3,2,1.9
		c0.3,0.3,0.9,0.7,1.1,0.6c0.3-0.2,0.5-0.7,0.7-1.1c0.1-0.3,0.1-0.6,0.2-0.9c0.5-1.5,0.9-3,1.4-4.5
		C287.6,106.1,287.7,105.9,287.7,105.7z"/>
	<path d="M385.7,97.4c-1.9,0-3.8,0.1-5.7,0.2c-0.6,0-1.3,0-1.9,0c-1.1,0-2.1,0-3.2,0c-0.9,0-1.8,0-2.7,0c-0.8,0-1.6,0-2.5,0
		c-1.6,0-3.1-0.1-4.7-0.1c-1,0-2.1,0.1-3.1,0.1c-0.7,0-1.3-0.1-2-0.1c-1.3,0-2.7,0-4,0c-0.8,0-1,0.2-1,0.9c0,2.7,0.1,5.3,0.2,8
		c0,0.2,0.2,0.6,0.4,0.6c0.7,0.1,1.3,0.1,2,0.1c1,0,1.9,0,2.9,0c1.7,0,3.3,0,5,0c0.5,0,0.7,0.1,0.6,0.6c-0.2,1.3-0.2,2.5-0.1,3.9
		c0.1,1.4-0.1,2.9-0.2,4.3c0,1.1,0,2.2,0,3.2c0,0.6,0,1.1,0.1,1.7c0,0.6,0.1,1.2,0.1,1.8c0,0.8,0,1.6,0,2.4c0,0.5-0.1,1-0.1,1.5
		c0,1.4,0,2.9,0,4.3c0,0.9,0,1.9-0.1,2.8c0,0,0,0,0,0.1c0.1,1,0.1,2.1,0.2,3.1c0.1,1.9-0.5,3.9,0,5.8c0.1,0.5-0.3,1.2-0.2,1.6
		c0.4,0.9,0,1.8,0,2.7c0.1,1,0.1,2.1,0.1,3.1c0,2.7-0.1,5.4-0.1,8.2c0,0.6,0.1,1.2,0.1,1.7c-0.1,0.8,0,0.8,0.8,0.8
		c0.9-0.1,1.8,0,2.6,0c0.4,0,0.9,0.1,1.3,0.1c1.6,0,3.2,0,4.9,0c0.5,0,0.7-0.2,0.6-0.7c-0.1-0.9-0.1-1.9-0.1-2.9
		c0-0.7,0.1-1.5,0.1-2.2c0-1.5-0.1-2.9-0.1-4.4c0-1.9,0-3.8,0.1-5.7c0-0.5,0-1,0-1.5c0-0.8,0.1-1.7,0.1-2.5c0-2.1-0.2-4.2-0.2-6.3
		c0-1.1,0.4-2.2,0-3.3c0-0.1,0.1-0.3,0.1-0.5c0.1-0.5,0.1-1,0.1-1.5c0-0.8-0.1-1.7-0.1-2.5c0-1.9,0-3.8,0-5.7c0-1.4,0-2.8,0-4.2
		c0-0.5,0.1-1,0.1-1.5c0-1.6,0-3.1,0-4.7c0-1.1,0-2.2-0.1-3.3c0-0.4,0.1-0.6,0.5-0.6c0.4,0,0.8,0.1,1.3,0.1c0.8,0.1,1.7,0.1,2.5,0.1
		c0.5,0,1.1-0.1,1.6-0.1c1.1,0,2.2,0.1,3.3,0.1c0.3,0,0.8-0.2,0.8-0.4c0.1-0.7,0.1-1.5,0.1-2.2c0-0.5,0-1.1,0-1.6c0-0.4,0-0.9,0-1.3
		c0-1.2,0-2.4,0.1-3.6C386.3,97.6,386.1,97.4,385.7,97.4z"/>
	<path fill="#FFFFFF" d="M237.4,120.8c0-0.2-0.1-0.3-0.1-0.5c-0.1-0.6-0.3-1.1-0.4-1.7c0.1,0,0.1,0,0.2,0c-0.1-0.5-0.1-1.1-0.2-1.6
		c-0.2-0.9-0.6-1.9-0.8-2.8c-0.5-2.2-1.4-4.1-3.2-5.6c-0.4-0.3-0.9-0.6-1.3-0.7c-1.1-0.2-2.2-0.3-3.3-0.5c-0.6-0.1-0.6,0-0.6,0.6
		c0.1,0.9,0.1,1.7,0,2.6c0,0.7-0.3,1.5-0.3,2.2c0,1.1,0,2.2,0.3,3.4c0.3,1-0.2,2-0.2,3c0,1.2-0.3,2.5,0.2,3.7c0.1,0.2,0,0.4-0.1,0.6
		c-0.1,0.7-0.2,1.4-0.2,2c0,0.5,0.2,1,0.2,1.5c0,2.2,0,4.5,0,6.7c0,0.5-0.2,1.1-0.2,1.6c0,0.9,0.1,1.7,0.2,2.6c0,0.2,0,0.3-0.1,0.5
		c0,0.3,0,0.7,0,1c0,0.5,0.1,1,0,1.5c-0.2,1.5,0.5,2.9-0.1,4.4c0,0,0,0.1,0,0.1c0,1.2,0,2.4,0,3.7c0,0.4-0.1,0.8-0.1,1.2
		c0,0.5,0.2,0.6,0.7,0.6c1.1,0,2-0.2,3-0.7c0.2-0.1,0.4-0.2,0.6-0.2c0.8,0,1.2-0.5,1.6-1.1c0.3-0.5,0.7-0.9,1-1.4
		c0.7-1.4,1.5-2.9,2.1-4.4c0.3-0.8,0.3-1.7,0.4-2.6c0.1-0.8,0.3-1.6,0.4-2.4c0.2-1.3,0.4-2.6,0.5-4c0.1-0.5,0.2-1.1,0.1-1.6
		c-0.2-1.4-0.3-2.7,0.1-4c0-0.1,0-0.2,0-0.3C237.6,125.6,237.5,123.2,237.4,120.8z"/>
	<path fill="#FFFFFF" d="M201.9,129.8c0-0.1,0-0.2,0-0.3c0-2,0-4-0.1-6c0-0.6-0.2-1.2-0.2-1.9c-0.1-0.6,0-1.3-0.2-1.8
		c-0.1-0.2-0.1-0.4-0.2-0.6c-0.2-0.6-0.3-1.2-0.1-1.9c0-0.3-0.1-0.5-0.1-0.8c-0.3-1.2-0.7-2.4-1.1-3.6c-0.2-0.6-0.5-1.1-0.8-1.6
		c-0.1-0.2-0.4-0.4-0.4-0.6c-0.4-1.2-1.3-2-2.2-2.8c-1.2-1.1-3.5-0.9-4.4,0.4c-0.6,0.9-1.5,1.6-1.7,2.8c0,0.1-0.2,0.3-0.3,0.4
		c-0.3,0.4-0.6,0.9-0.7,1.3c-0.4,1.1-0.7,2.1-0.9,3.2c-0.2,1-0.4,2.1-0.6,3.1c-0.1,0.7-0.3,1.4-0.4,2.1c-0.1,1-0.1,2.1-0.2,3.1
		c0,0.3,0,0.6,0,0.9c-0.1,1.6-0.1,3.2-0.2,4.7c0,0.2,0.1,0.3,0.1,0.5c0,0.5,0.1,1,0.1,1.5c0,1.3-0.2,2.6,0,3.8
		c0.2,1.2,0.6,2.4,0.4,3.7c0,0.1,0,0.2,0.1,0.3c0.4,1.6,0.8,3.3,1.2,4.9c0.3,1.1,1,2.2,1.1,3.3c0.2,1.4,1.4,2.1,1.8,3.3
		c0,0.1,0.1,0.1,0.2,0.2c1.9,1.4,5,0.9,6-1.3c0.8-1.6,2.1-3,2.1-5c0-0.1,0.1-0.3,0.2-0.4c0.5-0.7,0.7-1.5,0.6-2.4
		c0-0.4,0-0.7,0.1-1.1c0.3-1.4,0.6-2.7,0.7-4.1c0-1.3,0.5-2.6,0.4-3.9C201.8,132.2,202.3,131,201.9,129.8z"/>
</g>
</svg>
