<?xml version="1.0" encoding="utf-8"?>
<!-- Generator: Adobe Illustrator 18.0.0, SVG Export Plug-In . SVG Version: 6.00 Build 0)  -->
<!DOCTYPE svg PUBLIC "-//W3C//DTD SVG 1.1//EN" "http://www.w3.org/Graphics/SVG/1.1/DTD/svg11.dtd">
<svg version="1.1" id="Layer_1" xmlns="http://www.w3.org/2000/svg" xmlns:xlink="http://www.w3.org/1999/xlink" x="0px" y="0px"
	 viewBox="0 0 240.6 86.4" enable-background="new 0 0 240.6 86.4" xml:space="preserve">
<g>
	<g id="_x37_ILSvX_3_">
		<g>
			<path fill-rule="evenodd" clip-rule="evenodd" d="M199.2,68.2c1.6,0,3.3,0,4.9,0c1.2,0,2.5,0.1,3.7,0.1c1.1,0,2.3-0.1,3.4-0.1
				c1,0,2,0.1,3,0.2c0.2,0,0.3,0.1,0.5,0.1c0.5,0.4,1.1,0.8,1.6,1.2c-0.2,0-0.4-0.1-0.6-0.1c0,0,0,0.1,0,0.1
				c0.2,0.1,0.4,0.2,0.7,0.4c-0.3,0.2-0.5,0.3-0.7,0.4c0,0-0.1-0.1-0.1-0.1c0.1-0.1,0.2-0.1,0.2-0.2c-0.4-0.1-0.8-0.1-1.3-0.3
				c0.3,0.2,0.4,0.3,0.5,0.4c0,0.1,0,0.1,0,0.2c-0.9-0.8-2.2,0.1-3.2-0.8c0.1-0.1,0.2-0.1,0.2-0.2c-0.2-0.1-0.3-0.2-0.5-0.3
				c-0.3,0.7-0.3,0.7-1.9,0.6c0.2-0.1,0.4-0.2,0.5-0.3c0-0.1-0.1-0.1-0.1-0.2c-0.2,0-0.5,0-0.8,0c0.1,0.3,0.2,0.5,0.4,0.8
				c-0.7-0.1-1.4-0.2-2-0.3c0,0,0-0.1,0-0.1c0.5,0,0.9-0.1,1.4-0.1c-0.6-0.4-1.7-0.4-2,0.3c0-0.2-0.1-0.3-0.1-0.4
				c-0.5,0-0.9,0.1-1.4-0.1c-0.4-0.1-1,0.1-1.5,0.2c0.1,0.1,0.2,0.2,0.3,0.3c-0.4,0-0.8,0-1.2-0.1c0-0.3-0.1-0.5-0.5-0.4
				c-0.5,0.1-1.1-0.1-1.7-0.1c-0.3,0-0.7,0-1,0.1c-0.2,0-0.3,0.2-0.5,0.4c0-0.1,0-0.2,0-0.4c-0.5-0.2-0.3,0.3-0.5,0.5
				c-0.1-0.2-0.2-0.3-0.2-0.4c-0.3,0.5-0.6,1-0.9,1.4c-0.4,0.7-0.9,1.4-1.3,2.1c-0.6,1.1-1.3,2.2-1.8,3.3c-0.5,0.9-0.8,1.9-1.3,2.8
				c1.3,0.4,2.4,0.5,3.7,0c1.5-0.6,3.1-1,4.6-1.5c0.2-0.1,0.4-0.1,0.7-0.1c0.3,0,0.7,0.2,0.6,0.6c-0.1,0.3-0.3,0.7-0.6,0.9
				c-1,0.5-2.2,0.8-3.2,1.3c-0.8,0.4-1.7,0.8-2.6,0.9c-0.5,0.1-0.9,0.1-1.4,0c-0.6,0-1.2-0.1-1.8-0.2c-0.5-0.1-1.4-0.9-1.5-1.4
				c0-0.1-0.1-0.3-0.2-0.4c-2.4,2-4.8,2.7-7.2,0.5c-0.3-1,0.4-1.3,1-1.8c0.9-0.7,1.4-1.8,1.3-3c0-0.4-0.3-0.8-0.5-1.3
				c-0.5,0.7-1,1.3-1.5,1.9c-0.8,1-1.5,2.1-2.3,3.1c-0.6,0.8-1.3,1.5-1.9,2.2c-0.1,0.1-0.5,0.1-0.8,0.1c-0.6,0-1.2,0.4-1.9,0.2
				c-0.7-0.2-1.2-0.5-1.5-1.1c-0.4-0.7-0.6-1.6-0.9-2.4c-0.1-0.4-0.2-0.8-0.3-1.2c-0.5,0.8-1,1.5-1.5,2.2c-0.1,0.2-0.2,0.3-0.4,0.4
				c-0.5,0.6-0.8,1.2-1.4,1.6c-1.4,1.2-2.2,1.3-3.7,0.5c-0.7-0.3-0.9-1.6-0.5-2.4c0.4-0.7,0.6-1.4,0.9-2c-0.3,0.1-0.7,0.3-1.1,0.4
				c-0.1,0-0.1,0.2-0.2,0.2c-0.1,0.2-0.3,0.4-0.4,0.4c-0.5,0.1-0.8,0.8-1.5,0.7c-0.1,0-0.2,0.3-0.4,0.5c-0.6,0.5-1.2,1-1.8,1.3
				c-1.1,0.5-2.1,1-3.4,1c-0.3,0-0.6-0.3-1-0.5c-0.1,0-0.1-0.1-0.2-0.2c-0.8-0.2-1.1-0.8-1.3-1.6c-0.1-0.3-0.3-0.5-0.3-0.8
				c0-0.4,0.1-0.8,0.1-1.2c0-0.1,0-0.2,0-0.4c-0.1,0-0.1,0-0.2-0.1c-0.3,0.6-0.6,1.3-1.1,1.9c-0.2,0.2-0.3,0.8-0.9,0.6
				c-0.2,0-0.5,0.2-0.7,0.4c0,0-0.1-0.1-0.2-0.3c0.1,0.4-0.1,0.5-0.5,0.6c-0.9,0.2-1.5-0.4-2.2-0.6c-0.3-0.1-0.6-0.5-0.8-0.7
				c-0.4,0.4-0.9,0.8-1.3,1.3c-0.4,0.4-0.7,0.8-1.1,1.2c-0.1,0.1-0.2,0.2-0.2,0.2c-0.6,0.3-1.1,0.7-1.7,1c-0.5,0.2-1.1,0.4-1.6,0.5
				c-0.6,0.1-1.2,0-1.8-0.4c-0.2-0.2-0.5-0.2-0.7-0.4c-0.6-0.4-0.3-1.1-0.4-1.6c0-0.3,0.2-0.6-0.1-1c-0.1-0.1,0.1-0.5,0.2-0.6
				c0.7-0.7,1.4-1.5,2.1-2.2c0.3-0.3,0.6-0.5,1-0.9c-0.2,0-0.3-0.1-0.5,0c-0.8,0.3-1.7,0.6-2.5,0.9c-0.5,0.2-1,0.3-1.5,0.3
				c-0.6,0-0.8,0.3-0.8,0.7c0,0.9-0.7,1.4-1.2,2c-0.2,0.3-0.6,0.6-0.8,0.9c-0.8,1.3-2,1.8-3.4,1.9c-0.5,0.1-1.1,0-1.6,0.1
				c-0.1,0-0.3,0.1-0.4,0.2c-0.2,0-0.4,0-0.6,0c-0.2,0-0.4-0.1-0.6-0.1c-0.6,0-1.2-0.1-1.7-0.3c-0.6-0.2-1.2-0.5-1.6-0.9
				c-0.3-0.3-0.5-0.5-0.8-0.8c-0.1-0.1-0.2-0.2-0.2-0.2c0-0.2,0-0.3,0-0.4c-0.4-1-0.3-1.9,0.5-2.8c0.3-0.3,0.4-0.8,0.6-1.1
				c0.3-0.4,0.6-0.7,1-0.9c1-0.6,2-1.2,3.1-1.6c0.9-0.3,1.9-0.2,2.9-0.2c0.8,0,1.6,0.2,2.4,0.3c0.3,0,0.5,0.1,0.8,0.2
				c0,0.2,0,0.5,0,0.7c0.5,0.7,1.1,0.6,1.9,0.3c1.2-0.3,2.4-0.6,3.6-0.8c1.8-0.4,3.6-0.4,5.4-0.3c0.2,0,0.5-0.1,0.7-0.1
				c0.3,0.3,0.6,0.6,0.9,0.9c0.1,0,0.2,0,0.2,0c0.3-0.8,0.6-1.6,0.9-2.4c0.4-0.9,1-1.7,1.5-2.5c0.3-0.6,0.6-1.1,0.9-1.7
				c0-0.1,0-0.2,0-0.1c0.3-0.4,0.5-0.7,0.7-1c0.2-0.3,0.3-0.4,0.6-0.1c0.3,0.2,0.7,0.2,1.2,0.3c-0.1,0.3-0.3,0.7-0.5,1.1
				c-0.5,1-1,2-1.6,3.1c-0.1,0.2-0.3,0.4-0.4,0.6c-0.3,0.6-0.5,1.1-0.8,1.7c0,0.1-0.1,0.2-0.2,0.3c-0.9,1.1-1.2,2.5-1.2,3.9
				c0.7,0.3,1.5,0.4,2.1,0c0.4-0.3,0.7-0.5,1-0.8c0.3-0.3,0.5-0.8,0.7-1.2c0.6-1,1.3-1.8,2.2-2.4c0.7-0.4,1.3-1,2.1-1.2
				c0.4-0.1,0.8,0,1.1-0.1c0.3-0.1,0.5-0.1,0.8-0.1c1.1,0.1,1.8,0.8,2.4,1.6c0.2,0.3,0.5,0.6,0.8,0.9c-0.3,0-0.4,0.1-0.6,0.1
				c0,0.1,0,0.3-0.1,0.3c-0.1,0.1-0.3,0-0.4,0c-0.5-0.1-0.8-0.6-1.2-0.9c-0.4-0.4-0.9-0.5-1.4-0.5c-0.1,0-0.3,0.1-0.4,0.2
				c-0.6,0.6-1.4,1.1-1.8,1.9c-0.2,0.4-0.6,0.7-0.8,1.2c-0.3,0.8-0.3,1.6,0.2,2.3c0.4,0.5,1,0.6,1.6,0.5c1-0.2,1.9-0.7,2.7-1.3
				c0.7-0.5,1.3-1,2.1-1.4c1.3-0.8,2.7-1.6,4.1-2.3c1.6-0.9,3.1-1.8,4.9-2.3c0.4-0.1,0.8-0.1,1,0.3c0.4,0,0.8,0,1.1-0.1
				c0.1,0.3,0.2,0.6,0.3,0.9c0,0.3,0,0.6,0,0.9c0.1,1.4,0.3,2.8,0.5,4.1c0.1,0.8,0.7,1,1.5,0.9c1.3-0.2,2-1.1,2.7-2
				c1.2-1.5,2.3-3,3.4-4.6c0.2-0.2,0.3-0.5,0.4-0.8c0.3,0,0.7,0,1.1,0c0.2,0,0.5,0.2,0.5,0.3c0.1,0.7,0.6,0.9,1,1.4
				c0.2,0.3,0.4,0.6,0.5,0.9c0.1,0.2,0.1,0.4,0.1,0.6c0,0.1,0.1,0.2,0.1,0.3c-0.3,0.9-0.5,1.8-0.9,2.6c-0.2,0.4-0.6,0.7-1,1.1
				c0.6,0.2,1.1,0.2,1.6,0.1c1-0.2,1.7-0.9,2.4-1.5c1-0.9,2-1.8,3-2.8c0.4-0.4,0.7-1,1-1.5c0.6-1.1,1.3-2.3,1.9-3.5
				c-0.5,0-0.9,0-1.4,0c-0.4,0-0.8-0.1-1.2-0.1c0,0,0-0.1,0-0.2c-0.4,0.1-0.1,0.9-0.8,0.5c0.1,0,0.2-0.1,0.3-0.1
				c-0.1-0.1-0.2-0.3-0.3-0.4c-0.5,0.4-1.3,0.2-1.4-0.2c-0.3,0.4-1.7,0.4-2.1-0.1c-0.3,0.4-1.6,0.3-2,0c-0.3,0-0.4,0-0.6,0
				c-0.4,0-1,0.3-1.2,0.1c-0.5-0.4-0.9-0.1-1.3-0.2c-0.6-0.1-1.3-0.1-2-0.1c-0.8,0-1.6-0.1-2.4-0.1c-0.5,0-0.9,0-1.4,0
				c-0.9,0-1.7,0.1-2.6,0c-0.3,0-0.6,0.3-1,0c-0.3-0.2-0.8,0-1.2,0c-0.4,0-0.9,0-1.3,0c-0.4,0-0.9,0-1.3,0c-1.4,0-2.7,0-4.1,0
				c-0.6,0-1.2-0.1-1.8-0.2c-0.2,0-0.4,0-0.5,0c-0.3-0.2-0.5-0.3-0.7-0.5c-0.2-0.2-0.6-0.2-0.4-0.6c0.1-0.1,0.2-0.3,0.3-0.4
				c0.3-0.3,0.7-0.2,1-0.1c0.9,0.3,1.8,0.2,2.7,0.1c0.5,0,1-0.1,1.4-0.1c1.7,0.1,3.5,0.2,5.2,0.3c1.2,0,2.4-0.1,3.6-0.1
				c0.6,0,1.3,0,1.9,0.1c1,0.1,1.9,0.2,2.9,0.2c1.4,0.1,2.9,0.1,4.3,0.1c2,0.1,3.9,0.3,5.9,0.4c1.3,0.1,2.6,0.1,3.9,0.2
				c0.7,0,0.8-0.5,1-0.9c0.5-0.7,0.9-1.5,1.4-2.2c0.3-0.4,0.8-0.4,1.3-0.2c0.1,0.1,0.3,0.4,0.2,0.5c-0.2,0.5-0.3,0.9-0.6,1.3
				c-0.3,0.5-0.7,0.9-1,1.4C199.1,68,199.2,68.1,199.2,68.2z M137.8,76.7c-0.6,0-1.1,0.1-1.6,0c-0.9-0.2-1.8-0.4-2.3-1.4
				c-0.1-0.2-0.5-0.5-0.7-0.5c-0.6,0.1-1.1,0.3-1.6,0.5c-0.6,0.3-1.2,0.8-1.7,1.2c-0.6,0.5-1.1,1.1-1.4,1.7c-0.1,0.3-0.3,0.7-0.2,1
				c0.1,0.4,0.4,0.6,0.9,0.8c1.4,0.6,2.9,0.7,4.4,0.2c1-0.4,2-0.8,2.9-1.5C137.2,78.2,137.5,77.5,137.8,76.7z M143.2,80.4
				c0.6,0.6,1.2,0.3,1.8,0.1c0.6-0.2,1.3-0.4,1.8-0.8c0.9-0.8,1.8-1.7,2.5-2.7c0.5-0.6,0.8-1.4,1.2-2.2c0,0-0.1,0-0.1-0.1
				c-0.1,0.1-0.3,0.2-0.4,0.3c-0.6,0.2-1.3,0.3-1.9,0.5c-0.6,0.2-1.2,0.5-1.7,0.8c-0.7,0.5-1.4,1.1-2.1,1.7
				C143.5,78.7,143.1,79.4,143.2,80.4z M174.9,73.5c-0.5,0.2-1.1,0.3-1.4,0.6c-0.8,0.6-1.6,1.2-2.3,1.9c-1,0.9-1.7,1.9-2,3.2
				c0,0.2,0,0.4,0.1,0.5c0.1,0.1,0.3,0.1,0.5,0c0.8-0.3,1.5-0.9,2-1.6c0.6-0.8,1.3-1.6,1.9-2.4C174.1,74.9,174.4,74.2,174.9,73.5z
				 M154.1,69.3C154.1,69.3,154,69.3,154.1,69.3c-0.3,0.5-0.6,1-0.9,1.5c0.1,0,0.2,0.1,0.2,0.1c0.2-0.3,0.4-0.7,0.6-1
				C154.1,69.8,154.1,69.6,154.1,69.3z"/>
			<path fill-rule="evenodd" clip-rule="evenodd" d="M131.5,64.2c-0.3,0.2-0.1,0.4,0.1,0.5c0.5,0.3,1,0.7,1.4,1.1
				c0.3,0.3,0.5,0.7,0.7,1.1c0,0,0.1,0.1,0,0.2c-0.3,0.5,0.1,0.9,0,1.4c0,0.1,0,0.3-0.1,0.4c-0.4,0.5-0.8,1-1.3,1.5
				c-0.4,0.4-0.8,0.8-1.2,1.3c-0.5,0.6-1.2,0.8-1.9,1.1c-1.1,0.4-2.2,0.1-3.3,0.2c-0.8,0.1-1.6,0-2.3,0c-0.1,0-0.3,0.3-0.3,0.5
				c-0.2,1.3-0.4,2.7-0.6,4c-0.1,0.5-0.4,0.9-0.5,1.4c0,0.8-0.5,1.3-0.8,1.9c-0.5,1-1.2,2-2.1,2.7c-1.1,0.8-2.2,1.5-3.7,1.2
				c-1-0.2-1.8-0.8-2.3-1.6c-0.8-1.2-0.7-2.5-0.3-3.8c0.5-2.1,1.8-3.7,2.9-5.5c0.4-0.7,0.8-1.3,1.3-1.9c0.6-0.8,1.2-1.6,1.9-2.3
				c0.8-0.8,1.7-1.5,2.5-2.2c0.6-0.5,0.9-1.3,0.5-2c0-0.1,0-0.1,0-0.2c-0.1-0.6-0.2-1.2-0.2-1.8c0-0.5,0.1-1,0.3-1.3
				c0.2-0.4,0.7-0.3,1.1-0.1c0.3,0.1,0.6,0.3,0.8,0.4c-0.1,0.4-0.2,0.8-0.3,1.3c-0.1,0.5,0,1,0,1.5c0,0.3,0.2,0.4,0.5,0.2
				c0.4-0.3,0.8-0.6,1.3-0.8c0.7-0.3,1.4-0.6,2.1-0.8c1.1-0.3,2.1-0.1,3.2,0.3C131,64,131.3,64.1,131.5,64.2z M122.1,69.2
				c0,0-0.1-0.1-0.1-0.1c-0.4,1-1.5,1.2-2,2.1c-0.4,0.7-1.2,1.3-1.6,2c-1,1.6-2.1,3.3-2.6,5.2c-0.1,0.3-0.3,0.6-0.4,0.9
				c-0.1,0.2-0.3,0.4-0.4,0.6c-0.2,0.6-0.4,1.2-0.6,1.8c-0.2,0.9-0.1,0.9,0.5,1.3c0.9,0.7,2.5,0.4,3.2-0.4c0.8-0.9,1.6-1.9,2.2-3
				c0.6-1.1,1-2.4,1.2-3.7c0.2-1.2,0.4-2.4,0.5-3.6C122,71.2,122,70.2,122.1,69.2z M132.1,67.4C132.1,67.4,132.1,67.4,132.1,67.4
				c-0.1-0.1-0.1-0.2-0.1-0.2c-0.4-1.7-2.8-2.8-4.4-2.1c-0.6,0.3-1.2,0.5-1.8,0.9c-0.4,0.2-0.6,0.7-1,0.8c-0.8,0.2-1.2,0.7-1.2,1.5
				c0,0.6-0.1,1.2-0.2,1.9c0,0.3-0.1,0.7-0.1,1c0,0.1,0.2,0.4,0.3,0.4c0.2,0,0.5-0.1,0.8-0.1c1-0.1,2-0.1,2.9-0.2
				c0.8-0.1,1.6-0.3,2.3-0.6c0.9-0.4,1.5-1.3,2-2.2C131.9,68.2,132,67.8,132.1,67.4z M120.5,81.1c0.2-0.2,0.4-0.4,0.5-0.7
				c0.2-0.4-0.1-1,0.5-1.2c-0.1-0.1-0.2-0.3-0.3-0.5c-0.2,0.5-0.4,1-0.6,1.4c0,0.1-0.1,0.2-0.2,0.3
				C120.1,80.8,120.2,80.9,120.5,81.1z"/>
		</g>
	</g>
	<g>
		<g id="oVTuLB_3_">
			<g>
				<path fill-rule="evenodd" clip-rule="evenodd" d="M23.3,1.3c0.9-0.2,1.5-0.9,2.5-0.9c1.3,0,2.5-0.4,3.8-0.3
					c1.4,0.1,2.8,0.3,4.2,0.5c0.6,0.1,1.1,0.5,1.6,0.8c0.6,0.3,1.3,0.6,1.9,1c0,0-0.1,0.1-0.2,0.2c0.1,0.2,0.3,0.3,0.4,0.5
					c0.5,1.5,1.2,2.9,1.3,4.5c0.1,1,0.2,2,0.3,3c0,0.2,0.1,0.4,0.2,0.6c-0.1,0.2-0.3,0.5-0.5,0.9c0.5,0,0.9,0,1.3,0
					c0.8-0.1,1.5-0.2,2.3-0.2c0.6,0,1.2,0,1.9,0c1.3-0.1,2.5-0.1,3.8-0.3c1.1-0.2,1.7,0.3,2.2,1c-0.1,0.4-0.2,0.6-0.3,0.9
					c-0.3,0.2-0.6,0.5-0.8,0.6c-0.4,0-0.8,0-1.2,0c-0.3,0-0.7,0-1,0c-0.5,0-1,0-1.5,0c0,0.1,0,0.1,0,0.2c0.1,0.1,0.2,0.2,0.3,0.2
					c0.8,0.5,1.6,0.9,2.3,1.4c0.2,0.1,0.2,0.4,0.4,0.5c0.4,0.3,1,0.5,1.3,0.8c0.8,1.1,2,1.7,2.7,2.9c0.4,0.7,1.1,1.3,1.6,1.9
					c0.4,0.5,0.8,1.1,1.2,1.7c0.3,0.6,0.8,1.1,1,1.7c0.4,1,0.9,2,1.4,3c0.1,0.2,0.2,0.3,0.4,0.5c0.2,0.9,0.5,1.8,0.8,2.7
					c0.3,0.9,0.4,1.8,1,2.6c0,0-0.1,0.1-0.1,0.2c0.1,0.6,0.3,1.2,0.5,1.8c0,0.1,0.1,0.2,0.1,0.3c0,1.1,0.1,2.1,0.1,3.2
					c0,0.4,0,0.9,0,1.3c0,0.7,0,1.3,0,2c0,0.1-0.2,0.3-0.3,0.4c0,1.4-0.3,2.7-0.7,4.1c-0.2-0.1-0.3-0.2-0.3-0.2
					c-0.1,0.5-0.2,1.1-0.4,1.6c-0.3,0.7-0.8,1.4-0.9,2.1c-0.1,0.9-0.7,1.5-1,2.3C56.3,54,55.8,55,55,55.8c-1.2,1.1-2.1,2.5-3.2,3.7
					c-0.7,0.8-1.5,1.5-2.3,2.2c-1.2,0.9-2.3,1.9-3.8,2.4c-0.9,0.3-1.7,0.8-2.6,1.2c-0.5,0.2-1.1,0.4-1.7,0.7
					c-0.3,0.2-0.7,0.4-0.9,0.5c0.7,1.1,1.3,2.2,2,3.3c0.2,0.3,0.5,0.6,0.7,0.8c0,0.1-0.1,0.3,0,0.4c0.3,0.3,0.5,0.7,0.6,1.1
					c0.3,0.7,0.8,1.4,1.3,2.1c0,0,0.1,0.1,0.1,0.1c0.1,0.4,0.2,0.8,0.4,1.1c0.4,1,0.9,2,1.4,3c0.3,0.6,0.6,1.1,0.9,1.6
					c1.2-0.5,2.3-1,3.3-1.5c0-0.1-0.1-0.2-0.1-0.4c0.3,0.1,0.5,0.2,0.7,0.2c0.5-0.1,1-0.3,1.4-0.5c0.3-0.1,0.5-0.3,0.7-0.4
					c0.4-0.1,0.9-0.2,1.3-0.4c0.4-0.1,1.4,0.3,1.5,0.7c0,0.1,0,0.2,0,0.2c-0.4,0.1-0.2,0.4-0.3,0.7c-0.4,0.8-0.6,1.6-1.3,2.2
					c-0.8,0.8-1.5,1.6-2.4,2.2c-0.7,0.4-1.3,1.3-2.3,1.2c-0.1,0-0.1,0.1-0.2,0.2c-0.1,0.1-0.3,0.2-0.4,0.3c-0.4,0.3-1.2,0-1.1,0.8
					c-0.2,0-0.4,0-0.6,0c-0.2,0.1-0.4,0.3-0.6,0.3c-0.5,0.1-1,0.2-1.5,0.3c-0.3,0.1-0.7,0.2-0.8,0.1c-0.4-0.4-1.2-0.6-1.2-1.4
					c0-0.3-0.3-0.7-0.5-0.9c-0.5-0.6-1-1.1-1.4-1.6c-0.4-0.5-0.5-1.1-0.9-1.4c-0.5-0.4-0.8-1-1.2-1.5c-0.6-0.9-1.1-2-1.7-3
					c-0.1-0.2-0.4-0.4-0.6-0.6c-0.5-0.6-0.9-1.3-1.4-1.9c-0.8-0.9-1.4-2.1-2.5-2.6c-0.3,0.9-0.6,1.7-1,2.6c0,0-0.1,0-0.1,0
					c-0.4,0.9-0.8,1.9-1.2,2.8c-0.2,0-0.5,0-0.6,0.2c-0.3,0.5-0.5,1-0.8,1.5c-0.1,0.1-0.2,0.3-0.3,0.4c-0.3,0.4-0.2,0.9-0.9,1
					c-0.3,0-0.6,0.2-0.9,0.2c-0.3,0-0.6,0.1-0.8,0c-0.5-0.1-1-0.2-1.5-0.2c-0.2-0.1-0.4-0.3-0.6-0.4c-0.5-0.2-1.2-0.3-1.5-0.7
					c-0.4-0.5-0.9-0.7-1.4-1c-0.1,0-0.2-0.1-0.4-0.1c-0.2-0.1-0.6-0.2-0.6-0.1c-0.2,0.4-0.7,0.7-0.4,1.2c-0.1,0.1-0.2,0.1-0.3,0.2
					c0,0,0,0.2,0,0.2c-0.1,0.2-0.3,0.3-0.4,0.5c-0.2,0.3-0.3,0.6-0.4,0.8c-0.5,0.9-1,1.7-1.5,2.5c-0.3,0.5-0.6,1.1-1.3,1.1
					c-0.2,0-0.4,0.1-0.5,0.2c-0.3-0.2-0.6-0.3-0.8-0.5c-0.2-0.4-0.4-0.9-0.4-1.4c-0.2-1.3-0.3-2.5-0.5-3.8c0-0.4,0.1-0.9,0-1.3
					c-0.3-0.7-0.2-1.4-0.3-2.1c0-0.1-0.1-0.4-0.1-0.4c0.5-0.3,0.2-0.8,0.2-1.2c0-0.7,0.2-1.3,0.6-1.9c0.1-0.1,0.2-0.2,0.3-0.3
					c0.8-0.1,1.6-0.2,2.4-0.2c1,0,2,0.2,3.1,0.4c0.5,0.1,0.9,0.4,1.4,0.5c0.7,0.2,1.5,0.3,2.1,0.4c0.3-0.8,0.5-1.5,0.8-2.2
					c-0.3-0.3-0.2-1.2,0.3-1.6c-1.2,0.1-2.4-0.2-3.5-0.5c-0.2-0.1-0.4-0.3-0.5-0.3c-0.7,0.1-1.4-0.1-2-0.4c-0.3-0.1-0.6-0.2-0.9-0.3
					c-0.7-0.2-1.5-0.5-2.2-0.8c-0.8-0.3-1.5-0.7-2.3-1.1c-0.7-0.4-1.4-0.7-2.2-1.2c0.2-0.1,0.3-0.1,0.4-0.2
					c-0.7-0.1-1.3-0.2-1.9-0.3c0,0,0-0.1,0-0.1c0.1-0.1,0.2-0.1,0.4-0.2c-0.1-0.1-0.2-0.2-0.3-0.2c-0.1-0.1-0.2-0.2-0.3-0.3
					c-0.2-0.2-0.4-0.5-0.6-0.6c-0.8-0.1-1.1-0.8-1.6-1.2c-0.3-0.3-0.5-0.6-0.8-1c-0.3-0.4-0.7-0.7-1-1.1c-0.3-0.5-0.7-1-0.9-1.5
					c-0.3-0.7-0.9-1.2-1-2c-0.1-0.4-0.4-0.8-0.5-1.2c-0.3-0.9-0.8-1.7-1.1-2.6c-0.3-0.6-0.3-1.4-0.6-2c-0.5-1-0.6-2.1-0.8-3.2
					c-0.1-0.8-0.2-1.7-0.5-2.5c-0.1-0.3,0-0.6-0.1-0.9c-0.1-0.6-0.3-1.2-0.4-1.9c-0.1-0.3,0-0.5,0-0.8c0-0.7-0.2-1.5-0.1-2.2
					c0-0.9,0.1-1.7,0.2-2.6c0.2-1,0.3-2.1,0.6-3.1c0.2-0.7,0.6-1.3,0.7-2c0-0.9,0.5-1.6,0.7-2.4c0.1-0.7,0.6-1.4,1-2.1
					c0.6-1.1,1.2-2.1,1.9-3.1c0.5-0.6,1.1-1.1,1.7-1.7c0.6-0.5,1.2-1,1.8-1.6c0.7-0.6,1.4-1.4,2.2-1.9c1.2-0.7,2.6-1.3,3.9-1.9
					c0.7-0.3,1.4-0.4,2.1-0.6c0.3-0.1,0.6-0.2,0.9-0.3c0,0,0-0.1,0-0.1c-0.4,0-0.7,0-1.1,0c-0.6,0-1.2,0-1.8,0
					c-0.6,0-1.2-0.2-1.8-0.2c-0.9,0-1.7,0.1-2.6,0.2c-0.5,0-1-0.1-1.4,0c-0.4,0-0.8-0.5-1.3-0.2c0,0,0,0-0.1,0c0-0.1,0-0.2,0-0.1
					c-0.3-0.3-0.5-0.6-0.7-0.8c0.3-0.1,0.6-0.2,0.8-0.3c-0.1-0.1-0.3-0.2-0.3-0.3c0.4-0.4,0.7-0.7,1-1c0.4,0.1,0.8,0.4,1.3,0.5
					c0.8,0.1,1.5,0.1,2.3,0.2c0.8,0.1,1.6,0.2,2.4,0.2c0.5,0,1.1-0.1,1.6,0c0.7,0.2,1.4-0.1,2.1,0c0.2,0,0.3,0.1,0.4,0.1
					c0.2-0.1,0.3-0.1,0.5-0.1c0.3,0,0.7,0.1,1,0.1c0.3,0,0.5-0.1,0.5-0.5c0-0.4,0.1-0.7,0.2-1.1c0.1-0.7,0.1-1.3,0.2-2
					c0-0.1-0.1-0.1-0.1-0.2c-0.1-0.1-0.2-0.2-0.2-0.2c0.1,0,0.2,0,0.3,0c-0.1-0.3-0.1-0.7-0.2-1c-0.2-0.7-0.1-1.4,0.2-2.1
					c0.1-0.1,0.1-0.3,0.1-0.4c0-0.3,0-0.7,0.1-1c0.2-0.4,0.4-0.8,0.7-1.1c0.1-0.2,0.3-0.4,0.5-0.5c0.2-0.2,0.5-0.4,0.8-0.7
					c-0.2,0-0.4-0.1-0.6-0.1C22.7,1.8,23,1.3,23.3,1.3z M50.8,23.2c0.2-0.5,0.3-1,0.4-1.5c0-0.2-0.1-0.4-0.2-0.6
					c-0.2-0.2-0.4-0.4-0.6-0.6c-0.4-0.4-0.9-0.9-1.3-1.3c-0.1-0.1-0.3-0.3-0.4-0.4c-1-0.8-1.9-1.7-2.9-2.5c-0.3-0.3-0.9-0.3-1.2-0.6
					c-0.5-0.6-1.3-0.7-1.9-1c-0.8-0.4-1.6-0.6-2.4-0.7c-0.3,0-0.6,0.2-0.9,0.2c-0.5,0-0.9,0.2-1.4,0.3c-0.1,0-0.2-0.2-0.3-0.3
					c-0.1,0.1-0.1,0.3-0.2,0.4c-0.2,0.1-0.4-0.6-0.6,0c0,0-0.3,0-0.4,0c-0.3-0.1-0.5-0.2-0.8-0.2c-1.2,0.1-2.4,0.3-3.7,0.4
					c-1.1,0-2.2-0.1-3.3-0.1c-0.9,0-1.7,0-2.6,0.3c-0.7,0.3-1.6,0.4-2.4,0.5c-0.3,0.1-0.6,0-0.9,0.1c-0.2,0.1-0.3,0.3-0.5,0.5
					c-0.1-0.1-0.2-0.2-0.3-0.2c-0.4,0.1-0.8,0.1-1.1,0.2c-0.9,0.3-1.9,0.5-2.8,0.8c-0.9,0.3-1.8,0.6-2.7,0.9
					c-0.6,0.2-1.1,0.6-1.7,0.8c-0.5,0.2-1,0.4-1.4,0.7c-0.6,0.5-1.1,1-1.7,1.5c0,0-0.1,0.1-0.1,0.1c-0.7,0.6-1.4,1.1-2.1,1.7
					c0,0-0.1,0-0.1,0.1c1.8,2.8,3.4,5.7,5.4,8.4c0.3-0.6,0.5-1.1,0.7-1.5c0.3-0.7,0.5-1.4,0.8-2.1c0.5-1,1-2,1.5-3
					c0.3-0.6,0.7-1.2,1.1-1.8c0.2-0.3,0.5-0.6,0.6-0.9c0.2-0.5,0.4-1,0.7-1.4c0.1-0.1,0.3-0.2,0.4-0.3c0.3,0.4,0.8,0.3,1.1-0.1
					c0.8,0.3,1.2,1,1.5,1.8c0.1,0.2,0.2,0.4,0.3,0.5c0.8,0.8,1.1,1.8,1.6,2.8c0.6,1.2,1.3,2.3,1.9,3.5c0.3,0.5,0.6,1.1,1,1.6
					c0.6-1.3,1.1-2.7,1.7-4c0.3-0.7,0.8-1.4,1.2-2.2c0.2-0.4,0.3-0.9,0.5-1.4c0.1-0.3,0.4-0.5,0.6-0.8c0.5-0.9,0.9-1.9,1.3-2.9
					c0.1-0.3,0.3-0.6,0.3-1c0.1-0.7,0.6-0.4,1-0.4c1.2,0.1,1.5,1.1,1.9,1.8c1,1.6,2,3.2,2.9,4.8c0.5,0.8,0.9,1.7,1.3,2.6
					c0.1,0.2,0.3,0.4,0.6,0.7c0.2-0.5,0.4-0.8,0.5-1.2c0.3-0.9,0.6-1.8,1-2.7c0.3-0.7,0.9-1.3,1.3-2c0.4-0.7,0.6-1.4,0.9-2.1
					c0.1-0.3,0.1-0.6,0.5-0.5c0-0.2,0-0.4,0-0.6c0.2,0,0.4,0,0.6,0.1c0.4,0.2,0.9,0.4,1.2,0.5c0,0.2,0,0.3,0,0.4
					c0.5,0.9,0.9,1.9,1.4,2.8c0.4,0.7,0.8,1.4,0.9,2.2c0.1,0.6,0.3,1.2,0.6,1.7c0,0.1,0.3,0.2,0.4,0.3C50,25.3,50.4,24.3,50.8,23.2z
					 M44.1,60.2c-0.1,0.1-0.3,0.1-0.4,0.2c-0.3,0.2-0.5,0.1-0.8,0c-0.9-0.5-1.5-1.3-2.1-2c-0.5-0.6-1-1.2-1.3-1.9
					c-0.1-0.2-0.3-0.2-0.4-0.4c-0.2-0.4-0.3-0.7-0.6-1.1c-0.5-0.8-1.1-1.5-1.6-2.2c-0.3-0.4-0.6-0.9-0.9-1.3c-0.1,0-0.1,0-0.1,0.1
					c-0.3,0.7-0.7,1.4-0.9,2.1c-0.2,0.6-0.3,1.3-0.5,2c-0.2,0.5-0.5,1-0.7,1.5c-0.2,0.4-0.2,0.9-0.4,1.4c-0.2,0.6-0.4,1.2-0.6,1.7
					c-0.2,0.6,0,1.3-0.6,1.7c-0.2,0.1-0.4,0.2-0.6,0.2c0-0.1-0.1-0.1-0.1-0.2c-0.1,0.2-0.2,0.3-0.4,0.5c-0.1-0.2-0.3-0.4-0.4-0.6
					c-0.3,0.1-0.6,0.1-0.7-0.4c-0.2-0.6-0.7-1.1-1.1-1.7c-0.4-0.6-0.8-1.1-1.1-1.7c-0.7-1.2-1.3-2.3-1.9-3.5
					c-0.3-0.6-0.6-1.3-0.9-1.9c-0.3-0.5-0.6-0.9-1-1.4c-0.3,1-0.5,2-0.8,3c-0.2,0.8-0.5,1.7-0.7,2.5c-0.2,0.7-0.4,1.5-0.6,2.2
					c0,0.2,0.1,0.4,0.1,0.7c-0.4-0.1-0.4,1-1.1,0.2c0,0.3,0,0.5-0.1,0.8c-0.9-0.6-1.7-1.2-2.5-1.8c0,0,0.1,0,0.1,0
					c-0.1-0.2-0.3-0.5-0.4-0.7c-0.5-0.7-1.1-1.3-1.5-2c-0.4-0.6-0.8-1.2-1.2-1.8c-0.1-0.2-0.3-0.2-0.5-0.4c-0.6,1-0.8,2-0.9,3
					c0,0.1,0,0.2,0,0.2c-0.6,1-0.9,2.1-1,3.2c-0.1,0.4-0.2,0.7-0.4,1.1c-0.1,0.1-0.4,0.1-0.8,0.3c0.7,0.4,1.4,0.8,2.1,1.2
					c0.3,0.2,0.5,0.4,0.8,0.5c1,0.3,1.9,0.7,2.9,1.1c0.5,0.2,1.1,0.5,1.6,0.7c0.3,0.1,0.6,0.2,0.9,0.3c1,0.2,2,0.5,3,0.7
					c0.9,0.2,1.9,0.2,2.8,0.3c1.1,0.1,2.1,0.3,3.2,0.2c1.5,0,3-0.2,4.6-0.3c1-0.1,2.1-0.2,3.1-0.4c0.6-0.1,1.2-0.6,1.9-0.7
					c0.4-0.1,0.7-0.4,1.2-0.3c0.4,0.1,1-0.3,1.4-0.5c0.4-0.2,0.9-0.4,1.3-0.6c0.1,0,0.1,0,0.2-0.1c1.1-0.6,2.3-1.1,3.4-1.7
					c0.6-0.3,1-0.8,1.5-1.2c1.3-0.9,2.2-2,3.2-3.1c0,0,0.1-0.1,0.1-0.1c-1.2-1.2-2.5-2.4-3.3-4.1c-0.3,0.8-0.4,1.6-0.8,2.2
					c-0.4,0.7-0.8,1.4-1.1,2.1c-0.2,0.5-0.3,1-0.5,1.5c-0.2,0.4-0.4,0.9-0.7,1.4C44.2,60.6,44.2,60.4,44.1,60.2z M24.8,13
					c0.8,0,1.6-0.1,2.4-0.2c1-0.1,2-0.2,3-0.4c0.7-0.1,1.4-0.2,2.2-0.2c1.3-0.1,2.5-0.2,3.8-0.2c0.2,0,0.4,0,0.3-0.4
					c-0.1-0.2,0.1-0.4,0.1-0.6c0.1-0.5,0.1-1,0.2-1.5c0,0-0.4-0.1-0.6-0.1c-0.3,0-0.6,0-0.9-0.1c-0.5-0.1-1.1-0.2-1.6,0
					c-0.4,0.1-0.8,0-1.2,0c-0.7,0-1.3,0.1-2,0.1c-0.6,0-1.1-0.1-1.7-0.1c-0.6,0-1.3,0.1-1.9,0.2c-0.4,0-0.8,0.1-1.2,0.1
					c-0.9,0-1.9,0.1-2.8,0.1c-0.5,0-0.4,0.4-0.3,0.7c0,0.9,0.1,1.7,0.1,2.6C23.4,13,24.1,13.1,24.8,13z M49.4,44.7
					c0.1,0,0.2,0,0.3,0c-0.2-1.4,0-2.9-0.6-4.3C49.2,41.8,49.3,43.3,49.4,44.7z M44.9,42c0-0.1-0.1-0.3-0.1-0.4
					c0.4-0.1,0-0.5,0.2-0.6c-0.5-0.5-0.1-1.1-0.2-1.7c0-0.1,0.2-0.2,0.4-0.4c0,0-0.1-0.1-0.1-0.1c-0.2,0-0.4,0.1-0.4,0.1
					c0,1.3,0,2.6,0,3.9C45.1,42.7,44.9,42.3,44.9,42z M52.7,38.5c-0.4,0.3-0.6,2.3-0.5,3.3c0.1,0,0.1,0,0.2,0
					C52.5,40.7,52.6,39.6,52.7,38.5z M34,47.8c0.1,0,0.2,0,0.3,0c0.2,0,0.5,0,0.7,0c0-0.2-0.1-0.4-0.1-0.6c0-0.2,0.1-0.4,0.2-0.7
					C34.2,46.5,34.4,47.4,34,47.8z M40.8,46.4c0.6-0.9,0.5-1.7,0.2-2.6c-0.1,0-0.1,0-0.2,0C40.8,44.7,40.8,45.6,40.8,46.4z M50.8,45
					c0.2-0.3,0.4-0.4,0.4-0.5c0-0.7,0-1.4-0.1-2c-0.1,0-0.2,0-0.3,0C50.8,43.2,50.8,44,50.8,45z M50.8,48.7c0.1,0,0.1,0,0.2,0
					c0.2-0.8,0.2-1.6-0.2-2.4C50.8,47.1,50.8,47.9,50.8,48.7z M45.1,36.7c-0.1-0.2-0.2-0.3-0.4-0.5c0,0.5-0.2,0.8,0.2,1.1
					c0.1,0,0,0.3-0.1,0.4c-0.1,0.2-0.1,0.3,0.1,0.5c0.1,0.1,0,0.2,0.1,0.4c-0.1-0.6,0.6-1.2-0.3-1.7C44.9,36.8,44.9,36.8,45.1,36.7z
					 M43.5,58.4c0.1-0.5,0.2-0.9,0.3-1.3C42.9,57.4,42.8,57.7,43.5,58.4z M7.6,39.5c0.1,0,0.2,0,0.2,0c0.1-0.7,0.1-1.4,0-2.1
					c-0.1,0-0.1,0-0.2,0C7.6,38.1,7.6,38.8,7.6,39.5z M27.3,35.3c0.1,0.4,0.1,0.7,0.2,1.2c0.3-0.7,0.4-1.2,0.7-1.9
					C27.8,34.9,27.5,35.1,27.3,35.3z M48.3,44.5c0.1-0.1,0.2-0.2,0.2-0.3c-0.2-0.4,0.1-1.1-0.7-1.3C48,43.4,48.1,43.9,48.3,44.5z
					 M44.8,34.1c0,0.6,0.1,1.1,0.1,1.6c0,0,0.1,0,0.1,0c0.1-0.4,0.2-0.8,0.3-1.3C45.2,34.3,45,34.2,44.8,34.1z M33.4,23.7
					c-0.1,0.3-0.2,0.6-0.2,0.7c0.5-0.1,0.8-0.2,1.3-0.3C34.1,24,33.8,23.9,33.4,23.7z M23.4,48.6c-0.3,0.2-0.5,0.4-0.8,0.6
					c0.5,0.1,0.8,0.1,1.2,0.2C23.7,49.2,23.6,49,23.4,48.6z M15.1,51.5c-0.2,0.2-0.4,0.4-0.6,0.6c0.2,0.1,0.5,0.3,0.7,0.5
					c0.1,0,0.1-0.1,0.2-0.1C15.3,52.2,15.3,51.9,15.1,51.5z M53,28.7c-0.2,0.9-0.1,1.5,0.4,1.7C53.2,29.8,53.1,29.3,53,28.7z
					 M42.9,37.9c0.1,0,0.3,0.1,0.4,0.1c0-0.4,0.1-0.9,0.1-1.4c-0.1,0-0.1,0-0.2,0C43.1,37,43,37.5,42.9,37.9z M49,52.1
					c-0.2-0.1-0.4-0.3-0.7-0.4c-0.4,0.6,0.5,0.6,0.6,1C48.9,52.5,49,52.3,49,52.1z M19.8,43.9c0.2,0,0.5,0,0.8-0.1
					c-0.1-0.3-0.2-0.6-0.2-0.9C20.2,43.3,20,43.6,19.8,43.9z M8.8,29.7c0,0-0.1,0-0.1,0c-0.3,0.8,0.4,0.7,0.7,0.9
					c0,0,0.1-0.1,0.1-0.1C9.3,30.2,9.1,30,8.8,29.7z"/>
				<path fill-rule="evenodd" clip-rule="evenodd" d="M63.8,54c1.1,0.3,2.2,0.7,3.3,1.1c0.6,0.2,1.2,0.6,1.8,0.9
					c0.4,0.3,0.8,0.7,1.1,1c0.3,0.3,0.5,0.7,0.6,1c0.2,0.5,0.4,1.1,0.4,1.6c0,0.6-0.1,1.3-0.4,1.7c-0.4,0.5-1.1,0.8-1.7,1.1
					c-0.2,0.1-0.6,0.1-0.7-0.1C68,62,67.5,62,67.1,61.8c-0.5-0.4-1-0.8-1.4-1.3c-0.5-0.6-1.1-1.1-1.6-1.7c-0.2-0.2-0.4-0.5-0.6-0.8
					c-0.1-0.2-0.2-0.5-0.3-0.6c-0.4-0.4-0.9-0.8-1.4-1.3c-0.4-0.4-0.6-0.9-0.5-1.5c0.4-0.2,1.1,0.2,1.1-0.6
					C62.9,54,63.4,53.9,63.8,54z M69.1,58.4c-0.7-0.9-1.7-1.4-2.8-1.6c-0.2-0.2-0.3-0.6-0.8-0.4c-0.1,0.1-0.5-0.2-0.8-0.3
					c1.2,1.8,2.7,3.4,4.6,4.5C69.6,60.1,69.5,59,69.1,58.4z"/>
				<path fill-rule="evenodd" clip-rule="evenodd" d="M74.8,42c0,0.2,0.3,0.4,0.2,0.5c-0.4,0.5-0.1,1.2-0.7,1.7
					C74,44.5,73.7,45,73.1,45c-0.2,0-0.3,0.1-0.5,0.1c-0.8,0.2-1.5,0.4-2.4,0C69.9,45,69.4,45,69,44.8c-0.4-0.2-0.6-0.8-1.2-0.6
					c0,0,0-0.1,0-0.1c-0.5-0.5-1-1.1-1.5-1.6c-0.3-0.3-0.7-0.6-1-0.9c-0.1-0.1-0.2-0.5,0.2-0.7c0.5-0.3,1.3,0,1.6-0.8
					c0,0,0.1,0,0.2,0c1-0.1,2-0.3,3.1-0.3c1.7-0.1,3.3,0,4.3,1.7c0.1,0.1,0.2,0.1,0.3,0.2C74.9,41.8,74.8,41.9,74.8,42z M70.5,42.9
					c0.6,0.4,1.3,0.5,2.1,0.5c0.2-0.3,0.4-0.6,0.5-0.9c0-0.2-0.2-0.6-0.4-0.7c-1-0.4-2-0.4-3-0.4c-0.4,0-0.7,0.1-1.1,0.2
					c0,0-0.1,0.1-0.1,0.1C69.1,42.1,69.8,42.5,70.5,42.9z"/>
			</g>
		</g>
		<path fill="#FFFFFF" d="M36.5,48.1c-0.3,0.1-0.3,0.2-0.2,0.3c0.3-0.1,0.2-0.5,0.2-0.7c0-0.6-0.1-1.3,0-1.9c0.1-0.8,0.2-1.7,0-2.5
			c-0.4-1.5-0.7-3.2-1.8-4.4c-0.5-0.5-1.2-1.2-1.8-1.5c-0.7-0.3-1.6-0.2-2.1,0.4c-0.4,0.4-0.9,0.9-1,1.4c-0.1,0.3-0.1,0.6-0.2,0.8
			c-0.1,0.3-0.1,0.8-0.3,0.9c-0.1-0.1-0.1-0.3-0.2-0.5c-0.1-0.2-0.3-0.3-0.5-0.5c-0.3-0.3-0.6-0.6-0.9-0.9c-0.2-0.1-0.5-0.2-0.7-0.3
			c-0.3-0.2-0.5-0.4-0.8-0.5c-0.4-0.2-0.9-0.3-1.3-0.3c-0.6,0-0.8,0.2-1.1,0.7c-0.2,0.3-0.5,0.7-0.5,1.1c-0.1,0.4,0.1,1.1,0.2,1.5
			c0.2,0.5,0.4,0.9,0.8,1.2c0.9,0.9,1.6,1.7,2.6,2.4c1.2,0.8,2.4,1.6,3.6,2.2c0.5,0.3,1.1,0.5,1.7,0.6c0.4,0.1,0.7,0.2,1.1,0.3
			c0.2,0.1,0.4,0,0.7,0c0.4,0.1,0.8,0.3,1.1,0.4c0.4,0.1,0.8,0.1,1.3,0.1"/>
	</g>
	<g>
		<path fill-rule="evenodd" clip-rule="evenodd" d="M93.1,56.5c-0.6,0-1.3,0.1-2,0.1c-0.3,0-0.5,0-0.8,0c-0.4,0-0.7,0-1.1,0
			c-0.8,0-1.6-0.1-2.5-0.1c-0.4,0-0.8,0-1.2,0c-0.3,0-0.5-0.1-0.5-0.5c0-0.3,0.1-0.7,0.1-1c0-0.8,0-1.6,0-2.4c0-0.7,0-1.4,0-2.1
			c0-0.2,0-0.5,0-0.7c0-0.4,0-0.9,0-1.3c0-0.7,0-1.3,0-2c0-0.1,0-0.1,0-0.2c0.1-0.8,0-1.6,0-2.4c0-0.3,0.1-0.6,0.1-0.9
			c0-0.5,0-1.1,0-1.6c0-0.5-0.1-1.1-0.1-1.6c0-0.2,0-0.4,0-0.7c0-0.5,0-1.1,0-1.6c0-0.7,0-1.4,0-2.1c0-0.8,0-1.7,0-2.5
			c0-0.3,0-0.7,0-1c0-0.3,0-0.7,0-1c0-0.2-0.1-0.5-0.1-0.7c0-0.2,0-0.5,0-0.7c0-0.3,0-0.6,0-1c0-0.4,0-0.9,0-1.3c0-0.2,0-0.5,0-0.7
			c0-0.1,0-0.2,0-0.4c0-1.1,0-2.2,0-3.3c0-1.2,0-2.4,0-3.6c0-0.4,0-0.9,0-1.3c0-0.4,0.1-0.8,0-1.2c0-0.2,0.1-0.3,0.2-0.3
			c0,0,0,0,0.1,0c0.5,0,1.1,0.1,1.6,0.1c0.9,0,1.7,0,2.6,0c0.6,0,1.2,0,1.8,0c0.4,0,0.8,0,1.3,0c0.7,0,1.4-0.1,2,0.1
			c0.2,0.1,0.4,0.1,0.6,0.1c1.3,0.1,2.4,0.6,3.5,1.2c0.1,0.1,0.2,0.1,0.4,0.2c0.2,0.1,0.4,0.2,0.5,0.3c0.5,0.5,1,1,1.5,1.5
			c0.1,0.1,0.1,0.1,0.1,0.2c0.8,1.1,1.4,2.3,1.6,3.7c0.1,0.6,0.3,1.2,0.2,1.8c0,0.8,0.1,1.7-0.2,2.5c0,0.1-0.1,0.2-0.1,0.3
			c-0.1,1.1-0.6,2.1-1.2,3.1c-0.5,0.9-1.2,1.5-2,2.2c-0.3,0.3-0.3,0.3,0,0.6c0.8,0.6,1.6,1.2,2.3,1.9c1.1,1.2,1.6,2.6,2,4.1
			c0.2,0.6,0.1,1.3,0.2,2c0,0.6,0.1,1.3,0.1,1.9c0,0.4-0.1,0.9-0.1,1.3c0,0.2-0.1,0.4-0.1,0.5c0,0.7-0.1,1.3-0.3,1.9
			c-0.1,0.2-0.1,0.4-0.1,0.7c0,0.1,0,0.2,0,0.2c-0.3,0.6-0.4,1.3-0.8,1.9c-0.2,0.4-0.4,0.8-0.7,1.1c-0.3,0.5-0.7,0.9-1.1,1.3
			c-0.5,0.5-1,0.9-1.5,1.3c0,0,0,0,0,0c-0.6,0.3-1.2,0.7-1.8,1c-0.2,0.1-0.4,0.2-0.5,0.2c-0.3,0.1-0.6,0.2-0.9,0.3
			c-0.2,0.1-0.4,0.2-0.7,0.2c-0.3,0.1-0.7,0.2-1,0.2C94.2,56.5,93.6,56.5,93.1,56.5C93.1,56.5,93.1,56.5,93.1,56.5z M98,44
			C98,44,98,44,98,44c-0.1-0.4,0-0.9-0.1-1.3c-0.1-0.5-0.2-1-0.4-1.4c-0.1-0.3-0.2-0.5-0.3-0.8c-0.2-0.5-0.4-0.9-0.7-1.4
			c-0.2-0.3-0.5-0.6-0.7-0.9c-0.3-0.3-0.7-0.5-1.1-0.6c-0.1,0-0.3-0.1-0.4-0.2c-0.1-0.1-0.2-0.1-0.3-0.1c-0.7-0.1-1.4-0.1-2-0.2
			c-0.3,0-0.4,0.1-0.4,0.4c0,0.6,0,1.2,0,1.8c0,0.4,0,0.8,0,1.2c0,0.5,0,1,0,1.4c0,0.5,0,0.9,0,1.4c0,0.2,0,0.3,0,0.5
			c0,0.7,0,1.4,0,2.1c0,0,0,0.1,0,0.1c0,0.7,0,1.4-0.1,2c0,0,0,0.1,0,0.1c0,0.4,0,0.7,0,1.1c0,0.5,0,1,0,1.5c0,0.2,0.1,0.3,0.3,0.3
			c0.6-0.1,1.1-0.1,1.7-0.3c0.6-0.2,1.2-0.4,1.7-0.8c0.2-0.2,0.5-0.3,0.7-0.5c0.3-0.4,0.7-0.7,0.9-1.2c0.3-0.5,0.6-1,0.7-1.6
			C97.9,45.8,97.9,44.9,98,44z M92.3,31.5c0.4-0.1,0.8-0.1,1.2-0.2c0.3-0.1,0.6-0.2,0.9-0.3c0.2-0.1,0.4-0.2,0.6-0.3
			c0.6-0.3,1-0.9,1.3-1.5c0.2-0.4,0.3-0.9,0.4-1.4c0.1-0.5,0.2-1.1,0.1-1.6c-0.1-0.4-0.1-0.8-0.2-1.3c-0.2-1.2-1.1-1.9-2.2-2.4
			c-0.5-0.2-1-0.2-1.5-0.3c-0.3,0-0.6,0-0.9-0.1c-0.2,0-0.3,0.1-0.3,0.3c0,0.6,0,1.1,0,1.7c0,0.1,0,0.2,0,0.4c0,0.2,0,0.5,0,0.7
			c0,0.2,0,0.5,0,0.7c0,0.3,0,0.5,0,0.8c0,0.1,0,0.2,0,0.3c0,0.5,0,1-0.1,1.5c0,0.1,0,0.1,0,0.2c0,0.6,0,1.2,0,1.7
			C91.5,31.4,91.5,31.4,92.3,31.5z"/>
		<path fill-rule="evenodd" clip-rule="evenodd" d="M121.7,22.8c-0.9,0-1.7-0.1-2.6-0.1c-0.8,0-1.5,0.1-2.3,0.1c-0.3,0-0.7,0-1-0.1
			c-0.3,0-0.4,0-0.4,0.4c0,0.3,0,0.6,0,1c0,0.2,0,0.4,0,0.6c0,0.3,0,0.6,0,1c0,0.1,0,0.2,0,0.3c0,0.4,0,0.8,0,1.1c0,0.6,0,3,0,3.6
			c0,0.6,0,1.2,0.1,1.7c0,0.2,0.2,0.2,0.3,0.2c0.6,0,1.2,0,1.8,0c0.9,0,1.7,0,2.6,0c0.6,0,1.1-0.1,1.7-0.1c0.4,0,0.5,0,0.4,0.5
			c0,0.6,0,1.2,0,1.8c0,0.4,0,0.9,0,1.3c0,0.7,0,1.4,0,2.1c0,0.4,0,0.5-0.4,0.5c-0.2,0-0.5,0-0.7,0c-0.3,0-0.7,0-1,0
			c-0.1,0-0.1,0-0.2,0c-0.8,0-1.5,0.1-2.3,0.1c-0.6,0-1.2,0-1.8,0c-0.4,0-0.5,0-0.4,0.4c0,0.4,0,0.8,0,1.2c0,0.6,0-0.7,0-0.1
			c0,0.4,0,0.8,0,1.3c0,0.4,0,0.8,0,1.2c0,0.2,0,0.4,0,0.6c0,0.3,0,0.5,0,0.8c0,0.4,0,0.8,0,1.1c0,0.4,0,0.8,0,1.2
			c0,0.7,0,1.5,0,2.2c0,0.1,0,0.2,0,0.3c-0.1,0.4,0,0.9,0,1.3c0,0.2,0.1,0.2,0.3,0.2c0.8,0,1.7,0,2.5,0c0.9,0,1.9,0,2.8,0
			c0.5,0,1.1,0,1.6,0c0.2,0,0.3,0.1,0.3,0.3c0,0.4,0,0.8,0,1.2c0,0.6,0,1.2,0,1.8c0,0.5,0,1.1,0,1.6c0,0.3,0,0.5,0,0.8
			c0,0.3-0.1,0.4-0.3,0.4c-0.5,0-1,0-1.5,0c-0.6,0-1.2,0-1.9-0.1c-0.4,0-0.8,0-1.1,0c-0.6,0-1.3,0-1.9,0c-0.6,0-1.1,0-1.7,0
			c-0.7,0-1.5,0-2.2,0c-0.7,0-1.5,0-2.2,0c-0.3,0-0.6,0-0.9,0c-0.2,0-0.4-0.1-0.4-0.3c0-0.1,0-0.2,0-0.2c0-1,0.1-1.9,0.1-2.9
			c0-0.2,0-0.4,0-0.6c0-0.5,0-1,0-1.5c0-0.7,0.1-1.4,0-2.1c0-0.5-0.1-1,0-1.5c0-0.1,0-0.2,0-0.3c0-0.3,0-0.6,0-0.9
			c0-0.2,0.1-0.4,0.1-0.6c0-0.4-0.1-0.9-0.1-1.3c0-0.2,0-0.5,0-0.7c0-0.2,0-0.5,0-0.7c0-0.5,0.1-1,0.1-1.5c0-0.6,0-1.2,0-1.8
			c0-0.8,0-1.5,0-2.3c0-0.6,0-1.3,0-1.9c0-0.4,0-0.7,0-1.1c0-0.9,0-1.7,0-2.6c0-0.6,0-1.2,0-1.8c0-0.4,0-0.8,0-1.2
			c0-0.1,0-0.2,0-0.3c-0.2-0.6,0-1.2,0-1.9c0-0.8-0.1-1.6-0.1-2.4c0-0.1,0-0.2,0-0.3c0-0.3,0-0.5,0-0.8c0,0,0-0.1,0-0.1
			c0-0.6,0-1.2,0-1.8c0-0.5,0-0.9,0-1.4c0-0.2,0-0.4,0-0.5c0-0.8,0-1.6,0-2.3c0-0.3,0.1-0.4,0.4-0.4c0.4,0,0.8,0,1.3,0
			c0.4,0,0.7,0,1.1,0c0.4,0,0.8,0,1.3,0c0.2,0,0.3,0,0.5,0c0.5,0,1.1,0,1.6,0c0.6,0,1.2,0,1.8,0c0.8,0,1.5,0,2.3-0.1
			c0.2,0,0.5,0,0.7,0c0.8,0,1.6,0,2.4,0c0.5,0,0.6,0.1,0.6,0.6c0,0.4,0,0.8,0,1.1c0,0.6-0.1,1.2,0,1.8c0,0.6,0,1.2,0,1.8
			c0,0.2,0.1,0.3,0.1,0.5c0,0.3-0.1,0.3-0.3,0.3c-0.1,0-0.2,0-0.3,0C121.9,22.7,121.8,22.7,121.7,22.8
			C121.7,22.8,121.7,22.8,121.7,22.8z"/>
	</g>
	<g>
		<path fill-rule="evenodd" clip-rule="evenodd" d="M144.4,56.5c-0.6,0.1-1.3,0.1-1.9,0.2c-0.2,0-0.4,0-0.5,0
			c-0.4-0.1-0.8-0.1-1.2,0c-0.4,0.1-0.8,0-1.1,0c-0.7,0-1.4,0-2.1-0.1c-0.2,0-0.4,0-0.6,0.1c-0.3,0-0.4-0.1-0.4-0.4
			c0-1.1,0-2.3,0-3.4c0-0.7,0-1.3,0-2c0-0.6,0-1.2-0.1-1.9c0-0.3,0-0.6,0-0.9c0-0.4,0-0.7,0-1.1c0-0.8,0-1.6,0-2.4
			c0-0.6,0-1.2,0-1.9c0-0.5,0-0.9,0-1.4c0-0.5,0-1.1,0-1.6c0-0.5,0-0.9,0-1.4c0-0.1,0-0.2,0-0.3c0-1,0.1-1.9,0.1-2.9
			c-0.1-1.1,0.1-2.2,0-3.3c0-0.5,0-1,0-1.5c0-0.7,0.1-1.4,0.1-2.2c0-0.8,0-1.6,0-2.3c0-0.9,0-1.7,0-2.6c0-0.1,0-0.2,0-0.2
			c0-1.2,0-2.3,0-3.5c0-0.9,0-1.7,0-2.6c0-0.3,0.1-0.4,0.4-0.4c0.8,0,1.5,0,2.3-0.1c0.4,0,0.8,0,1.2,0c0.3,0,0.6,0,0.9,0
			c0.5,0,1.1,0,1.6,0.1c0.3,0,0.5,0,0.8,0c1.2-0.1,2.3,0.1,3.5,0.3c0.6,0.1,1.2,0.2,1.7,0.5c0.4,0.2,0.8,0.4,1.2,0.6
			c0.1,0.1,0.3,0.2,0.4,0.3c0.6,0.2,1.1,0.7,1.5,1.2c0.1,0.2,0.3,0.3,0.5,0.5c0.1,0.1,0.1,0.1,0.2,0.2c0.3,0.5,0.7,1,0.9,1.6
			c0.1,0.4,0.3,0.8,0.5,1.2c0.2,0.6,0.3,1.2,0.4,1.8c0,0.3,0.1,0.5,0.1,0.8c0,0.5,0.1,1,0,1.4c-0.1,0.6,0,1.3-0.3,1.8
			c-0.1,0.3-0.2,0.5-0.2,0.8c0,0.2-0.1,0.3-0.2,0.5c-0.2,0.3-0.3,0.6-0.5,0.9c-0.3,0.7-0.8,1.3-1.3,1.9c-0.3,0.3-0.6,0.6-0.9,0.9
			c-0.2,0.2-0.2,0.3,0,0.5c0,0,0,0,0.1,0.1c0.6,0.5,1.2,1,1.8,1.4c0.4,0.3,0.7,0.8,1,1.3c0.1,0.2,0.2,0.4,0.4,0.5
			c0.1,0.1,0.2,0.2,0.2,0.3c0.4,0.9,0.7,1.9,0.9,2.9c0.1,0.7,0.3,1.3,0.1,2c-0.1,0.5,0,1.1,0,1.6c0,0.9-0.1,1.8-0.3,2.7
			c-0.1,0.8-0.3,1.7-0.6,2.5c-0.1,0.2-0.2,0.3-0.3,0.5c0,0.1-0.1,0.2-0.1,0.3c-0.2,0.7-0.6,1.2-1.1,1.7c-0.3,0.4-0.6,0.7-0.9,1
			c-0.6,0.6-1.3,1.1-2.1,1.6c-0.6,0.3-1.1,0.7-1.8,0.9c-0.6,0.2-1.2,0.4-1.9,0.5c-0.5,0.1-1,0.2-1.6,0.3
			C144.8,56.5,144.6,56.5,144.4,56.5C144.4,56.5,144.4,56.5,144.4,56.5z M143,45.4C143,45.4,142.9,45.4,143,45.4c0,0.7,0,1.4,0,2.1
			c0,1,0,2,0,3c0,0.3,0.1,0.4,0.5,0.4c0.4-0.1,0.7-0.1,1.1-0.2c0.8-0.1,1.6-0.5,2.3-0.9c0,0,0.1-0.1,0.1-0.1c0.4-0.6,1-1,1.4-1.6
			c0.3-0.6,0.6-1.2,0.7-1.9c0.1-0.6,0.1-1.3,0.2-1.9c0-0.6,0.1-1.2-0.1-1.7c-0.2-0.6-0.3-1.3-0.5-1.9c-0.1-0.4-0.4-0.8-0.5-1.1
			c0-0.1-0.1-0.2-0.2-0.2c-0.4-0.9-1.1-1.4-2-1.8c-0.9-0.4-1.8-0.5-2.7-0.5c-0.3,0-0.4,0.1-0.4,0.4c0,0.3,0,0.5,0,0.8
			c0,0.5,0,0.9,0,1.4c0,0.4,0,0.7,0,1.1c0,0.4,0,0.8,0,1.2c0,0.3,0,0.7,0,1c0,0.3,0,0.5,0,0.8c0,0.1,0,0.2,0,0.3
			C143,44.5,143,44.9,143,45.4z M148,27.1c0.1-0.9,0-1.6-0.2-2.4c-0.2-0.9-0.8-1.5-1.6-1.9c-0.5-0.3-1-0.4-1.6-0.5
			c-0.4-0.1-0.8-0.1-1.1-0.2c-0.5-0.1-0.6,0.1-0.6,0.6c0,0.2,0,0.5,0,0.7c0,0.5,0,1,0,1.4c0,0,0,0.1,0,0.1c0,0.8,0,1.6,0,2.3
			c0,0.5,0,1,0,1.5c0,0.3,0,0.6,0,0.8c0,0.4,0,0.8,0,1.3c0,0.3,0.1,0.4,0.4,0.4c0.2,0,0.4,0.1,0.6,0c0.6-0.1,1.2-0.2,1.8-0.4
			c0.9-0.4,1.7-1,2-1.9C147.9,28.4,148.1,27.8,148,27.1z"/>
		<path fill-rule="evenodd" clip-rule="evenodd" d="M165.8,56.6c-0.2,0-0.5,0-0.7-0.1c-0.1,0-0.2,0-0.3,0c-0.6,0.1-1.2,0-1.8,0
			c-0.5,0-1,0-1.4,0c-0.3,0-0.7,0-1,0c-0.2,0-0.3-0.1-0.3-0.3c0-0.8,0-1.5,0-2.3c0-0.2,0-0.5,0-0.7c0-0.5,0-1,0-1.4
			c0-0.4,0-0.9,0-1.3c0-0.6-0.1-1.2-0.1-1.7c0-0.8,0-1.7,0-2.5c0-0.9,0-1.9,0-2.8c0-0.3,0-0.6,0.1-1c0-0.1,0-0.3,0-0.4
			c-0.1-1-0.1-2,0-3.1c0-0.1,0-0.2,0-0.3c0-0.4,0-0.7,0-1.1c0-0.2,0-0.4,0-0.5c-0.1-1-0.1-1.9,0-2.9c0-0.6,0-1.2,0-1.7
			c0-0.4,0-0.8,0-1.2c0-0.5,0.1-1,0.1-1.5c0-0.3-0.1-0.5-0.1-0.8c0-0.8,0-1.6,0-2.4c0-0.9,0.1-1.7,0-2.6c0-0.6,0-1.2,0-1.8
			c0-0.8-0.1-1.5-0.1-2.3c0-1,0-2,0-3.1c0-0.3,0.1-0.4,0.4-0.4c0.7,0,1.5,0,2.2,0c1.1,0,2.1,0,3.2,0c0.4,0,0.7,0.1,1.1,0
			c0.8-0.1,1.6,0.1,2.3,0.1c0.7,0,1.5,0.2,2.2,0.3c0.8,0.1,1.6,0.4,2.3,0.8c0.7,0.3,1.4,0.8,2.1,1.3c0.3,0.3,0.7,0.5,1,0.8
			c0.3,0.4,0.7,0.7,0.9,1.1c0.4,0.5,0.7,1.1,1.1,1.7c0,0,0,0.1,0.1,0.2c0.2,0.5,0.4,1.1,0.5,1.6c0,0.1,0.1,0.3,0.1,0.4
			c0.1,0.3,0.1,0.7,0.2,1c0,0.3,0.1,0.6,0.1,0.9c0,0.1,0,0.1,0,0.2c0.2,0.7,0.1,1.4,0.1,2.1c0,1.1-0.3,2.1-0.5,3.2
			c-0.4,1.4-1,2.6-1.8,3.7c-0.4,0.6-0.8,1.1-1.3,1.6c-0.5,0.5-1,0.9-1.5,1.3c-0.1,0.1-0.2,0.2-0.1,0.4c0.3,0.8,0.5,1.7,0.8,2.5
			c0.1,0.4,0.2,0.9,0.3,1.3c0.1,0.4,0.2,0.8,0.3,1.2c0.2,0.6,0.4,1.2,0.6,1.7c0.1,0.3,0.1,0.5,0.2,0.8c0.3,0.8,0.6,1.7,0.8,2.5
			c0.1,0.2,0.1,0.4,0.2,0.7c0.2,0.6,0.4,1.2,0.5,1.8c0,0.1,0.1,0.2,0.1,0.3c0.2,1,0.5,1.9,0.9,2.8c0.1,0.2,0.1,0.5,0.2,0.7
			c0.1,0.3,0.1,0.5,0.2,0.8c0.1,0.3,0,0.4-0.3,0.4c0,0-0.1,0-0.1,0c-0.5,0-1,0-1.5,0c-0.6,0-1.2,0-1.8-0.1c-0.2,0-0.5,0-0.7,0
			c-0.5,0-1.1,0-1.6,0c-0.2,0-0.3-0.2-0.3-0.4c-0.2-0.6-0.3-1.1-0.5-1.7c-0.2-0.6-0.3-1.2-0.5-1.8c-0.2-0.6-0.4-1.1-0.6-1.7
			c0-0.1-0.1-0.1-0.1-0.2c-0.2-0.7-0.4-1.4-0.5-2.1c-0.1-0.3-0.1-0.6-0.2-0.8c-0.2-0.7-0.5-1.4-0.7-2.1c-0.1-0.3-0.2-0.7-0.3-1.1
			c-0.2-0.5-0.3-1.1-0.5-1.6c-0.2-0.7-0.4-1.4-0.6-2c-0.1-0.2-0.2-0.3-0.4-0.3c-0.5,0-1.1,0-1.6,0c-0.2,0-0.3,0.1-0.3,0.3
			c0,0.6,0,1.2,0,1.9c0,1,0,2.1,0,3.1c0,0.7,0,1.5,0,2.2c0,0.5-0.1,1-0.1,1.4c0,0.5,0,1,0,1.6c0,0.6,0,1.2,0,1.9c0,0.1,0,0.2,0,0.3
			c0,0.6,0,1.2,0,1.7c0,0.4,0,0.8,0,1.2c0,0.3,0,0.4-0.4,0.4C166.1,56.6,166,56.6,165.8,56.6C165.8,56.6,165.8,56.6,165.8,56.6z
			 M167.7,34.8C167.7,34.8,167.7,34.8,167.7,34.8c0.3,0,0.7,0,1,0c0.4,0,0.7-0.1,1-0.2c0.1,0,0.3,0,0.4-0.1c0.8-0.4,1.7-0.7,2.3-1.5
			c0.2-0.2,0.3-0.4,0.5-0.6c0.4-0.5,0.5-1.1,0.6-1.6c0.1-0.3,0.1-0.6,0.1-0.9c0-0.2,0.1-0.3,0.1-0.5c0-0.6,0-1.1,0-1.7
			c0-0.8-0.4-1.6-0.7-2.3c0-0.1-0.1-0.2-0.2-0.3c-0.1-0.1-0.2-0.3-0.3-0.4c-0.4-0.9-1.2-1.3-2-1.7c-0.6-0.2-1.2-0.3-1.8-0.3
			c-0.6-0.1-1.2-0.1-1.8-0.1c-0.2,0-0.3,0.1-0.3,0.3c0,0.7,0,1.5,0,2.2c0,0.5,0.1,1.1,0.1,1.6c0,0.6,0,1.2,0,1.7c0,0.5,0.2,1,0,1.6
			c0,0.1,0,0.1,0,0.2c0,0.6,0,1.2,0,1.8c0,0.4,0.1,0.8,0.1,1.2c0,0.5,0,1,0,1.4c0,0.2,0.1,0.3,0.3,0.3
			C167.2,34.8,167.4,34.8,167.7,34.8z"/>
		<path fill-rule="evenodd" clip-rule="evenodd" d="M189.9,16.5c0.6,0,1.2,0.1,1.8,0.1c0.4,0,0.8,0,1.1-0.1c0.3,0,0.5,0,0.8,0
			c0.6,0,1.2,0,1.7,0c0.3,0,0.4,0,0.4,0.3c0.1,0.7,0.3,1.5,0.4,2.2c0.4,1.7,0.7,3.5,1.1,5.2c0.1,0.5,0.3,1.1,0.4,1.6
			c0.1,0.7,0.3,1.4,0.4,2.2c0.1,0.5,0.2,1.1,0.3,1.6c0.2,1.2,0.5,2.4,0.7,3.5c0.1,0.7,0.3,1.3,0.5,2c0.1,0.3,0.1,0.7,0.2,1
			c0,0.2,0,0.4,0.1,0.6c0.3,1.2,0.5,2.4,0.7,3.7c0,0.1,0.1,0.3,0.1,0.4c0,0.1,0.1,0.2,0.1,0.3c0.1,1,0.4,1.9,0.6,2.9
			c0.1,0.5,0.2,0.9,0.3,1.4c0.1,0.7,0.3,1.5,0.4,2.2c0.1,0.6,0.3,1.3,0.4,1.9c0.2,0.8,0.3,1.6,0.5,2.4c0,0.1,0,0.2,0,0.2
			c0.3,1.2,0.5,2.3,0.8,3.5c0,0.2,0.1,0.3,0.1,0.5c0.1,0.3,0,0.4-0.3,0.4c-0.8,0-1.5-0.1-2.3-0.1c-0.8,0-1.6,0.1-2.5,0.1
			c-0.4,0-0.9,0-1.3,0c-0.1,0-0.2-0.1-0.3-0.2c-0.2-0.9-0.3-1.8-0.5-2.8c0-0.2-0.1-0.4-0.2-0.7c-0.1-0.6-0.3-1.2-0.4-1.7
			c-0.1-0.6-0.3-1.2-0.4-1.9c-0.2-0.7-0.3-1.5-0.4-2.2c-0.1-0.3-0.1-0.5-0.2-0.8c-0.1-0.2-0.1-0.4-0.2-0.7c0-0.3-0.1-0.4-0.4-0.3
			c-0.7,0-1.3,0.1-1.9,0.1c-0.6,0-1.2,0-1.7-0.1c-0.1,0-0.3,0-0.4,0c-0.1,0-0.3,0.1-0.3,0.2c-0.1,0.3-0.1,0.6-0.2,0.9
			c0,0.1,0,0.1,0,0.2c-0.2,1-0.4,1.9-0.5,2.9c-0.1,0.7-0.2,1.5-0.3,2.2c0,0.3-0.2,0.5-0.2,0.8c-0.1,0.5-0.1,0.9-0.2,1.4
			c-0.1,0.4-0.1,0.7-0.2,1c-0.1,0.4-0.1,0.9-0.2,1.3c0,0.3-0.1,0.3-0.4,0.3c-1,0.1-2-0.2-3.1,0c-0.3,0-0.5,0-0.8,0
			c-0.1,0-0.3,0-0.4,0c-0.2,0-0.5,0-0.7,0c-0.3,0-0.6,0-0.9,0c-0.3,0-0.4-0.1-0.3-0.4c0.1-0.4,0.1-0.8,0.2-1.2
			c0.1-0.4,0.2-0.8,0.3-1.2c0-0.2,0-0.4,0.1-0.6c0-0.2,0-0.4,0.1-0.6c0.1-0.3,0.1-0.6,0.2-1c0.1-0.7,0.3-1.4,0.4-2.1
			c0-0.1,0.1-0.2,0.1-0.3c0-0.7,0.1-1.4,0.3-2c0.1-0.3,0.1-0.6,0.2-1c0-0.6,0.3-1.2,0.3-1.8c0-0.3,0.1-0.7,0.2-1
			c0-0.2,0.1-0.4,0.1-0.6c0-0.1,0-0.1,0-0.2c0.1-0.6,0.3-1.3,0.4-1.9c0.1-0.3,0.1-0.6,0.2-0.9c0.1-0.6,0.1-1.3,0.3-1.9
			c0.3-1,0.4-2.1,0.6-3.2c0.1-0.6,0.3-1.3,0.4-1.9c0-0.2,0-0.4,0.1-0.6c0.1-0.5,0.2-0.9,0.3-1.4c0.1-0.7,0.2-1.4,0.3-2.1
			c0.1-0.4,0.2-0.9,0.3-1.3c0.1-0.3,0.1-0.6,0.1-1c0-0.1,0-0.2,0-0.2c0.2-0.7,0.3-1.5,0.5-2.2c0-0.1,0.1-0.2,0.1-0.3
			c0.1-0.9,0.3-1.8,0.4-2.7c0.1-0.6,0.2-1.2,0.3-1.7c0.1-0.7,0.2-1.4,0.3-2.1c0.1-0.4,0.1-0.5,0.6-0.5
			C189.6,16.6,189.8,16.6,189.9,16.5C189.9,16.5,189.9,16.5,189.9,16.5z M193.3,32.7C193.3,32.7,193.3,32.7,193.3,32.7
			c0-0.1,0-0.3,0-0.4c-0.1-0.9-0.3-1.8-0.4-2.7c0-0.2,0-0.4-0.3-0.4c-0.1,0-0.2,0.3-0.2,0.5c-0.1,0.3-0.1,0.5-0.1,0.8
			c0,0.4-0.1,0.8-0.1,1.2c0,0.4-0.1,0.9-0.1,1.3c0,0.3-0.2,0.7-0.2,1c-0.1,0.8-0.1,1.7-0.3,2.5c-0.2,1-0.1,2-0.4,2.9
			c-0.1,0.3,0,0.5,0.3,0.5c0.6,0,1.2,0,1.9,0c0.2,0,0.5,0,0.7,0c0.2,0,0.3-0.1,0.3-0.3c0-0.4-0.1-0.7-0.1-1.1
			c-0.1-0.5-0.2-1.1-0.3-1.7c-0.2-1-0.3-2-0.5-3C193.4,33.5,193.3,33.1,193.3,32.7z"/>
		<path fill-rule="evenodd" clip-rule="evenodd" d="M212.2,38.9c0.1-0.3,0.1-0.5,0.2-0.8c0.1-0.3,0.1-0.6,0.2-0.9
			c0.1-0.4,0.1-0.8,0.2-1.2c0-0.1,0-0.3,0.1-0.4c0.2-0.4,0.1-0.8,0.2-1.1c0.1-0.6,0.3-1.2,0.4-1.9c0-0.2,0.1-0.5,0.1-0.7
			c0.1-0.5,0.2-1,0.2-1.4c0-0.3,0.1-0.5,0.2-0.8c0.1-0.5,0.2-1,0.3-1.5c0-0.2,0-0.4,0.1-0.7c0.1-0.4,0.1-0.8,0.2-1.1
			c0-0.2,0.1-0.4,0.1-0.6c0,0,0-0.1,0-0.1c0.1-0.7,0.3-1.4,0.4-2c0.1-0.3,0.1-0.6,0.2-0.9c0.1-0.7,0.2-1.5,0.4-2.2
			c0.1-0.9,0.3-1.7,0.5-2.5c0.1-0.4,0.1-0.8,0.2-1.3c0-0.2,0.2-0.2,0.3-0.2c0.6,0,1.3,0.1,1.9,0.1c0.4,0,0.8,0,1.1,0
			c0.2,0,0.4,0,0.6,0c0.7,0,1.5,0,2.2,0c0.4,0,0.5,0.1,0.4,0.5c0,0.3-0.1,0.5-0.2,0.8c-0.2,0.8-0.4,1.7-0.5,2.5
			c-0.1,0.5-0.2,1.1-0.3,1.6c-0.1,0.6-0.2,1.2-0.3,1.8c0,0,0,0.1,0,0.1c-0.1,0.7-0.3,1.4-0.4,2.1c-0.2,0.9-0.3,1.7-0.5,2.6
			c0,0.2-0.1,0.5-0.2,0.7c-0.1,0.5-0.2,0.9-0.2,1.4c0,0.1,0,0.2,0,0.3c-0.1,0.7-0.3,1.3-0.4,2c-0.1,0.5-0.2,1-0.3,1.5
			c0,0.2-0.1,0.3-0.1,0.5c-0.2,1.1-0.4,2.2-0.7,3.4c-0.2,1.2-0.5,2.5-0.8,3.7c0,0.2-0.1,0.5-0.1,0.7c0,0.1,0,0.2,0,0.2
			c-0.2,0.3-0.2,0.6-0.2,0.9c0,0.1,0,0.2,0,0.3c-0.1,0.6-0.3,1.2-0.4,1.8c-0.1,0.7-0.2,1.3-0.4,2c-0.1,0.6-0.2,1.1-0.3,1.7
			c-0.1,0.8-0.3,1.6-0.4,2.4c-0.1,0.3-0.2,0.6-0.2,1c-0.1,0.4-0.2,0.8-0.2,1.2c0,0.1,0,0.2,0,0.3c-0.1,0.6-0.3,1.2-0.4,1.8
			c0,0.2-0.1,0.3-0.3,0.3c-0.6,0-1.2,0-1.8,0c-0.4,0-0.7,0-1.1,0c-0.7,0-1.4,0-2.1,0c-0.3,0-0.5-0.2-0.5-0.5c0-0.3-0.1-0.6-0.2-1
			c-0.2-0.8-0.4-1.6-0.5-2.4c-0.1-0.9-0.4-1.7-0.5-2.6c-0.1-0.3-0.1-0.7-0.1-1c-0.2-1-0.4-2-0.6-3c-0.2-0.9-0.4-1.9-0.5-2.8
			c-0.1-0.6-0.1-1.2-0.3-1.8c-0.2-0.5-0.2-1.1-0.3-1.6c-0.1-0.4-0.2-0.8-0.3-1.2c-0.1-0.7-0.2-1.3-0.3-2c-0.1-0.7-0.3-1.4-0.4-2.1
			c-0.1-0.6-0.2-1.2-0.3-1.8c-0.1-0.4-0.2-0.8-0.3-1.2c-0.2-1-0.4-2-0.6-3c-0.2-0.7-0.3-1.5-0.4-2.2c-0.1-0.7-0.3-1.4-0.4-2.1
			c-0.1-0.7-0.3-1.3-0.4-2c-0.2-0.8-0.3-1.7-0.5-2.5c0,0,0-0.1,0-0.1c-0.1-0.6-0.2-1.1-0.3-1.7c-0.1-0.4-0.2-0.8-0.2-1.2
			c0-0.2,0.1-0.3,0.3-0.3c0.6,0,1.3,0,1.9,0c0.6,0,1.2,0,1.8,0c0.7,0,1.5,0,2.2,0c0.2,0,0.3,0.1,0.4,0.3c0.1,0.3,0.1,0.6,0.1,0.9
			c0,0.3,0.1,0.5,0.1,0.8c0,0.1,0.1,0.2,0.1,0.3c0.2,1,0.3,2.1,0.5,3.1c0,0.1,0.1,0.3,0.1,0.4c0.1,0.6,0.2,1.3,0.3,1.9
			c0,0.1,0,0.1,0,0.2c0.1,0.5,0.2,1.1,0.3,1.6c0.1,0.6,0.3,1.2,0.4,1.8c0.1,0.5,0.1,1,0.2,1.5c0.1,0.4,0.1,0.8,0.2,1.1
			c0,0.3,0.1,0.6,0.2,0.8c0,0.1,0,0.3,0.1,0.4c0.1,0.7,0.3,1.3,0.4,2c0.1,0.7,0.2,1.4,0.3,2.1c0,0.3,0.1,0.5,0.2,0.8
			c0.1,0.4,0.1,0.8,0.2,1.2C211.9,38.3,212,38.6,212.2,38.9C212.1,38.9,212.2,38.9,212.2,38.9z"/>
		<path fill-rule="evenodd" clip-rule="evenodd" d="M234,30.7c0.9,0,1.7,0,2.6,0c0.6,0,1.1,0,1.7,0c0.2,0,0.4,0,0.6-0.1
			c0.3,0,0.7,0,1,0c0.2,0,0.3,0.2,0.3,0.3c0,0.2,0,0.5,0,0.7c0,0.7,0,1.4,0,2c0,0.7,0,1.4,0,2c0,0.2,0.1,0.5,0.1,0.7
			c0,0.2-0.1,0.4-0.4,0.3c-0.9-0.1-1.8,0-2.6,0c-0.4,0-0.8,0-1.2,0c-0.5,0-1.1-0.1-1.6,0c-0.2,0.1-0.5,0-0.7,0c-0.3,0-0.4,0-0.4,0.3
			c0,0.1,0,0.1,0,0.2c0,0.9,0,1.8,0,2.7c0,0.4,0,0.8,0,1.2c0,0.2,0,0.5,0,0.7c0,0,0,0.1,0,0.1c0,0.5,0,0.9,0,1.4c0,0.3,0,0.6,0,0.9
			c0,0.8,0,1.7,0,2.5c0,0.5-0.1,0.9-0.1,1.4c0,0.4,0,0.7,0,1.1c0,0.3,0,0.5,0,0.8c0,0.2,0,0.3,0.3,0.3c0.6,0,1.2,0,1.8,0
			c0.7,0,1.4,0.1,2.1,0.1c0.4,0,0.8,0,1.1,0c0.4,0,0.7,0,1.1,0c0.2,0,0.5,0,0.7-0.1c0.4,0,0.5,0.1,0.4,0.4c0,0.4,0,0.9,0,1.3
			c0,0.8,0,1.5,0,2.3c0,0.2,0,0.4,0,0.7c0,0.4,0,0.9,0,1.3c0,0.1-0.2,0.2-0.3,0.2c-0.6,0-1.3-0.1-1.9-0.1c-0.1,0-0.3,0-0.4,0
			c-0.7,0.1-1.4,0.1-2.2,0c-0.4,0-0.8,0-1.3,0c-0.8,0-1.6,0-2.4,0c-0.2,0-0.5,0-0.7,0c0,0,0,0-0.1,0c-0.7,0-1.4,0-2.1-0.1
			c-0.1,0-0.3,0-0.4,0c-0.4,0-0.8,0-1.2,0c-0.2,0-0.5,0.1-0.7,0.1c-0.4,0.1-0.5-0.1-0.5-0.4c0-0.2,0-0.5,0-0.7c0-0.6,0-1.3,0-1.9
			c0-0.2-0.1-0.4-0.1-0.7c0-0.3,0-0.7,0-1c0-0.2,0-0.4,0-0.6c0-0.7,0-1.4,0-2.1c0-0.9,0-1.9,0-2.8c0-0.4,0-0.7,0-1.1
			c0-0.5,0-0.9,0-1.4c0-0.5,0-1.1,0-1.6c0-0.8-0.1-1.5,0-2.3c0-0.5,0-1,0-1.5c0.1-0.8,0-1.6-0.1-2.4c0-0.4,0-0.8,0-1.2
			c0-0.7,0-1.5,0-2.2c0-0.8,0-1.5,0-2.3c0-0.6,0-1.2-0.1-1.8c0-0.1,0-0.2,0-0.3c0-0.7,0.1-1.3,0.1-2c0-0.3,0-0.7,0-1
			c0-0.3,0-0.7,0-1c0-0.4,0-0.8,0-1.1c0-0.7,0-1.4,0-2.1c0-0.9,0.1-1.9,0.1-2.8c0-0.4,0-0.9,0-1.3c0-0.3,0.1-0.4,0.4-0.4
			c0.6,0,1.3,0,1.9,0c0.6,0,1.2,0,1.8,0c0.5,0,1.1,0,1.6,0c0.6,0,1.2,0,1.7,0c0.3,0,0.7,0,1,0c0.6,0,1.3,0,1.9,0c0.1,0,0.1,0,0.2,0
			c0.7,0,1.5-0.1,2.2-0.1c0.3,0,0.5,0,0.8,0c0.2,0,0.3,0.2,0.3,0.4c0,1-0.1,2.1-0.1,3.1c0,0.5,0,1,0,1.5c0,0.3,0,0.6,0,0.9
			c0,0.2-0.1,0.3-0.3,0.3c-0.5,0-1,0-1.5,0c-0.2,0-0.5,0-0.7,0c-0.4,0-0.9,0-1.3,0c-0.5,0-1.1,0-1.6,0.1c-0.3,0-0.5,0-0.8-0.1
			c-0.1,0-0.1,0-0.2,0c-0.9,0-1,0-0.9,1c0,0.7,0.1,1.5,0,2.2c-0.1,0.8,0,1.5,0,2.3c0,0.8,0,1.6,0.1,2.4c0,0.2,0.1,0.3,0.3,0.3
			C233.6,30.7,233.8,30.7,234,30.7C234,30.7,234,30.7,234,30.7z"/>
	</g>
</g>
</svg>
