<?xml version="1.0" encoding="utf-8"?>
<!-- Generator: Adobe Illustrator 18.0.0, SVG Export Plug-In . SVG Version: 6.00 Build 0)  -->
<!DOCTYPE svg PUBLIC "-//W3C//DTD SVG 1.1//EN" "http://www.w3.org/Graphics/SVG/1.1/DTD/svg11.dtd">
<svg version="1.1" id="Layer_1" xmlns="http://www.w3.org/2000/svg" xmlns:xlink="http://www.w3.org/1999/xlink" x="0px" y="0px"
	 viewBox="0 0 436.7 284.3" enable-background="new 0 0 436.7 284.3" xml:space="preserve">
<g>
	<path fill-rule="evenodd" clip-rule="evenodd" fill="#010101" d="M302.8,191.1c0.1-0.3,0.3-0.5,0.4-0.8c-0.2-0.1-0.4-0.1-0.6-0.2
		c0.3-0.2,0.4-0.3,0.6-0.4c-0.1-0.2-0.2-0.4-0.1-0.5c0-0.3,0.1-0.5,0.3-0.8c0.8-1.1,1.1-2.4,1.5-3.6c0.2-0.7,0.5-1.3,1-1.8
		c0.4-0.4,0.6-0.8,0.3-1.4c-0.3-0.4,0.2-0.7,0.3-1c0.8-2.3,1.6-4.6,2.4-6.8c0.5-1.4,1.2-2.6,1.6-4c0.3-1.1,0.9-2.1,0.9-3.2
		c0-0.5,0.2-0.8,0.7-0.9c-0.1-0.3-0.3-0.6-0.2-0.8c0.1-0.2,0.5-0.2,0.8-0.4c0-0.5,0.4-1-0.1-1.5c-0.1-0.1,0-0.3,0-0.5
		c0.3-1.5,0.2-2.9-0.1-4.3c-0.2-0.9-0.6-1.6-1.3-2.2c-0.7-0.6-1.5-1.2-2.5-1.5c-0.2-0.1-0.6,0-0.7-0.5c0-0.1-0.3-0.2-0.5-0.2
		c-0.6-0.1-1.2-0.1-1.7-0.3c-1.4-0.6-2.8-0.4-4.2-0.6c-1.3-0.1-2.6,0.2-3.8,0.3c-1.5,0.1-2.9,0.3-4.4,0.4c-0.9,0.1-1.8,0-2.6-0.2
		c-0.8-0.2-1.7,0.2-2.5-0.3c0,0-0.1,0-0.2,0c-0.5,0.1-0.9,0.1-1.4,0.2c-0.4,0-0.8,0-1.3,0c-0.9,0-1.8,0-2.7,0c-0.5,0-1-0.1-1.5-0.1
		c-0.9-0.1-1.6,0.4-1.8,1.2c0,0.2,0,0.4,0,0.5c0.7,1.4,0.7,2.9,1,4.4c0,0.2,0,0.5,0.1,0.6c0.7,0.9,0.7,2.1,1,3.1
		c0.2,0.7,0.7,1.4,0.3,2.1c0,0.1,0.1,0.2,0.1,0.4c0.1,0.6,0.4,1.2,0.3,1.7c-0.1,0.7,0.2,1.4,0,2.1c0,0.2,0.1,0.4,0.2,0.6
		c0.2,0.4,0.3,0.8,0.2,1.3c0,0.3,0.1,0.6,0.2,1c0.2,1.2,0.5,2.4,0.7,3.6c0,0.1,0.1,0.1,0,0.2c-0.2,0.5-0.2,1,0.1,1.5
		c0.3,0.5,0.3,1,0.4,1.6c0.2,1,0.2,2.1,0.4,3.1c0.1,0.7,0.2,1.5,0.3,2.2c0.1,0.4,0.1,0.9,0.2,1.3c0.2,1,0.4,2,0.5,3
		c0.1,0.5,0,1.1,0.2,1.6c0.4,0.8,0.2,1.7,0.6,2.4c0.1,0.3,0.1,0.7,0.1,1.1c0,0.6,0.2,1.1,0.4,1.7c0.3,0.8,0.4,1.8,0.5,2.6
		c0.2,1.1,0.2,2.1,0.6,3.2c0.3,1,0.2,2.1,0.4,3.1c0.1,0.9,0.4,1.9,0.6,2.8c0.1,0.6,0.4,1.3,0.5,1.9c0.1,0.5,0,1,0,1.4
		c0.1,0.9,0,1.9,0.4,2.8c0.1,0.2,0.1,0.4,0.1,0.6c0,0.9,0.2,1.7,0.6,2.5c0.1,0.1,0.1,0.3,0.1,0.4c-0.4,1.1,0.4,2.1,0.3,3.3
		c-0.1,1.1,0,2.2,0.1,3.3c0.1,1.7-0.2,3.4-0.6,5c-0.3,1.1-1,1.7-2.1,2.1c-2.3,0.9-4.4,0.1-6.6-0.6c-1-0.4-1.9-0.9-2.7-1.7
		c-1.2-1.3-2.2-2.7-2.7-4.4c-0.1-0.2-0.1-0.5,0-0.7c0.1-0.4,0-0.7-0.3-1.1c-0.3-0.5-0.4-1.1-0.6-1.7c-0.4-1.8-0.8-3.6-1.3-5.4
		c-0.2-1-0.4-1.9-0.7-2.9c-0.2-0.9-0.4-1.8-0.1-2.7c0-0.1,0-0.2-0.1-0.3c-0.2-0.5-0.3-1-0.5-1.5c0,0,0.2-0.2,0.2-0.2
		c-0.1-0.5-0.1-1.1-0.3-1.5c-0.6-0.8,0.1-1.9-0.6-2.6c0.3-0.9-0.2-1.8-0.1-2.7c0-0.3,0-0.4-0.3-0.6c-0.3-0.3-0.3-0.9-0.3-1.3
		c0-0.2,0-0.4-0.1-0.6c-0.2-0.4-0.2-0.9-0.3-1.3c-0.2-1.3-0.5-2.6-0.7-3.9c-0.2-1.5-0.5-2.9-0.7-4.4c-0.1-0.4,0.1-0.9-0.3-1.3
		c-0.1-0.1-0.1-0.4-0.1-0.6c-0.1-1.5-0.1-3-0.5-4.4c0-0.2-0.1-0.3-0.1-0.5c0.1-0.7-0.1-1.3-0.3-2c-0.1-0.4,0-0.8,0.1-1.4
		c-0.5-0.7-0.7-1.5-0.3-2.6c0.1-0.3,0.5-0.8-0.3-0.9c-0.1,0-0.2-0.5-0.2-0.7c-0.1-1.2-0.2-2.4-0.3-3.6c0-0.2,0.1-0.5,0.2-0.8
		c-0.9-1.2-0.3-2.8-0.8-4.1c0.2-0.2,0.4-0.5,0.6-0.7c-0.6-0.3-0.7-0.8-0.8-1.4c-0.4-3-0.8-6-1.2-9c-0.1-0.8-0.2-0.9-0.9-1
		c-1.4-0.2-2.7-0.6-3.9-1.2c-0.6-0.3-1.3-0.3-2.1-0.5c0.2,0.8,0.4,1.5,0.4,2.2c0.1,0.7-0.1,1.4,0,2.1c0.2,1.3,0,2.6,0.4,3.8
		c0.3,0.9,0.2,1.9,0.1,2.9c-0.1,1.4-0.3,2.9-0.7,4.3c-0.1,0.3,0.1,0.7,0,1c-0.2,1.4-0.1,2.9-0.5,4.3c-0.2,0.6-0.1,1.3-0.2,1.9
		c-0.1,0.5-0.3,0.9-0.3,1.3c-0.1,0.4,0,0.7,0,1.1c0,0.5,0.1,1.1,0.1,1.6c0,0.7,0,1.4,0,2.2c-0.1,0.7-0.3,1.3-0.4,2
		c0,0.1,0.1,0.3,0.2,0.5c-0.5,0.8-0.2,1.9-0.3,2.9c-0.1,0.8,0.1,1.6-0.4,2.4c-0.3,0.6-0.2,1.3-0.2,2c0,1.4-0.2,2.9-0.4,4.3
		c0,0.3-0.1,0.6-0.2,0.9c0,0.2-0.1,0.5-0.1,0.7c0.1,0.6,0.1,1.2-0.4,1.7c-0.1,0.1-0.2,0.2-0.2,0.4c0,0.7-0.1,1.4-0.1,2.1
		c0,0.6-0.1,1.1-0.6,1.5c0.2,0.5,0.6,1,0,1.6c-0.1,0.1-0.2,0.4-0.2,0.6c-0.2,0.9-0.3,1.8-0.5,2.7c-0.1,0.4-0.1,0.8-0.4,1.1
		c0.4,0.5-0.3,0.6-0.2,0.9c0,0.7-0.1,1.3-0.5,1.9c0.7,1-0.2,1.8-0.3,2.7c-0.1,1.1-0.3,2.3-0.6,3.3c-0.2,0.7-0.7,1.2-1.1,2
		c0,0,0.2,0.2,0.3,0.3c0,0.2-0.1,0.4-0.1,0.6c-0.5,1.1-1.1,2.3-1.7,3.4c-0.9,1.6-1.8,3.2-2.7,4.8c0.1,0.1,0.2,0.2,0.3,0.3
		c0.7,0.5,1.1,1,0.9,1.9c0,0.3,0.2,0.7,0.3,1c0.1,0.2,0,0.5,0.1,0.9c0.4,0.3,0.8,0.9,1,1.6c0.2,1,0.7,1.9,1.3,2.8
		c0.3,0.4,0.6,0.9,0.6,1.4c0.2,0.9,0.4,1.7,0.9,2.4c0.2,0.2,0.2,0.6,0.3,0.9c0,0.1-0.1,0.4,0,0.4c0.5,0.2,0.2,0.8,0.5,1.1
		c0.3,0.4-0.1,1,0,1.5c0.2,0.8,0.2,1.5-0.1,2.4c0.1,0.1,0.3,0.3,0.3,0.4c0.2,0.5,0.4,0.9,0.1,1.4c-0.2,0.4-0.2,0.9-0.3,1.3
		c-0.2,0.8-0.8,1.5-1.5,2c-1,0.8-2.3,1.3-3.4,1.8c-1.2,0.6-2.7,0.6-4,0.5c-0.4,0-0.8-0.5-1.4-0.8c-0.1,0.3-0.2,0.5-0.3,0.8
		c-0.6,1.6-1.1,3.3-1.8,4.9c-0.6,1.2-1.4,2.3-2.1,3.4c-0.6,0.8-1.3,1.6-2,2.4c-0.6,0.7-1.2,1.5-1.8,2.2c-0.1,0.1-0.3,0.2-0.5,0.3
		c-0.1,0.1-0.3,0.2-0.3,0.3c0,1.1-1,1.3-1.6,1.9c-0.4,0.4-0.8,0.7-1.1,1.2c-0.6,0.8-1.1,1.8-1.8,2.5c-0.8,0.8-1.7,1.4-3,1.5
		c0,0.1,0,0.4-0.1,0.4c-1.2,0.5-1.7,1.7-2.6,2.4c-0.6,0.5-1.2,1-1.9,1.4c-0.2,0.1-0.5,0.1-0.6,0.4c0,0.1-0.1,0.2-0.2,0.2
		c-0.8,0-1.1,0.7-1.7,1c-0.6,0.3-1.2,0.6-1.8,0.9c-0.2,0.1-0.3,0.2-0.5,0.3c-0.3,0.2-0.6,0.5-1,0.6c-1.2,0.4-2.4,0.7-3.4,1.4
		c-0.2,0.1-0.5,0-0.7,0c-0.1,0.1-0.2,0.3-0.3,0.5c-0.4-0.4-0.7-0.3-1.1-0.1c-0.9,0.3-2,0.4-3,0.6c-1,0.2-2,0.2-3,0.2
		c-0.6,0-1.1,0-1.7-0.3c-0.7-0.3-1.5-0.2-2.2-0.7c-1-0.7-1.8-1.6-2.4-2.7c-0.4-1-0.9-1.9-0.8-2.9c0-1.2,0.5-2.3,1-3.3
		c0.5-0.9,1.1-1.7,1.6-2.6c0.2-0.3,0.2-0.6,0.3-0.9c0.4-0.8,0.8-1.5,1.3-2.2c0.5-0.7,1-1.3,1.3-2.1c0.1-0.4,0.5-0.6,0.7-1
		c0.1-0.3,0-0.6,0.4-0.8c-0.4-0.5,0.6-0.1,0.4-0.6c-0.1-0.2,0-0.6,0.1-0.8c0-0.1,0.2-0.2,0.3-0.3c0.1-0.1,0.2-0.1,0.3-0.2
		c0.1-0.7,0.7-2.4,1.1-2.9c0.4-0.7,0.6-1.5,1.1-2.1c0.5-0.7,0.8-1.4,1.1-2.1c0.6-1.5,1.3-3.1,2.1-4.5c0.2-0.4,0.3-0.8,0.4-1.3
		c0.1-0.3,0.2-0.6,0.5-0.8c0.2-0.1,0-0.6,0.1-0.9c0.2-0.6,0.6-1.2,0.8-1.9c0.2-0.8,1-1.4,1-2.2c0-0.4-0.1-1,0.1-1.1
		c0.7-0.4,0.5-1.1,0.6-1.6c0.2-1.1,0.1-2.2,0.2-3.3c0-0.5-0.1-1.1,0-1.6c0.1-0.3,0.4-0.6,0.6-0.9c-0.3-0.5-0.1-1.5-1.1-1.5
		c0.2-0.3,0.5-0.6,0.6-0.9c-1.2-0.8-2.5-1.5-3.6-2.4c-1.9-1.6-3.6-3.3-4.6-5.5c-0.8-1.7-1.6-3.4-2.2-5.2c-0.8-2.4-1.6-4.8-2.5-7.2
		c-0.7-2-1.3-4.1-1.9-6.2c-0.5-1.9-1-3.9-1.5-5.9c-0.2-0.9-0.3-1.8-0.6-2.7c-0.1-0.3,0.5-0.5,0-0.7c-0.2-0.1-0.2-0.5-0.2-0.8
		c-0.2-1.6-0.4-3.2-0.6-4.8c-0.2-1.8-0.5-3.6-0.9-5.3c-0.1,1.1-0.3,2.1-0.4,3.2c0,0.7,0,1.3-0.3,2c-0.1,0.1,0,0.3,0,0.5
		c0,0.4,0.1,0.9,0.1,1.3c-0.2,1.7-0.4,3.4-0.7,5.1c-0.6,0.5-0.3,1.3-0.5,1.9c-0.2,0.5-0.4,1-0.2,1.6c0.1,0.5-0.1,1.2-0.4,1.7
		c-0.4,0.8-0.5,1.6-0.4,2.5c0.1,0.4-0.1,0.9-0.3,1.3c-0.2,0.6-0.4,1.1-0.4,1.7c0,0.4-0.2,0.7,0.2,1c0.1,0.1,0,0.6-0.1,0.9
		c-0.6,1.4-0.6,2.9-1,4.3c-0.2,0.9-0.6,1.8-0.9,2.8c-0.1,0.2-0.3,0.5-0.2,0.7c0.4,1.5-0.2,2.8-0.5,4.2c0,0.1-0.1,0.3,0,0.4
		c0.2,0.9-0.1,1.7-0.1,2.5c-0.1,0.6-0.7,1.2-0.3,1.9c0.1,0.1-0.1,0.3-0.1,0.5c-0.2,0.6-0.6,1.1-0.5,1.7c0,0.5-0.2,1-0.3,1.4
		c-0.1,0.7-0.3,1.4-0.5,2.1c-0.1,0.5-0.1,1.1,0.1,1.6c0.1,0.2,0,0.3,0,0.6c-0.9,0-1.2,0.6-1.3,1.4c-0.2,1.1-1.7,2.5-2.8,2.5
		c-2.3,0.1-4.4-0.5-6.1-2.1c-1.2-1.2-2.2-2.4-2.7-4.1c-0.2-0.7-0.3-1.4-0.2-2.2c0.1-0.6-0.2-1.4-0.1-2.1c0.1-0.4,0.1-0.8,0.1-1.2
		c0-0.6,0-1.2,0.1-1.9c0.1-0.9,0.2-1.9,0.2-2.8c0.1-1.2,0-2.4,0.1-3.5c0-0.4,0.1-0.7,0.2-1.1c0-0.2,0.2-0.4,0.2-0.6
		c-0.3-1.2,0.1-2.3,0.3-3.4c0.2-1,0-2.1,0.6-3c0,0,0-0.1,0-0.1c-0.4-2,0.6-3.8,0.5-5.7c0-0.2,0.2-0.4,0.2-0.7c0.1-0.3,0.3-0.7,0.2-1
		c-0.2-1,0.2-1.8,0.4-2.6c0.1-0.4,0.1-0.8,0.1-1.2c0.2-1.2,0.4-2.4,0.6-3.6c0.1-0.6,0.1-1.2,0.1-1.9c0-0.1,0.1-0.3,0.2-0.4
		c0.1-0.2,0.2-0.3,0.2-0.5c-0.1-0.5-0.2-0.8,0.1-1.3c0.2-0.3,0.2-0.9,0.3-1.3c0.1-0.5,0-1,0-1.5c0-0.1,0-0.3,0-0.4
		c0.6-1.6,0.6-3.4,0.9-5c0.2-1.2,0.5-2.3,0.7-3.5c0.2-1,0.2-2.1,0.6-3.1c0.5-1.4,0.4-3,1-4.4c0.2-0.4,0-1,0.2-1.5
		c0.5-2,0.6-4.1,0.9-6.2c-0.7-0.1-1.3,0.2-2,0.3c-0.5,0.1-0.9,0.2-1.4,0.3c-0.7,0-1.4-0.1-2.1,0c-1.9,0.2-3.9,0-5.7-0.5
		c-2.7-0.6-5.5-1-8-2.2c-0.3-0.1-0.6-0.2-0.9-0.3c-0.8-0.2-1.5-0.6-2.2-1c-0.9-0.6-2-0.9-2.9-1.4c-0.9-0.5-1.9-0.9-2.7-1.4
		c-1.9-1.2-3.7-2.4-5.6-3.5c-0.7-0.4-1.4-0.9-2-1.4c-1.3-1.2-2.9-2.1-4.1-3.4c-1.7-1.9-3.6-3.6-5.3-5.5c-1-1.1-1.9-2.4-2.8-3.6
		c-1.9-2.6-2.7-5.7-4.1-8.5c-0.8-1.6-1.2-3.4-1.7-5.1c-0.3-1-0.4-2-0.7-3c-0.3-1.2-0.5-2.4-0.8-3.6c-0.5-2-0.9-4-1.4-6
		c-0.2-0.6-0.3-1.3-0.5-1.9c-0.2-0.7-0.4-0.9-1.2-0.9c-1,0.1-2,0-3,0.4c-0.8,0.3-1.7,0.4-2.4,0.2c-0.9-0.2-1.8-0.2-2.6-0.6
		c-0.5-0.2-1-0.4-1.2-1.1c-0.1-0.4-0.5-0.7-0.7-1c-1.6,0.3-2.2,1.5-2.9,2.7c-0.1,0.2-0.2,0.3-0.3,0.5c-0.4,0.7-0.8,1.3-1.1,2
		c-0.6,1.3-1.1,2.5-1.7,3.8c-0.8,1.8-1.3,3.8-1.4,5.8c-0.1,1.9-0.1,3.9,0,5.8c0.2,2.3,0.4,4.6,0.8,6.9c0.2,1.6,0.8,3.2,1.3,4.7
		c0.7,2.1,1.4,4.2,2.3,6.2c1.3,3,2.8,5.9,4.4,8.9c1.7,3.4,3.6,6.6,5.7,9.8c1.8,2.7,3.5,5.4,5.3,8.1c1.3,2,2.8,4,4.1,6
		c1.1,1.6,2.1,3.2,3.1,4.8c0.8,1.1,1.6,2.1,2.5,3.2c1.2,1.5,2.4,3.1,3.6,4.7c0.6,0.8,1.3,1.6,1.9,2.4c1.1,1.6,2.2,3.1,3.3,4.7
		c1,1.5,1.9,3.1,3,4.6c0.9,1.3,1.5,2.7,2.3,4c0.4,0.7,0.8,1.4,1.2,2.1c0.8,1.5,1.5,3,2.3,4.5c0.7,1.3,1.5,2.5,2.1,3.8
		c1.3,2.6,2.3,5.2,3.1,7.9c0.8,2.6,1.5,5.3,2.3,8c0.5,1.9,1.1,3.9,1.6,5.8c0.2,0.7,0.2,1.5,0.2,2.3c0,2.3-0.1,4.7-0.5,6.9
		c-0.3,1.4-0.7,2.7-1.1,4.1c-0.3,1.2-0.6,2.4-1.1,3.5c-0.4,0.9-0.9,1.8-1.4,2.7c-1.1,2-2.5,3.7-4.1,5.3c-0.3,0.3-0.6,0.5-0.9,0.8
		c-1.5,1.1-3,2.2-4.7,3.1c-1.3,0.7-2.7,1.3-4.2,1.8c-0.9,0.3-1.9,0.7-2.8,1c-0.6,0.2-1.3,0.4-1.9,0.4c-1.2,0-2.3,0.3-3.4,0.6
		c-1.6,0.3-3.2,0.4-4.8,0.6c-1.1,0.1-2.1,0.1-3.2,0.4c-0.4,0.1-0.8-0.2-1.3-0.1c-1.3,0-2.6,0.2-3.9,0.2c-1.7,0-3.4,0-5,0
		c-1.7,0-3.1-0.6-4.7-1.2c-1.3-0.5-2.8-0.7-4.2-1.1c-1.1-0.3-2.2-0.7-3.4-1c-1-0.3-2-0.6-3-0.9c-0.5-0.2-1-0.5-1.5-0.7
		c-0.4-0.2-0.9-0.4-1.2-0.7c-1.6-1.3-3.2-2.7-4.8-4.1c-0.3-0.2-0.5-0.5-0.7-0.8c-0.6-0.8-1.1-1.6-1.6-2.5c-0.5-0.9-1.1-1.8-1.5-2.7
		c-0.5-0.9-0.7-2-1.2-2.9c-0.4-0.8-0.5-1.8-0.7-2.6c-0.2-1.8-0.2-3.6,0.2-5.4c0.1-0.3-0.1-0.7-0.1-1c0.1-0.9,0.2-1.7,0.3-2.6
		c0.1-1.1,0.5-2,1.1-2.8c0.8-1.3,1.7-2.6,2.5-4c0.3-0.5,0.6-0.9,1-1.3c0.4-0.5,0.6-1.1,1-1.6c1-1.1,2.1-2.2,3.6-2.7
		c1.2-0.4,2.2-1.2,3-2c1.1-1.1,2.4-1.7,3.9-2.2c1-0.3,2-0.6,2.9-0.9c0.2-1.4-0.6-2.5-0.9-3.7c-0.3-1-0.6-1.9-0.9-2.9
		c0-0.1-0.1-0.2-0.1-0.3c-0.2-1.2-0.3-2.4-0.7-3.5c-0.3-0.9-0.4-1.8-0.7-2.7c-0.3-0.9-0.4-1.8-0.8-2.6c-0.8-1.7-1.1-3.7-1.7-5.5
		c-0.6-1.8-1-3.8-1.4-5.7c-0.2-0.7-0.5-1.4-0.7-2.2c-0.1-0.6-0.3-1.2-0.3-1.8c0-1.4-0.5-2.7-0.8-4.1c-0.4-1.8-0.7-3.6-1-5.4
		c-0.2-1-0.5-2-0.8-3c-0.2-0.7-0.3-1.3-0.5-2c-0.4-1.8-0.7-3.5-1.1-5.3c-0.2-1-0.8-1.9-0.5-3c-0.4-2.1-0.9-4.1-1.2-6.2
		c-0.2-1.3-0.2-2.6-0.3-3.9c-0.1-0.6-0.1-1.2-0.2-1.8c-0.1-0.6-0.3-1.1-0.1-1.7c0.1-0.3-0.2-0.6-0.3-0.9c-0.3-1.4-0.3-2.8-0.4-4.3
		c-0.3-2.4-0.3-4.9-0.8-7.3c-0.5-2.1-0.8-4.3-1.3-6.4c-0.4-1.8-0.7-3.6-1.1-5.4c-0.2-0.7-0.6-1.4-0.9-2.1c-0.4-0.9-0.7-1.8-1.2-2.7
		c-0.5-0.8-1.1-1.5-1.7-2.3c-0.1-0.2-0.3-0.3-0.4-0.5c-0.5-0.6-0.5-0.7-1.3-0.8c-0.2-0.6-0.2-1.4-1.1-1.6c-0.1,0.6-0.1,1.2-0.2,1.8
		c-0.2,0.1-0.5,0.2-0.7,0.2c-0.7,0-1.5-0.1-2.2-0.1c-0.6,0-1.1,0-1.7,0c-0.5,0-1,0-1.4-0.1c-0.9-0.2-1.5,0.3-1.5,1.2
		c0,0.4,0,0.7-0.4,0.9c-0.1,0-0.1,0.1-0.1,0.2c0,1.4-1.4,1.9-2,2.9c-0.7,0.2-1.1,1-2,0.9c-0.4,0-0.9,0.1-1.4,0.2c-0.3,0-0.7,0-1,0.1
		c0.1,0.8-0.9,1.3-0.6,2.2c-0.5,0.4-0.4,0.9-0.4,1.5c0,0.1,0,0.3-0.1,0.3c-0.7,0.5-0.5,1.3-0.8,2c-0.3,0.7-0.6,1.4-0.8,2.2
		c-0.5,1.7-1,3.3-1.6,5c-0.2,0.5-0.3,1-0.4,1.7c1,0,1.9,0,2.8-0.1c1-0.1,2-0.1,2.9,0.6c0.2,0.1,0.5,0.2,0.7,0.2
		c1.3-0.2,2.2,0.8,3.3,1c0.1,0,0.2,0.2,0.3,0.4c0.6,0.6,1.2,1.2,1.9,1.7c0.1,0.1,0.2,0.2,0.2,0.3c0.2,0.9,0.6,1.6,1.3,2.2
		c0.4,0.4,0.6,1,0.7,1.6c0.4,1.6,0.9,3.3,0.6,4.9c-0.2,1.3-0.1,2.7-0.7,4c-0.5,1.2-1.4,2.1-2.4,3c-0.4,0.3-0.8,0.6-1.3,0.9
		c-0.8,0.5-1,1-0.8,1.8c0.7,2.5,1.4,5.1,2.2,7.6c0.6,2,1.1,4,1.7,6c0.6,2.1,1,4.2,1.7,6.2c0.6,1.6,0.9,3.3,1.2,5
		c0.1,0.6,0.4,1.2,0.6,1.9c0,0.1,0.1,0.3,0.1,0.4c0,1.3,0.7,2.4,0.9,3.7c0.2,1.4,0.5,2.8,0.7,4.2c0.1,0.5,0.2,1.1,0.4,1.6
		c0.5,1.7,1.1,3.4,1.6,5.1c0.5,1.7,0.8,3.4,1,5.2c0.2,1.7,0.6,3.4,1,5.2c0.2,1.2,0.4,2.4,0.6,3.5c0.2,0.8,0.2,1.7,0.5,2.4
		c0.9,2.2,1,4.4,0.8,6.7c-0.2,2.3-1.4,3.5-3.6,4.1c-0.9,0.3-1.8,0.1-2.7,0.1c-0.5,0-1-0.2-1.3-0.6c-1.1-1.4-2.1-2.8-2.5-4.5
		c-0.2-0.8-0.5-1.5-0.6-2.3c-0.5-1.9-1.1-3.9-1.4-5.8c-0.2-1.3-0.7-2.4-0.9-3.7c-0.4-2.2-0.8-4.4-1.2-6.7c-0.2-1.1-0.2-2.3-0.5-3.3
		c-0.2-0.8-0.7-1.5-0.9-2.3c-0.4-1.3-0.7-2.6-1.1-3.9c-0.6-2.2-0.9-4.5-1.5-6.7c-0.4-1.3-0.6-2.6-0.9-3.8c-0.4-1.3-0.6-2.6-1.1-3.9
		c-0.5-1.5-0.8-3-1-4.5c0,0,0-0.1,0-0.1c-1-1.4-0.4-3.2-1.4-4.6c-0.1-0.2-0.1-0.5-0.1-0.7c-0.2-1.2-0.5-2.4-0.7-3.6c0,0,0-0.1,0-0.1
		c-0.9-1-0.5-2.3-0.9-3.5c-0.2-0.6-0.3-1.2-0.5-1.8c-5.9,1.6-11.9,1.8-18,2c0,1.5,0,2.9,0.3,4.3c0.2,0.9,0.3,1.8,0.4,2.8
		c0.2,1.8,0.5,3.7,0.7,5.5c0.3,2.8,0.8,5.6,0.8,8.4c0,1,0.2,2,0.2,3c0,1.3-0.1,2.7,0,4c0.2,2.8-0.2,5.6,0.4,8.4
		c0.3,1.5,0.4,3,0.5,4.5c0.1,1.5,0.1,2.9,0.1,4.4c0,1.9-0.1,3.7,0,5.6c0.2,2,0.1,4.1,0.1,6.1c0,1,0.1,2,0.2,3c0,0.8,0,1.6,0,2.4
		c-0.1,2-0.1,4-0.4,5.9c-0.2,1.3-0.6,2.6-1.2,3.8c-0.5,1-1.2,1.9-2.4,2.1c-1.1,0.2-2.1,0.4-3.2,0.4c-0.9,0-1.5-0.3-2.2-0.7
		c-1-0.6-1.5-1.4-1.9-2.4c-0.5-1.3-0.8-2.6-0.9-4c0-1.2-0.1-2.4,0-3.6c0.2-1.9-0.2-3.8-0.1-5.7c0-0.3,0.1-0.7,0.1-1
		c-0.1-1.2-0.2-2.4-0.3-3.5c-0.1-0.8-0.1-1.5-0.1-2.3c0-1,0-2,0-2.9c-0.1-1.7-0.3-3.4-0.5-5.1c-0.1-0.8-0.2-1.7-0.1-2.5
		c0.1-1.6,0.4-3.3,0.4-4.9c0-1.2,0.3-2.3,0.3-3.5c0-1.6-0.1-3.2,0-4.8c0-0.6,0.1-1.3,0.2-1.9c0-0.3,0.1-0.7,0-1
		c-0.2-1.8-0.2-3.7-0.2-5.5c0-0.4-0.1-0.7-0.2-1.1c-0.1-0.4-0.4-0.9-0.2-1.2c0.5-0.8,0-1.6-0.1-2.4c0-0.2-0.1-0.5,0-0.7
		c0.4-1.2,0-2.5,0-3.7c0-0.5,0.1-1,0.1-1.5c0-0.2,0.1-0.4,0-0.5c-0.3-1.3-0.1-2.5-0.1-3.8c0-0.6,0-1.2-0.1-1.7
		c-0.2-0.8,0-1.5,0.1-2.3c-5.9-0.2-11.7-1.3-17.4-2.7c-0.2,0.7-0.4,1.3-0.5,2c-0.4,1.7-0.7,3.3-1,5c-0.3,1.3-0.5,2.6-0.7,3.8
		c-0.1,0.7-0.2,1.5-0.4,2.2c-0.4,2-0.8,4-1.2,6c-0.1,0.8-0.2,1.6-0.4,2.3c-0.3,1.8-0.6,3.5-1,5.3c-0.3,1.5-0.8,3-1.1,4.5
		c-0.5,2.3-0.9,4.5-1.3,6.8c-0.2,1-0.5,2-0.7,2.9c-0.4,1.9-0.8,3.9-1.1,5.8c0,0.1-0.1,0.2-0.1,0.3c0.1,0.7-0.2,1.4-0.3,2.1
		c-0.3,1.6-0.8,3.2-1.1,4.8c-0.1,0.4-0.1,0.8-0.2,1.2c0,0.2-0.1,0.4-0.1,0.7c-0.3,1.3-0.7,2.7-1,4c-0.4,1.3-0.7,2.7-1.1,4
		c-0.1,0.4-0.5,0.7-0.7,1.1c-0.3,0.5-0.4,1-1,1.2c-0.5,0.2-0.9,0.4-1.5,0.6c-0.6,0.2-1.2,0-1.8-0.1c-0.9-0.1-1.4-0.7-1.9-1.2
		c-0.3-0.3-0.6-0.4-0.9-0.7c0.3-1-0.3-1.9-0.8-2.8c0.1-0.3,0.1-0.7,0.2-1.1c0-0.5-0.2-1,0-1.6c0.2-0.5,0.2-1.1,0.3-1.6
		c0.5-2.4,0.9-4.9,1.5-7.3c0.4-1.7,0.8-3.5,1.1-5.2c0.3-1.7,0.5-3.3,0.8-5c0.3-1.3,0.7-2.5,1-3.8c0.2-0.6,0.3-1.3,0.4-1.9
		c0.1-1.2,0.3-2.4,0.6-3.5c0.3-1.2,0.4-2.4,0.6-3.6c0.2-1.2,0.5-2.4,0.7-3.6c0.2-1,0.4-1.9,0.6-2.9c0.6-2.4,1.1-4.8,1.7-7.2
		c0.2-1.1,0.4-2.2,0.6-3.2c0.4-2.2,0.7-4.3,1.1-6.5c0.3-1.4,0.7-2.8,1-4.2c0.2-0.9,0.5-1.9,0.8-3c-0.5-0.3-1.1-0.6-1.7-0.9
		c-1.1-0.5-2.2-1.1-3.4-1.6c-0.2-0.1-0.9-1.1-0.9-1.4c-0.1-0.2-0.2-0.4-0.3-0.5c-0.4-0.9-1-1.8-1.2-2.7c-0.2-0.9-0.2-2-0.1-2.9
		c0.1-1.2,0.4-2.3,0.9-3.3c0.1-0.2,0.2-0.4,0.3-0.6c0.1-0.2,0.2-0.4,0.2-0.6c0.1-0.5,0.1-1.1,0.1-1.6c0-0.1,0.1-0.3,0.3-0.4
		c1.2-0.9,2.2-2,3.8-2.1c1-0.9,2.4-0.4,3.6-0.8c1.3-0.4,2.7-0.2,4.2-0.3c-0.7-2.1-1.8-3.9-2.5-6c-0.7-2.1-1.5-4.2-2.1-6.3
		c-0.5-2.1-0.8-4.2-1.3-6.4c-0.8,0.3-1.4,0.1-2-0.2c-0.6-0.3-1.3-0.5-2-0.8c-1-0.5-1.8-1.1-2.5-2c-0.4-0.5-0.9-1-1.2-1.6
		c-0.5-1-0.8-2-1-3.1c-0.1-1.1-0.4-2.2-0.3-3.2c0.2-1.3,0.1-2.6,0.2-3.9c0.2-2.4,1.1-4.6,2.4-6.6c0.5-0.8,1.3-1.3,2.1-1.8
		c0.4-0.2,0.7-0.4,1.1-0.6c0.2-0.1,0.4-0.3,0.6-0.2c0.2,0,0.3,0.2,0.5,0.3c0.5,0.1,0.3-0.5,0.3-0.8c-0.1-0.7-0.2-1.3-0.2-2
		c0-1,0.5-1.6,0.8-2.5c0.2-0.5,0.2-0.9,0.2-1.5c0-0.5,0.2-0.8,0.2-1.3c0-0.4,0.2-1,0.4-1.3c0.3-0.3,0.9-0.1,1.3-0.4
		c0.4-0.3,0.3-0.6,0.4-1c0.1-0.3,0.1-0.4,0.1-0.7c0-0.3,0-0.6,0-0.8c0.1-0.2,0.3-0.4,0.3-0.7c0-0.2,0.1-0.4,0.1-0.7
		c0.1-0.5,0.1-1,0.2-1.5c0-0.1,0.2-0.3,0.2-0.5c0.1-0.3,0.1-0.4,0.1-0.7c0.1-0.3,0.3-0.7,0.5-1c0.3-0.3,0.6-0.6,0.9-0.9
		c0.2-0.2,0.4-0.3,0.6-0.5c0.3-0.2,0.3-0.4,0.5-0.6c0.3-0.4,0.6-0.8,0.9-1.2c0.3-0.4,0.6-0.5,1-0.6c0.9-0.5,1.6-1.9,1.9-2.8
		c0.6-1.5,1.6-2.6,2.6-3.8c1.4-1.7,3.3-2.6,5.3-3.3c1.3-0.5,2.8-0.4,4.2-0.3c1.7,0.2,3.5,0.4,5.2,0.4c0.9,0,1.8-0.3,2.7-0.4
		c1.4-0.2,2.9-0.4,4.3-0.5c1.1-0.1,2.1,0,3.2,0c1.5,0.1,2.9,0.8,4.2,1.5c0.6,0.3,1.1,0.7,1.7,0.9c1.5,0.6,2.9,1.4,4.2,2.5
		c0.5,0.4,1.1,0.7,1.7,0.8c1.1,0.3,2.2,0.7,3.3,1.2c1.6,0.7,3.1,1.4,4.6,2.3c1.1,0.7,2,1.7,3,2.6c0.6,0.5,1.2,1.1,1.6,1.7
		c0.4,0.5,0.8,1.2,1.2,1.8c1.3,2.1,1.7,4.4,1.9,6.8c0,0.5-0.1,0.9-0.2,1.4c-0.2,0.8-0.1,1.7-0.4,2.6c-0.1,0.4,0.1,0.8,0.2,1.3
		c0.3,1.5,0.4,3,0.4,4.5c0,1.5-0.5,3-0.7,4.5c-0.1,0.4-0.3,0.7-0.5,1.1c0.4,0,0.6,0,0.8,0c0.6,0.1,1.1,0.1,1.6,0.6
		c0.2,0.2,0.6,0.4,0.9,0.5c0.9,0.2,1,1,1.2,1.5c0.3,1.4,0.7,2.8,0.2,4.3c-0.1,0.2,0,0.5,0,0.7c0,0.7,0.1,0.9,0.8,1
		c1.5,0.2,2.9,0.2,4.4,0.6c1.3,0.4,1.5,0.6,1.6,1.9c1.1,0.2,1.7,1.2,2.5,1.8c0.8,0.6,1.6,1.2,2.3,1.9c0.6,0.5,1,1.2,1.4,1.9
		c0.9,1.6,1.9,3.2,2.5,4.9c0.4,1.2,0.7,2.5,0.9,3.8c0.3,1.3,0.5,2.7,0.8,4c0.1,0.8,0.2,1.6,0.4,2.4c0.2,1.1,0.5,2.1,0.5,3.2
		c0.1,2.3,0.6,4.6,0.6,6.9c-0.1,2.5,0.5,4.9,1.4,7.3c0.3,0.8,0.4,1.8,0.6,2.7c0.2,1,0.3,2,0.4,3c0,0.4,0,0.9,0,1.3
		c0.1,0.4,0.2,0.9,0.3,1.3c0.1,0.4,0.1,0.7,0.1,1.1c0,0.6,0,1.2,0.1,1.7c0.5,2.6,1.1,5.1,1.6,7.7c0.4,1.8,0.8,3.6,1.1,5.4
		c0.4,2,0.6,4,0.9,6c0.3,1.5,0.7,3.1,1.1,4.6c0.1,0.4,0.3,0.9,0.3,1.3c0,1.7,0.6,3.1,1.3,4.6c0.5,1.1,0.9,2.3,1.3,3.4
		c1,2.8,2,5.5,2.9,8.3c0.5,1.7,0.8,3.4,1.2,5.1c0.3,1.3,0.7,2.6,1.1,3.9c0.2,0.8,0.4,1.7,0.5,2.7c0.7-0.1,1.3-0.1,2-0.3
		c1.3-0.3,2.6-0.4,3.9-0.5c1.7-0.1,3.4-0.1,5.2-0.1c2,0,3.9,0.6,5.7,1.3c2.7,0.9,5.3,2,7.9,3.1c0.5,0.2,0.9,0.5,1.4,0.8
		c1.1,0.8,2.3,1.1,3.5,1.6c2.7,1.2,4.8,3,6.8,5.1c1.3,1.3,2,3.1,2.3,5c0.3,1.4,0.3,2.8-0.1,4.2c-0.4,1.2-0.7,2.3-1.6,3.2
		c-0.5,0.6-1,1.3-1.6,1.9c-0.4,0.4-0.7,0.7-1.1,1c-0.9,0.7-1.9,1.5-2.9,2.1c-1.3,0.9-2.8,1.4-4.3,1.4c-1.7,0.1-3.3-0.1-5-0.2
		c-0.4,0-0.8,0-1.2-0.1c-0.9-0.2-1.8-0.5-2.7-0.8c-0.5-0.1-1.1-0.2-1.5-0.5c-0.4-0.3-0.8-0.5-1.4-0.6c-0.4-0.1-0.7-0.5-1.1-0.8
		c-0.6-0.4-1.1-0.8-1.7-1.1c-0.8-0.4-1.5-0.9-2.2-1.6c-0.5-0.6-1.2-1-1.8-1.5c-0.2-0.2-0.4-0.5-0.7-0.7c-0.4-0.4-0.7-0.7-1.1-1
		c-0.1-0.1-0.4-0.3-0.4-0.4c0.1-0.6-0.4-0.9-0.7-1.2c-0.7-1-1.5-1.9-2.2-3c-0.8-1.2-1.6-2.4-2.3-3.6c-0.6-1.1-1.2-2.1-1.6-3.3
		c-0.5-1.6-1.2-3.1-1.9-4.6c-0.1-0.2-0.1-0.5-0.1-0.8c-0.3-0.2-0.7,0-1.1,0.1c-0.8,0.4-1.6,0.6-2.4,1c-0.9,0.5-1.8,0.9-2.5,1.6
		c-1.5,1.6-3.3,2.6-5,3.9c-0.5,0.4-1,0.8-1.4,1.3c-1.1,1.6-2.3,3.1-3.5,4.6c-1.3,1.7-2.2,3.6-2.2,5.7c0,2,0.1,4.1,0.7,6
		c0.2,0.8,0.4,1.6,0.7,2.3c0.6,1.3,1.1,2.8,1.9,4.1c1.1,1.7,2.5,3.1,4,4.4c1.3,1.1,2.8,2.1,4.3,3c1.1,0.7,2.4,1.1,3.6,1.5
		c1.6,0.6,3.2,1.1,4.9,1.6c3.3,1,6.6,1.7,10,1.6c2.7-0.1,5.4-0.5,8.1-0.9c1.2-0.2,2.3-0.3,3.5-0.5c0.3,0,0.6-0.1,0.9-0.1
		c1.7-0.4,3.5-0.8,5.2-1.3c2.1-0.5,4.1-1.1,6.2-1.7c1.9-0.6,3.6-1.5,5.1-2.8c0.4-0.4,0.9-0.7,1.4-1c0.3-0.2,0.4-0.5,0.7-0.8
		c1.1-0.9,1.9-2,2.4-3.3c0.4-1,1.1-1.7,1.6-2.6c0.3-0.5,0.4-1.2,0.6-1.7c0.3-1,0.8-1.9,1.1-2.9c0.4-1.7,0.8-3.4,1-5.1
		c0.3-2.2,0-4.4-0.3-6.5c-0.3-2.2-0.6-4.4-1.3-6.5c-0.4-1.2-0.5-2.6-0.8-3.8c-0.2-1-0.5-1.9-1.1-2.8c-0.6-0.9-0.8-2.1-1.2-3.1
		c-0.5-1.4-1-2.8-1.8-4.1c-0.3-0.4-0.4-1-0.6-1.5c-0.5-1.3-1-2.6-1.7-3.7c-0.5-0.8-0.8-1.8-1.6-2.4c0-1-0.9-1.5-1.3-2.3
		c-0.5-0.9-1.1-1.7-1.7-2.6c-0.2-0.3-0.3-0.6-0.4-0.9c-0.5-1.3-1.3-2.4-2.1-3.4c-0.5-0.6-0.8-1.2-1.2-1.8c-0.3-0.5-0.6-1-0.9-1.5
		c-1.1-1.5-2.2-3-3.2-4.5c-1-1.4-2-2.8-3-4.1c-0.9-1.2-1.8-2.4-2.8-3.6c-0.8-1-1.7-2-2.5-3c-0.6-0.8-1.2-1.8-1.7-2.7
		c-0.7-1.1-1.5-2.2-2.3-3.2c-0.7-0.9-1.4-1.7-2-2.7c-0.4-0.7-0.9-1.4-1.4-2.1c-1-1.4-1.9-2.9-2.9-4.3c-0.2-0.3-0.3-0.7-0.6-0.9
		c-0.6-0.6-1-1.4-1.4-2.1c-0.3-0.6-0.8-1.2-1.2-1.8c-0.4-0.7-0.8-1.4-1.2-2c-0.8-1.3-1.5-2.6-2.3-3.9c-0.2-0.4-0.4-0.9-0.5-1.4
		c0-0.1,0-0.2-0.1-0.3c-0.7-1.3-1.4-2.6-2.1-3.9c-0.1-0.2-0.2-0.5-0.3-0.8c-0.2-0.9-0.9-1.6-1.3-2.5c-0.4-1.1-1-2.1-1.4-3.2
		c-0.7-1.8-1.4-3.6-1.9-5.4c-0.6-2-1.1-4.1-1.1-6.2c0-0.5-0.3-1-0.3-1.5c-0.1-1.1-0.1-2.2-0.1-3.3c0-0.5,0-0.9-0.1-1.4
		c-0.1-0.6-0.2-1.2,0-1.8c0.1-0.3,0-0.5,0-0.8c-0.2-1.7,0-3.4,0.3-5c0.1-0.7,0.2-1.3,0.4-2c0.2-0.9,0.5-1.7,1.1-2.4
		c0.1-0.2,0.3-0.3,0.3-0.5c0.5-1.7,1.4-3.1,2.3-4.6c0.2-0.3,0.5-0.7,0.2-1c0.3-0.3,0.7-0.4,0.8-0.7c0.5-1,1.2-1.8,2.2-2.3
		c0.5-0.3,1.1-0.5,1.7-0.8c0-0.4,0-0.8,0.1-1.2c0.1-1.7,1.5-3.2,3-3.2c2-0.1,4-0.1,6-0.2c0.3,0,0.6,0,1,0.1c0-0.2,0.1-0.5,0.1-0.7
		c-0.3-2.4-0.2-4.7,0.2-7.1c0.4-2.2,0.8-4.4,1.2-6.6c0-0.1,0-0.2,0-0.3c0.8-2.2,0.8-4.5,1.4-6.7c0.4-1.5,1-2.9,1.4-4.4
		c0.3-0.9,0.5-1.8,0.9-2.7c0.4-1.1,0.8-2.2,1.3-3.3c1.6-3.8,3.8-7.2,6-10.6c1.8-2.7,3.7-5.3,6-7.6c1.4-1.4,2.9-2.7,4.6-3.8
		c0.6-0.4,1.3-0.8,1.8-1.3c1.6-1.5,3.6-2.5,5.5-3.6c1.2-0.7,2.5-1.2,4-1.3c0.4,0,0.9-0.2,1.3-0.3c1.4-0.4,2.8-0.7,4.3-0.7
		c0.5,0,0.6-0.4,0.7-0.7c0.1-0.4,0.2-0.9,0.4-1.4c0.5-1.1,1.1-2.2,1.6-3.3c0.5-1.1,1.3-2.1,2-3.1c1.1-1.5,2.2-2.9,3.4-4.2
		c0.1-0.1,0.1-0.2,0.2-0.2c0.5-0.5,0.6-1.2,1.3-1.6c0.6-0.3,1-0.9,1.4-1.3c0.1-0.1,0.3-0.1,0.3-0.2c0.2-0.5,0.3-1.1,1-1.1
		c0,0,0.1-0.1,0.1-0.2c0-0.1,0-0.3,0.1-0.4c0.3-0.3,0.6-0.6,0.9-0.9c0.3-0.3,0.6-0.6,1-0.9c0,0-0.1-0.2-0.2-0.4
		c1.1-1.3,2.5-2.4,3.8-3.5c0.6-0.6,1.3-1,1.9-1.7c0.3-0.3,0.8-0.5,1.1-0.8c0.3-0.2,0.4-0.6,0.7-0.9c0.7-0.6,1.4-1.2,2-1.7
		c0.2-0.1,0.4-0.2,0.5-0.4c0.3-0.7,1-0.9,1.6-1.2c0.1,0,0.3,0,0.3-0.1c0.4-1.1,1.7-1.3,2.3-2.2c0.5-0.7,0.6-0.6,1.3-0.8
		c0.1-0.4,0.3-0.8,0.9-0.8l0.9-0.6c0.1-0.1,0.2-0.2,0.3-0.2c0.9-0.2,1.4-0.9,2.1-1.4c0.4-0.3,0.7-0.7,1.2-0.7c0.1,0,0.2-0.1,0.3-0.1
		c0.1-0.2,0.1-0.4,0.2-0.5c0.1-0.1,0.4,0.1,0.5,0c0.8-1,2-1,3.1-1.2c0.6-0.1,1.1-0.4,1.6-0.6c1-0.3,2.1-0.5,3-1
		c1.1-0.6,2.3-0.8,3.5-0.9c1-0.1,2-0.5,2.9-0.8c2.6-0.9,5.2-1.6,7.9-1.8c0.9-0.1,1.8-0.1,2.7,0.2c0.7,0.2,1.3,0,1.7-0.3
		c0.3,0.1,0.6,0.4,0.9,0.4c2,0,4.1-0.1,6.1-0.1c2.2,0,4.5,0.2,6.7,0.1c1.9-0.1,3.7,0.1,5.5,0.4c2.3,0.3,4.5,0.9,6.8,1.2
		c2.2,0.3,4.3,1.1,6.4,1.8c2.2,0.6,4.3,1.4,6.5,2.1c2.8,1,5.5,2.2,8.3,3.4c1.5,0.7,3,1.4,4.5,2.1c0.5,0.2,1,0.5,1.4,0.8
		c1.2,0.8,2.4,1.5,3.7,2.2c1.3,0.8,2.5,1.7,3.7,2.6c0.6,0.4,1.3,0.7,1.9,1.1c1.2,0.8,2.5,1.5,3.6,2.3c0.5,0.3,1,0.6,1.4,1
		c0.6,0.5,1.1,1,1.6,1.5c0.4,0.3,0.8,0.7,1.2,1c0.3,0.2,0.6,0.3,0.9,0.5c0.2,0.2,0.3,0.4,0.7,0.6c0.3,0.1,0.5,0.2,0.8,0.4
		c0.4,0.2,0.8,0.3,0.9,0.8c0.1,0.6-0.1,1,0.7,1c0.6,0,1.1,0.6,1.5,0.9c0.4,0.4,0.8,0.7,1.3,1c0.2,0.2,0.4,0.4,0.7,0.5
		c0.2,0.1,0.4,0.2,0.7,0.3c0.2,0.1,0.3,0.2,0.4,0.4c0,0.1,0.1,0.2,0.2,0.2c0.1,0.1,0.4,0.1,0.5,0.1c0.4,0.5-0.7,1-0.2,1.5
		c0.2,0.1,0.6,0.2,0.8,0.3c0.3,0.1,0.5,0.3,0.8,0.5c0.5,0.4,1.1,0.7,1.6,1c0.5,0.3,1.1,0.4,1.6,0.7c0.6,0.3,1.2,0.2,1.6,0.8
		c0.3,0.4,0.6,0.7,0.9,1.1c0.3,0.4,0.6,0.7,0.9,1c0.7,0.8,1.5,1.5,2.3,2.3c2,1.8,4,3.7,6.1,5.4c1.6,1.3,3.1,2.8,4.5,4.3
		c0.6,0.7,1.5,1.2,2.1,1.9c0.8,1,1.8,1.7,2.5,2.8c0.6,0.9,1.5,1.6,2.3,2.3c1.1,1.1,2.2,2.2,3.3,3.3c0.2,0.2,0.4,0.4,0.6,0.6
		c1.8,1.5,3.4,3.1,4.8,5c0.3,0.4,0.5,0.9,1.2,0.9c0.1,0,0.2,0.2,0.3,0.4c0.2,0.3,0.4,0.6,0.6,0.8c0.7,1.1,1.8,1.6,3.1,1.6
		c0.6,0,1.2-0.1,1.8-0.1c0.9,0.1,1.7,0.1,2.6,0.1c0.4,0,0.8,0.2,1.2,0.2c0.4,0,0.9-0.1,1.3,0c0.3,0,0.5,0.1,0.8,0.2
		c0.4,0,0.9,0,1.3,0c0.4,0,0.8,0.1,1.2,0.2c0.4,0.1,0.8,0,1.1,0c1.3,0,2.5,0.1,3.8,0c0.3,0,0.5-0.2,0.8-0.2c0.4,0,0.8,0.1,1.2,0
		c0.3-0.1,0.7-0.2,1-0.3c0.5-0.2,1-0.4,1.5-0.8c1.3-1.1,2.6-2,4.2-2.6c1.8-0.7,3.6-1,5.5-0.3c1.6,0.5,2.6,1.7,3.3,3.1
		c0.5,0.9,0.8,2,1.2,3c0.5,0.1,1.1,0.2,1.8,0.3c0.8,0.1,1.7,0.2,2.5,0.2c2.1,0.2,3.8-0.5,4.9-2.4c0.5-0.9,0.9-1.7,1-2.7
		c0.3-2,1.3-3.6,3-4.8c1.4-1,3-1.6,4.7-1.8c0.7-0.1,1.4-0.2,2-0.3c2.4-0.2,4.7,0,7.1,0.1c3.2,0.1,6.3,0.8,9.5,1.3
		c1.6,0.3,3.3,0.3,5,0.5c1.6,0.1,3.2,0.1,4.8,0.4c2.1,0.3,4,1.1,5.4,2.7c1.2,1.3,1.4,2.9,1.6,4.6c0.1,0.9,0,1.8,0,2.8
		c0,1.3,0,2.6-0.1,4c-0.2,2.1-0.5,4.2-0.8,6.3c-0.1,0.8,0,1.7,0,2.5c0,1.3-0.1,2.6-0.4,3.9c-0.1,0.5-0.2,1.1-0.1,1.6
		c0.1,1.1-0.4,2.2,0,3.3c-0.9,1.3-0.2,2.8-0.4,4.2c-0.2,1.1-0.2,2.3-0.3,3.4c-0.1,1.3-0.4,2.7-0.5,4c-0.1,1.1-0.5,2.3-0.8,3.4
		c0,0.1,0,0.3,0,0.4c0.2,1.3-0.4,2.3-1.2,3.2c-0.6,0.6-1.1,1.3-1.7,1.9c-0.9,0.9-2,1.1-3.1,1.5c-1.7,0.6-3.5,1-5.4,1.2
		c-1.6,0.2-3.3,0.4-4.9,0.5c-0.8,0.1-1.6-0.1-2.4-0.1c-2.4-0.1-4.8-0.5-7.1-0.9c-0.9-0.2-1.9-0.4-2.8-0.7c-2.7-1.1-4.5-3-4.9-5.9
		c-0.3-1.8-1.5-2.8-2.9-3.8c-0.3-0.2-0.7-0.3-1.1-0.5c-0.1,0.4-0.3,0.8-0.4,1.2c-0.4,1.5-1,2.8-1.8,4.1c-0.5,0.8-0.9,1.5-1.5,2.1
		c-0.3,0.3-0.7,0.6-1,0.8c-0.6,0.5-1,1.1-1.6,1.5c-0.7,0.6-1.7,1-2.5,1.4c-0.8,0.4-1.6,0.6-2.4,1c-1.7,0.7-3.4,1.3-5.2,1.4
		c-2.2,0.2-4.4,0.6-6.6,0.6c-2.4,0.1-4.7-0.1-7.1-0.2c-0.9,0-1.9-0.3-3.1-0.4c0.5,0.6,0.8,1.2,1.3,1.4c0.6,0.3,0.8,0.9,1,1.4
		c0.1,0.2,0.1,0.5,0.3,0.7c1.6,1.4,1.3,3.7,2.5,5.3c0.2,0.2,0.1,0.7,0,1c-0.3,0.8-0.2,1.4,0.5,1.9c0.1,0.1,0.2,0.2,0.2,0.3
		c0.1,0.2,0.1,1.6,0.1,2c0,0.1,0,0.2,0.1,0.3c0.1,0.3,0.4,0.5,0.4,0.8c-0.2,1.3,0.8,2.5,0.4,3.6c-0.4,1.2,0.2,2.1,0.3,3.1
		c0,1.2,0,2.3,0,3.5c0,1.3-0.3,2.5-1.1,3.7c-0.1,0.2-0.3,0.5-0.2,0.7c0.5,0.8-0.2,1.6,0,2.4c0.2,0.8-0.2,1.6-0.4,2.4
		c0,0.2,0,0.4,0,0.6c0,0.2,0,0.4-0.1,0.6c-0.7,0.8-0.4,1.8-0.7,2.6c0,0.1,0.1,0.2,0.1,0.3c-0.2,0.4-0.6,0.8-0.7,1.3
		c-0.1,0.8-0.1,0.9-0.5,1.3c0.1,0.1,0.1,0.2,0.2,0.2c0.1,0.1,0.1,0.2,0.2,0.3c-1,0.8-1.3,1.8-0.7,3c-0.1,0.4-0.2,0.9-0.2,1.4
		c0.1,0.9-0.3,1.7-0.7,2.4c-0.4,0.8-0.4,1.6-0.5,2.4c-0.1,1.4-0.4,2.7-0.9,4c-0.4,0.9-0.8,1.7-0.9,2.7c-0.1,1-0.7,1.9-1.2,2.9
		c-0.1,0.3-0.2,0.6-0.2,1c0,1-0.1,2.1-0.3,3.1c-0.2,0.9-0.5,1.8-0.8,2.6c-0.3,1.1-0.7,2.2-1.1,3.2c-0.1,0.3-0.3,0.4-0.6,0.8
		c0.3,0.8-0.1,1.4-0.7,2.1c-0.4,0.7-0.9,1.5-1,2.4c0,0.5,0,1.1-0.7,1.3c-0.1,0-0.1,0.1-0.1,0.1c-0.2,0.9-0.4,1.7-0.5,2.6
		c-0.1,0.5-0.2,1-0.5,1.4c-0.4,0.6-0.8,1.2-0.9,1.8c-0.3,1.3-1,2.4-1.6,3.5c-0.6,1.1-1.3,2.2-1.9,3.3c-0.7,1.2-1.2,2.5-1.9,3.6
		c-0.6,1.1-1.2,2.1-1.8,3.2c-0.2,0.3-0.6,0.7-0.9,0.8c-0.4,0.1-0.5,0.4-0.6,0.6c-0.4,0.7-0.9,1.2-1.5,1.8c-0.7,0.6-1.4,1.2-2.1,1.9
		c0.2,0.2,0.4,0.3,0.6,0.4c2.1,1.5,4.5,2.5,6.9,3.7c1.7,0.8,3.3,1.7,4.9,2.6c1,0.5,2.2,0.8,3.2,1.4c1.9,1,3.9,1.9,6,2.7
		c1.4,0.5,2.9,0.8,4.3,1.3c1.4,0.6,2.9,0.9,4.2,1.9c0.7,0.5,1.6,0.9,2.4,1.4c1.2,0.8,2.3,1.7,3.5,2.6c0.9,0.6,1.6,1.5,2.3,2.3
		c0.7,0.8,0.9,1.7,0.9,2.7c0,0.5-0.6,0.9-0.7,1.4c-0.1,0.6-0.4,0.9-0.9,1.1c-0.7,0.3-1.3,0.5-1.8,1c-0.2,0.2-0.6,0.2-1,0.3
		c-1.1,0.1-2.2,0.6-3.5,0.3c-0.6-0.1-1.3-0.2-1.8,0.4c-0.1,0.1-0.4,0-0.7,0c-0.6,0.2-1.3,0.4-2,0.5c0-0.1-0.1-0.3-0.1-0.4
		c-0.3,0.2-0.6,0.4-1,0.6c0.2-0.4,0.2-0.5,0.3-0.8c-0.3,0.1-0.5,0.2-0.7,0.2c-0.5,0.1-1,0.3-1.4,0.4c-0.3,0.1-0.5,0.3-0.8,0.3
		c-0.4,0.1-0.8,0.2-1.1,0.2c-0.2,0-0.4-0.3-0.5-0.5c-0.1,0.1-0.2,0.3-0.4,0.3c-0.5,0.1-1,0.3-1.5,0.3c-1,0-1.8,0.5-2.7,0.7
		c-0.3,0.1-0.7,0.2-1,0.2c-1.8,0.2-3.6,0.3-5.4,0.5c-0.6,0.1-1.3,0.1-1.9,0.4c-0.5,0.2-0.8-0.6-1.2,0c-0.8-0.3-1.7,0.3-2.6-0.1
		c-0.3-0.2-0.9,0-1.3,0c-0.1,0-0.2,0.3-0.3,0.4c-0.2-0.2-0.3-0.3-0.4-0.4c-0.7,0.3-1.4,0.9-2.1-0.1c-0.6,0.1-1.2,0.3-1.8,0.4
		c-1,0.1-1.9,0.7-3,0.6c-0.7,0-1.4-0.1-2,0c-1.2,0.1-2.5,0.3-3.7,0.5c-0.3,0-0.5,0-0.8-0.1c-0.6-0.1-1.2-0.1-1.8-0.1
		c-0.3,0-0.5,0.1-0.7-0.2c-0.2-0.2-0.6-0.4-0.9-0.2c-0.1,0.1-0.3,0.1-0.5,0c-1.3-0.4-2.7-0.6-3.9-1.2c-1-0.5-1.8-1.4-2.7-2.1
		c-0.2-0.2-0.4-0.4-0.6-0.5c-1-0.6-1.9-1.2-2.7-2.1c-0.2-0.2-0.3-0.3-0.5-0.5c-0.5-0.3-1.1-0.1-1.2,0.5c-0.1,0.7-0.5,1.2-0.9,1.8
		c-0.4,0.6-0.8,1.2-1.2,1.7c-0.1,0.2-0.3,0.4-0.5,0.5c-0.8,0.4-1.6,0.8-2.4,1.1c-0.5,0.2-1.2,0.2-1.7,0.2c-2-0.2-4-0.5-5.9-1.5
		c-1-0.5-2.2-1.1-3.5-0.8c-0.1,0-0.2,0-0.3,0c-0.6-0.6-1.4-0.3-2.1-0.5c-0.8-0.2-1.6-0.7-2.3-1.2c-0.3-0.2-0.6-0.4-0.8-0.6
		c-1-0.8-0.6-1.8-0.4-2.7c0.4-1.5,1.1-2.9,1.7-4.3c0.2-0.6,0.4-1.3,0.3-1.9c-0.1-0.8,0.1-1.5,0.3-2.3c0.3-1.2,0.7-2.3,1.4-3.4
		c0.4-0.7,0.9-1.3,1.3-2c0.3-0.5,0.5-0.9,0.8-1.4c0-0.1-0.2-0.2-0.3-0.4c1.2-0.8,1.1-2.3,1.7-3.4c0.4-0.7,0.6-1.6,0.9-2.4
		c0.1-0.4,0.3-0.8,0.5-1.1c0.1-0.2,0.3-0.4,0.3-0.5c-0.1-0.9,0.5-1.4,0.9-2.2c-0.2-0.2-0.4-0.5-0.6-0.7c-2.2-1.8-3.8-4-4.5-6.8
		c-0.4-1.3-0.3-2.7-0.2-4c0.1-1.6,0.6-3.2,0.9-4.8c0.5-2.5,1.2-4.9,1.9-7.3c0.1-0.5,0.4-0.9,0.6-1.3c0.1-0.4,0.2-0.7,0.3-1.1
		c0.2-0.6,0.4-1.2,0.7-1.8c-0.1,0.3-0.2,0.5,0.2,0.8C302.8,191.6,302.8,191.4,302.8,191.1z M236.6,261.5c0.6,0.2,0.6-0.3,0.9-0.6
		c-0.1-0.1-0.1-0.1-0.2-0.2C237.1,261.1,236.8,261.3,236.6,261.5c-0.1,0.4-0.8,0.5-0.6,1.1C236.5,262.4,236.6,262,236.6,261.5z
		 M313.8,220.3c0.3,0.1,0.7,0.3,1,0.4c0-0.1,0-0.1,0.1-0.2c-0.1-0.1-0.2-0.2-0.3-0.3c0.4,0.1,0.8,0,1.2,0.2c1.4,0.4,3,0.2,4.2,1.1
		c0.1,0.1,0.3,0.1,0.5,0.1c1.2,0.1,2.5,0.1,3.7,0.2c0.5,0,1,0.1,1.4,0.1c0.2,0,0.5-0.1,0.5-0.1c0.1-0.7,0.6-0.2,0.8-0.4
		c-0.1,0.2-0.1,0.3-0.2,0.5c0.7-0.1,1.3,0.1,1.9-0.3c0.3-0.2,0.8-0.4,1.3,0.1c0.3,0.3,1,0.3,1.3-0.1c0.3-0.4,0.6-0.4,1-0.4
		c0.7-0.1,1.5-0.1,2.3-0.1c1.9-0.1,3.7-0.5,5.2-1.7c0.7-0.6,1.5-1,2.2-1.6c0.4-0.3,0.9-0.7,1.2-1.1c1-1.6,2-3.3,3-5
		c0.3-0.5,0.6-1,0.9-1.5c0.4-0.6,0.8-1.1,1.1-1.7c0.3-0.5,0.4-1.1,0.7-1.5c0.4-0.4,0-1.1,0.7-1.3c0-1,0.6-1.7,1-2.5
		c0.4-1,0.8-2,1.4-2.9c0.6-1,1-2,1.1-3.1c0-0.2,0.2-0.4,0.2-0.4c0.4,0.1,0.3-0.2,0.4-0.4c0.5-1.5,1.1-2.9,1.6-4.4
		c0.3-0.8,0.2-1.7,0.6-2.5c0.4-0.7,0.6-1.5,0.8-2.3c0.4-1.5,0.6-3,1-4.5c0-0.2,0-0.5,0.5-0.5c0.3,0,0.5-0.5,0.2-0.7
		c-0.3-0.2-0.2-0.4-0.1-0.6c0.4-1,0.8-1.9,1.1-2.9c0.5-1.6,0.9-3.2,1.3-4.8c0.2-1,0.3-2,0.5-3c0.4-1.9,0.9-3.7,1.3-5.6
		c0.9-3.6,1.6-7.3,1.9-11c0.2-2,0.8-4,0.7-6c0-0.4,0.2-0.7,0.3-1.1c-0.1-0.1-0.3-0.3-0.3-0.5c-0.1-1-0.2-2-0.2-3
		c0-0.4-0.1-1.1,0.8-1.3c-0.8-0.8-0.7-1.7-0.7-2.6c0-1.5-0.1-2.9-0.1-4.4c0-0.3,0.1-0.6,0.1-0.9c-0.2-1.3-0.4-2.7-0.9-4
		c-0.1-0.2-0.1-0.3-0.1-0.5c-0.3-0.8-0.4-1.8-0.8-2.5c-0.7-1.3-1.1-2.7-2.2-3.7c-0.1-0.1-0.2-0.6-0.4-0.8s-0.4-0.3-0.6-0.5
		c-0.4-0.3-0.7-0.6-1.1-1c-0.2-0.2-0.5-0.8-0.8-1c-0.2-0.1-0.3,0-0.5-0.1c-0.1,0-0.2-0.2-0.3-0.2c-0.2-0.2-0.2-0.3-0.5-0.4
		c-0.2-0.1-0.5,0-0.7-0.2c-0.3-0.2-0.5-0.4-0.8-0.6c-0.3-0.2-0.6-0.4-1-0.6c-0.4-0.2-0.6-0.6-1-0.8c-0.8-0.6-1.8-0.6-2.7-0.9
		c-1.2-0.5-2.3-1.1-3.3-2c-0.4-0.4-0.8-0.7-1.2-1c-1.1-1.1-2.4-2.1-3.1-3.6c-0.3-0.6-0.8-0.9-1.5-0.9c-1-0.1-2,0-3-0.3
		c-1.5-0.3-3-0.2-4.5-0.3c-0.1,0-0.3,0-0.4,0c-1.6-0.3-3.2,0-4.8-0.4c-0.6-0.1-1.3-0.1-1.9,0c-1,0.2-2.1,0.3-3.1,0.2
		c-0.5-0.1-1-0.1-1.4-0.1c-1.1,0-2.2,0-3.3,0c-0.8,0-1.6,0-2.4,0.2c-1.7,0.5-3.4,0.6-5,1.3c-0.6,0.2-1.1,0.6-1.6,0.9
		c-0.6,0.3-1.3,0.5-1.8,0.9c-1.2,0.9-2.5,2.1-3.3,3.4c-0.6,0.9-1,1.9-1.3,2.9c-0.1,0.3-0.1,0.7-0.2,1.1c-0.1,0.4-0.3,0.7-0.4,1
		c-0.3,1-0.4,2.3-0.5,3.3c-0.2,1.3-0.6,2.5-0.9,3.7c-0.4,1.4-0.9,2.7-1,4.2c-0.1,0.7-0.3,1.4-0.4,2.1c-0.1,0.7-0.2,1.4-0.6,2
		c-0.1,0.1-0.1,0.3-0.1,0.4c-0.4,1.8-0.9,3.5-1.8,5.1c-0.7,1.1-1.4,2.1-2.2,3.1c-0.1,0.2-0.3,0.4-0.4,0.6c-0.4,0.5-0.7,1.2-1.2,1.6
		c-0.5,0.5-1,0.9-1.5,1.4c-0.4,0.4-1,0.7-1.4,1.2c-0.4,0.5-0.5,1.6-0.2,2.2c0.9,1.4,3.7,1.1,5.1,0.8c0.4-0.1,0.6-0.2,1-0.1
		c0.1,0,0.4,0.1,0.5,0.1c0,0,0.2-0.4,0.2-0.4c0.7,0.3,1.4,0.5,2.2,0.1c0.8-0.3,1.7-0.6,2.6-0.3c0.3,0.1,0.7-0.1,1,0.4
		c0,0.1,0.4,0,0.6,0c0.2,0,0.5-0.1,0.7-0.1c0.8,0.1,1.5,0.3,2.3,0.5c1.7,0.4,3.3,1.1,4.7,2.1c0.5,0.3,1.1,0.6,1.5,1
		c0.6,0.5,1,1.1,1.4,1.8c0.6,1,0.9,2.2,1,3.3c0.1,0.8,0.1,1.7-0.2,2.4c-0.3,0.7-0.3,1.4-0.5,2.1c-0.3,1.2-0.4,2.4-1.1,3.5
		c-0.7,1.3-1.2,2.8-1.9,4.2c-0.7,1.3-1,2.7-1.5,4c-0.3,0.8-0.7,1.5-0.7,2.3c-0.5,0.1-0.3,0.6-0.5,1c-0.2,0.4-0.3,0.8-0.4,1.3
		c-0.2,1.2-0.6,2.4-1.1,3.5c-0.5,1.1-0.8,2.2-1,3.4c-0.1,0.6-0.2,1.2-0.4,1.8c-0.1,0.3-0.4,0.5-0.5,0.7c0.5,0.2,0.3,0.6,0.1,0.8
		c-0.3,0.2-0.4,0.5-0.3,0.8c0.1,0.4,0,0.7-0.2,1.1c-0.1,0.2-0.2,0.5-0.3,0.8c-0.5,2.4-1.1,4.8-1.6,7.1c-0.2,0.8-0.6,1.6-0.6,2.5
		c0,0.5,0.1,1.3-0.8,1.3c0.1,0.6,0.2,1.1,0.2,1.7c-0.1,1.1-0.1,2.2-0.3,3.3c-0.1,0.6,0,1.1,0.1,1.7c0.1,0.7,0.2,1.3,0.4,2
		c0.2,0.7,0.3,1.5,0.7,2.1c0.5,0.7,1.2,1.3,1.9,1.8c1.3,1,2.8,1.6,4.3,2.3c1.2,0.5,2.4,1,3.6,1.5c-0.2,0-0.4,0.1-0.6,0.1
		C312.8,220.3,313.3,220.4,313.8,220.3z M197.6,151.5c0.3-0.8,0.5-1.7,0.9-2.5c0.5-1.2,0.4-2.7,1.5-3.7c0.2-0.2,0.2-0.7,0.3-1
		c0-0.2,0-0.5,0.1-0.5c0.6-0.2,0.2-1.1,1-1.1c0-0.1,0-0.1,0-0.2c0-0.3,0.2-1.1,0.5-1.3c0.4-0.3,0.3-1.1,1.1-0.9c0-0.1,0-0.2,0-0.3
		c0.1-0.2,0.1-0.4,0.2-0.5c0.4-0.6,0.9-1.2,1.4-1.7c0.3-0.3,0.3-0.9,0.9-1c0.1,0,0.2-0.1,0.2-0.2c0.2-1,0.9-1.7,1.8-2.2
		c0.1,0,0.2-0.1,0.2-0.2c0.4-1.1,1.4-1.8,2.1-2.7c0.5-0.6,1-1.2,1.7-1.7c1.1-0.9,2.3-1.7,3.5-2.5c1.9-1.4,3.9-2.8,6.3-3.1
		c1.3-0.1,2.6-0.2,3.9-0.2c1,0,2.1,0.3,3.1,0.1c1.8-0.3,3.5,0.2,5.2,0.5c2.3,0.4,4.6,1.1,6.6,2.5c1,0.7,2.3,1,3.3,1.9
		c0.7,0.7,1.6,1.2,2.4,1.8c0.9,0.6,1.8,1.1,2.6,1.8c0.7,0.6,1.6,1.2,2,2.2c0.1,0.3,0.5,0.5,0.8,0.8c0.1,0.1,0.4,0.2,0.5,0.4
		c0.3,0.5,0.7,1.1,0.9,1.7c0.5,1.3,1.4,2.3,2.2,3.5c0.6,0.9,1.4,1.8,1.9,2.7c0.7,1.3,1.4,2.7,1.7,4.3c0.1,0.4,0.3,0.7,0.7,0.8
		c1.3,0.5,2.6,1,4,1.4c1.5,0.4,3.1,0.6,4.6,0.8c0.1,0,0.3,0,0.4,0c0.4,0,0.9-0.1,1.3-0.1c1-0.1,2.1-0.2,3.1-0.3
		c1.4-0.1,2.8-0.5,4.3-0.3c1,0.2,2,0.3,3-0.3c0.7-0.4,1.5-0.6,2.3-0.8c1.5-0.4,2.8-1.1,4-2c0.5-0.4,1.1-0.8,1.6-1.2
		c0.5-0.5,1.1-0.9,1.5-1.5c0.4-0.4,0.7-1,1.2-1.6c0.2-0.1,0.6-0.4,0.8-0.7c0.8-1,1.6-2.1,2.4-3.2c0.5-0.6,0.7-1.5,1.5-1.9
		c0.3-0.2,0.9-0.5,0.5-1.1c0,0,0.3-0.1,0.4-0.3c0.2-0.3,0.5-0.6,0.4-0.8c-0.1-0.5,0.1-0.9,0.2-1.3c0.3-1.4,0.7-2.9,0.9-4.3
		c0.1-0.7,0.2-1.4,0.6-2c0-0.1,0.1-0.1,0.1-0.2c0.2-1.2,0.6-2.5,0.7-3.7c0.2-2.3,0.8-4.6,0.9-6.9c0-1.8,0-3.6,0-5.4
		c0-1.4-0.3-2.9-0.5-4.4c-0.4,0-0.7,0-1.1,0.1c-1.7,0.1-3.5,0.3-5.2,0.1c-0.6-0.1-1.2-0.3-1.8-0.2c-1.8,0.1-3.6-0.1-5.4-0.6
		c-1.7-0.5-3.3-1-4.6-2.4c-0.8-0.9-1.5-1.9-1.7-3.1c-0.3-2.2-0.6-4.5-0.7-6.7c-0.1-3.1-0.2-6.1-0.4-9.2c-0.2-3.2-0.6-6.4-0.6-9.6
		c0-0.3,0-0.7,0-1c0-0.3,0.2-0.6,0.2-1c0-0.4,0-0.9,0-1.3c0-0.7-0.2-1.9,0.1-2.5c0.4-0.8,1.8-1.3,2.5-1.6c0.3-0.1,0.6-0.2,1-0.3
		c0.5-0.1,1,0.1,1.5-0.1c0.5-0.1,1-0.2,1.5-0.1c0.3,0,0.4,0.1,0.7,0.2c0.2,0,0.5,0,0.7,0c0.6,0,1.2,0.1,1.8,0.1
		c0.6,0,1.1-0.2,1.6-0.2c0.8-0.1,1.4-0.4,1.5-1.4c0.1-1-0.5-2.1-0.8-3c-0.5-1.2-0.9-2.5-1.4-3.7c-0.3-0.8-0.3-1.7-0.7-2.4
		c-1.5-3.7-3.8-6.8-6.6-9.6c-0.9-0.9-1.8-1.6-2.7-2.6c-1.1-1.2-2.4-2.1-3.9-2.8c-2.1-1.1-4.2-2.2-6.5-2.8c-1.2-0.3-2.3-0.9-3.6-1
		c-1-0.1-1.9-0.4-2.9-0.5c-1.3-0.1-2.6-0.1-3.8-0.8c-0.1,0-0.2-0.1-0.3,0c-2,0.1-4.1,0.2-6.1,0.3c-0.9,0-1.7,0.1-2.5,0.3
		c-0.9,0.2-1.8,0.5-2.7,0.7c-1.3,0.2-2.5,0.3-3.8,0.9c-1.6,0.7-3.5,1-5.1,1.7c-0.6,0.2-1.2,0.3-1.9,0.5c0,0.6-0.6,0.8-1.1,1
		c-0.7,0.2-1.5,0.4-2.2,0.6c-0.5,0.1-0.9,0.4-1.3,0.6c-0.6,0.3-1.3,0.6-1.9,1c-0.3,0.2-0.7,0.3-0.8,0.6c-0.3,0.6-0.9,0.8-1.3,1.1
		c-0.9,0.7-1.8,1.3-2.7,2c-0.7,0.5-1.2,1.2-1.8,1.8c-1.5,1.1-3,2.2-4.6,3.4c0.2,0.2,0.4,0.4,0.6,0.7c0.9,1,1.9,2,2.8,3
		c0.2,0.2,0.5,0.4,0.7,0.7c0.9,1,1.9,1.8,2.6,2.9c0.9,1.4,1.6,2.9,2.4,4.3c0.1,0.2,0.2,0.3,0.3,0.5c0.6,0.8,1.3,1.6,1.8,2.5
		c0.6,0.8,0.8,1.8,0.9,2.8c0.5-0.3,0.9-0.5,1.4-0.8c1.1-0.7,2.1-1.3,3.4-1.6c0.6-0.1,1.2-0.3,1.8-0.5c1.2-0.5,2.4-0.7,3.7-0.7
		c1.8-0.1,3.6,0.1,5.4,0.4c1.5,0.3,3,0.5,4.5,0.8c1.4,0.3,2.7,0.7,4,1.4c0.3,0.1,0.8,0.1,0.8,0.3c0.3,0.6,0.8,0.8,1.3,1
		c1.6,0.7,3,1.6,4.5,2.5c0.4,0.3,0.7,0.6,1.1,0.9c2,1.4,3,3.7,4.9,5.2c0.1,0,0.1,0.1,0.1,0.1c0.8,1.2,1.6,2.5,2.3,3.7
		c0.1,0.2,0.2,0.4,0.3,0.5c0.4,0.7,1,1.4,1.3,2.2c0.7,1.7,1,3.4,1.1,5.2c0,1.6-0.1,3.3-0.3,4.9c-0.3,2.5-0.6,5-0.9,7.6
		c-0.3,2-1,3.8-2,5.6c-1,1.8-2.5,3.2-3.7,4.9c-1.2,0.6-1.9,1.9-3.1,2.6c-1.5,0.9-2.8,1.9-4.2,2.9c-1.1,0.7-2.4,1.1-3.6,1.7
		c-1.5,0.7-3.2,1-4.8,1.4c-0.7,0.2-1.5,0.3-2.2,0.6c-0.3,0.1-0.6,0.3-0.9,0.3c-0.7,0.2-1.3,0.1-1.9,0.1c-1.6,0.1-3.1,0.2-4.6-0.1
		c-1-0.2-2.1-0.1-3.1-0.3c-1-0.2-2-0.4-3-0.5c-1.4-0.2-2.7-0.9-4.1-1.4c-1.5-0.6-3.1-1.2-4.6-1.9c-0.7-0.3-1.3-0.7-1.9-1.2
		c-0.7-0.4-1.2-1-1.9-1.4c-1.8-0.9-3.4-2.2-5-3.4c-0.4-0.3-0.7-0.8-1-1.3c-0.4-0.7-0.9-1.4-1.3-2.1c-0.3-0.4-0.6-0.9-0.8-1.3
		c-0.4-1-0.7-2.1-1.3-2.9c-0.7-0.9-0.4-1.9-1-2.8c0.1-1.2-0.7-2.3-0.5-3.5c-0.4-0.4-0.1-0.7,0-1.1c0.3-1.3-0.9-2.6-2.2-2.5
		c-0.5,0-1,0.2-1.5,0.2c-1-0.1-2-0.2-3-0.4c-1.1-0.2-2.2-0.3-3.3-0.5c-2.2-0.5-4.3-1.3-6.3-2.4c-0.6-0.3-1.2-0.7-1.8-1
		c-1.5-0.9-2.9-1.8-4.3-2.8c-1.3-0.8-3.5-2.5-4.8-0.7c-0.6,0.9-0.3,2.1-0.3,3.1c0,1.3-0.1,2.7,0,4c0,2,0.1,4,0.2,6.1
		c0,2.1,0,4.3,0.1,6.4c0.1,1.3,0.3,2.5,0.3,3.8c0.1,2.7,0.1,5.3-0.2,7.9c-0.1,0.7-0.3,1.5-0.2,2.2c0.1,0.6,0,1-0.4,1.3
		c-1.4-0.1-2.7-0.2-4.1-0.2c-1.2,0-2.4-0.3-3.6-0.5c-0.8-0.2-1.2-0.6-1.3-1.4c-0.2-1.2-0.3-2.5-0.2-3.7c0.1-0.7-0.1-1.4-0.2-2.1
		c0-0.7,0-1.4-0.1-2.1c-0.1-0.7,0-1.3-0.1-2c-0.2-1.9-0.2-3.8-0.3-5.7c-0.1-0.7,0-1.4,0-2c0-1.3,0-2.5,0-3.8c0-1.6,0-3.3-0.1-4.9
		c0-1-0.2-2-0.3-3c-0.2-1.6-0.4-3.2-0.5-4.8c-0.1-1.2-0.3-2.4-0.3-3.7c-0.1-1,0-1.9-0.1-2.9c-0.2-2,0.2-4-0.2-6
		c-0.2-1.1-0.7-2-1.5-2.9c-1.4-1.5-2.3-3.3-3.2-5.1c-0.6-1.1-1-2.3-1.5-3.5c-0.4-0.9-0.7-1.8-0.9-2.7c-0.1-0.8-0.1-1.6-0.2-2.4
		c-0.2-1.9,0-3.7,0.2-5.6c0-0.3,0.4-0.6,0.3-0.8c-0.2-0.5,0-1,0.1-1.5c0.3-1.1,0.7-2.2,1-3.4c0.1-0.2,0.1-0.5,0.1-0.7
		c-1.2-0.2-2.1,0.3-3.2,0.6c-0.6,0.1-1.1,0.5-1.7,0.4c-0.7,0-1.1,0.2-1.5,0.8c-0.5-0.4-0.9-0.3-1.4,0c-0.9,0.5-1.9,0.9-2.8,1.5
		c-1.4,0.9-2.7,1.8-4.1,2.8c-0.5,0.4-1,0.8-1.5,1.2c-0.8,0.6-1.8,1-2.5,1.7c-1.1,1.2-2.4,2.2-3.4,3.6c-0.7,1.1-1.6,2.1-2.4,3.1
		c-0.7,0.9-1.5,1.9-2,2.9c-0.3,0.5-0.5,1.1-0.8,1.7c-0.5,1.1-1.2,2.1-1.6,3.3c-0.3,0.8-0.6,1.6-0.8,2.4c-0.1,0.4-0.1,1.3-0.6,1.4
		c-0.6-0.8-1,0.2-1.2,0.6c-0.3,0.6-0.7,1.2-0.9,1.8c-0.1,0.3-0.1,0.7-0.2,1c-0.1,0.3-0.1,0.7-0.2,1c-0.2,0.7-0.5,1.4-0.8,2.1
		c0.3,0.1,0.5-0.4,0.8-0.3c0.2,0.1,0.2,0.5,0.1,0.7c-0.1,0.3-0.4,0.6-0.6,0.8c-0.2,0.3-0.3,0.5-0.5,0.8c-0.6,1.2-1,2.4-1.5,3.6
		c-0.1,0.3-0.1,0.3-0.2,0.7c0,0.4-0.2,0.5,0,0.8c0.3,0.5,0.9,0.9,0.5,1.6c-0.1,0.3-0.2,0.3-0.5,0.5c-0.2,0.1-0.4,0.3-0.5,0.5
		c-0.2,0.3-0.1,0.5-0.2,0.8c0,0.1-0.1,0.2-0.2,0.3c-0.1,0.4-0.1,0.9-0.2,1.3c-0.1,0.6-0.2,1.1-0.3,1.7c-0.2,1.1-0.3,2.1-0.5,3.2
		c-0.1,0.7-0.1,1.4-0.1,2.2c0,0.3,0,0.7,0,1c-0.2,2.1-0.2,4.1,0.1,6.1c0.2,1.4,0.4,2.7,0.5,4.1c0,0.8,0.1,1.4,0.7,1.9
		c-0.6,0.5-0.4,1-0.3,1.6c0.4,1.6,0.8,3.3,1.2,4.9c0.4,1.4,0.6,2.9,1.1,4.3c0.4,1.3,0.6,2.7,0.9,4c0.1,0.5,0.1,0.9,0.2,1.4
		c0.2,1,0.5,2.1,0.9,3.1c0.4,0.9,0.7,1.9,1.1,2.8c0.2,0.4,0.4,0.8,0.6,1.2c0.8,2.1,1.6,4.1,2.9,5.9c1.1,1.4,2.1,2.9,3.5,4
		c0.2,0.2,0.5,0.4,0.7,0.6c1.3,1.3,2.6,2.7,4,3.9c1.6,1.5,3.2,3,5.1,4.2c1.1,0.7,2,1.6,3.3,2.1c1,0.4,1.9,1.2,2.8,1.8
		c0.9,0.5,1.8,1.1,2.7,1.5c1.2,0.6,2.5,1.1,3.7,1.7c1.5,0.7,3.1,1.4,4.8,1.7c2.6,0.6,5.2,1.4,7.9,1.3c1.3-0.1,2.7-0.1,4-0.3
		c1.4-0.2,2.9-0.7,4.3-1c0.8-0.2,1.5-0.4,2.2-0.7c0.4-0.1,0.8-0.4,1.2-0.5c1.2-0.5,2.5-0.9,3.6-1.5c1.5-0.7,3-1.6,4.4-2.4
		c0.2-0.9,0.3-1.7,0.5-2.5C197,153.9,197.3,152.7,197.6,151.5L197.6,151.5z M224.7,235.3c0.9,0,1.8,0.2,2.7,0.1
		c2-0.4,4.1-0.5,6.1-1.2c0.5-0.2,1-0.3,1.4-0.5c1-0.4,1.9-0.9,2.9-1.4c0.7-0.4,1.4-0.7,2.1-1.1c1.2-0.9,2.4-1.9,3.6-2.9
		c0.8-0.6,1.3-1.4,1.9-2.2c1-1.6,1.5-3.4,2.1-5.2c0.7-2.3,1.3-4.6,1.9-7c0.2-0.8,0.4-1.6,0.5-2.5c0.2-1.4,0.6-2.7,0.6-4.1
		c0-0.7,0.2-1.3,0.3-2c0.1-2.2,0.4-4.4,1-6.6c0.2-0.9,0.4-1.7,0.6-2.6c0.4-2.4,0.7-4.9,1-7.4c0-0.1,0.1-0.3,0-0.4
		c-0.2-0.8,0.2-1.6,0-2.5c-0.2-0.8,0.1-1.7,0.2-2.6c0.2-1.4,0.1-2.9,0.7-4.2c-0.2-0.1-0.3-0.3-0.4-0.3c0.2-1.7,0.5-3.2,0.7-4.8
		c0.1-0.8-0.1-1.7,0-2.6c0-0.9,0.2-1.8,0.3-2.6c0.9-0.8-0.3-1.6,0.1-2.4c0,0,0-0.1,0-0.1c0.1-0.7,0.2-1.4,0.2-2.1
		c0-2.4-0.1-4.8-0.2-7.1c0-0.7-0.1-1.4-0.1-2.2c0-1.1,0-2.1,0-3.2c0-0.4-0.1-0.8-0.2-1.1c-0.6-1.1-1.3-2.2-1.9-3.4
		c-0.7-1.2-1.4-2.5-2.1-3.7c-0.1-0.2-0.2-0.4-0.2-0.6c-0.5-2.1-1.6-4-3-5.7c-0.2-0.2-0.4-0.5-0.4-0.8c-0.1-0.9-0.6-1.4-1.3-1.9
		c-1.1-0.8-2.2-1.7-3.2-2.8c-0.2-0.2-0.4-0.4-0.6-0.6c-1.5-1.1-3.2-1.7-4.6-3c-1.6-0.4-2.9-1.6-4.6-1.3c-0.1,0-0.3,0-0.4-0.1
		c-0.6-0.2-1.1-0.5-1.7-0.7c-1.9-0.9-4-0.6-6-0.4c-1.4,0.2-2.8,0.6-4.2,0.9c-1,0.2-1.8,0.6-2.6,1.1c-0.7,0.5-1.4,1.1-2.2,1.5
		c-1.7,1-3.1,2.2-4.5,3.5c-1.2,1.2-2.2,2.5-3.3,3.8c-1.5,1.6-2.7,3.4-4,5.1c-1.1,1.5-2.1,3.1-2.8,4.8c-1.1,2.7-2.3,5.4-2.9,8.3
		c-0.2,1.1-0.5,2.2-0.6,3.3c-0.1,3.2-0.1,6.4-0.2,9.6c0,0.8-0.1,1.5-0.1,2.3c0,0.2-0.2,0.4-0.2,0.5c0.4,0.8,0.1,1.5-0.2,2.3
		c-0.1,0.3-0.1,0.5-0.1,0.8c0.2,2.2,0.3,4.4,0.5,6.7c0,0.5,0.1,1.1,0.2,1.6c0.2,1.1,0,2.3,0.4,3.4c0.3,0.9,0.6,1.9,0.6,2.9
		c0,0.6,0,1.2,0.1,1.8c0.2,0.8,0.3,1.7,0.5,2.6c0.1,0.4,0.2,0.9,0.3,1.3c0.1,0.6,0.4,1.2,0.4,1.8c0.2,2.4,0.9,4.8,1.3,7.2
		c0.2,1.2,0.5,2.3,0.7,3.5c0.3,1.8,0.9,3.7,1.5,5.4c1.2,3.1,2.1,6.2,3.1,9.4c0.7,2.3,1.6,4.4,3,6.4c0.8,1.1,1.8,2,2.8,2.9
		c1.1,0.9,2.3,1.6,3.6,2.2c1.6,0.8,3.3,1.4,5,2c0.7,0.3,1.5,0.5,2.3,0.6c0.6,0.1,1.2,0,1.8-0.1C224.7,234.9,224.7,235,224.7,235.3z
		 M369.4,102c0.1-0.1,0.3-0.1,0.3-0.2c0.3-0.8,0.7-1.6,0.6-2.6c-0.1-0.6-0.1-1.2-0.1-1.7c0.1-1.5,0.3-3,0.5-4.5
		c0.2-1.7,0.6-3.4,1.8-4.8c0.3-0.4,0.8-0.5,1.2-0.8c0.6-0.6,1.4-0.8,2.1-1.1c1.9-0.8,3.4,0.3,5,0.8c0.1,0,0.1,0.2,0.1,0.3
		c0.3,0.3,0.6,0.6,0.9,0.8c0.2,0.2,0.4,0.4,0.5,0.7c0.3,0.7,0.5,1.5,0.5,2.3c0,0.5,0.2,1.1,0.3,1.6c0.1,0.4,0.3,0.7,0.2,1.2
		c-0.1,1.4-0.3,2.8-0.5,4.2c-0.1,1-0.5,2-0.4,3c0,0.1-0.1,0.3-0.1,0.4c-0.1,0.6-0.3,1.2-0.4,1.8c-0.1,0.7,0,0.8,0.7,1.1
		c1.3-1.4,1.9-3.1,2.1-4.9c0.4-2.5,1-5,1.7-7.4c0.4-1.5,1.4-2.3,2.6-3.1c0.4-0.3,1.1-0.5,1.5-0.4c0.6,0.2,1.2,0.2,1.8,0.2
		c0.5,0.1,1,0.1,1.4,0.4c0.9,0.7,1.8,1.3,2.4,2.3c0.3,0.5,0.7,1,0.8,1.5c0.2,0.9,0.3,1.8,0.5,2.7c0,0.2,0,0.5,0.1,0.7
		c0.4,0.7,0.2,1.3,0.1,2c-0.1,0.7-0.1,1.4-0.2,2.1c-0.1,0.4-0.3,0.8-0.2,1.2c0.1,0.5,0,0.8-0.3,1.2c-0.3,0.4-0.1,1.4,0.3,1.5
		c1.2,0.3,2,1.1,3,1.8c0.9,0.6,1.6,1.3,1.9,2.4c0.2,0.8,0.4,1.6,0.5,2.4c0.1,0.5,0.3,0.9,0.7,1.2c0.7,0.5,1.4,1,2.2,1.3
		c1,0.4,2.1,0.6,3.2,0.7c4.1,0.5,8.2,0.8,12.2,0c1.8-0.4,3.7-0.8,5.5-1.2c0.4-0.1,0.8-0.2,1.1-0.5c0.9-0.9,2.1-1.5,2.4-2.9
		c0-0.2,0.2-0.3,0.4-0.5c0.8-0.9,1.4-2,1.5-3.2c0.1-0.8,0.4-1.5,0.5-2.3c0.2-1.3,0.6-2.6,0.6-3.9c0.2-2.7,0.1-5.3,0.2-8
		c0-1.3,0.1-2.7,0.2-4c0.1-1.7,0.2-3.4,0.3-5c0.2-2.4,0.4-4.9,0.6-7.3c0.2-2.3,0.4-4.5,0.1-6.8c-0.2-1.7-1.1-2.9-2.8-3.4
		c-0.8-0.2-1.7-0.3-2.5-0.4c-0.8-0.1-1.6-0.1-2.4,0c-1.2,0-2.4-0.2-3.5-0.3c-0.8-0.1-1.5-0.2-2.3-0.3c-0.6-0.1-1.3-0.3-1.9-0.4
		c-1.4-0.3-2.9-0.6-4.3-0.8c-1.4-0.2-2.7-0.4-4.1-0.6c-1.5-0.1-3.1-0.1-4.6-0.3c-1.8-0.1-3.5-0.3-5.2,0.6c-0.1,0-0.1,0-0.2,0
		c-0.6,0.2-1.3,0.2-1.9,0.5c-0.9,0.4-1.4,1.2-1.5,2.3c0,0.2-0.1,0.5-0.2,0.7c-0.3,0.8-0.5,1.6-0.9,2.2c-0.5,0.7,0,1.8-1,2.2
		c0,0,0,0.3,0,0.4c0,0.2,0,0.4-0.1,0.5c-0.5,0.4-0.9,0.9-1.5,1.2c-1.5,0.9-3,1.6-4.8,1.4c-0.9-0.1-1.8-0.2-2.6-0.4
		c-0.7-0.1-1.3-0.4-2.1-0.7c0.1,1,0.2,1.8,0.1,2.6c-0.2,1.1-0.4,2.2-1.1,3.1c-0.5,0.7-0.9,1.5-1.4,2.2c-0.3,0.4-0.6,0.7-1.1,0.9
		c-0.4,0.2-0.9,0.2-1.4,0.3c-1.1,0.2-2.2,0.3-3.3-0.4c-1-0.7-1.9-1.5-2.7-2.5c-0.4-0.5-0.6-1.1-0.9-1.7c-0.3-0.6-0.7-1.1-0.9-1.8
		c-0.2-0.4-0.1-0.8-0.5-1.1c-0.5-0.4-1.2-0.7-1.8-0.8c-0.4-0.1-0.9-0.3-1.3-0.3c-0.5,0-0.7-0.2-1.1-0.3c-0.3-0.1-0.6,0-0.8,0
		c-0.3,0-0.4-0.1-0.7-0.2c-0.5-0.1-1.2,0-1.8,0c-0.3,0-0.7,0-1,0c-0.4,0-0.7-0.2-1.1-0.2c-1.4,0-2.8,0-4.2-0.1
		c-1.9-0.1-3.8-0.2-5.7-0.3c-0.7,0-1.4,0-2.1,0.1c-0.5,0.1-0.9,0.1-1.4-0.1c-1.2-0.4-2.4-0.4-3.5-1.1c-0.1-0.1-0.2-0.1-0.3-0.1
		c-1.2-0.2-2.4-0.4-3.7-0.4c-2.4,0-4.8-0.5-7.2-0.4c-1.9,0-3.7-0.1-5.6,0.1c-1.5,0.2-3,0.1-4.5,0.1c-0.8,0-1.5,0-2.3,0
		c-0.9,0-1.9-0.1-2.8-0.1c-0.7,0-1.4,0.1-2-0.1c-1.4-0.4-2.8-0.5-4.3-0.7c-0.7-0.1-1.4,0-2.1-0.1c-1.1-0.2-2.2-0.1-3.3,0.1
		c-0.4,0.1-0.8,0.2-1.2,0.1c-1.6-0.3-3.2-0.4-4.9-0.4c-1.8,0-3.5,0-5.3-0.5c-0.5-0.1-1-0.1-1.4,0c-2.6,0.4-5.2,0.1-7.9,0.3
		c-1.3,0.1-2.5,0.1-3.7,0.5c-0.3,0.1-0.7,0.4-0.7,0.6c-0.4,1.5-0.7,3-0.5,4.5c0.4,2.8,0.9,5.6,1.3,8.4c0.2,1.2,0.2,2.5,0.3,3.7
		c0,0.7-0.1,1.4,0,2.1c0,0.6,0.2,1.1,0.3,1.7c0.2,1.8,0.7,3.5,0.8,5.3c0.1,1.7,0.6,3.4,0.9,5.1c0.2,0.9,0.5,1.6,1.5,1.8
		c0.6,0.1,1.1,0.4,1.7,0.4c2,0.2,3.9,0.4,5.9,0.5c3.3,0.1,6.7,0.2,10,0.2c1.6,0,3.2-0.1,4.8-0.1c1.3,0,2.5,0,3.8,0
		c2.3,0.1,4.6,0.2,7,0.3c1.3,0,2.6-0.1,3.9-0.1c2,0,3.9,0.1,5.9,0.1c1.9,0,3.7-0.1,5.6,0c1.8,0.1,3.6,0.5,5.4,0.7
		c0.7,0.1,1.4,0.3,2.2,0.4c-0.4-1-0.8-2-1.3-2.9c-1-1.9-1.7-3.8-1.8-6c0-0.3-0.1-0.6-0.2-0.9c-0.3-0.9-0.4-1.7,0.2-2.5
		c0.7-1,1.8-1.4,2.9-1.7c1.1-0.3,2.1,0.1,3.1,0.4c0.9,0.3,1.8,0.8,2.4,1.6c0.3,0.4,0.7,0.7,1.1,0.9c0.7,0.5,1.4,1,1.9,1.8
		c0.3,0.6,0.8,1.1,1.3,1.5c0.8,0.7,1.5,1.5,2,2.4c0.4,0.8,0.9,1.5,1.4,2.3c0.5,0.6,1.2,0.7,1.8,0.1c0.4-0.4,0.6-0.9,0.5-1.5
		c-0.3-1.7-1.1-3-2.1-4.3c-0.6-0.8-1.2-1.7-1.6-2.7c-0.2-0.4-0.3-0.7-0.4-1.1c-0.1-0.5-0.1-1-0.3-1.5c-0.4-1.2,0-2.4-0.1-3.6
		c0,0,0.1-0.1,0.1-0.1c0.7-1,1.5-2.1,2.8-2.4c2-0.5,3.7-0.2,5.2,1.2c0.5,0.5,1,1,1.5,1.5c0.8,0.8,1.6,1.5,2,2.5c0.4,1,1.4,1.8,1.3,3
		c0,0.1,0.1,0.2,0.2,0.3c0.2,0.2,0.4,0.5,0.5,0.7c0.5,1,1,2.1,1.5,3.1c0.6,1.2,1.4,2.2,1.8,3.5C369.2,101.8,369.3,101.9,369.4,102z
		 M29.5,94.1c-1.3,0.2-2.4,0.4-3.4,0.5c-0.7,0.1-1.2,0.5-1.7,0.9c-0.2,0.2-0.4,0.3-0.6,0.5c-0.6,0.6-1.6,0.9-1.6,2
		c0,0.1-0.2,0.2-0.3,0.3c-1.6,0.7-2.3,2.2-3.1,3.6c-0.9,1.5-1.8,3.2-2.1,5c-0.1,0.6-0.2,1.2-0.6,1.7c-0.3,0.4-0.3,1.2-0.4,1.8
		c0,0.1,0,0.3-0.1,0.3c-0.6,0.7-0.5,1.8-1.4,2.3c-0.1,0.1-0.1,0.3-0.1,0.5c0,1.7,0.1,3.4,0.1,5c0,1.1,0.1,2.1,0,3.2
		c0,1.4-0.1,2.8,0.3,4.2c0.1,0.3,0.1,0.6,0,0.9c-0.2,0.9,0.1,1.7,0.3,2.5c0.1,0.6,0.4,1.1,0.4,1.7c0,0.5,0.5,1,0.3,1.6
		c-0.1,0.4,0.1,0.9,0.2,1.3c0.2,1.2,0.4,2.3,0.6,3.5c0.4,1.6,0.5,3.4,1.2,4.9c0.7,1.5,1,3.2,1.8,4.7c0.3,0.6,0.6,1.3,0.9,1.9
		c0.5,0.9,0.9,1.9,1.5,2.8c0.8,1.2,1.8,2.3,2.7,3.5c0.9,1.2,2.2,2,3.4,2.8c2.3,1.4,4.4,2.9,6.8,4.1c1.6,0.8,3.2,1.4,5,1.4
		c1.1,0,2.2,0,3.3,0.1c2.1,0.1,4.3-0.2,6.4-0.5c2.1-0.4,4.1-1.3,5.9-2.3c1.1-0.6,2.1-1.3,3-2.1c1.4-1.2,2.7-2.6,4-4
		c0.3-0.3,0.5-0.6,0.7-0.9c1.2-1.8,1.5-4,2.1-6.1c0.2-0.6,0.2-1.1,0.4-1.7c0.2-0.6,0.5-1.1,0.6-1.7c0.1-0.6,0.2-1.2,0.3-1.6
		c0.2-0.5,0.4-1.1,0.6-1.7c0.2-0.4,0.2-0.9,0.4-1.3c0.7-1.7,1.2-3.4,1.2-5.2c0-0.6,0-1.3,0.1-1.9c0.2-1.8,0.3-3.5,0.5-5.3
		c0-0.2,0.1-0.3,0.1-0.5c0.5-1.2,0.3-2.6,0.7-3.8c0-0.1,0-0.1,0-0.2c0.1-0.8,0.1-1.6,0.2-2.4c0-0.6,0.2-1.2,0.1-1.8
		c-0.1-2.1-0.3-4.2-0.6-6.3c-0.3-2.6-1.1-5-2.3-7.3c-0.5-0.9-1.2-1.9-2.1-2.5c-1.3-1.1-2.8-2-4.3-3c-2.1-1.4-4.4-2.5-6.9-3
		c-2.4-0.5-4.9-0.7-7.3-0.9c-2-0.1-4.1-0.1-6.1-0.1c-0.9,0-1.9-0.1-2.8-0.2c-1.6-0.2-3.1-0.5-4.7-0.7C31.9,94.4,30.6,94.3,29.5,94.1
		z M245.4,107.9c-0.8-0.4-1.6-0.7-2.3-1.2c-0.9-0.6-1.8-1.3-2.4-2.2c-0.8-1.3-2.5-1.6-3.1-3c-0.1-0.1-0.2-0.1-0.3-0.2
		c-0.2-0.2-0.5-0.3-0.6-0.5c-0.1-0.2-0.3-0.4-0.2-0.6c0.1-0.2,0.3-0.3,0.5-0.3c0.9-0.2,1.7,0.3,2.4,0.8c2.1,1.4,4.2,2.8,6.2,4.2
		c1,0.7,1.9,1.6,3.2,1.3c0.1,0,0.1,0,0.2,0c1.4,0.4,2.8,0.5,4.2,0.3c0.4-0.1,0.8,0,1.1-0.1c1.2-0.5,2.3-1.3,3.2-2.4
		c0.8-1,1.6-2,2.4-3.1c0.4-0.5,0.7-1.1,1-1.6c0.6-1.1,0.5-2.2-0.4-3.1c-0.5,0.1-0.9,0.1-1.3,0.2c-1.8,0.3-3.4,0.9-5.3,0.6
		c-1.2-0.2-2.3-0.6-3.4-0.9c-1-0.3-2-1-2.8-1.7c-0.9-0.7-1.6-1.6-2.4-2.5c-0.1-0.1-0.2-0.2-0.2-0.4c-0.2-0.5,0.3-1.7,0.6-2.2
		c0.3-0.3,0.8-0.5,1.1-0.8c0.4-0.2,1.1-0.4,1.6-0.3c0.2,0.1,0.5,0.2,0.8,0.2c0.3,0,0.6-0.1,0.9,0c1,0.2,1.8,1.3,2.3,2.1
		c0.2,0.3,0.4,0.7,0.7,1c0.3,0.3,0.4,0.7,0.6,1.1c0.2,0.4,0.5,0.7,0.9,1c0.5,0.4,1.1,0.8,1.7,1c0.6,0.2,1.3,0,1.9-0.1
		c0.3,0,2.8-0.6,2.8-0.7c0-0.3,0-0.6-0.1-0.9c-0.1-0.4-0.3-0.9-0.5-1.2c-0.3-0.5-0.6-1-0.9-1.5c-0.1-0.1-0.2-0.2-0.3-0.4
		c-0.4-0.8-0.7-1.6-1.1-2.3c-0.5-0.9-0.9-1.8-1.5-2.6c-0.6-0.8-1.3-1.5-2.1-2.1c-0.8-0.6-1.6-1.2-2.4-1.8c-0.3-0.2-0.6-0.5-1-0.7
		c-0.9-0.5-1.8-0.9-2.6-1.5c-0.3-0.2-0.6-0.4-0.9-0.5c-0.3-0.1-0.7-0.3-1-0.4c-0.2-0.1-0.4-0.3-0.6-0.3c-1-0.1-1.9-0.6-2.9-0.3
		c-0.4,0.1-1,0.2-1.4,0.1c-1.1-0.3-2.2-0.2-3.3-0.1c-1.4,0.1-2.8,0-4.2-0.2c-1-0.1-1.9-0.3-2.9-0.4c-0.2,0.9-0.3,1.8-1.1,2.4
		c-0.1,0.1-0.1,0.2-0.1,0.4c-0.3,0.9-0.6,1.8-1,2.6c-0.5,0.9-0.7,2-1.9,2.4c-0.5,0.2-0.1,0.5,0.1,0.7c-0.2,0.1-0.5,0.3-0.5,0.4
		c0,0.6-0.5,0.8-0.9,1c-0.1,0.1-0.3,0.1-0.3,0.2c-0.3,0.7-1,1-1.5,1.6c-0.5,0.6-1.1,1.2-1.7,1.6c-0.9,0.6-1.6,1.6-2.7,2.1
		c-0.6,0.3-1.3,0.4-1.7,1c-0.1,0.2-0.5,0.2-0.8,0.3c-0.4,0.1-0.7,0.2-1.1,0.3c-1.3,0.5-2.7,0.9-4.1,1.4c-0.2,0.3,0,0.6,0.2,0.8
		c0.3,0.3,0.7,0.6,0.8,1c0.3,1.1,1,1.9,1.7,2.7c1.5,1.8,3,3.6,4.6,5.3c0.9,1,1.8,2,2.9,2.8c1.5,1.1,3.1,2.2,4.7,3.1
		c0.9,0.5,1.9,0.7,2.9,1c1.2,0.3,2.4,0.4,3.5,0.6c1.6,0.2,3.2,0.1,4.9-0.7c-0.6-0.2-1-0.4-1.3-0.5c-0.8-0.2-1.7-0.4-2.5-0.7
		c-1.9-0.9-3.7-1.9-5.3-3.2c-0.8-0.7-1.6-1.5-1.7-2.7c0.2-0.1,0.3-0.1,0.4-0.2c0.5-0.5,1-0.4,1.5,0c1.9,1.3,3.9,2.4,6,3.5
		c1.7,0.9,3.6,1.5,5.4,2c0.7,0.2,1.4,0.5,2.1,0c0.1-0.1,0.2,0,0.3,0C244.1,110,244.9,109.4,245.4,107.9z M373.8,117.4
		c1-0.2,2.5-0.4,3.9-0.7c2.1-0.4,3.9-1.4,5.9-2.2c1.3-0.6,2.4-1.3,3.3-2.4c0.8-0.9,1.8-1.8,2.4-2.9c0.6-1,1.1-2.2,1.7-3.3
		c0.5-1,0.8-2.1,1.2-3.2c0.2-0.5,0.2-0.9,0.4-1.4c0.6-1.5,1.1-3,1.2-4.7c0-2-0.1-4-1.5-5.7c-0.5-0.6-1.2-0.6-1.7-0.8
		c-0.2-0.1-0.6,0.3-0.8,0.5c-0.4,0.3-0.7,0.7-1,1.1c-0.8,0.9-1.2,1.9-1.3,3c0,0.8-0.2,1.6-0.3,2.3c-0.1,1.1-0.3,2.2-0.4,3.3
		c-0.1,0.9-0.2,1.8-0.6,2.7c-0.1,0.2-0.2,0.4-0.2,0.6c0,0.6-0.2,1.1-0.6,1.5c-0.8,0.6-1.6,1.2-2.4,1.7c-0.5,0.3-1,0.2-1.4-0.2
		c-0.5-0.5-0.9-1-0.9-1.8c0-0.8,0.1-1.5,0.1-2.3c0-0.9,0.4-1.8,0.3-2.8c-0.2-1.5-0.2-2.9-0.5-4.4c-0.3-1.4-0.8-2.8-0.4-4.3
		c0-0.1,0-0.3-0.1-0.5c-0.4-0.7-0.7-1.4-1.5-1.8c-0.3-0.2-0.6-0.6-0.9-0.9c-0.2-0.2-0.5-0.4-0.8-0.4c-2,0-3.6,1.4-4.1,3.4
		c-0.4,1.5-0.2,3-0.5,4.4c-0.2,1-0.3,2.1-0.2,3.1c0.1,1.1-0.8,2-0.3,3.1c-0.4,0.8-0.7,1.6-1.1,2.4c-0.3,0.5-1.1,0.5-1.6,0.2
		c-0.7-0.4-1-0.9-1.2-1.6c-0.4-1.1-1.1-2.1-1.7-3.1c-0.5-0.9-0.7-1.8-1.1-2.7c-0.2-0.6-0.5-1.2-1-1.8c-0.6-0.7-1.5-1.2-1.6-2.3
		c0-0.3-0.4-0.5-0.6-0.8c-0.1-0.1-0.3-0.2-0.4-0.3c-0.6-1.2-1.8-1.9-2.6-3c-0.1-0.1-0.4-0.2-0.5-0.2c-0.3-0.1-0.6-0.2-0.9-0.3
		c-0.2-0.1-0.4-0.2-0.6-0.2c-1.2-0.1-2.4,1.2-2.6,2.4c-0.1,1.6,0.5,3.1,1.1,4.5c0.3,0.8,0.9,1.5,1.4,2.2c0.8,1.2,1.6,2.3,1.8,3.7
		c0.1,0.7,0.4,1.4,0.4,2c0,0.6-0.1,1.2-0.6,1.5c-0.3,0.2-0.4,0.5-0.6,0.7c-0.2,0.2-0.4,0.4-0.7,0.4c-1.1,0-2.2,0.2-3.2-0.2
		c-0.2,0-0.3-0.1-0.4-0.2c-0.3-0.4-0.5-0.8-0.7-1.2c-0.3-0.6-0.6-1.3-1-1.9c-0.6-0.7-1.3-1.3-1.9-2c-0.5-0.5-1-1.1-1.5-1.7
		c-0.4-0.4-0.8-0.7-1.2-1.1c-0.6-0.5-1.3-0.9-1.9-1.4c-1-0.8-2.3-0.8-3.5-1c-0.1,0-0.2,0-0.2,0c-0.4,0.5-1,0.3-1.5,0.5
		c-0.7,0.2-1,0.7-0.8,1.2c0.3,0.9,0.7,1.8,1.1,2.6c0.7,1.3,1.5,2.6,2.3,3.9c0.4,0.7,0.6,1.5,1,2.1c1.2,2.1,2.5,4.1,4.3,5.8
		c1.8,1.7,3.8,3,6.2,3.7c0.2,0,0.3,0.2,0.4,0.2c1.2,0.7,2.4,1.1,3.7,1.4c3.3,0.8,6.7,0.8,10,1C369.8,117.6,371.6,117.5,373.8,117.4z
		 M187.7,167.4c-0.4,0.4-0.9,0.8-1.2,1.3c-0.5,0.7-1,1.4-1.2,2.3c-0.3,0.9-1.1,1.7-1.4,2.6c-0.2,0.9-0.2,1.9-0.4,2.8
		c-0.5,2.7-1.1,5.4-1.5,8.1c-0.3,1.9-0.5,3.8-0.7,5.7c-0.2,1.6-0.5,3.1-0.8,4.7c-0.3,1.9-0.6,3.9-0.9,5.8c-0.2,1.1-0.6,2.2-0.7,3.3
		c-0.1,1.9-0.4,3.7-0.6,5.6c-0.1,1.3-0.4,2.7-0.6,4c-0.1,1.1-0.2,2.2-0.3,3.3c-0.1,1.1-0.3,2.2-0.4,3.4c-0.1,1.9-0.1,3.8-0.2,5.7
		c-0.2,2.3-0.2,4.6,0,7c0.1,0.7,0.3,1.4,0.7,1.9c0.9,1.4,2.1,2.5,3.7,3c0.4,0.2,0.9,0.3,1.4,0.4c0.9,0.1,1.4-0.1,1.8-1
		c0.6-1.4,0.9-2.9,1.2-4.5c0.1-0.9,0.2-1.8,0.3-2.7c0.1-0.8,0.3-1.6,0.4-2.4c0.1-0.5,0.1-1,0.1-1.5c0-0.5,0.1-0.9,0.2-1.4
		c0.1-0.5,0.3-1,0.4-1.5c0.1-0.5,0-1.1,0.3-1.4c0.3-0.5,0.1-0.9,0.2-1.3c0.4-1.5,0.8-3.1,0.9-4.6c0.3-3.2,1.3-6.3,1.9-9.4
		c0-0.1,0.1-0.2,0.2-0.4c0.1-0.3,0.2-0.5,0.1-0.8c-0.2-1.3,0.1-2.5,0.4-3.7c0.1-0.6,0.3-1,1-1.1c-0.3-0.3-0.7-0.4-0.6-0.9
		c0.2-1.7,0.4-3.5,0.7-5.2c0.3-2.2,0.7-4.4,1.1-6.6c0.2-1,0.4-2,0.7-3c0.2-0.9,0.6-1.9,0.5-2.9c-0.1-0.5,0-0.8,0.1-1.3
		c0-0.5,0-1,0.2-1.5c0.2-0.8,0.2-1.7,0.2-2.5c0-0.3,0-0.7,0-1c0-0.2,0.1-0.3,0.1-0.5c0.1-0.3,0-0.2-0.1-0.5c-0.2-0.6,0-1.5,0-2.1
		c0-0.7,0-1.4,0-2.1c0-0.3,0-0.7,0-1c-0.1-0.3-0.1-0.7-0.2-1c-0.1-0.3-0.3-0.7-0.4-1c-0.1-0.3-0.2-0.7-0.4-1
		c-0.3-0.3-0.7-0.4-1.1-0.5c-0.2-0.1-0.4-0.2-0.5-0.4c-0.2-0.3-0.1-0.3-0.4-0.3c-0.6,0-1.2,0.4-1.7,0.6c-0.4,0.2-0.6,0.5-1,0.8
		c-0.3,0.2-0.6,0.4-0.9,0.6C187.8,167.3,187.8,167.3,187.7,167.4z M269.2,155.5c-0.7,0.9-1,2-1.2,3.1c-0.3,1.6,0.1,2.9,0.2,4.5
		c0.1,1,0.8,2.3,0.2,3.3c0,0,0,0.1,0.1,0.1c0.5,0.1,0.3,0.5,0.3,0.7c0,0.9,0.1,1.8,0.4,2.7c0.1,0.3-0.2,0.6-0.1,0.8
		c0.2,0.8,0.3,1.7,0.5,2.5c0.2,0.9,0,1.9,0.5,2.7c0.1,0.1,0.1,0.4,0,0.5c-0.3,0.3,0,0.6,0.1,0.9c0.1,0.3,0.1,0.7,0.1,1.1
		c0,0.4,0,0.9,0.1,1.3c0,0.4,0.1,0.8,0.1,1.2c0.1,0.4,0.1,0.8,0.2,1.2c0.1,0.4,0.3,0.8,0.1,1.2c-0.2,0.5,0.3,0.7,0.3,1
		c0,0.2,0,0.4,0,0.6c0,0.2,0,0.5,0.1,0.7c0.8,1.1,0.3,2.3,0.6,3.5c0.1,0.3,0,0.6,0.1,1c0.1,0.5,0.4,1.1,0.5,1.6
		c0.3,1.4,0.5,2.8,0.8,4.1c0.2,0.6,0.2,1.1-0.1,1.5c0.2,0.2,0.5,0.4,0.5,0.6c0.1,0.6,0,1.3,0.3,1.7c0.5,0.7,0.5,1.4,0.6,2.2
		c0.1,0.4,0.2,0.8,0.3,1.2c0.1,0.4,0.4,1,0.3,1.3c-0.4,0.6,0.3,0.8,0.3,1.3c0,0.8-0.2,1.6,0.3,2.3c0.1,0.1,0.1,0.4,0.1,0.5
		c-0.2,0.5,0.1,0.9,0.1,1.4c0.1,0.5,0.3,0.9,0.3,1.4c0,1.4,0.8,2.7,0.6,4.1c0.6,2,1.1,4,1.7,6c0.1,0.3,0.2,0.5,0.2,0.8
		c0,1.2,0.4,2.4,0.9,3.5c0.7,1.5,1.5,2.8,3.2,3.3c0.8,0.2,1.6,0.3,2.3,0.6c0.8,0.3,1.5,0.3,2.3,0c1.1-0.4,1.2-0.7,0.9-1.8
		c-0.1-0.4-0.3-0.8-0.2-1.2c0.3-1.1,0.2-2.1,0-3.2c-0.2-1.5-0.5-2.9-0.8-4.3c-0.2-0.9-0.4-1.8-0.6-2.7c-0.3-1.3-0.5-2.6-0.7-3.9
		c-0.1-0.9-0.2-1.8-0.3-2.8c-0.2-1.4-0.4-2.7-0.6-4.1c-0.2-2-0.5-4.1-1-6.1c-0.2-0.7-0.2-1.4-0.3-2.1c0-0.3,0.1-0.5,0.2-0.9
		c-0.3,0.1-0.4,0.2-0.6,0.3c-0.5-1-0.2-2-0.3-3.1c-0.1-1.3-0.6-2.5-0.9-3.7c-0.4-1.5-0.5-3.1-0.9-4.5c-0.1-0.5-0.4-0.8-0.6-1.3
		c-0.2-0.5-0.3-1.3-0.3-1.8c-0.1-0.8-0.2-1.5-0.3-2.3c-0.5-3.6-0.5-7.5-2-10.9c-0.2-0.5-0.3-1.1-0.5-1.6c-0.1-0.3-0.2-0.5-0.3-0.7
		c0-0.1-0.4-0.4-0.4-0.5c0-0.8,0.1-1.5,0.1-2.1c0-0.4,0-0.9-0.2-1.2c-0.6-1.1-0.8-2.3-1.1-3.5c-0.3-1.1-0.9-2.1-1.6-3
		c-1.1-1.3-2.9-2.5-4.5-1.2C269.5,155.1,269.3,155.3,269.2,155.5z M116.1,230.2c0.3,1.3,0.5,2.5,0.9,3.7c0.8,2,1.6,4,3,5.6
		c0.8,1,1.6,2,2.4,2.9c1.4,1.6,2.9,3.1,4.2,4.7c0.9,1.1,1.9,1.8,3.1,2.4c1.3,0.6,2.6,1.4,3.9,2.1c1.5,0.7,2.9,1.4,4.6,1.5
		c0.6,0,1.1,0.1,1.7,0.2c2,0.3,4,0.5,5.9-0.4c0.1,0,0.1,0,0.2-0.1c0.9-0.3,1.6-0.6,2.1-1.5c1-1.7,1.5-3.4,1.3-5.3
		c0-0.4-0.2-0.8-0.1-1.2c0.1-1.2-0.3-2.3-0.8-3.3c-0.5-1.2-1.4-2.2-2.2-3.1c-0.9-1-1.6-2.1-2.8-2.7c-0.7-0.4-1.4-0.8-2.1-1.2
		c-1.3-0.7-2.6-1.5-3.9-2.2c-0.7-0.4-1.4-0.6-2.1-0.9c-2.2-1.1-4.6-1.7-7-2.3c-3-0.7-6.1-0.5-9.1,0.1
		C118.2,229.4,117.2,229.9,116.1,230.2z M44,181c-0.7,0.4-1.3,1.2-1.7,1.8c-0.3,0.6-0.6,1.3-0.6,2.1c0,0.6,0,1.1,0,1.7
		c0,1.6,0,3.2,0.1,4.8c0.2,2.5,0.6,5,0.7,7.5c0,2.2,0.3,4.4,0.2,6.7c-0.2,3.5-0.2,6.9-0.1,10.4c0,3.2,0.1,6.4,0.2,9.6
		c0.1,2.9,0.4,5.8,0.3,8.7c-0.1,2.7,0,5.4,0,8.1c0,2.1,0.3,4.2,1,6.3c0.3,1,0.9,1.3,1.9,1.2c0.5-0.1,1-0.3,1.5-0.5
		c0.1-0.1,0.2-0.2,0.3-0.4c0.3-1.2,0.7-2.3,0.3-3.6c-0.1-0.4-0.1-0.8,0.4-1.1c0.3-0.1,0.3-0.4,0.3-0.7c0-0.2,0.1-0.5,0.2-0.7
		c0.3-0.5,0.5-1.1,0.2-1.7c-0.1-0.1,0-0.4,0-0.5c0.6-1,0.1-2.1,0.1-3.2c0-0.6-0.1-1.2,0-1.8c0.1-0.5,0-1.1,0-1.7c0-0.4,0-0.8,0-1.2
		c0-0.4,0.2-0.9,0.1-1.2c-0.3-0.8-0.1-1.6-0.3-2.4c-0.1-0.5-0.1-0.9-0.1-1.4c0-1.3,0.2-2.6,0.1-3.9c0-0.9,0-1.8,0.2-2.7
		c0.1-0.5,0-1.1,0-1.7c0-0.5-0.2-0.9-0.2-1.4c-0.1-1.2,0-2.5-0.2-3.7c-0.2-1.4,0.2-2.8-0.2-4.1c0-0.1,0.1-0.1,0.1-0.2
		c0-0.9,0-1.9-0.2-2.8c-0.2-1.1,0-2.3,0-3.4c0-0.5,0.2-1-0.2-1.4c-0.1-0.1-0.1-0.4-0.1-0.6c0-0.4,0-0.9-0.1-1.3c0-0.5-0.1-1-0.2-1.5
		c-0.1-1.1-0.2-2.3-0.2-3.4c0-1.5-0.3-2.9-0.2-4.4c0.1-1.5-0.1-3.1-0.1-4.6c-0.1-1.1-0.1-2.3-0.2-3.4c-0.1-0.8,0-1.7-0.7-2.3
		c-0.6-0.4-1.5-0.3-2.2-0.1C44.2,180.9,44.1,180.9,44,181z M67.4,156.7c-1,0.4-1.9,0.9-2.8,1.3c-1.4,0.7-2.5,1.8-3.9,2.6
		c-0.2,0.1-0.4,0.2-0.6,0.3c-2.1,1.1-4.1,2.4-6.5,2.9c-0.5,0.1-0.9,0.1-1.4,0.4c-0.4,0.2-0.8,0.3-1.3,0.5c-1.2,0.3-2.5,0.7-3.7,0.8
		c-0.9,0.1-1.8,0.2-2.7,0.2c-0.4,0-0.8-0.1-1.2-0.1c-1.4,0-2.9-0.1-4.3-0.1c-0.3,0-0.6-0.1-0.9-0.2c-0.5-0.1-0.9-0.3-1.4-0.4
		c-1-0.4-2-0.7-2.9-1.1c-1.6-0.8-3.1-1.6-4.5-2.7c-1.3-1.1-2.9-1.8-4.3-2.8c-1.5-1-2.9-2.3-3.8-3.9c-0.6-1-1.4-1.4-2.4-1.4
		c-0.3,0-0.6,0-0.9,0c-1.4,0.1-2.7,0.2-4.1,0.5c-1.2,0.2-2.3,0.7-3.5,1c-0.5,0.2-0.8,0.5-0.9,1c-0.2,1.4,0.2,2.7,1.2,3.8
		c0.8,0.8,1.6,1.6,2.8,2c0.8,0.3,1.6,0.9,2.4,1.3c0.3,0.2,0.7,0.2,1.1,0.3c0.6,0.2,1.2,0.4,1.7,0.6c0.9,0.3,1.8,0.5,2.7,0.9
		c1.1,0.4,2.2,0.5,3.3,0.8c1.9,0.4,3.8,0.9,5.8,1.3c0.4,0.1,0.9,0.1,1.3,0.2c2.2,0.5,4.4,0.6,6.6,0.8c0.8,0,1.6,0,2.3,0
		c1.4,0.1,2.9,0.3,4.3,0.4c0.9,0.1,1.8,0.2,2.6,0.2c1.3-0.1,2.6-0.2,3.9-0.4c0.6-0.1,1.1-0.2,1.7-0.2c2.4,0.1,4.8-0.3,7.1-0.6
		c2.4-0.3,4.7-0.8,6.9-2c0.5-0.2,1-0.6,1.6-0.5c0.2,0,0.5-0.1,0.7-0.2c1.7-0.8,3.4-1.5,5-2.4c1-0.6,1.8-1.4,1.7-2.7
		c0-0.4-0.2-0.9-0.4-1.3c-0.3-0.6-0.6-1-1.3-1.4c-0.4-0.2-1.1-0.3-1.5-0.3c-0.3,0-0.5,0-0.7,0c-0.2,0-0.3-0.1-0.5-0.1
		c-0.5,0-1,0.2-1.5,0.3c-0.6,0.1-1.2,0.2-1.7,0.4C68,156.5,67.7,156.6,67.4,156.7z M73,177.6c-0.2,0.2-0.4,0.4-0.6,0.6
		c-0.3,0.3-0.3,0.4-0.4,0.8c0,0.3-0.2,0.4-0.3,0.6c-0.1,0.3,0,0.6,0,0.8c0,0.5-0.1,0.8,0.1,1.3c0.2,0.5,0.4,0.9,0.4,1.4
		c0.1,1.2,0.5,2.3,0.8,3.5c0.3,1.1,0.6,2.2,0.9,3.3c0.7,2.8,1.4,5.6,2.1,8.4c0.7,2.5,1.4,5,2.1,7.5c0.5,2,1.1,3.9,1.6,5.9
		c0.4,1.4,0.7,2.9,1,4.3c0.4,2,0.9,4,1.2,6.1c0.3,1.7,0.6,3.5,1,5.3c0.8,3.4,1.6,6.8,2.4,10.1c0.2,1,0.7,1.8,1.5,2.4
		c0.2-0.1,0.5-0.2,0.7-0.3c1-0.5,1.9-0.9,1.6-2.3c0,0,0-0.1,0-0.1c0.1-0.7,0.1-1.4-0.2-2.1c-0.2-0.5-0.2-1.1-0.1-1.6
		c0.1-0.5-0.1-0.9-0.3-1.2c0.4-0.8,0.4-0.8,0.2-1.5c-0.2-0.9-0.1-1.9-0.4-2.7c-0.6-1.8-0.8-3.7-1.1-5.6c-0.1-1-0.3-2-0.6-2.9
		c-0.4-1.2-0.7-2.4-1-3.6c-0.2-0.7-0.5-1.4-0.3-2.2c0,0,0-0.1,0-0.1c-0.4-1.4-0.7-2.9-1.1-4.3c-0.3-1.2-0.5-2.4-0.7-3.7
		c-0.2-1.3-0.8-2.6-0.9-4c-0.1-0.8-0.4-1.5-0.7-2.2c-0.4-1.2-0.7-2.3-1.1-3.5c-0.2-0.9-0.2-1.9-0.7-2.7c-0.3-3.2-1.4-6.3-2.2-9.3
		c-0.3-1.1-0.4-2.3-0.6-3.4c-0.1-0.7-0.1-1.5-0.4-2.2c-0.1-0.3-0.4-0.8-0.7-1c-0.2-0.1-0.5-0.1-0.7-0.2c-0.1,0-0.3-0.2-0.4-0.3
		c-0.3-0.1-0.9,0.1-1.2,0.3C73.6,177.3,73.3,177.5,73,177.6C73.1,177.6,73,177.6,73,177.6z M4.6,239.5c1,0.1,1.7-0.4,2-1.3
		c0.3-0.7,0.5-1.4,0.7-2.1c0.3-1.4,0.5-2.7,0.7-4.1c0.3-2.3,0.8-4.6,1.4-6.8c0.2-0.8,0.3-1.6,0.4-2.3c0.2-1.1,0.3-2.2,0.6-3.3
		c0.3-1.5,0.9-3,1.2-4.6c0.7-3.6,1.4-7.2,2.1-10.8c0.1-0.6,0.2-1.2,0.3-1.7c0.3-1.5,0.6-3,0.9-4.4c0.3-1.3,0.5-2.6,0.8-3.9
		c0.4-1.8,0.9-3.6,1.2-5.4c0.3-1.6,0.5-3.2,0.8-4.7c0.2-1.2,0.7-2.5,0.7-3.7c0.1-1,0.1-2.1,0.1-3.1c0-0.9-1.2-1.3-1.9-1
		c-0.8,0.3-1.4,1.4-1.9,1.9c-0.4,0.4-0.6,1-0.8,1.5c-0.5,1.3-0.7,2.8-0.9,4.2c-0.2,1.8-0.6,3.6-0.9,5.4c-0.3,1.7-0.5,3.4-0.8,5.2
		c-0.2,1.3-0.5,2.7-0.7,4c-0.2,1.1-0.5,2.1-0.7,3.2c-0.3,1.2-0.5,2.4-0.8,3.6c-0.1,0.4,0,0.8-0.1,1.1c-0.4,2-0.9,3.9-1.3,5.8
		c-0.3,1.7-0.6,3.4-0.8,5.2c-0.2,1.6-0.6,3.2-0.8,4.8c-0.2,1.5-0.1,3.1-0.9,4.5c0,0,0,0.1,0,0.1c-0.2,2.1-1,3.9-1.4,5.9
		c-0.2,0.8-0.4,1.6-0.3,2.4c0,0.7,0.1,1.4,0.3,2.1c0.1,0.5,0.3,1,0.4,1.5C4.2,239,4.4,239.2,4.6,239.5z M79.8,160.4
		c-0.9,1-1.9,2-2.8,3c-0.5,0.6-1.2,1-1.8,1.4c-1.5,0.9-3.2,1.6-4.8,2.3c-0.7,0.3-1.4,0.6-2.2,0.8c-1.2,0.3-2.4,0.6-3.5,0.9
		c-1.5,0.4-2.9,0.8-4.4,1c-2.5,0.3-5,0.6-7.5,0.7c-2,0.1-4,0.4-6,0c-0.5-0.1-1,0.2-1.5,0.1c-2.3-0.1-4.7-0.3-7-0.5
		c-1.1-0.1-2.2-0.2-3.3-0.4c-2-0.3-4-0.5-6-0.9c-2-0.4-4-0.9-6-1.4c-3.4-0.8-6.6-1.9-9.8-3.3c-0.7-0.3-1.3-0.8-1.9-1.4
		c-1.2-1.3-2.4-2.6-3.7-3.9c-0.6,1.5-0.5,2.9-0.1,4.4c0.2,0.5,0.4,1.1,1.1,1.2c0.5,0.1,1,0.5,1.4,0.8c1,0.6,1.9,1.3,2.9,1.9
		c0.4,0.3,0.9,0.5,1.4,0.7c1.3,0.5,2.6,1,3.9,1.5c1.1,0.4,2.2,0.8,3.3,1.2c1,0.3,2,0.7,3,0.8c0.9,0.1,1.8,0.7,2.8,0.4
		c0.6-0.1,1.2,0.1,1.8,0.2c1.6,0.3,3.2,0.6,4.8,0.9c1,0.2,2,0.1,3,0.4c1,0.3,1.9,0.2,2.8,0.2c0.6,0,1.1-0.1,1.6,0c2,0.3,4.1,0.3,6,0
		c1.2-0.2,2.3,0.1,3.4,0c0.4,0,0.7-0.1,1.1,0.1c0.8,0.2,1.5,0,2.2-0.1c0.4-0.1,0.9-0.2,1.3-0.1c1,0.3,2,0.1,3-0.1
		c0.6-0.1,1.2-0.2,1.8-0.3c1.4-0.3,2.9-0.2,4.3-0.7c0.8-0.3,1.7-0.5,2.6-0.7c0.6-0.1,1.2-0.3,1.7-0.6c0.2-0.1,0.5-0.2,0.8-0.2
		c1.7-0.1,3-1.2,4.5-1.8c1.4-0.5,2.5-1.6,3.6-2.6c0.6-0.6,1.5-1.2,1.6-2.2c0.1-0.3-0.1-0.8,0-1C79.9,162.2,79.6,161.3,79.8,160.4z
		 M180.4,121.1c0.1-0.5,0.2-0.8,0.3-1.2c0.1-0.5,0.3-1,0.3-1.5c0-1.2-0.1-2.4-0.2-3.7c-0.1-2-0.2-4.1-0.3-6.1c0-0.5-0.1-1-0.1-1.4
		c-0.1-1.1-0.3-2.2-0.4-3.4c0-0.7,0.1-1.4,0-2.1c-0.1-1.6-0.3-3.3-0.4-4.9c-0.1-1.4-0.1-2.8-0.2-4.2c-0.1-2.2-0.3-4.4-0.5-6.6
		c0-0.7-0.1-1.3-0.4-1.9c-0.3-0.7-1-1.5-1.8-1.3c-0.1,0-0.2,0.1-0.4,0.1c-0.2,0-0.3,0-0.5,0c-0.7,0.1-1.2,0.7-1.6,1.3
		c-0.4,0.6-0.6,1.3-0.4,2c0.3,0.8,0.3,1.6,0.3,2.4c0.2,2.7,0.4,5.5,0.5,8.2c0.1,2.5-0.1,5,0,7.4c0.1,3.8,0,7.7,0.5,11.5
		c0.2,1.5,0.4,3,0.7,4.5c0,0.3,0.3,0.7,0.5,0.7c0.7,0,1.5,0,2.2,0.2c0.2,0,0.4-0.2,0.6-0.3C179.5,120.8,179.9,120.7,180.4,121.1z
		 M370.8,71c0,0.3,0.2,0.5,0.4,0.9c0.4,0.7,0.5,1.5,0.8,2.2c0.5,0.9,1,1.8,1.5,2.6c0.9,1.3,2,2.4,3.7,2.6c1.2,0.2,2.3-0.2,3.1-1.1
		c0.9-1.2,1.4-2.6,1.3-4.1c0-1-0.1-2-0.3-3c-0.2-1.1-0.6-1.9-1.1-2.8c-0.5-0.8-1.3-1.3-2.3-1.4c-1.4-0.2-2.7,0.2-4,0.7
		c-0.6,0.3-1.4,0.5-1.8,1c-0.4,0.5-0.9,1-1.2,1.6C370.8,70.6,370.8,70.8,370.8,71z M12.3,130.1c-1.1-5.8-1.2-11.5-0.4-17.3
		c-0.8-0.4-1.3-0.8-1.3-1.8c0-0.2-0.3-0.6-0.5-0.6c-0.4,0-0.9,0-1.2,0.2c-0.9,0.7-1.6,1.5-1.9,2.7c-0.3,1.4-0.5,2.8-0.7,4.1
		c-0.1,0.8-0.3,1.7,0.3,2.2c-0.1,0.5-0.2,0.9-0.2,1.2c0.3,1.2-0.2,2.5,0.5,3.7c0.3,2.4,0.6,2.9,2.4,4.5c0.5,1.2,1.7,0.8,2.6,1.2
		C12,130.3,12.2,130.2,12.3,130.1z M126.2,106.8c-0.4,0-0.9,0.1-1.3,0c-1.1-0.3-2.2-0.3-3.3,0c-0.2,0.1-0.5,0-0.7-0.1
		c-0.9-0.3-1.8-0.2-2.6,0.1c-0.5,0.2-1,0.8-0.9,1.3c0,0.7,0.1,1.5,0.9,1.8c0.9,0.3,1.8,0.4,2.7,0.4c1.1,0.1,2.2,0,3.3,0.1
		c0.7,0,1.5,0.2,2.1,0.2C126.2,109.3,126.1,108.1,126.2,106.8z M72.6,123.6c-0.1,0.5-0.1,1-0.2,1.4c-0.1,0.6-0.1,0.7,0.5,0.9
		c0.1,0,0.3,0.1,0.4,0.1c1.1,0.3,2.2-0.1,3.2,0.6c0.1,0.1,0.4,0,0.5-0.1c0.3-0.3,0.5-0.2,0.8,0c0.5,0.4,1.1,0.3,1.6,0.3
		c0.1,0,0.3-0.3,0.6-0.1c0.2,0.1,0.3,0.2,0.2,0.4c0.1,0,0.3,0.1,0.4,0.1c1,0.1,2,0.3,2.9,0.3c0.2,0,0.7-0.3,0.7-0.6
		c0.2-0.7,0.2-1.4,0.2-2.1c-1.2-0.2-2.3-0.4-3.5-0.2c-0.2,0.1-0.5,0-0.7,0c-2.2-0.6-4.5-0.6-6.7-0.9
		C73.3,123.5,72.9,123.6,72.6,123.6z M72.8,122.3c1.4,0.1,2.6-0.2,3.7,0.2c0.6,0.2,1.2-0.4,1.2-1c-0.1-1.1-0.1-2.3-0.1-3.4
		c0-0.2,0-0.4-0.1-0.5c-0.2-0.4-0.4-0.8-0.7-1.1c-0.2-0.1-0.6,0-0.9,0c-0.6,0-1.3,0-1.7,0.7c0,0.1-0.3,0.1-0.4,0.1
		c-0.3,0.1-0.7,0.1-0.9,0.1c0.1,0.5,0.4,1.1,0.2,1.4c-0.2,0.6-0.2,1,0,1.6c0.1,0.2,0.1,0.5,0.1,0.8
		C73.1,121.5,72.9,121.9,72.8,122.3z M76.7,128.1c-0.7-0.1-1.3-0.2-2-0.2c-0.7,0-1.3,0.2-2.1,0.3c0,0.2-0.1,0.5-0.1,0.9
		c0,0.4,0.2,0.8-0.3,1c-0.1,0,0,0.2-0.1,0.4c-0.2,0.5-0.3,1-0.5,1.5c-0.2,0.5-0.3,1,0.1,1.4C74.2,133.5,76.6,130.2,76.7,128.1z
		 M247.3,251.1c0.4-0.2,0.9-0.4,1.5-0.6C248.1,250.3,247.6,250.3,247.3,251.1z M363,232.8c-0.4-0.7-1-0.3-1.5-0.4
		C362,232.7,362.4,232.9,363,232.8z M216.5,272.4c-0.3,0.1-0.5,0.1-0.8,0.2c0.1,0.2,0.2,0.5,0.3,0.8
		C216.1,273,216.3,272.8,216.5,272.4z M218.5,267.4c0.1,0.1,0.1,0.1,0.2,0.2c0.2-0.3,0.5-0.7,0.7-1c-0.1,0-0.1-0.1-0.2-0.1
		C219,266.7,218.7,267,218.5,267.4z M340.7,222.7c-0.3-0.6-0.6-0.6-1.1-0.4C339.9,222.8,340.3,222.8,340.7,222.7z M328,240.6
		c0-0.1,0-0.2,0-0.3c-0.3,0-0.6,0-0.9,0.1c0,0.1,0,0.1,0,0.2C327.3,240.6,327.6,240.6,328,240.6z M344.1,240.6
		c-0.2-0.4-0.5-0.5-0.9-0.1C343.5,240.5,343.8,240.6,344.1,240.6z M343.5,236.5C343.5,236.6,343.5,236.6,343.5,236.5
		c0.2,0.1,0.4,0.1,0.6,0.1c0,0,0-0.1,0-0.1C343.9,236.5,343.7,236.5,343.5,236.5z M336.4,246.7c0.1,0,0.2,0,0.2,0
		c0-0.2-0.1-0.3-0.1-0.5c-0.1,0-0.1,0-0.2,0C336.4,246.4,336.4,246.5,336.4,246.7z M122.1,228c0,0,0-0.1-0.1-0.1
		c-0.1,0-0.3,0.1-0.4,0.1c0,0,0,0.1,0,0.1C121.8,228.1,122,228.1,122.1,228z M344.2,233.5c-0.2-0.1-0.3-0.2-0.3-0.2
		c-0.1,0-0.1,0.1-0.2,0.1c0.1,0.1,0.2,0.2,0.3,0.2C343.9,233.7,344,233.6,344.2,233.5z M241.3,232.2c-0.1-0.1-0.2-0.2-0.2-0.2
		c-0.1,0-0.2,0.1-0.3,0.2c0,0,0.1,0.2,0.1,0.2C241.1,232.4,241.2,232.3,241.3,232.2z"/>
	<path fill-rule="evenodd" clip-rule="evenodd" fill="#010101" d="M197.6,151.5c-0.2,0.2-0.4,0.5-0.5,0.7c0,0-0.1,0-0.1,0
		c0.1-0.3,0.3-0.7,0.4-1.2C197.5,151.2,197.5,151.4,197.6,151.5C197.6,151.5,197.6,151.5,197.6,151.5z"/>
	<path fill-rule="evenodd" clip-rule="evenodd" fill="#010101" d="M162.9,51.9c-0.1-0.4-0.2-0.7-0.2-1.1c0.1,0,0.1,0,0.2,0
		c0.1,0.4,0.1,0.7,0.2,1.1C163,51.9,162.9,51.9,162.9,51.9z"/>
	<path fill-rule="evenodd" clip-rule="evenodd" fill="#010101" d="M314.7,220.3c-0.3,0-0.6,0-0.9,0.1c-0.1-0.1-0.3-0.3-0.4-0.4
		C313.8,220,314.2,220.1,314.7,220.3z"/>
	<path fill-rule="evenodd" clip-rule="evenodd" fill="#010101" d="M28.6,111.8c-0.5,0.4-1,0.6-1.6,0.2c-0.1-0.1-0.3-0.1-0.5,0
		c-1.6,0.3-3.1,0.4-4.7,0.4c-0.2,0-0.4,0.1-0.6,0.1c-0.4,0.1-0.7,0-0.9-0.3c-0.1-0.3,0-0.5,0.3-0.7c0.5-0.4,0.9-0.9,1.4-1.3
		c0.9,0.6,1.9,0.4,2.8,0.3c1.7-0.1,3.4-0.3,5.1-0.6c1.4-0.3,2.8-0.1,4.2,0.2c2.8,0.8,4.9,2.4,6.2,5.1c0.8,1.6,0.9,3.2,1,4.8
		c0.1,1.2,0.1,2.3,0,3.5c-0.1,2-0.5,4.1-0.4,6.1c0,1.5,0,3,0.8,4.3c0.2,0.2,0.4,0.5,0.6,0.6c1.4,0.7,3.2-0.1,3.8-1.5
		c0.3-0.7,0.5-1.4,1.1-1.9c0.4,0.1,0.8,0.2,0.8,0.8c0,0.1,0.1,0.3,0.2,0.4c1.1,1.4,0.3,2.5-0.4,3.7c0,0.1-0.1,0.2-0.2,0.2
		c-0.7,0.4-1.4,0.8-2.1,1.2c-0.4,0.3-0.8,0.4-1.4,0.4c-0.3,0-0.6,0-0.8,0.1c-1,0.5-1.9-0.1-2.7-0.6c-0.4-0.3-0.6-0.9-0.9-1.3
		c-0.5-0.6-0.6-1.2-0.7-2c-0.1-1.1-0.5-2.1-0.6-3.2c-0.1-1.8-0.3-3.6,0.1-5.5c0.2-0.8,0-1.7,0.2-2.5c0.2-0.6,0.2-1.3,0.3-1.9
		c0.1-1.8-0.3-3.6-0.7-5.4c-0.2-0.9-1-1.6-1.9-2c-0.8-0.4-1.6-0.6-2.4-0.9c-1.1-0.3-2.1-0.4-3.2-0.6c-0.1,0-0.2,0-0.3,0
		C29.7,112.3,29.2,112.1,28.6,111.8z"/>
	<path fill-rule="evenodd" clip-rule="evenodd" fill="#010101" d="M48.2,114c-0.1-0.8,0.4-1.8,1-2.1c1-0.6,2.2-0.8,3.3-0.7
		c1.2,0.1,2.3,0.2,3.5,0.2c1,0,2,0.3,2.9,0.6c0.3,0.1,0.6,0,0.9,0.2c1.5,0.8,3.1,1.5,4.5,2.6c0.2,0.2,0.4,0.3,0.6,0.5
		c0.4,0.4,0.3,0.6-0.1,1C59.5,113.8,54,112.8,48.2,114z"/>
	<path fill-rule="evenodd" clip-rule="evenodd" fill="#010101" d="M61.8,120.9c0,0.1,0.1,0.2,0.1,0.3c0.3,1.7-0.2,2.2-1.6,2.4
		c-2,0.3-4,0.2-6,0.2c-0.6,0-1.3-0.1-1.9-0.1c-1.1,0-2.2,0-3.4,0.1c-0.4,0-0.8,0-1-0.5c-0.1-0.3,0.3-1.2,0.5-1.4
		c0.8-0.6,1.7-0.7,2.7-0.7c2.6,0.2,5.1,0.4,7.7,0.6c0.4,0,0.8,0,1.2,0C60.9,121.7,61.4,121.6,61.8,120.9z"/>
	<path fill-rule="evenodd" clip-rule="evenodd" fill="#010101" d="M21.5,121.4c-0.1-0.7,0-1.2,0.7-1.4c0.3-0.1,0.5-0.4,0.7-0.6
		c1.7,0.2,3.4,0.4,5.1,0.7c1.3,0.2,2.5,0.4,3.8,0.5c0.8,0.1,1.7,0.2,2.5-0.4c0.6-0.4,1.2,0,1.1,0.8c0,0.8-0.6,1.3-1.4,1.4
		c-1.1,0.1-2.2,0.2-3.3,0.3c-1,0-2.1,0.1-3.2-0.2c-0.6-0.2-1.4-0.4-2.1-0.1c-0.4,0.1-0.7-0.4-1.3-0.2
		C23.3,122.3,22.5,121.6,21.5,121.4z"/>
	<path fill-rule="evenodd" clip-rule="evenodd" fill="#010101" d="M47.7,146.8c-1.1,0.7-2,1.7-3.5,1.7c-0.7,0-1.3,0.4-2,0
		c-0.8,0.6-1.6,0-2.4,0.2c-0.4,0.1-0.9,0.1-1.1-0.4c-0.2-0.5,0.1-0.9,0.4-1.2c0.6-0.7,1.4-0.8,2.2-0.7c2.1,0.1,4.2,0.2,6.3,0.3
		C47.6,146.7,47.6,146.7,47.7,146.8z"/>
</g>
</svg>
