<?xml version="1.0" encoding="utf-8"?>
<!-- Generator: Adobe Illustrator 18.0.0, SVG Export Plug-In . SVG Version: 6.00 Build 0)  -->
<!DOCTYPE svg PUBLIC "-//W3C//DTD SVG 1.1//EN" "http://www.w3.org/Graphics/SVG/1.1/DTD/svg11.dtd">
<svg version="1.1" id="Layer_1" xmlns="http://www.w3.org/2000/svg" xmlns:xlink="http://www.w3.org/1999/xlink" x="0px" y="0px"
	 viewBox="0 0 34.6 34.6" enable-background="new 0 0 34.6 34.6" xml:space="preserve">
<path fill="#000000" d="M0,0v34.6h34.6V0H0z M25.3,13.1c0,0.2,0,0.3,0,0.6c0,5.4-4.1,11.6-11.6,11.6c-2.4,0-4.5-0.7-6.3-1.8
	c0.3,0.1,0.7,0.1,1,0.1c1.9,0,3.7-0.7,5.1-1.8c-1.8,0-3.3-1.2-3.8-2.8c0.2,0.1,0.6,0.1,0.8,0.1c0.5,0,0.8,0,1.1-0.1
	c-1.9-0.5-3.3-2-3.3-4.1c0.5,0.3,1.1,0.6,1.8,0.6c-1.1-0.7-1.8-1.9-1.8-3.4c0-0.7,0.2-1.5,0.6-2c2,2.5,5.1,4.1,8.5,4.3
	c-0.1-0.2-0.1-0.6-0.1-0.9c0-2.3,1.8-4.1,4.1-4.1c1.1,0,2.1,0.5,2.9,1.2c0.9-0.2,1.8-0.6,2.6-1c-0.3,0.9-1,1.8-1.8,2.3
	c0.9-0.1,1.6-0.3,2.4-0.7C26.8,12,26.1,12.7,25.3,13.1z"/>
</svg>
