<?xml version="1.0" encoding="utf-8"?>
<!-- Generator: Adobe Illustrator 18.0.0, SVG Export Plug-In . SVG Version: 6.00 Build 0)  -->
<!DOCTYPE svg PUBLIC "-//W3C//DTD SVG 1.1//EN" "http://www.w3.org/Graphics/SVG/1.1/DTD/svg11.dtd">
<svg version="1.1" id="Layer_1" xmlns="http://www.w3.org/2000/svg" xmlns:xlink="http://www.w3.org/1999/xlink" x="0px" y="0px"
	 viewBox="0 0 409.6 571.4" enable-background="new 0 0 409.6 571.4" xml:space="preserve">
<g>
	<path fill="none" d="M205.2,458.8c4.1-0.1,8.2-0.3,12.2-0.3c3.3,0,6.6,0.5,9.9,0.5c4.5,0.1,9-0.1,13.5-0.2c2.2,0,4.3-0.3,6.5-0.3
		c1.6,0,3.1-0.6,3.8-2.1c0.1-0.3,0.5-0.7,0.5-1.1c0-0.3-0.2-0.7-0.3-0.9c-0.2-0.5-0.4-1.1-0.6-1.6c-0.3-0.6-0.6-1.4-1.1-1.9
		c-0.4-0.5-1-0.8-1.6-1.2c-0.2-0.2-0.4-0.4-0.7-0.6c-0.2-0.2-0.5-0.3-0.8-0.4c-0.4-0.3-0.7-0.7-1-1c-0.5-0.3-1.2-0.5-1.7-0.7
		c-0.6-0.3-1.2-0.6-1.7-0.9c-0.4-0.2-0.8-0.3-1.3-0.4c-0.3-0.1-0.5-0.3-0.8-0.4c-0.3-0.2-0.6-0.2-1-0.5c-0.2-0.2-0.5-0.4-0.7-0.5
		c-0.6-0.2-1.2-0.2-1.8-0.5c-0.7-0.4-1.2-0.5-2-0.5c-0.8,0-1.5,0-2.2,0c-0.6,0-1.2,0.2-1.8,0.2c-0.6,0-1-0.1-1.6,0.1
		c-3.3,0.7-6.7,1.4-9.9,2.4c-4.3,1.2-8.7,2.3-12.8,4.1c-3.6,1.6-6.9,4-10.3,6.2c-0.8,0.5-1.4,1.3-2.4,2.2c1,0.3,1.5,0.6,2.1,0.6
		C198.9,458.9,202.1,458.9,205.2,458.8z"/>
	<path fill="none" d="M209.1,443.8c4.6-1.4,9.1-3.4,13.9-4c2.7-0.3,5.4-0.8,8.2-1.2c1.6-0.2,3.3-0.2,5-0.3c0.9-0.1,1.8-0.1,2.6-0.1
		c0-0.2,0.1-0.4,0.1-0.6c-7.5-5.6-15.1-11.3-22.7-17c-1,0.9-1.9,1.9-3,2.7c-2.7,2.1-5.4,4-8.1,6.1c-3.4,2.7-6.7,5.5-10,8.2
		c-0.6,0.5-1.3,0.8-1.9,1.2c-0.9,0.6-1.8,1.2-2.7,1.9c-2.1,1.6-4.2,3.3-6.2,4.9c-0.7,0.6-1.5,1.1-2.2,1.7c-3.7,2.9-7.3,5.7-11,8.6
		c-0.8,0.6-1.8,1.2-1.8,2.5c0.5,0.1,0.9,0.2,1.3,0.2c2.8,0.1,5.6,0.3,8.4,0.4c1.8,0,3.7-0.1,5.5-0.1c1.1,0,1.9-0.3,2.7-1.1
		c1.4-1.4,2.8-2.9,4.3-4.2c1.8-1.6,3.7-3.2,5.8-4.4C201.1,447.1,204.9,445.1,209.1,443.8z"/>
	<path fill="none" d="M108.9,250.5c1.7,0.8,3.6,1.5,5.1,2.6c3.5,2.7,6.8,5.6,10.2,8.4c0.2,0.2,0.4,0.5,0.6,0.8
		c1.8,2.6,3.5,5.3,5.6,7.7c1.9,2.1,2.8,4.8,3.9,7.2c1.2,2.4,1.5,5.2,2.3,7.9c1.9,6.5,2.7,13.2,3.2,19.9c0.1,1.4,0.2,2.9,0.8,4.2
		c2.2,5.4,5.9,9.9,8.9,14.8c0.8,1.3,1.3,1.3,2.5,0.4c2.9-2.3,5.6-4.7,8.5-7c1-0.8,2-1.6,3-2.5c0.9-0.7,1.7-1.5,2.7-1.9
		c2.1-0.8,3.9-2.8,5.5-4.3c0.2-0.2,0.2-0.2,0.4-0.3c0.4-0.1,0.6,0.2,0.8,0.2c0.4,0,1.2-0.4,1.5-0.6c0.9-0.7,0.7-2.3,1.7-2.8
		c0.6-0.3,1.2-0.4,1.8-0.7c0.5-0.3,1.1-0.6,1.6-1c0.3-0.3,0.6-0.6,1-0.7c0.6-0.3,1-0.7,1.5-1c0.2-0.1,0.3-0.1,0.5-0.2
		c0.2-0.1,0.3-0.4,0.5-0.5c0.4-0.3,1-0.6,1.4-0.8c0.5-0.2,1-0.4,1-1c0.1-0.6-0.6-1-0.7-1.4c0.6-0.4,1.2-0.6,1.7-1
		c0.6-0.4,0.8-0.9,1.1-1.5c0.8-1.5,2.2-0.8,3.6-1.1c0.1-0.1,0.2-0.2,0.3-0.2c0.2,0,0.4,0,0.5,0c0.3-0.1,0.6-0.3,0.8-0.5
		c0.2-0.1,0.5-0.2,0.7-0.3c0.3-0.3,0.2-0.5,0.3-1c0.1-0.3,0.3-0.6,0.4-0.8c0-0.1,0.1-0.3,0.1-0.4c0.2-0.2,0.5-0.2,0.7-0.4
		c0.1-0.1,0.2-0.3,0.2-0.5c0.2-0.2,0.3-0.1,0.5-0.3c2.4-1.5,4.6-3.5,6.9-5.2c0.5-0.4,1-0.9,1.5-1.3c1.1-0.8,2.4-1.6,3.4-2.5
		c1.9-1.7,3-1.8,5-0.2c1,0.8,2,1.7,3.1,2.5c3.4,2.6,6.8,5.1,10.1,7.7c1.7,1.3,3.3,2.7,5.1,4c3.9,2.8,7.9,5.6,11.8,8.4
		c3,2.2,5.8,4.4,8.8,6.7c1,0.7,1.9,1.8,3,2.4c0.5,0.3,0.8,0.6,1.2,1c1,0.9,2.1,1.7,3.1,2.6c0.6,0.5,1.6,0.9,2.1,1.5
		c0.6,0.8,0.6,1.6,0.8,2.6c0.2,0.8-0.2,3.8,0.4,4.2c0,0,0,0-0.1,0c0.1,0.5,0.1,1.1,0.2,1.6c0,0.1,0,0.2,0,0.4c0,0.1,0,0.1,0.1,0.2
		c0.5,4.3,0.6,8.2,2.3,11.8c3.2,0.2,6.3,0.2,9.3,0.5c4.2,0.4,8.8,0.7,12.6,2.6c0.4,0.2,0.9,0.4,1.4,0.3c0.2,0,0.4-0.1,0.5-0.1
		c0.2,0,0.4-0.2,0.6-0.3c0.1-0.1,0.3-0.1,0.4-0.2c0.1-0.1,0.1-0.2,0.2-0.3c0.4-0.3,0.9-0.5,1.4-0.9c0.7-0.5,1.6-0.9,2.3-1.3
		c0.3-0.1,0.9-0.5,1.3-0.3c0.6,0.3,0.2,1.2,0,1.7c-0.3,0.6-0.8,1.4-0.4,2c0.4,0.6,1.1,1.1,1.6,1.5c0.8,0.6,1.6,1.2,2.4,1.8
		c1.1,0.8,2.2,1.7,3.3,2.5c0.3,0.2,0.7,0.3,1.2,0.6c0.4-0.6,0.8-1.2,1.2-1.7c2.3-3.4,4.5-6.9,8-9.1c1.9-1.2,3.9-2.2,5.8-3.5
		c2.2-1.4,4.6-1.9,7.1-2.2c1.5-0.2,3-0.8,4.7-1.2c-0.3-0.7-0.4-1.1-0.6-1.4c-1.5-2.1-3.1-4.1-4.7-6.2c-0.4-0.5-0.8-1.2-0.8-1.8
		c0-0.8,0.1-1.9,0.6-2.2c0.5-0.3,1.6-0.1,2.3,0.2c0.5,0.2,0.9,0.7,1.3,1.2c1.1,1.1,2.3,2.2,3.7,3.5c3.9-8,10.4-11.5,18.8-11.9
		c0.2-1.6-0.3-2.8-1-4c-0.5-0.9-1.1-1.9-1.3-3c-0.4-2.2-1-4.2-2.6-5.8c-0.6-0.6-0.8-1.6-1.1-2.5c-0.5-1.4-0.2-2.5,0.9-3
		c1-0.5,2.2-0.2,3,1c1,1.6,1.9,3.3,2.7,5.1c1,2,1.8,4,2.7,5.9c2.3-1.9,4.2-3.9,6.5-5.2c2.3-1.3,5.1-1.8,7.8-2.7
		c-0.1-0.3,0-0.8-0.2-1.2c-2.1-4-4.2-7.9-6.5-11.9c-0.4-0.7-1.2-1.2-1.8-1.8c-1.3-1.4-2.6-2.8-4-4.1c-1.4-1.3-2.9-2.5-4.5-3.6
		c-1.4-1-3.2-1.7-4.4-2.9c-2.2-2.3-4.8-4.1-7.5-5.8c-2.1-1.3-4.2-2.7-6.2-4.2c-3.4-2.5-6.6-5.1-10-7.5c-3.9-2.9-7.8-5.6-11.8-8.4
		c-1.3-0.9-2.7-1.7-4-2.6c-2.8-2.1-5.4-4.5-8.2-6.5c-3-2.2-6.1-4.3-9.2-6.5c-2.5-1.8-5.1-3.4-7.6-5.2c-2.1-1.6-4.1-3.4-6.2-5
		c-2.5-1.9-5.1-3.7-7.7-5.5c-2.8-2-5.7-3.9-8.5-5.9c-1.8-1.2-3.6-2.5-5.3-3.8c-2.4-1.9-4.7-3.9-7.2-5.7c-4.2-3-8.5-5.9-12.7-8.9
		c-1-0.7-2-1.5-3-2.3c-2.2-1.6-4.4-3.3-6.6-4.9c-3.8-2.7-7.7-5.2-11.5-8c-2.6-1.9-5-4.1-7.6-6.2c-1.7,1.5-2.9,3.1-4.5,3.8
		c-2.8,1.3-4.9,3.4-7.3,5.2c-1.9,1.5-4,2.8-5.9,4.2c-1.6,1.1-3.3,2.3-4.9,3.4c-2,1.4-3.9,2.8-5.8,4.3c-2.7,2.1-5.2,4.3-7.9,6.3
		c-5,3.6-10,7-15,10.6c-2.6,1.9-5.1,4.1-7.7,6c-2.1,1.6-4.2,3-6.3,4.5c-1.4,1-2.8,2-4.2,3.1c-2.3,1.7-4.6,3.5-7,5.3
		c-3.2,2.5-6.9,4.3-9.8,7.3c-0.5,0.5-1.2,0.9-1.8,1.4c-4.6,3.3-9.2,6.7-13.7,10.1c-0.7,0.6-1.6,1.1-1.8,1.9c1.8,1,3.3,1.9,4.9,2.7
		C107.4,249.8,108.1,250.1,108.9,250.5z M189.9,291.7c0.5,0,1.3-0.6,1.7,0.1c0.3,0.5-0.1,0.8-0.5,1c-0.3,0.2-1,0.8-1.2,0.2
		c-0.2-0.4,0.6-1,0.7-1.3H189.9z M184.4,294.5c0.4,0,0.6-0.1,0.8,0.2c0.1,0.2,0,0.6-0.3,0.7c-0.5,0.3-0.5-0.2-0.5-0.5
		c-0.1-0.4-0.1-0.6-0.2-1L184.4,294.5z M179,300.5c0.4-0.3,0.8-0.5,1.2-0.8c0.3-0.3,1.1-0.8,1-1.3h-0.2c0.6-0.1,2.6-1.2,2.5,0.2
		c0,0.5-0.4,0.8-0.7,1.1c-0.3,0.3-0.5,0.7-0.8,0.9c-0.4,0.3-0.8,0.3-1.2,0.6c-0.3,0.2-0.5,0.5-0.8,0.7c-0.2,0.1-0.3,0.2-0.5,0.3
		c0.1,0-0.7,0.2-0.6,0.2c-0.4,0-0.7-0.2-1.2-0.2C177.6,301.7,178.6,300.8,179,300.5z"/>
	<path fill="none" d="M73.5,367.7c3.2,2.1,6.3,4.1,9.4,6.2c0.4,0.3,0.8,0.6,1.1,1c3.1,3.9,6.2,7.8,9.2,11.8c0.4,0.6,0.7,1.3,1,2
		c0.4,0.9,0.8,1.8,1.2,2.7c0.6,1.4,1.6,2.3,3.3,2.2c2.7-0.1,5.3,0,8,0c2.4-0.1,4.8,0,7.2-0.4c2.4-0.4,4.9-1.1,7.2-1.9
		c1.7-0.6,3.3-1.6,4.8-2.5c0.9-0.5,1.8-1.3,2.3-2.1c2-3.1,2.9-6.7,3.7-10.3c0.9-4.5,2.2-8.9,2.1-13.6c0-0.3,0.1-0.7,0.2-1
		c1.3-3.4,0.5-6.9,1-10.4c0.5-3.2,0.1-6.5,0.6-9.7c0.6-3.9,0.3-7.8,0.3-11.7c0-2.1-0.3-4.2-0.2-6.3c0-0.3,0-0.7,0.1-1
		c0.1-1.8,0-3.6,0.2-5.3c0.1-0.6-0.1-1-0.5-1.5c-0.6-0.7-1.4-1.3-2.1-2c-0.2-0.2-0.5-0.3-0.8-0.4c-0.2-0.1-0.4-0.2-0.6-0.3
		c-0.4-0.1-0.8-0.2-1.2-0.4c-0.2-0.1-0.4-0.3-0.6-0.4c-0.3-0.1-0.6-0.2-0.9-0.3c-0.5-0.2-0.9-0.5-1.4-0.6c-0.2,0-0.3,0-0.5-0.1
		c-0.1-0.1-0.2-0.1-0.4-0.2c-0.2-0.1-0.5-0.2-0.8-0.3c-0.5-0.1-0.9-0.2-1.4-0.4c-0.3-0.1-0.6,0-1-0.1c-0.2,0-0.5-0.1-0.7-0.2
		c-0.2-0.1-0.5-0.1-0.7-0.1c-0.2,0-0.3-0.1-0.5-0.1c-0.1,0-0.3,0-0.4,0c-0.3-0.1-0.6-0.2-0.9-0.3c-0.3-0.1-0.7,0-1,0
		c-0.2,0-0.5,0-0.7,0c-0.3,0-0.5-0.1-0.8-0.1c-0.6,0-1.2,0-1.8,0c-0.4,0-0.7-0.1-1.1-0.1c-0.2,0-0.3,0-0.5,0c-0.2,0-0.3-0.1-0.5-0.1
		c-0.4,0-0.8-0.1-1.2-0.2c-1.1-0.3-2.9-0.4-3.2-1.7c-0.3-1.3,0.3-2.6,1.7-2.6c1.7-0.1,3.3-0.2,5-0.2c5.4,0,10.8,0.1,16.2,0.1
		c1.2,0,1.9-0.5,1.9-1.8c-0.1-1.5-0.1-3-0.4-4.5c-0.4-2.5-0.9-4.9-1.4-7.4c-0.4-2.2-0.5-4.5-1.2-6.6c-0.9-3-2.2-5.9-3.3-8.9
		c-0.5-1.2-1.2-1.6-2.6-1.4c-1.2,0.2-2.5,0.4-3.7,0.3c-4.2-0.5-8.2,0.6-12.1,1.8c-4.7,1.6-9.4,3.5-13.3,6.8
		c-1.3,1.1-2.7,2.3-3.7,3.7c-2.4,3.6-3.8,7.7-4.7,12c-0.2,0.8-0.2,1.7-0.6,2.4c-0.7,1.3-0.9,2.7-0.8,4.1c0.1,1-0.1,2-0.1,3
		c-0.1,1.7-0.2,3.5-0.1,5.2c0,3.1,0.2,6.2,0.3,9.2c0,1.3,0.1,2.5,0.2,3.8c0.2,2.5,0.6,5,0.7,7.4c0.1,1.7-1.1,2.9-2.7,3
		c-3.2,0.2-6.5,0.4-9.7,0.6c-1.3,0.1-2.1-0.4-2.6-1.5c-0.3-0.8-0.6-1.6-0.9-2.4c-0.6-1.9-1-3.8-1.9-5.6c-1.3-2.8-2.8-5.5-4.4-8.1
		c-1.9-3.1-5.8-3.7-8.6-1.5c-1.2,0.9-2,2.1-3,3.3c-3.5,4.2-2.6,9-1.4,13.4c1.2,4.6,4.5,8.1,8,11.3c3,2.6,6.1,5.1,9,7.9
		c2.5,2.5,4.2,5.4,3.6,9.2C73.6,365.2,73.6,366.5,73.5,367.7z"/>
	<path fill="none" d="M339.5,476.3c0-4.7-0.3-9.3-0.3-14c0-5.2-0.5-10.5,0.2-15.7c0-0.2,0-0.3,0-0.5c-1.4-4.8,0.1-9.6-0.1-14.5
		c-0.2-3.4-0.5-6.9-0.1-10.4c0.3-3-0.2-6.1-0.3-9.2c0-0.3,0.1-0.7,0.1-1c0.1-1.3,0.2-2.6,0.2-3.9c0-1.8-0.2-3.7-0.2-5.5
		c0-6.6,0.1-13.1,0.2-19.7c0-0.5-0.3-1.2-0.7-1.4c-2.4-1.8-5-3.4-7.4-5.1c-3.3-2.3-6.5-4.7-9.7-7.1c-1.8-1.3-3.6-2.7-5.4-4
		c-0.5-0.3-0.9-0.7-1.4-1c-1.8-1.4-3.5-2.8-5.3-4.2c-1.1-0.9-2.2-1.7-3.4-2.6c-2.4-1.8-4.8-3.6-7.2-5.4c-1.1-0.8-2.4-1.5-3.5-2.4
		c-3.6-3-3.9-3.1-7,0.9c-0.3,0.4-0.5,0.9-0.7,1.3c-0.5,1.1-1,2.3-1.4,3.5c-1,2.7-2.3,5.4-3,8.2c-0.9,3.7-1.3,7.5-1.8,11.3
		c-0.1,0.9-0.5,1.5-1.3,1.9c-1.4,0.7-2.4,0.5-3.5-0.9c-1.5-2-3.1-3.9-4.4-6c-3.4-5.3-6.8-10.7-8.3-17c-0.1-0.4-0.3-0.8-0.4-1.2
		c-1-2.6-2.5-5.2-2.9-7.9c-0.7-4.3-2.4-8.5-2.5-13c-0.1-1.7-0.8-3.3-0.8-4.9c-0.1-3.1-0.9-5.5-3.6-7.6c-4.4-3.3-8.8-6.5-13.3-9.7
		c-2.6-1.8-4.9-3.9-7.5-5.7c-1.9-1.3-3.5-2.9-5.5-4.2c-3.7-2.3-7-5.3-10.5-8c-1.1-0.9-2.3-1.7-3.4-2.6c-1.2-0.9-2.3-1.9-3.1-2.6
		c-3.3,2.5-6.4,4.7-9.4,7c-0.3,0.2-0.5,0.5-0.7,0.7c-0.9,0.7-1.7,1.5-2.7,2.2c-1.1,0.8-2.3,1.4-3.2,2.3c-4.4,4.7-10.6,7.3-14.8,12.2
		c-0.2,0.2-0.5,0.5-0.8,0.6c-2.9,1.3-5.1,3.4-7.4,5.5c-1.7,1.5-3.7,2.5-5.5,3.9c-3,2.4-5.9,4.9-8.8,7.3c-1.1,0.9-2.4,1.8-3.7,2.8
		c0.6,1.1,1.2,2.1,1.8,3.1c1.3,2.4,2.6,4.7,3.7,7.1c1.4,2.9,0.1,5.7-3,6.7c-1,0.3-2.1,0.5-3.1,0.8c-3,1-6.1,0.6-9.2,0.8
		c-2.9,0.2-3.1,0.5-3.3,3.2c-0.3,4-0.2,8-1,12c-0.5,2.4-0.4,4.8-0.8,7.2c-0.8,4.7-2.2,9.2-3.8,13.7c-1.5,4.4-3.8,7.8-8.1,10.1
		c-4.1,2.2-8.4,3-12.8,3.9c-1.2,0.3-3.1-0.6-4.1,0.2c-1,0.9-2.1,2.2-2.7,3.4c-0.6,1.1-1.6,2.1-2.4,3.1c-1.9,2.6-1.7,5.8-1.8,8.9
		c-0.1,1.5,0.2,2.9,0.5,4.4c0.3,2,0.4,4,0.6,6.1c0.1,1.5,0.2,3.1,0.3,4.6c0.2,2.2,0.1,4.3,0.2,6.5c0,1.8,0.1,3.7,0.1,5.5
		c0,1.6-0.1,3.1-0.1,4.7c0,0.9,0.2,1.8,0.2,2.7c0,3.4-0.2,6.8-0.2,10.2c0,4.5,0.1,9,0.2,13.5c0,3.8-0.1,7.7-0.1,11.5
		c0,4.4,0,8.8,0.1,13.3c0,1.6,0.2,3.3,0.3,5.2c0.7-0.5,1-0.7,1.4-1c2.5-2,4.9-3.9,7.4-5.9c2.4-1.8,4.8-3.6,7.1-5.5
		c2.8-2.4,5.5-4.8,8.8-6.5c0.6-0.3,1.1-0.8,1.6-1.2c1.4-1.2,2.7-2.5,4.1-3.6c1.6-1.2,3.3-2.3,4.8-3.5c2.2-1.7,4.2-3.5,6.4-5.2
		c1.9-1.6,4.3-2.5,5.8-4.5c0.2-0.2,0.6-0.3,0.9-0.5c0.8-0.5,1.7-1,2.5-1.6c1.7-1.4,3.2-2.9,4.9-4.2c4.4-3.4,8.8-6.7,13.2-9.9
		c4.2-3.1,7.6-7.1,12.3-9.5c1.3-0.7,2.2-2.1,3.3-3c2.2-1.8,4.5-3.4,6.8-5.1c1.4-1,2.8-2,4.2-3.1c2-1.6,4.1-3.1,6.1-4.8
		c2.6-2.1,5.2-4.3,7.9-6.5c0.4-0.4,1-0.6,1.6-0.8c1-0.4,1.9-0.2,2.8,0.4c2.4,1.8,4.9,3.5,7.3,5.2c0.3,0.2,0.7,0.5,1,0.8
		c1.1,1,2.1,2.1,3.3,3c2.5,1.9,5.2,3.6,7.7,5.5c2.6,1.9,5.2,3.9,7.8,5.9c0.8,0.6,1.5,1.3,2.3,1.9c2.3,1.7,4.7,3.4,7.1,5.1
		c3.3,2.4,6.5,4.9,9.8,7.3c0.7,0.5,1.5,1.1,2.2,1.6c4.6,3.4,9.2,6.9,13.9,10.3c2.1,1.6,4.2,3.2,6.3,4.9c1.4,1.1,2.7,2.2,4.1,3.2
		c0.7,0.5,1.5,1,2.3,1.5c0.6,0.4,0.8,0.8,1.2,1.3c1,1.5,2.9,1.8,4.4,2.7c0.6,0.3,1,1,1.7,1.3c0.7,0.4,1,0.8,1.5,1.4
		c0.3,0.4,0.8,0.7,1.1,1.1c0.4,0.5,0.8,0.9,1.2,1.4c0.4,0.4,0.5,1,1.1,1.2c0.3,0.1,0.7-0.1,1,0c0.3,0.1,0.5,0.3,0.9,0.4
		c0.3,0.1,0.5,0,0.8,0.2c0.2,0.1,0.4,0.2,0.7,0.4c0.4,0.3,0.6,1.1,0.8,1.6c0.2,0.3,0.3,0.7,0.5,1c0.1,0.1,0.1,0.4,0.2,0.5
		c0.1,0.1,0.3,0.1,0.4,0.2c0.2,0.2,0.4,0.7,0.6,1c0.2,0.3,0.4,0.3,0.6,0.5c0.3,0.4,0.5,0.9,0.9,1.3c0.2,0.2,0,0.1,0.3,0.2
		c0.1,0,0.4,0,0.5,0c0.2-0.1,0.4-0.3,0.6-0.4c0.3-0.1,0.5-0.2,0.8-0.1c0.1,0,0.2,0.1,0.3,0.2c0.1,0,0.3,0.1,0.4,0.1
		c0.4,0.2,0.6,0.6,0.9,0.8c0.4,0.3,0.7,0.2,1.1,0.4c0.5,0.2,0.9,0.6,1.3,0.9c0.2,0.1,0.5,0.3,0.7,0.4c0.1,0.1,0.6,0.2,0.7,0.3
		c1.5,2.7,4.7,3.4,6.8,5.4c2.7,2.5,5.9,4.6,9,6.8c0.7,0.5,1.5,0.8,2.2,1.2c1.1-1.8,0.5-3.4,0.5-4.9c0-5.6,0.1-11.2,0.2-16.8
		C339.2,481.7,339.5,479,339.5,476.3z M305.9,481.6c-0.3,0.5-1.1-0.8-1.3-1l0.3,0.2c0.3,0,0.5,0,0.7,0.1
		C305.8,481,306,481.4,305.9,481.6z M313.8,488.2c-0.2,0-0.3,0.2-0.5,0.2c-0.3,0-0.6-0.3-0.8-0.6c-0.3-0.3-0.6-0.6-0.7-1
		c-0.1-0.2-0.2-0.4-0.3-0.7c-0.1-0.2-0.1-0.5-0.3-0.7l-0.3-0.3c0,0,0-0.1,0-0.1c0.9-0.3,1.5,0.4,2.1,1c0.3,0.3,0.5,0.7,0.8,1
		c0.2,0.2,0.6,0.4,0.5,0.8C314.3,488.3,314.1,488.2,313.8,488.2z"/>
	<path fill="none" d="M340.4,372.8c-0.1-3.2-0.1-6.5-0.4-9.7c-0.2-2.2-0.8-4.4-1.1-6.6c-0.9-6.6-2.5-13.1-5.3-19.2
		c-0.6-1.2-1.3-2.3-2.8-2.2c-1.6,0.1-3.3,0.4-4.9,0.9c-4.2,1.3-8.2,2.8-11.9,5.6c-3.4,2.6-5.6,5.8-7.1,9.7c3.2,2.5,6.3,5,9.5,7.4
		c3.8,2.8,7.7,5.3,11.4,8c2.1,1.5,3.9,3.4,5.9,4.9c1.9,1.4,3.6,3.2,6.3,3.9C340.2,374.4,340.4,373.6,340.4,372.8z"/>
	<path fill="none" d="M273.7,362.6c0.9,1.5,2,2.9,3,4.4c0.2,0,0.4,0,0.6-0.1c1.3-7.4,4.1-14.2,7.9-20.8c-2.1-1.1-3.6-2.3-5.8-2.2
		c-2.1,0-4.3-0.6-6.4-0.7c-2.3-0.1-4.6,0-7.3,0c0.5,1.5,0.9,2.7,1.4,3.9c1.3,3.4,2.7,6.8,4.1,10.2
		C271.8,359.1,272.7,360.9,273.7,362.6z"/>
	<path fill="none" d="M140.9,326.6c0,2.1,0,4.1,0,6.2c0,1.3,0,2.7,0,4c0,2.2,0.6,3.6,1.6,4.5c1.7,1.5,4.6,1.5,7.6,1.5
		c0.8,0,1.7-0.2,2.5-0.4c1.8-0.5,2.1-1.4,1.1-2.9c-0.7-1-1.4-2.1-2.1-3.1c-1.3-2.1-2.6-4.2-3.9-6.4c-0.6-1.1-1.4-2.1-1.9-3.2
		c-1.1-2.4-2.9-4.4-4.4-6.5c-0.1,0.1-0.3,0.2-0.5,0.3c-0.1,0.1,0,1.3,0,1.5c0,0.5,0,1,0,1.5C140.9,324.5,140.9,325.6,140.9,326.6z"
		/>
	<path fill="none" d="M315.6,176.8c0.9,3.2,2.4,6.2,3.8,9.2c1.5,3.3,3.2,6.5,6,8.8c2,1.7,4.1,3.4,6.1,5.2c3.1,2.8,6.8,4.4,10.6,5.9
		c1.8,0.7,3.7,0.8,5.5,1.5c3.2,1.1,6.6,0.6,9.9,1c1.2-0.1,2.4,0,3.5-0.2c2.6-0.6,5.2-1.2,7.7-1.9c1.8-0.5,3.7-1.1,5.4-2
		c6.9-3.4,12.4-8.3,16.6-14.7c3.1-4.7,5.5-9.5,6.4-15.3c0.6-4.3,0.8-8.5,0.3-12.7c-0.3-3-1.1-6.1-2-9c-1.4-4.3-4-8-6.5-11.7
		c-1-1.5-2-2.8-3.6-3.8c-0.7-0.4-1.2-1.1-1.8-1.7c-1-0.9-2-2.1-3.2-2.7c-3.2-1.7-6.2-4-9.7-5.2c-2.1-0.7-4.1-1.8-6.5-1.6
		c-0.9,0-1.8-0.3-2.7-0.5c-0.6-0.1-1.3-0.3-1.9-0.3c-2.8,0.1-5.7,0.2-8.5,0.3c-1.1,0.1-2.2,0-3.2,0.3c-3.5,1.2-6.9,2.6-10.3,4
		c-1.1,0.4-2.2,0.8-3.2,1.4c-1.3,0.8-2.4,1.7-3.6,2.7c-1.4,1.1-2.8,2.1-4,3.4c-1.4,1.4-2.5,3.1-3.7,4.7c-2.3,3-4.3,6.1-5.8,9.6
		c-0.5,1.1-0.5,2.4-0.9,3.6c-0.9,2.7-1.6,5.4-1.5,8.3c0,0.9-0.2,1.8-0.3,2.7C314,169.6,314.6,173.3,315.6,176.8z"/>
	<path fill="none" d="M359.5,306c-1.5,1.2-2,2.8-3,4.2c-1,1.3-1,2.5-0.7,4c0.6,2.8,1.1,5.7,1.6,8.6c0.1,0.9,0.1,1.8,0.1,2.7
		c0,1.1-0.1,2.2,0,3.3c0.1,2.7,0.3,5.5,0.4,8.7c3.4-4.5,6.4-8.7,8-13.8c1.2-4.1,2.8-8.2,3.2-12.6c0.2-2.3,0.5-4.4,0-6.7
		c-0.4-2-0.7-2.3-2.7-1.8C363.9,303.3,361.6,304.3,359.5,306z"/>
	<path fill="none" d="M393.9,334.2c-0.2,0.4-0.4,0.9-0.6,1.4c-1.1,3.3-2.3,6.6-3.2,10c-1.3,4.5-2.4,9-3.4,13.5
		c-0.7,3.2,0.3,5,3.2,6.6c3.9,2.1,8.1,2.4,12.4,1.4c1.7-0.4,2.1-1,2.1-2.9c0-1.7,0-3.5,0-5.2c0.1-3.2,0.3-6.5,0.3-9.7
		c0-5.6-0.2-11.2-0.2-16.8c0-4.3,0-8.6,0-12.9c-0.2-0.1-0.3-0.2-0.5-0.3c-2.5,3.2-5.3,6.1-7.1,9.8
		C396,330.8,394.9,332.5,393.9,334.2z"/>
	<path fill="none" d="M31.9,92.9c0.4,0.8,0.3,1.8,0.6,2.7c0.4,1.2,0.8,2.3,1.3,3.5c0.3,0.7,0.7,1.3,1,2c1.3,2.8,2.4,5.7,3.8,8.4
		c2,3.6,4.2,7,6.4,10.5c0.2,0.3,0.6,0.5,0.9,0.7c2-3,3.9-5.8,5.8-8.6c0.1-0.1,0.1-0.3,0.2-0.5c0.4-0.6,0.8-1.2,1.3-1.8
		c1.3-1.4,2.8-2.7,4-4.2c4.1-5,9.8-6.7,15.6-8.3c0.7-0.2,1.5-0.2,2.2,0c3.3,0.6,6.6,1,9.8,1.8c1.8,0.5,3.5,1.6,5.2,2.4
		c4.4,2.2,8.8,4.5,13.3,6.5c3.9,1.7,8,2.8,12.4,2.6c3-0.1,5.7-0.8,8.4-2.1c2.5-1.2,4.7-2.5,6.7-4.3c2-1.8,3.6-3.9,5.4-5.9
		c1.8-2.1,3.1-4.3,4.3-6.7c0.5-1.1,0.8-2.2,1.2-3.3c0.5-1.2,2-1.9,3.1-1.6c1,0.3,1.9,1.9,1.8,3c-0.1,0.4-0.2,0.8-0.4,1.2
		c-1.1,2.4-2.3,4.8-3.7,7c-0.7,1.1-1.5,2.2-2.4,3.3c-0.3,0.4-0.8,0.8-0.9,1.3c-0.1,0.6-0.3,1.4-0.2,1.9c0,0.6,0.3,1,0.6,1.5
		c0.3,0.6,0.7,1.1,1,1.8c0.3,0.7,0.8,1.1,1.2,1.8c0.2,0.2,0.3,0.5,0.5,0.7c0.3,0.2,0.5,0.2,0.7,0.4c0.5,0.3,1,0.7,1.3,1.2
		c0.5,0.7,1.2,1.1,1.9,1.4c0.7,0.3,1.3,0.6,2,0.9c1.8,0.8,3.7,1.4,5.6,1.8c3.6,0.8,7,2.2,10.8,2c1-0.1,2.1-0.3,3,0
		c3.4,0.9,6.6,0.2,9.9-0.3c1.5-0.2,3-0.5,4.4-0.9c3.4-0.9,6.4-2.9,9.2-5c3.1-2.3,6.3-4.5,8.7-7.4c3.1-3.6,5.4-7.8,8.1-11.7
		c0.3-0.5,0.6-1.1,0.6-1.6c0-1.6,1.1-2.6,2-3.7c0.6-0.8,1.6-1.2,2.4-0.6c0.6,0.4,0.8,1.3,1,2.1c0.1,0.4-0.1,1-0.3,1.4
		c-1,2.5-2.1,4.9-3.2,7.3c-0.8,1.6-1.8,3-2.8,4.5c-0.7,1.1-1.1,2.2-0.8,3.4c0.7,3,3.2,5.6,5.1,7.9c1.8,2.2,4.9,2.6,7.5,3.2
		c2,0.5,4.1,0.9,6.2,1.4c2.7,0.6,5.6,0.9,8.4,1.1c2.5,0.2,5,0.2,7.5-0.1c3.2-0.5,6.5-0.5,9.4-2.3c0.5-0.3,1.1-0.5,1.6-0.6
		c4.6-0.9,7.9-4,11.3-6.7c1.7-1.4,2.7-3.5,4.1-5.3c1.6-2.1,2.3-4.5,3.2-7c1.1-3.2,1.5-6.3,1.2-9.6c-0.3-2.6-0.6-5.3-0.7-8
		c-0.1-1.4,0.7-2.1,2.1-2.2c1.3-0.1,1.9,0.6,2.1,1.7c0.5,2.9,1.1,5.8,1.2,8.7c0.1,4-0.8,7.6-1.6,11.5c-0.3,1.5-0.1,3.1,1.1,4.1
		c0.9,0.8,2.1,1.6,3.4,1.7c1.2,0.1,2.4-0.3,3.6-0.6c1.8-0.5,3.5-1,5.2-1.7c5.3-2.2,10.3-5.3,14.4-9.4c2.2-2.2,3.9-4.8,5.5-7.4
		c2-3.3,2.6-7,3-10.8c0.2-2.1,0.6-4.2,0.4-6.2c-0.2-2.2-0.8-4.4-1.3-6.6c-0.8-3.5-1.8-6.9-3.9-9.9c-0.9-1.3-1.8-2.7-2.9-3.7
		c-0.3-0.3-0.6-0.5-0.9-0.8c-1-0.9-1.9-1.8-2.9-2.7c-0.9-0.8-2-1.4-2.7-2.4c-0.5-0.8-0.9-1.6-1.8-1.9c-0.5-0.2-1.1-0.1-1.6,0.1
		c-0.1,0-1.6,0.4-1.6,0.1c0-0.2,0-0.3-0.1-0.4c-0.3,0-0.7-0.3-0.8-0.5c-0.1-0.3,0-0.7-0.3-0.9c-0.2-0.2-0.6-0.2-0.9-0.3
		c-0.3-0.1-0.5-0.1-0.8-0.2c-0.6-0.2-1.2-0.5-1.8-0.5c-0.3,0-1.8,0.1-1.8-0.1c0.4-0.1,0.7-0.1,0.7-0.5c0-0.2-0.1-0.6-0.3-0.7
		c-0.2-0.1-0.3-0.1-0.5-0.1c-0.1,0-0.2-0.1-0.3-0.2c-0.3-0.1-0.7,0-1,0c-0.1,0-0.4,0.1-0.5,0.2c-0.1,0-0.4,0.1-0.5,0.1
		c-0.3,0.1-0.5,0.2-0.8,0.2c-0.4-0.1-0.6-0.4-1-0.5c-0.4-0.1-1-0.1-1.4-0.2c-0.5-0.1-1.1-0.1-1.6-0.2c-1.1-0.1-2.1-0.2-3.2-0.1
		c-1.1,0-2.2,0.1-3.2,0.2c-1.3,0.1-2.6,0.3-3.8,0.6c-1,0.2-2,0.5-3,0.5c-0.9,0-1.8,0.3-2.6,0.6c-1.2,0.5-2.4,0.9-3.5,1.4
		c-0.8,0.4-1.6,0.8-2.5,0.8c-1.1,0-0.6-1-0.2-1.5c0.4-0.6,1-1,1.5-1.5c0.5-0.5,1.1-0.8,1.6-1.2c0.7-0.5,1.3-1,2-1.4
		c0.3-0.2,0.6-0.4,1-0.6c0.3-0.2,0.6-0.2,0.9-0.3c0.5-0.2,0.7-0.5,1.3-0.7c1.5-0.3,3-0.6,4.5-0.9c0.5-0.1,0.9-0.4,1.6-0.8
		c-1.2-2.1-2-4.3-3.5-6.1c-3.4-4.2-7.9-7.2-12.3-10.2c-1.6-1.1-3.5-2-5.4-2.5c-4.8-1.2-9.5-2.2-14.5-2.2c-4.5,0-8.8,0.7-12.9,2.4
		c-1.6,0.7-3.1,1.6-4.6,2.4c-2.2,1.1-4.7,1.8-6.6,3.2c-4.9,3.8-10.6,6.7-14.6,11.7c-0.8,1-1.9,1.8-2.9,2.7c-1.1,1-2,0.9-3.1-0.1
		c-0.5-0.4-0.8-1-1.2-1.5c0.2-0.4,0.2-0.7,0.3-0.8c3.3-3.9,7.3-7.1,11.2-10.3c1.7-1.3,3.2-2.8,5.1-4.5c-2-1.3-3.7-2.3-5.3-3.4
		c-3-2-6.2-3.5-9.6-4.7c-2.7-0.9-5.5-1.5-8.2-2.2c-4.4-1-8.8-1.8-13.4-0.6c-1.8,0.5-3.7,0.2-5.5,0.6c-2.4,0.6-4.8,1.5-7.2,2.2
		c-5.5,1.5-10.3,4.7-15.5,6.9c-0.5,0.2-0.9,0.7-1.4,1c-0.6,0.4-1.1,0.7-1.7,1c-1,0.6-2,1.2-3,1.8c-1.7,1.1-3.4,2.1-5.1,3.2
		c-0.9,0.6-1.8,1.1-3,1.9c1.4,1,2.5,1.8,3.5,2.6c1.9,1.6,3.8,3.2,5.6,5c0.6,0.6,1,1.4,1.2,2.2c0.2,0.7,0.2,1.8-0.2,2.3
		c-0.4,0.4-1.6,0.6-2.2,0.3c-1-0.4-1.9-1.2-2.8-2c-0.8-0.7-1.4-1.4-2-2.2c-2-2.5-4.8-3.9-7.5-5.3c-2.4-1.2-4.8-2.7-7.4-3.1
		c-3.8-0.6-7.7-1.8-11.6-1.3c-0.9,0.1-1.8,0.4-2.7,0.3c-4.3-0.5-7.9,1.7-11.8,2.9c-2.7,0.8-5.3,2.6-7.5,4.4
		c-3.3,2.7-6.3,5.7-9.3,8.7c-1.1,1.1-1.7,2.6-2.6,4.2c2.5,0.7,4.7,1.2,6.8,1.9c2.8,0.9,5.6,1.7,8.3,2.8c1,0.4,1.8,1.2,2.5,2
		c0.7,0.9,0.4,2.2-0.5,3.2c-0.8,0.8-1.6,0.6-2.4,0c-1-0.6-2.1-1.1-3.2-1.5c-2.7-1-5.5-1.8-8.3-2.8c-1.7-0.6-3.3-1-5.1-0.9
		c-1,0.1-2-0.2-2.9-0.5c-2-0.6-4.1-0.9-6.2-0.4c-1.9,0.4-3.7,1.1-5.5,1.6c-3.1,0.8-6.1,1.7-8.4,4.1c-0.4,0.4-0.9,0.7-1.4,1
		c-3.7,1.9-5.6,5.7-8.7,8.2c-0.1,0.1-0.2,0.3-0.3,0.4c-1.9,4.6-4.3,9.1-4.6,14.2c-0.1,1.8,0.1,3.5,0.3,5.2
		C30.2,85,29.9,89.1,31.9,92.9z M287.3,39.2c0.3,0,0.7-0.1,1,0c0.1,0,0.4,0.3,0.6,0.2c0,0,0,0-0.1,0l0.2-0.2c0,0.1,0,0.1-0.1,0.2
		c0.7,0,1.1,0.3,1.4,0.9c-0.5,0.4-0.8,0.7-1.4,0.5c-0.3-0.1-0.4-0.4-0.7-0.5c-0.3-0.2-0.5-0.1-0.8-0.2c-0.1-0.1-0.2-0.2-0.2-0.3
		c-0.1,0-0.3-0.1-0.4-0.1C286.5,39.3,287,39.2,287.3,39.2z M283.7,38c0,0,0.4-0.1,0.4-0.1c0,0,0.1,0,0.1,0c0-0.1-0.1-0.1-0.2-0.2
		h-0.3c0.1,0,0.2,0,0.3,0h0.4c-0.1,0.1-0.1,0.1-0.2,0.2c0.1,0.2,0,0.4-0.2,0.6c-0.1,0.1-0.4,0.3-0.5,0.3c-0.2,0-0.5-0.3-0.5-0.5
		C283.2,38.2,283.5,38.1,283.7,38z"/>
	<path fill="none" d="M344.5,359.8c0,0.8,0.3,1.5,0.5,2.5c0.5-0.4,0.8-0.5,0.9-0.7c2-4.1,3.4-8.5,4.7-12.9c0.6-2.2,0.8-4.4,1.2-6.6
		c0.8-4.5,1.3-9.1,1.3-13.6c0-3.1-0.5-6.2-0.8-9.2c-0.2-1.4-1.5-2.5-3-2.5c-4.4,0.1-8.4,1.2-11.1,5.1c-0.5,0.7-1.2,1.2-1.6,1.9
		c-0.8,1.3-1.4,2.6-2,4c-0.2,0.5,0,1.2,0.2,1.6c2.7,5.1,5.3,10.2,6.8,15.8C342.9,350,344.5,354.7,344.5,359.8z"/>
	<path fill="none" d="M373.8,304.7c0.4,3.4-0.1,6.8-0.3,10.2c0,0.5-0.2,1-0.4,1.5c-0.7,2.6-1.5,5.3-2.2,7.9
		c-0.1,0.5-0.1,1.1-0.2,1.7c3.9-2.4,7.6-4.5,11.2-6.9c2.6-1.7,5.4-2.7,8.2-3.6c2.5-0.7,5-1.7,7.8-1.6c1.3,0.1,2.7-0.3,4.1-1.2
		c-5.5-4-10.7-8-16-11.8c-5.3-3.8-10.7-7.5-16-11.3c-0.2,0.2-0.3,0.3-0.5,0.5c0.2,0.6,0.4,1.2,0.7,1.8
		C372.5,295.8,373.3,300.3,373.8,304.7z"/>
	<path fill="none" d="M371.8,361.1c2.2,0.6,4.6,1,6.9,0.6c2.3-0.4,2.7-0.7,3.2-3.1c0.8-4,1.5-8,2.6-11.9c1.6-5.2,3.2-10.4,5.7-15.3
		c1.5-3,2.8-6,4.9-8.6c0.6-0.8,1-1.8,1.6-3.1c-0.8,0.1-1.1,0.1-1.4,0.3c-2.3,1.5-4.7,2.9-6.9,4.5c-1.7,1.3-3.2,2.9-4.8,4.4
		c-0.8,0.7-1.7,1.4-2.4,2.2c-2.4,2.9-4.3,6.1-6.3,9.3c-2.2,3.7-3.9,7.7-5.4,11.7c-0.4,1.2-0.5,2.4-0.9,3.6
		C367.9,358.6,368.8,360.3,371.8,361.1z"/>
	<path fill="none" d="M375.4,331.4c1.2-1.6,2.4-3.1,3.9-4.9c-4.8,1.5-19.2,17.2-21.8,23.4c0.8,1.9,2.8,1.5,4.3,2.1
		c2,0.7,3.8-0.2,4.1-2.4c0.7-4.4,3.1-8.1,5-11.9C372,335.4,373.8,333.5,375.4,331.4z"/>
	<path fill="none" d="M316.3,509.8c-2.5,0-5,0.2-7.4-0.1c-2.9-0.4-5.7-0.3-8.9,0c0.1,0.9,0.1,1.7,0.2,2.5c0.1,1.1,0.5,2.1,0.4,3.2
		c-0.1,2.2,0.6,4.1,1.4,6c0.2,0.6,0.8,1.1,1.3,1.4c1.7,1.2,3.5,1,5.2,0.1c5.1-2.8,8.8-7,11.6-12c0.1-0.2,0-0.5,0.1-1
		C318.9,509.9,317.6,509.8,316.3,509.8z"/>
	<path fill="none" d="M79.9,261.9c-1.8,1.5-3.7,3.1-5.7,4.5c-3.5,2.6-7.1,5-10.6,7.5c-3.3,2.4-6.5,4.9-9.7,7.3
		c-2.6,1.9-5.4,3.6-7.9,5.7c-1.7,1.5-3.5,2.8-5.5,3.9c-0.7,0.4-1.4,1-2,1.5c-4.3,3.4-8.6,6.8-13,10.1c-4.4,3.3-8.9,6.4-13.4,9.6
		c-1.4,1-2.9,1.9-4.4,2.9c-1.3,0.9-1.8,2.3-1.8,3.9c0.1,2.6,0.3,5.1,0.3,7.7c0,2.9-0.4,5.8-0.4,8.7c0,5.3,0.2,10.5,0.2,15.8
		c0,3.6,1,7.1,2,10.5c0.9,2.9,2.4,5.7,3.8,8.5c0.8,1.6,2,3.1,2.8,4.7c1.2,2.9,3.4,4.9,5.8,6.7c0.4-0.2,0.7-0.4,0.9-0.6
		c2.6-2.2,5.1-4.6,7.8-6.7c1.4-1.1,3-2.1,4.7-2.8c3.4-1.5,6.8-2.7,10.2-4c4-1.6,8.2-2.1,12.3-2c3.7,0.1,7.5-0.5,11.1,1.1
		c0.8,0.4,1.6-0.1,1.6-1c0.1-3,0-6.2-2.6-8.3c-2.3-1.9-4.3-4.2-7.2-5.3c-0.6-0.2-1.1-0.8-1.6-1.2c-2.6-2.7-5.2-5.4-6.6-9
		c-0.1-0.4-0.3-0.8-0.6-1.1c-2.2-2.7-2.7-6-3-9.2c-0.3-2.3,0.1-4.9,0.8-7.2c1.3-4.1,3.7-7.5,7.6-9.8c4.3-2.6,9.7-2.1,12.9,1.7
		c1.5,1.8,2.7,3.8,3.8,5.8c1.3,2.2,2.6,4.5,3.1,7.1c0.8,4.3,1,3.8,5.2,3.8c0.2,0,0.3,0,0.5,0c1.2-0.1,1.9-0.7,1.8-2
		c-0.2-2.4-0.4-4.8-0.5-7.2c0-0.5,0-1,0-1.5c0-3.3,0.2-6.6,0-9.9c-0.2-3.5-0.3-7,0.6-10.5c0.6-2.4,1.4-4.7,1.8-7
		c0.4-2.7,1.3-5.1,2.6-7.4c1-1.7,2.1-3.4,3.3-5c0.6-0.8,1.6-1.5,2.4-2.1c0.9-0.7,2-1.3,2.8-2.1c2.6-2.4,5.7-4,9.1-4.9
		c0.7-0.2,1.5-0.4,2.2-0.5c3.4-0.7,6.8-1.5,10.3-2c2-0.3,3.9-0.6,5.9-1.4c-1-1.8-1.7-3.6-3.4-4.6c-0.6-0.4-1.1-1-1.6-1.5
		c-1.4-1.3-2.8-2.7-4.3-3.7c-2.5-1.7-5.4-2.8-7.7-4.6c-2.1-1.7-4.5-2.4-7-3.1c-0.7-0.2-1.5-0.4-2.1-0.8c-1.4-0.9-2.5-0.4-3.6,0.5
		c-0.6,0.5-1.2,1.2-1.8,1.7c-1.3,1.1-2.6,2.5-4.1,3.3C85,257.9,82.4,259.8,79.9,261.9z"/>
	<path fill="none" d="M389.6,556.6c-4.1-2.2-6.8-6.1-10.5-8.9c-2.4-1.8-4.4-4.2-6.8-6.1c-2.2-1.7-4.2-3.7-6.5-5.4
		c-3.3-2.3-5.8-5.6-9.1-8c-2.7-1.9-5-4.4-7.5-6.6c-1.1-1-2.1-2.1-3.3-3c-2.8-2.3-5.6-4.4-8.4-6.6c-3.2-2.5-6.3-4.9-9.5-7.4
		c-4.1-3.2-8.1-6.4-12.2-9.5c-2.5-1.9-5.2-3.6-7.7-5.5c-2.9-2.1-5.6-4.4-8.5-6.5c-3.4-2.5-7.1-4.7-10.3-7.4
		c-3.1-2.7-6.5-4.9-9.6-7.5c-1.3-1.1-2.5-2.1-3.9-3.1c-1.6-1.1-3.1-2.5-5.4-1.5c-0.6,0.3-1.5,0.1-2.2,0c-1,0-2-0.2-3-0.2
		c-1.9,0-3.8,0.2-5.8,0.2c-5.6,0-11.2-0.1-16.7-0.2c-2,0-4-0.3-6-0.3c-4.8,0.1-9.7,0.4-14.5,0.4c-3.4,0-6.9-0.2-10.3-0.2
		c-1.4,0-2.9,0.6-4.2,0.2c-2.5-0.6-5-0.3-7.5-0.1c-0.8,0-1.7,0.1-2.5,0.1c-3.5-0.1-7-0.3-10.5-0.4c-0.6,0-1.2,0.1-1.7,0.1
		c-1.2,0.1-2.5,0.3-3.7,0.3c-3.4-0.1-6.8-0.3-10.2-0.4c-0.6,0-1.2,0-1.8,0.1c-1.7,0.1-3.3,0.5-5,0.4c-2.6-0.2-4.8,0.3-6.4,2.5
		c-0.2,0.3-0.5,0.4-0.8,0.6c-3.7,2.8-7.4,5.6-11.1,8.5c-1.8,1.4-3.6,3-5.4,4.4c-2.9,2.2-6,4.2-8.7,6.7c-3.4,3.1-7.4,5.3-10.8,8.5
		c-2.8,2.7-6.3,4.7-9.5,6.9c-1,0.7-2,1.5-2.3,3c0.5,0.1,1,0.2,1.5,0.2c2.4,0,4.8-0.2,7.2-0.2c4.2,0,8.3,0,12.5,0.1
		c1.9,0.1,3.8-0.1,5.7-0.3c2.6-0.2,5.3,0.2,7.9,0.3c1,0,2-0.2,3-0.2c1.4,0,2.8,0.1,4.2,0.1c1.2,0,2.4,0.1,3.7,0
		c0.8,0,1.6-0.2,2.5-0.2c3.1,0.1,6.2,0.3,9.2,0.3c5.6,0,11.2-0.1,16.7-0.2c1.3,0,2.7-0.2,4-0.2c3.3,0.1,6.6,0.3,9.9,0.4
		c0.6,0,1.2,0,1.8,0c4.5-0.1,9-0.7,13.5,0.1c0.7,0.1,1.5-0.2,2.2-0.2c2.1-0.1,4.2-0.2,6.2-0.1c0.9,0,1.8,0.4,2.7,0.3
		c3.8-0.3,7.6-0.5,11.5-0.1c5.4,0.5,10.8-0.4,16.2-0.1c6.1,0.4,12.3-0.1,18.5,0c5.2,0,10.5,0.3,15.7,0c0.5,0,1,0.2,1.5,0.2
		c1.1,0.1,2.2,0.3,3.2,0.3c5.5-0.2,11-0.5,16.5-0.5c5.7,0,11.3,0.2,17,0.4c1.9,0.1,2.9,1.8,2,3.6c-0.2,0.4-0.6,0.8-0.7,1.3
		c-0.6,2.9-2.5,5-3.9,7.4c-1.5,2.6-3.9,4.5-6,6.7c-0.7,0.7-1.8,1.2-2.7,1.7c-1.1,0.6-2.5,0.9-3.4,2.1c1.1,1.4,2,2.8,3.2,4
		c3.8,3.6,6.8,7.7,9.5,12.2c0.3,0.5,0.7,0.9,1.1,1.4c0.5,0.6,0.9,1.2,1.3,1.9c0.4,0.6,0.5,1.2,0.9,1.8c0.3,0.4,0.7,0.6,1,1
		c0.7,0.8,1,1.8,1.4,2.8c0.3,0.8,0.7,1.3,1.3,1.9c0.5,0.5,1,1,1.4,1.6c0.3,0.5,0.5,1,0.9,1.4c0.4,0.4,0.8,0.7,1.2,1
		c0.6,0.3,0.9,0.8,1.4,1.1c0.4,0.3,0.9,0.6,1.4,0.9c0.4,0.3,0.8,0.7,1.2,1c0.3,0.2,0.6,0.2,0.9,0.4c0.3,0.2,0.7,0.5,1.1,0.7
		c0.6,0.4,1.1,0.9,1.7,1.2c0.7,0.4,1.4,0.6,2,0.9c0.7,0.3,1.3,0.6,2,0.7c0.4,0,0.6,0.2,1,0.3c0.4,0.1,0.8-0.1,1.2,0
		c0.8,0.2,1.7,0.3,2.5,0.5c0.6,0.2,1.2,0.2,1.8,0.2c0.5,0,0.9,0.2,1.4,0.2c1.4,0.1,2.9-0.1,4.4-0.1c2.9-0.1,5.8-0.2,8.7-0.2
		c2,0,4-0.1,6-0.1c4.3,0.1,8.6,0.7,13,0c0.3-0.1,0.7-0.1,1,0c4.1,0,8.2,0.1,12.3,0.1c0.6,0,1.1-0.1,1.9-0.1c-3.1-3-5.9-5.7-8.7-8.4
		C390.7,557.4,390.2,556.9,389.6,556.6z"/>
	<path fill="none" d="M404.9,457.8c0-4.2-0.2-8.3-0.3-12.5c0-1.5,0-3-0.1-4.5c-0.1-3.2-0.4-6.3-0.2-9.5c0.2-3.1,0.3-6.1,0.2-9.2
		c-0.2-3.4,0.2-6.8,0.2-10.2c0-1.6-0.7-3.2-0.3-4.7c1-3.4,0.2-6.8,0.4-10.2c0.3-4.3,0.1-8.7-0.1-13c-0.1-2.4,0.1-4.8-0.3-7.2
		c-0.3-1.6,0.1-3.4-0.4-5.4c-1,0.2-2,0.2-2.9,0.5c-1.7,0.7-3.2,0.5-4.9,0.1c-3.3-0.6-6.5-1.2-9.6-2.7c-0.1,0-0.2,0-0.6,0.1
		c-0.1,1.2-0.2,2.5-0.3,3.8c-0.1,1.1-0.1,2.2-0.2,3.2c-0.1,1-0.7,1.7-1.7,1.9c-1.1,0.2-1.8-0.5-2.1-1.4c-0.4-1.2-0.6-2.4-0.6-3.7
		c-0.1-2.3,0-4.6,0-7c-4.3-0.2-8.6,0.1-12.9-1.3c-0.3,1.4-0.6,2.6-0.9,3.8c-0.1,0.6-0.1,1.2-0.3,1.7c-0.2,1.1-1,1.8-2.1,1.7
		c-1.1-0.1-1.9-0.8-1.9-2c0-1.7,0.1-3.3,0.1-5c0-2.3-0.2-4.7,0.8-6.9c0.2-0.5,0.1-1.1,0.2-1.6c-3.1-0.7-6.1-1.4-9.2-2.1
		c-0.2,0.2-0.6,0.5-0.8,0.8c-1.8,3.6-3.6,7.2-5.3,10.8c-1.3,2.9-2,6-3.2,8.9c-1.8,4.5-1.4,9-1.5,13.5c0,1.1-0.1,2.1-0.2,3.2
		c-0.1,0.9-0.3,1.8-0.3,2.7c0,3.9,0,7.8,0.2,11.8c0.2,4.5,0.3,9,0.2,13.5c-0.1,2.6-0.3,5.3-0.3,7.9c0,5.4,0.3,10.7,0.3,16.1
		c0,4.9-0.3,9.8-0.4,14.7c0,0.7,0.1,1.3,0.2,2c0.1,1.9,0.4,3.8,0.3,5.7c-0.1,4.7-0.4,9.3-0.4,14c0,4.6,0.2,9.2,0.4,13.7
		c0.1,2.2,0.5,4.6,0.1,6.7c-0.5,2.8-0.2,5.6-0.4,8.5c-0.1,1.4,0.5,2.1,1.5,2.9c2.1,1.5,4.1,3.2,6,4.9c2.6,2.3,5,5,7.9,6.9
		c2.7,1.9,4.6,4.5,7.5,6.2c3.2,1.8,4.8,5.6,8.2,7.2c0.1,0.1,0.2,0.3,0.3,0.4c1.4,1.3,2.8,2.6,4.3,3.9c3.5,3,7.1,6,10.6,9
		c0.1,0.1,0.1,0.1,0.2,0.2c0.8,1.6,2.3,2.4,3.6,3.4c1.1,0.8,2.3,1.7,3.3,2.6c2.4,2.2,4.8,4.4,7.4,6.9c0-2,0-3.7,0-5.3
		c0.1-2.2,0.3-4.3,0.3-6.5c-0.1-5-0.4-10-0.4-15c0-3.3,0.2-6.7,0.2-10c0-1.3-0.6-2.8-0.3-3.9c0.9-2.9,0.2-5.8,0.1-8.7
		c0-0.6,0-1.2,0-1.8c0.1-3.5,0.3-7,0.4-10.5c0-0.6-0.1-1.2-0.2-1.7c-0.1-1.5-0.3-3-0.2-4.5c0.1-3.3,0.3-6.7,0.4-10
		c0-0.5-0.1-1-0.1-1.5c-0.1-1.6-0.4-3.2-0.3-4.7c0.1-2.6-0.1-5.1,0.1-7.7C405.1,467.3,404.9,462.5,404.9,457.8z"/>
	<path fill="none" d="M265.3,547.9c-1.9-1.6-2-1.6-4.2-2.2c-2.7-0.6-5.4-1.2-8-1.8c-1.1-0.3-1.9-1.7-1.6-3c0.2-1.3,0.8-1.5,2.4-1.4
		c3.7,0.4,7.2,1.5,10.7,2.4c2,0.5,3.9,1.4,5.9,2.1c1.5,0.6,3,1.2,4.6,1.8c2.5-3.8,5.4-6.7,9.6-8.6c-0.8-0.5-1.1-0.9-1.6-1
		c-2.9-1.2-5.9-2.4-8.9-3.5c-1.3-0.5-2.2-1.9-2-3.1c0.3-1.2,1.3-1.7,3-1.4c0.5,0.1,1,0.2,1.5,0.3c2.7,1,5.3,2,7.9,3.1
		c1.9,0.8,3.8,1.7,5.6,2.9c2.9,1.9,3.1,2,5-0.9c0.1-0.2,0.3-0.4,0.4-0.7c0.7-1.9,2.3-3,4-4c0.6-0.3,1.2-0.7,2.1-1.3
		c-2.2-1.6-3.9-3.2-5.9-4.3c-3.6-2.1-7.2-4.2-10.9-5.9c-3.1-1.4-6.4-2.4-9.7-3.5c-3.9-1.3-7.8-2.4-11.9-3c-3.2-0.5-6.3-1.4-9.6-1.3
		c-3.4,0.1-6.8,0-10.2-0.1c-4.2-0.1-8.5-0.3-12.7-0.5c-3.5-0.1-7,0.8-10.5,0c-0.3-0.1-0.7,0-1,0c-3.6,0.1-7.2,0.3-10.7,0.4
		c-0.5,0-1,0-1.5-0.1c-3.5-0.1-7-0.3-10.5-0.4c-1.2,0-2.5,0.4-3.7,0.4c-3.3-0.1-6.6-0.3-10-0.3c-6.1,0-12.1,0.1-18.2,0.1
		c-2.1,0-4.1,0.2-6.2,0.2c-4.1,0-8.2-0.5-12.2-0.1c-4.3,0.4-8.5-0.5-12.7,0.1c-3.1,0.4-6.3-0.1-9.5-0.2c-1.8,0-3.6,0.1-5.5,0.2
		c-0.5,0-1-0.1-1.5-0.1c-1.6-0.1-3.2-0.3-4.7-0.3c-3.2,0-6.3,0.2-9.5,0.3c-2.3,0.1-3.3-0.7-3.4-3c-0.1-3.5-0.1-7,0-10.5
		c0.1-4.3,0.6-8.7,0-13c-0.2-1.8-0.2-3.7-0.1-5.5c0.1-3.1,0.3-6.1,0.5-9.1c0-0.2,0-0.5,0-0.8c-0.4-5-0.7-10,0-15
		c0.1-0.6-0.1-1.3-0.2-2c-0.4-2.2-0.6-4.4,0-6.7c0.3-1.3,0.3-2.7,0.2-4c0-1.4-0.4-2.8-0.4-4.2c0-1.7,0.4-3.5,0.2-5.2
		c-0.6-5.1-1.1-10.3-2.1-15.3c-1-5.3-1.8-10.7-3.9-15.8c-1.3-3.1-2.5-6.2-4.2-9.1c-1.4-2.5-2.4-5.3-4.7-7.3
		c-0.3-0.2-0.4-0.7-0.6-1.1c-0.6-0.8-1.1-1.7-1.8-2.4c-2.6-2.7-6-4.5-9.2-6.4c-2.8-1.7-6-1.8-9.1-2.4c-3.2-0.6-6.4-0.6-9.7-0.5
		c-4.1,0.1-7.9,1.3-11.7,2.3c-2.5,0.7-4.8,2.2-7.1,3.4c-4,2.1-7.5,5.1-10.7,8.1c-2.3,2.2-4.1,5-5.9,7.7c-1.5,2.2-2.8,4.6-4.2,6.8
		c-0.2,0.4-0.4,0.7-0.5,1.1c-1.2,3.5-2.5,6.9-3.6,10.4c-1.2,3.9-2.6,7.8-3.4,11.7c-1.2,5.7-1.2,11.4-0.8,17.2c0.1,2,0.6,4-0.1,6
		c-0.2,0.6,0.1,1.3,0.1,2c0,1.7,0.1,3.5,0.1,5.2c-0.1,2-0.2,4-0.4,6c0,0.4,0,0.9,0.1,1.2c0.6,2,0.8,3.9,0,5.9
		c-0.3,0.7-0.1,1.7-0.1,2.5c0.1,4.6,0.4,9.1,0.5,13.7c0,1.9-0.6,3.8-0.4,5.7c0.2,2.8,0.4,5.7-0.1,8.5c-0.1,0.6,0,1.2,0,1.8
		c0.1,2.9,0.4,5.8,0.1,8.7c-0.3,3.7,1,7.5-0.1,11.2c-0.1,0.4,0.2,1,0.2,1.5c0.1,1.9,0.2,3.8,0.2,5.7c0,3.6-0.2,7.3-0.2,10.9
		c0,3.6,0,7.3,0,10.9c0,2.1-0.1,4.2-0.1,6.3c0.1,3.4,0.3,6.8,0.4,10.2c0,1.1-0.2,2.3-0.2,3.5c2.1,0,4,0,5.9,0c1.9,0,3.8,0,5.7-0.1
		c2.3,0,4.6-0.1,7-0.1c1.3,0,2.7,0.3,4,0.3c4.2,0.1,8.3,0.1,12.5,0.1c0.7,0,1.3,0,2-0.1c5.2-0.3,10.3-0.8,15.5,0.1
		c0.5,0.1,1,0,1.5,0c1.9-0.1,3.8-0.3,5.7-0.3c1.5,0,3,0.3,4.5,0.3c4.2-0.1,8.5-0.2,12.7-0.3c1.7,0,3.4,0,5.1,0
		c1.9,0.1,3.8,0.4,5.7,0.4c4.3,0,8.7-0.2,13-0.3c2.8,0,5.7-0.1,8.5,0.1c4.6,0.3,9.2-1,13.7,0.1c0.5,0.1,1.2,0,1.7,0
		c2.1-0.1,4.2-0.2,6.3-0.2c4,0,8,0.3,12,0.1c3.3-0.1,6.6,0.2,10-0.3c2.2-0.3,4.5-0.1,6.7,0.1c4,0.3,8,0.5,11.9,0
		c0.6-0.1,1.2-0.3,1.7-0.1c2.7,1,5.5,0.4,8.2,0.5c7.1,0.1,14.2-0.2,21.3-0.3c1.9,0,3.8-0.1,5.7-0.1c4.3,0,8.6,0.8,13,0
		c0.4-0.1,0.8,0,1.2,0c5.8,0,11.5,0.1,17.3,0.2c1.9,0,3.8,0,5.7,0.1c1.4,0.1,2.5-0.4,3.1-1.7c0.5-1.1,0.9-2.3,1.2-3.5
		c0.7-2.9,2-5.5,4-7.7C261.9,551.7,263.6,549.8,265.3,547.9z"/>
	<path fill="none" d="M326.3,562.8c-1.4-5.4-3.9-10.3-6.8-14.9c-2.2-3.6-4.5-7.4-7.7-10.4c-0.4-0.4-0.7-0.9-1.1-1.4
		c-2.5-3.8-3.3-4-7.6-3.1c-2.8,0.5-4.1,2.3-5.1,4.6c-0.4,0.9-0.2,1.5,0.5,2.2c2.3,1.9,4.4,4.1,6.8,5.9c2.4,1.8,4.2,4.1,5.9,6.5
		c1.2,1.8,2.4,3.6,3.2,5.6c1.2,2.8,2.1,5.7,3.1,8.4c3.4,0,6.5,0,9.5,0c0.1-0.4,0.2-0.6,0.2-0.7C326.9,564.5,326.5,563.7,326.3,562.8
		z"/>
	<path fill="none" d="M311.2,562.7c-1-4.2-3.7-7.5-6.4-10.6c-2.4-2.8-4.7-5.9-8.1-7.7c-1.7-0.9-3.1-2.3-4.7-3.3
		c-0.6-0.4-1.5-0.7-2.1-0.5c-4.2,1.3-8.4,2.8-10.2,7.8c3.8,1.9,7.3,4.1,10.4,7.1c3.1,3.1,4.7,6.9,6.9,10.8c0.9,0,1.7,0,2.6,0
		c3.8,0.1,7.6,0.2,11.5,0.2c1.2,0,1.6-0.8,1.2-1.9C312,564,311.4,563.4,311.2,562.7z"/>
	<path fill="none" d="M281.7,555.2c-2.4-1.6-4.9-3.2-7.5-4.3c-0.5-0.2-1-0.5-1.4-0.4c-2.9,0.2-5.4,1.6-7.2,3.7c-1.8,2-3,4.5-4.3,6.9
		c-0.8,1.6-1.6,3.2-1.5,5.1c10.6,0.5,21.1,0.2,31.5,0.3c0.1-0.2,0.2-0.5,0.3-0.7c-0.3-0.5-0.6-1.1-1-1.6
		C288.1,560.8,285.3,557.7,281.7,555.2z"/>
	<path fill="none" d="M280.3,510.5c4.4,1.7,8.6,3.8,12.7,6.2c0.9,0.5,1.9,0.8,3.2,1.3c-0.5-3.2-1-5.8-1.4-8.3c-5.2,0-10.1,0-15.5,0
		C280,510.2,280.1,510.4,280.3,510.5z"/>
	<path fill="none" d="M48.1,254.7c-0.1,0.1-0.2,0.1-0.3,0.2c-0.9,0.8-1.9,1.6-2.9,2.4c-0.9,0.8-2.2,1.4-3.3,1.9
		c-0.6,0.3-1.3,0.3-2,0.6c-0.7,0.3-1.3,0.5-2,0.7c-0.6,0.2-1.1,0.4-1.7,0.5c-0.3,0.1-0.4,0.2-0.7,0.3c-0.4,0.1-0.9-0.1-1.3,0
		c-0.4,0.1-0.6,0.2-1,0.3c-0.3,0-0.6,0-0.9,0c-0.2,0.1-0.4,0.2-0.7,0.2c-0.2,0.6-0.3,1.3-0.4,1.9c-0.3,4-1,8.1-1.1,12.1
		c0.1,0,0.1,0,0.2-0.1c0.6-0.2,1.2-0.4,1.8-0.5c1.3-0.3,2.5-0.7,3.8-1.3c0.6-0.3,1.2-0.4,1.8-0.6c0.6-0.3,1.2-0.7,1.8-1
		c1.2-0.7,2.6-1.2,3.8-2c0.5-0.4,0.9-0.9,1.5-1.2c0.6-0.4,1.2-0.8,1.8-1.3c0.5-0.4,0.9-0.7,1.5-1.1c0.3-0.2,0.5-0.5,0.8-0.7
		c0.3-0.2,0.6-0.3,0.9-0.6c0.4-0.3,0.7-0.6,1-1c0.4-0.5,0.8-0.8,1.3-1.3c0.2-0.2,0.5-0.5,0.7-0.7c-0.5-0.8-0.9-1.6-1.3-2.4
		C49.8,258.3,48.9,256.5,48.1,254.7z"/>
	<path fill="none" d="M44,239.1c-0.1-0.5-0.5-0.9-0.9-1.8c-1.7,2.8-3.2,5.2-4.7,7.7c-0.4,0.6-0.7,1.3-1,2c-0.9,1.7-2.1,3.4-2.8,5.2
		c-0.6,1.5-1.2,3.1-1.7,4.6c0.7-0.2,1.4-0.5,2.1-0.7c0.9-0.4,1.9-0.5,2.9-0.9c1-0.4,1.9-0.9,2.9-1.4c1.5-0.7,2.8-1.6,4.2-2.5
		c0.5-0.3,1.1-0.7,1.5-1c-0.6-1.8-1-3.6-1.4-5.4C44.6,243,44.4,241,44,239.1z"/>
	<path fill="none" d="M6.1,405c2.8-7.1,7.2-13.2,11-19.2c-3.7-5.1-7.2-9.9-11-14.9C6.1,382.4,6.1,393.7,6.1,405z"/>
	<path fill="none" d="M51.2,269.2c-0.6,0.4-1.1,0.9-1.7,1.3c-0.6,0.4-1.2,1-1.8,1.4c-0.3,0.2-0.7,0.4-1,0.5
		c-0.4,0.2-0.5,0.4-0.9,0.6c-0.5,0.4-1.2,0.7-1.8,1c-0.6,0.3-1.1,0.7-1.6,1.1c-0.3,0.2-0.7,0.2-0.9,0.4c-0.4,0.2-0.7,0.4-1.1,0.6
		c-0.4,0.2-0.8,0.5-1.2,0.6c-0.5,0.2-0.7,0.3-1.1,0.6c-0.5,0.4-1.4,0.7-2,1c-0.7,0.3-1.3,0.5-1.9,0.8c-1.3,0.7-2.7,1.2-4.2,1.7
		c0.5,3.3,1.2,6.5,2.9,9.8c8.5-6.2,16.8-12.3,25.2-18.5c-0.5-0.8-1.1-1.4-1.5-2.1c-0.8-1.3-1.6-2.6-2.4-3.9c0,0,0,0-0.1,0.1
		c-0.5,0.6-1,1.4-1.6,1.9c-0.3,0.2-0.5,0.2-0.8,0.5C51.6,268.9,51.4,269.1,51.2,269.2z"/>
	<path fill="none" d="M5.8,260.7c0,0.6,0,1.2,0,1.8c0.2,3.2,0.4,6.5,0.6,9.7c0,0.4-0.1,0.8-0.1,1.2c-0.1,1.2-0.2,2.5-0.2,3.7
		c0,0.6,0.1,1.2,0.1,1.7c-0.1,4.6-0.2,9.1-0.2,13.7c0,2.4,0.2,4.8,0.2,7.2c0,3.5,0,7,0,10.8c1.3-1.1,2.4-2.2,3.6-3
		c1.2-0.9,2.6-1.5,3.9-2.3c0.4-0.3,0.7-0.7,1.1-1c0.7-0.6,1.3-1.3,2-1.8c3.2-2.2,6.5-4.4,9.7-6.6c1.9-1.3,2.2-2,1.6-4.2
		c-0.8-2.7-1.5-5.5-2.3-8.2c-0.9-3.1-1.1-6.3-0.8-9.4c0.2-2.5,0.8-5,0.7-7.5c-0.1-2.5,0.6-4.8,1.2-7.1c0.5-2.2,1.8-4.3,2.1-6.7
		c0.1-0.9,0.9-1.7,1.4-2.6c0.5-1,1.2-1.9,1.5-2.9c0.7-2.8,2.1-5.3,3.6-7.6c2-3.1,4.4-6.1,6.6-9.1c0.9-1.2,1.8-2.6,3.7-2.1
		c1.8,0.5,1.8,2.1,2.1,3.4c0.7,3.7,0.2,7.5,1.8,11c0.1,0.2,0,0.5,0.1,0.7c0.6,2.1,1,4.2,1.8,6.2c1.1,2.9,2.4,5.7,3.7,8.5
		c0.6,1.4,1.4,2.8,2.2,4.2c1,1.7,2.2,3.3,3.3,5c0.4,0.7,1,1.3,1.6,2.1c0.8-0.8,1.4-1.4,2-1.9c1.4-1.2,2.8-2.4,4.3-3.4
		c2-1.4,4.4-2.5,6.3-4.1c4.4-3.6,8.8-7.1,13.5-10.3c1.2-0.8,1.6-1.8,1.6-3.2c-0.1-4.5-0.1-9-0.2-13.5c0-1,0-2-0.1-3
		c0-3.3-0.1-6.7-0.1-10c0-0.2,0.1-0.5,0.1-0.7c0.1-2.4,0.2-4.8,0.2-7.2c0-2-0.1-4-0.1-6c0-1.7,0-3.3-0.1-5c0-4.1,0-8.2-0.1-12.3
		c0-1.7,0-3.4,0-5c-28.1,0-55.9,0-83.8,0c0,0.8,0,1.3,0,1.9c0.1,2.2,0.3,4.4,0.3,6.7c0,3.5-0.2,7-0.2,10.5c0,4.3,0.3,8.5,0.3,12.8
		c0,4-0.3,8-0.4,12c-0.1,3.5,0.8,7,0,10.5c0,0.2,0,0.3,0,0.5c0.2,3.7,0.3,7.3,0.5,11c0,0.5,0,1,0,1.5C6.1,254.4,6,257.6,5.8,260.7z"
		/>
	<path fill="none" d="M7.2,179.2c3.8,0.1,7.7,0.3,11.5,0.3c3,0,6-0.1,8.9-0.1c3.2,0,6.4,0.1,9.6,0c4.5-0.1,9-0.5,13.4-0.2
		c2.6,0.2,5.1,0.2,7.7,0.1c2.5,0,5,0.2,7.5,0.2c2.4,0,4.8-0.2,7.3-0.2c1,0,2,0.3,3,0.2c3.9-0.1,7.8-0.3,11.7-0.5
		c0.6,0,1.1-0.1,1.7-0.1c0.2-2.7,0.4-5.3,0.5-7.8c0.1-2.6-0.1-5.3-0.1-8c-1.2,0-2.2,0-3.2,0c-1.6,0-3.1,0-4.7,0c-2,0-4,0.1-6,0
		c-1.7,0-3.5-0.2-5.2-0.1c-1.9,0-3.9,0.5-5.7,0.2c-3.2-0.5-6.3-0.5-9.4-0.2c-2.4,0.2-4.8,0.3-7.2,0.3c-4.3,0-8.7-0.3-13-0.3
		c-3.2,0-6.3,0.3-9.5,0.3c-4.1,0-8.1-0.2-12.2-0.3c-0.4,0-0.8,0.1-1.2,0.1c-1.5,0-3-0.1-4.4-0.2c-0.6,0-1.1,0-1.9,0
		c0,4.1,0,8,0,11.9c0,0.9-0.1,1.8-0.2,2.8C5.9,178.6,6.2,179.2,7.2,179.2z"/>
	<path d="M409.1,551.4c-0.6-4.5,0.8-9.1-0.2-13.7c-0.1-0.6,0.1-1.3,0.2-2c0.1-0.8,0.2-1.7,0.1-2.5c-0.4-4.2-0.4-8.5,0.2-12.7
		c0-0.3,0-0.7-0.1-1c-1.1-2.9-0.1-5.9-0.3-8.9c-0.2-2.9,0.7-5.8,0-8.7c-0.1-0.3,0-0.7,0-1c0-3.8,0.1-7.7,0.1-11.5
		c0-4.7,0-9.5,0-14.2c0-3.4,0-6.8,0-10.2c0-1.9,0.1-3.8,0.1-5.7c0-3.4-0.1-6.8-0.2-10.2c0-2.7,0.1-5.5,0.1-8.2
		c0-1.6-0.1-3.1-0.1-4.7c0-1.1,0-2.1,0-3.2c0-1.6,0.1-3.1,0.1-4.7c0-1.8-0.3-3.7-0.3-5.5c0.1-3.5,0.9-7,0.4-10.4
		c-0.6-4,0.4-8-0.2-12c-0.2-1.4-0.5-2.9-0.1-4.2c1.1-3.4-0.4-6.7,0.3-10.2c0.6-2.9-0.1-6.1-0.2-9.2c-0.1-2.8-0.3-5.5-0.3-8.3
		c0-3.9,0.3-7.8,0.3-11.7c0.1-3.6,0-7.1-0.2-10.7c-0.1-2.7,0.2-5.5,0.2-8.2c0-3.6-0.2-7.1-0.2-10.7c0-4.8,0.1-9.7,0-14.5
		c0-0.6-0.4-1.3-0.8-1.7c-2.6-2.1-5.3-4-8-6c-2.9-2.1-5.9-4.1-8.8-6.2c-2-1.4-3.9-2.9-5.8-4.3c-3.5-2.5-7-4.9-10.4-7.4
		c-3-2.2-5.8-4.7-8.9-6.7c-4.6-3.1-9-6.3-13.4-9.6c-0.9-0.7-1.7-1.8-2.7-2.2c-1.9-0.7-3.5-1.9-5-3.2c-1.1-1-2.2-2-3.5-2.8
		c-3.5-2-6.6-4.5-9.7-7.1c-1-0.8-2-1.7-3.1-2.1c-3.1-1.2-5.2-3.8-7.9-5.5c-3.4-2.2-6.6-4.9-9.9-7.2c-2-1.5-4.2-2.8-6.2-4.3
		c-1.1-0.8-2-1.8-3.1-2.6c-1.5-1-3.2-1.9-4.6-2.9c-3.1-2.4-6.1-4.8-9.2-7.2c-0.3-0.3-0.7-0.5-1-0.7c-3.9-2.7-7.8-5.4-11.6-8.2
		c-2.8-2-5.6-4.2-8.5-6.2c-1.8-1.3-3.7-2.5-5.5-3.8c-1.1-0.8-2.1-1.6-3.2-2.4c-1.2-0.9-2.4-1.8-3.6-2.7c-2.9-2.1-5.7-4.3-8.6-6.4
		c-1.1-0.8-2.2-1.8-3.4-2.6c-3.8-2.6-7.6-5.1-11.1-8.1c-1-0.8-2.3-1.3-3.4-2.1c-1.1-0.8-2.2-1.8-3.3-2.6c-1.9-1.4-3.9-2.6-5.8-4
		c-1.1-0.8-2.3-1.6-3.3-2.6c-2.5-2.4-6.1-3.4-8.4-6.3c-1-1.3-2.4-1.3-3.7-0.2c-0.9,0.7-1.7,1.6-2.7,2.3c-3.6,2.5-7.3,5-10.9,7.5
		c-1.9,1.4-3.6,3-5.5,4.4c-2.7,2-5.5,4-8.3,6c-2.4,1.7-4.8,3.3-7.2,5c-0.4,0.3-0.7,0.7-1.1,1c-1.9,1.5-3.8,3-5.7,4.5
		c-1.3,0.9-2.6,1.8-3.9,2.7c-0.5,0.3-0.9,0.7-1.4,1c-3.2,2.3-6.4,4.5-9.5,6.8c-1.7,1.3-3.3,2.8-5,4c-3.3,2.4-6.7,4.6-10,7
		c-3.8,2.8-7.6,5.7-11.4,8.6c-1.3,1-2.8,1.8-4.1,2.8c-3.9,3-7.8,6-11.7,8.9c-0.1,0.1-0.3,0.1-0.4,0.2c-1.2,0.9-2.5,1.7-3.7,2.6
		c-2.2,1.6-4.2,3.4-7.2,4.6c0-2.3-0.1-4.4,0-6.3c0.2-5.6,0.5-11.2,0-16.8c-0.2-2.4-0.1-4.8,0-7.2c0-2.9,0.3-5.8,0.2-8.7
		c-0.1-2.7-0.4-5.3,0.2-8c0.1-0.6,0.1-1.2,0.1-1.8c-0.3-3.1-1-6.1,0-9.2c0-0.1,0-0.3,0-0.5c-0.1-6-0.3-12-0.3-18
		c0-2.7,0.2-5.3,0.3-8c0.1-1.4-0.3-1.8-1.7-1.8c-2.3,0-4.7,0.1-7,0c-2.3,0-4.7-0.1-7-0.1c-3.6,0-7.1,0-10.7,0.1c-3.8,0-7.6,0-11.4,0
		c-2.7,0-5.5-0.2-8.2-0.2c-2.8,0-5.7,0.4-8.5,0.2c-5.3-0.4-10.5,0.1-15.8,0.2c-3.4,0-6.8-0.3-10.2-0.1c-3.6,0.2-7.3-0.3-11-0.5
		c-1.5-0.1-1.8,0.3-1.6,1.7c0.1,0.7,0.3,1.3,0.2,2c-0.9,4.8,0,9.7-0.2,14.5c-0.1,3.2-0.1,6.4,0.2,9.7c0.3,3.2-0.2,6.5-0.2,9.7
		c0,3.8,0.2,7.6,0.2,11.5c0,0.5-0.2,1-0.2,1.5c-0.1,1-0.2,2-0.2,3c0.1,3.2,0.5,6.5,0.4,9.7c-0.1,5.2-1,10.5,0.1,15.7
		c0.1,0.2,0,0.5,0,0.8c-0.1,5.7-0.1,11.4-0.2,17c0,1-0.2,2-0.2,3c0,0.7,0,1.5,0,2.2c0,1.9,0.1,3.8,0.1,5.7c0,4.5,0,9,0.1,13.5
		c0,3.3,0.1,6.7,0.1,10c0,2.4-0.2,4.8-0.2,7.2c0,4,0.3,8,0,12c-0.3,3.7,0.2,7.3-0.1,11c-0.4,5.2,0,10.4,0,15.7
		c0,1.5-0.5,3.1-0.1,4.5c0.6,2.1,0,4.1,0,6.2c0,2.3,0.1,4.7,0.2,7c0,0.5,0.1,1,0.1,1.5c-0.1,3.2-0.4,6.5-0.4,9.7c0,4,0.4,8,0.4,12
		c0,6-0.2,12-0.2,18c0,2,0.2,4,0.2,6c0,5.2-0.2,10.3-0.2,15.5c0,3.9-0.1,7.8,0,11.8c0.1,2.8-0.4,5.7,0.3,8.5c0.1,0.4-0.1,1-0.1,1.5
		c-0.1,1.1-0.1,2.1-0.2,3.2c0,1.1,0,2.2-0.1,3.2c0,0.7-0.1,1.3,0,2c0.1,1.1,0.3,2.1,0.3,3.2c0,2.2-0.3,4.3,0.2,6.5
		c0.2,0.9,0.4,1.9,0.3,2.8c0,0.6-0.2,1.1-0.3,1.7c0,0.6,0,1.2-0.2,1.9c-0.1,0.3,0,0.5,0,0.8c-0.1,0.2-0.2,0.2-0.3,0.5
		c-0.1,0.5,0.1,0.8,0.5,1.1c0.4,0.4,0.5,0.7,0.6,1.2c0.1,0.5,0.2,0.9,0.2,1.5c0,0.5-0.1,0.8-0.2,1.3c-0.1,0.4-0.2,0.8-0.3,1.2
		c-0.1,0.4-0.4,0.8-0.5,1.3c0,0.6,0,1.2,0,1.8c0,1-0.1,2,0.2,3c0.3,1,0.1,2.2,0.1,3.2c0,0.9-0.2,2.1,0,3c0.1,0.2,0.2,0.2,0.3,0.5
		c0.1,0.2,0,0.5,0,0.8c0,0.6,0,1.2,0,1.8c0,0.6,0.2,1,0.2,1.5c0,0.3,0.1,0.5,0.2,0.8c0.1,0.3,0,0.5,0,0.8c0.1,0.2,0.2,0.2,0.3,0.5
		c0.1,0.2-0.1,0.5,0,0.8c0.1,0.2,0.2,0.2,0.3,0.5c0.1,0.3,0,0.7,0,1c0,0.9-0.1,1.7-0.5,2.5c-0.2,0.5-0.3,1-0.5,1.5
		c-0.1,0.2-0.3,0.5-0.3,0.8c0,0.4,0.2,0.4,0.3,0.7c0.2,0.9-0.1,2.1-0.4,2.8c-0.4,0.9-0.8,1.9-1,2.9c-0.1,0.5-0.1,1.2-0.1,1.8
		c0,0.3,0.1,0.5,0.2,0.8c0.1,0.3,0,0.7,0,1c0.1,0.5,0.4,0.9,0.3,1.5c-0.1,0.6-0.5,1-0.5,1.5c0,0.2,0,0.6,0,0.8
		c0.1,0.5,0,0.4,0.5,0.5c0.6,0.1,0.9,0,1,0.7c0.2,0.9-0.6,1.8-0.5,2.7c0,1.2,0,2.3,0,3.5c-0.1,2.7-0.2,5.3-0.2,8c0,7,0.1,14,0.2,21
		c0,1.9,0,3.8,0,5.8c-0.1,2.1-0.5,4.3-0.3,6.4c0.3,3.2,0.5,6.4,0.1,9.7c-0.1,1.3,0,2.6,0,4.3c3.6-0.2,7.1-0.4,10.7-0.5
		c5.1,0,10.2,0.1,15.3,0.1c2.1,0,4.2,0.2,6.3,0.2c1.2,0,2.5-0.6,3.7-0.4c2.7,0.6,5.3,0.2,8,0.2c6.9-0.1,13.9-0.1,20.8,0
		c1.2,0,2.4,0.4,3.5,0.1c3.9-0.9,7.8,0.1,11.6-0.2c4-0.3,8.1,0.2,12.2,0.2c3.8,0,7.6-0.1,11.4-0.2c0.9,0,1.9-0.2,2.7-0.1
		c4.7,1,9.5,0,14.2,0.2c3.4,0.2,6.8-0.2,10.2-0.1c3.7,0,7.5,0.3,11.2,0.2c5.5,0,11-0.2,16.5-0.3c0.8,0,1.7,0,2.5,0
		c3.3,0,6.7,0.3,10,0c4.8-0.4,9.6,0,14.4,0.2c0.7,0,1.3,0,2,0c3.6-0.1,7.2-0.3,10.8-0.4c0.7,0,1.3,0.2,2,0.2c2.2,0,4.3,0,6.5,0
		c0.7,0,1.4-0.3,2-0.2c2.6,0.5,5.1,0.1,7.7,0c4.6-0.1,9.3,0.2,14-0.1c0.5,0,1,0.1,1.5,0.1c1.3,0,2.6,0.2,4,0.1
		c1.9-0.1,3.8-0.5,5.7,0.3c0.4,0.2,1,0.1,1.5,0c4.1-0.2,8.2-0.3,12.2-0.5c4.1-0.2,8.3,1.2,12.4,0c0.2-0.1,0.5,0,0.7,0.1
		c2.7,0.2,5.3,0.5,8,0.5c1.3,0,2.7-0.7,4-0.4c2.6,0.6,5.2,0.1,7.7,0.1c5.5,0,11,0,16.5,0c2.2,0,4.5-0.1,6.7-0.1c3,0,5.9,0,8.9,0.1
		c1.1,0,2.2,0,3.3,0c2.8,0.1,5.7,0.2,8.5,0.2c3.9,0,7.8-0.2,11.7-0.3c2.8,0,5.6,0,8.5,0.1c1.6,0,3.1,0.3,4.7,0.2
		c3.4-0.1,6.8-0.1,10.2-0.4c4.5-0.4,9,0.3,13.5,0c5.1-0.2,10.3-0.4,15.5,0.4c0.7,0.1,1.5,0,2.2,0c2.5-0.1,5-0.4,7.5-0.4
		c2.1,0,2.4-0.1,2.4-2.1c0-2.6-0.4-5.2,0.3-7.7c0-0.2,0-0.3,0-0.5C408.5,557.6,409.5,554.5,409.1,551.4z M404.5,319.5
		c0,4.3,0,8.6,0,12.9c0.1,5.6,0.2,11.2,0.2,16.8c0,3.2-0.2,6.5-0.3,9.7c0,1.7,0,3.5,0,5.2c0,1.9-0.5,2.5-2.1,2.9
		c-4.3,0.9-8.5,0.7-12.4-1.4c-2.9-1.6-3.9-3.4-3.2-6.6c1-4.5,2.2-9,3.4-13.5c0.9-3.4,2.1-6.6,3.2-10c0.2-0.5,0.4-0.9,0.6-1.4
		c1-1.8,2.1-3.4,2.9-5.2c1.8-3.7,4.7-6.6,7.1-9.8C404.1,319.3,404.3,319.4,404.5,319.5z M368.8,355.7c0.4-1.2,0.5-2.5,0.9-3.6
		c1.5-4.1,3.2-8,5.4-11.7c1.9-3.2,3.9-6.4,6.3-9.3c0.7-0.8,1.6-1.5,2.4-2.2c1.6-1.5,3.1-3.1,4.8-4.4c2.2-1.6,4.6-3,6.9-4.5
		c0.2-0.2,0.6-0.1,1.4-0.3c-0.7,1.3-1,2.3-1.6,3.1c-2.1,2.6-3.4,5.7-4.9,8.6c-2.5,4.9-4.1,10.1-5.7,15.3c-1.2,3.9-1.8,7.9-2.6,11.9
		c-0.5,2.3-0.9,2.7-3.2,3.1c-2.4,0.4-4.7,0-6.9-0.6C368.8,360.3,367.9,358.6,368.8,355.7z M365.9,349.6c-0.3,2.1-2.1,3.1-4.1,2.4
		c-1.5-0.5-3.5-0.2-4.3-2.1c2.6-6.2,17-21.8,21.8-23.4c-1.5,1.8-2.7,3.3-3.9,4.9c-1.6,2.1-3.4,4-4.5,6.3
		C369,341.6,366.6,345.2,365.9,349.6z M370.1,289.6c5.3,3.8,10.7,7.5,16,11.3c5.3,3.8,10.5,7.8,16,11.8c-1.4,0.9-2.8,1.3-4.1,1.2
		c-2.8-0.1-5.2,0.9-7.8,1.6c-2.9,0.8-5.7,1.8-8.2,3.6c-3.6,2.4-7.3,4.6-11.2,6.9c0.1-0.7,0-1.2,0.2-1.7c0.7-2.7,1.5-5.3,2.2-7.9
		c0.1-0.5,0.3-1,0.4-1.5c0.2-3.4,0.7-6.9,0.3-10.2c-0.5-4.4-1.3-8.9-3.6-12.9c-0.3-0.5-0.4-1.2-0.7-1.8
		C369.8,289.9,369.9,289.7,370.1,289.6z M369.1,304.3c0.5,2.2,0.2,4.4,0,6.7c-0.4,4.4-2,8.4-3.2,12.6c-1.5,5.1-4.6,9.3-8,13.8
		c-0.2-3.2-0.3-6-0.4-8.7c0-1.1,0-2.2,0-3.3c0-0.9,0.1-1.8-0.1-2.7c-0.5-2.9-1-5.7-1.6-8.6c-0.3-1.5-0.2-2.7,0.7-4
		c1-1.4,1.5-3,3-4.2c2.1-1.7,4.4-2.7,6.9-3.4C368.4,302.1,368.7,302.3,369.1,304.3z M103.6,244.8c4.6-3.4,9.2-6.7,13.7-10.1
		c0.6-0.4,1.3-0.8,1.8-1.4c2.9-3,6.6-4.8,9.8-7.3c2.3-1.8,4.6-3.5,7-5.3c1.4-1,2.8-2.1,4.2-3.1c2.1-1.5,4.3-2.9,6.3-4.5
		c2.6-2,5-4.1,7.7-6c5-3.6,10.1-7,15-10.6c2.7-2,5.3-4.3,7.9-6.3c1.9-1.5,3.9-2.9,5.8-4.3c1.6-1.2,3.3-2.3,4.9-3.4
		c2-1.4,4-2.7,5.9-4.2c2.4-1.8,4.5-3.9,7.3-5.2c1.6-0.7,2.8-2.3,4.5-3.8c2.6,2.1,5,4.3,7.6,6.2c3.8,2.8,7.7,5.3,11.5,8
		c2.2,1.6,4.4,3.2,6.6,4.9c1,0.7,2,1.5,3,2.3c4.2,3,8.5,5.9,12.7,8.9c2.5,1.8,4.8,3.8,7.2,5.7c1.7,1.3,3.5,2.5,5.3,3.8
		c2.8,2,5.7,3.9,8.5,5.9c2.6,1.8,5.2,3.6,7.7,5.5c2.1,1.6,4.1,3.4,6.2,5c2.5,1.8,5.1,3.5,7.6,5.2c3.1,2.1,6.2,4.2,9.2,6.5
		c2.8,2.1,5.4,4.4,8.2,6.5c1.3,1,2.7,1.7,4,2.6c3.9,2.8,7.9,5.6,11.8,8.4c3.4,2.5,6.6,5.1,10,7.5c2,1.5,4.1,2.8,6.2,4.2
		c2.7,1.7,5.3,3.5,7.5,5.8c1.2,1.2,2.9,1.9,4.4,2.9c1.5,1.1,3.1,2.3,4.5,3.6c1.4,1.3,2.7,2.7,4,4.1c0.6,0.6,1.4,1.1,1.8,1.8
		c2.2,3.9,4.3,7.9,6.5,11.9c0.2,0.4,0.2,0.9,0.2,1.2c-2.7,0.9-5.5,1.4-7.8,2.7c-2.3,1.3-4.2,3.4-6.5,5.2c-0.9-1.9-1.7-3.9-2.7-5.9
		c-0.8-1.7-1.7-3.4-2.7-5.1c-0.8-1.2-1.9-1.5-3-1c-1.1,0.5-1.4,1.6-0.9,3c0.3,0.9,0.5,1.9,1.1,2.5c1.6,1.7,2.2,3.6,2.6,5.8
		c0.2,1,0.8,2,1.3,3c0.7,1.2,1.2,2.4,1,4c-8.4,0.4-15,3.9-18.8,11.9c-1.4-1.3-2.5-2.4-3.7-3.5c-0.4-0.4-0.8-1-1.3-1.2
		c-0.7-0.2-1.8-0.5-2.3-0.2c-0.5,0.3-0.7,1.4-0.6,2.2c0,0.6,0.5,1.2,0.8,1.8c1.5,2.1,3.1,4.1,4.7,6.2c0.2,0.3,0.3,0.7,0.6,1.4
		c-1.7,0.4-3.1,1-4.7,1.2c-2.5,0.3-4.9,0.8-7.1,2.2c-1.9,1.2-3.9,2.2-5.8,3.5c-3.5,2.3-5.7,5.7-8,9.1c-0.4,0.5-0.7,1.1-1.2,1.7
		c-0.5-0.2-0.9-0.3-1.2-0.6c-1.1-0.8-2.2-1.7-3.3-2.5c-0.8-0.6-1.6-1.2-2.4-1.8c-0.5-0.4-1.3-0.9-1.6-1.5c-0.4-0.7,0.1-1.4,0.4-2
		c0.2-0.4,0.6-1.3,0-1.7c-0.4-0.2-1,0.2-1.3,0.3c-0.8,0.4-1.6,0.8-2.3,1.3c-0.4,0.3-0.9,0.6-1.4,0.9c-0.1,0.1-0.1,0.2-0.2,0.3
		c-0.1,0.1-0.3,0.1-0.4,0.2c-0.2,0.1-0.3,0.3-0.6,0.3c-0.2,0-0.4,0-0.5,0.1c-0.5,0.1-1-0.1-1.4-0.3c-3.8-1.9-8.5-2.2-12.6-2.6
		c-3.1-0.3-6.1-0.3-9.3-0.5c-1.7-3.6-1.8-7.5-2.3-11.8c0-0.1-0.1-0.1-0.1-0.2c0-0.1,0-0.2,0-0.4c-0.1-0.5-0.1-1-0.2-1.6
		c0,0,0,0,0.1,0c-0.6-0.4-0.2-3.4-0.4-4.2c-0.3-1-0.2-1.8-0.8-2.6c-0.5-0.7-1.5-1-2.1-1.5c-1-0.9-2.1-1.7-3.1-2.6
		c-0.4-0.3-0.7-0.7-1.2-1c-1.1-0.6-2-1.6-3-2.4c-2.9-2.2-5.8-4.5-8.8-6.7c-3.9-2.8-7.9-5.6-11.8-8.4c-1.7-1.3-3.4-2.7-5.1-4
		c-3.4-2.6-6.8-5.1-10.1-7.7c-1.1-0.8-2.1-1.7-3.1-2.5c-2.1-1.6-3.1-1.5-5,0.2c-1,0.9-2.3,1.6-3.4,2.5c-0.5,0.4-1,0.9-1.5,1.3
		c-2.3,1.7-4.5,3.7-6.9,5.2c-0.3,0.2-0.3,0-0.5,0.3c-0.1,0.2-0.1,0.3-0.2,0.5c-0.2,0.2-0.5,0.2-0.7,0.4c0,0.1-0.1,0.3-0.1,0.4
		c-0.1,0.2-0.3,0.5-0.4,0.8c-0.1,0.5,0,0.7-0.3,1c-0.2,0.2-0.5,0.2-0.7,0.3c-0.2,0.1-0.5,0.4-0.8,0.5c-0.2,0-0.4,0-0.5,0
		c-0.1,0-0.2,0.1-0.3,0.2c-1.4,0.3-2.9-0.4-3.6,1.1c-0.3,0.6-0.4,1.1-1.1,1.5c-0.6,0.4-1.2,0.6-1.7,1c0.2,0.5,0.8,0.9,0.7,1.4
		c-0.1,0.6-0.6,0.8-1,1c-0.5,0.2-1,0.5-1.4,0.8c-0.2,0.1-0.3,0.4-0.5,0.5c-0.2,0.1-0.3,0.1-0.5,0.2c-0.5,0.3-0.9,0.7-1.5,1
		c-0.4,0.2-0.6,0.4-1,0.7c-0.5,0.4-1,0.7-1.6,1c-0.6,0.3-1.2,0.4-1.8,0.7c-1,0.5-0.8,2.1-1.7,2.8c-0.3,0.3-1.1,0.6-1.5,0.6
		c-0.2,0-0.4-0.3-0.8-0.2c-0.2,0.1-0.3,0.2-0.4,0.3c-1.7,1.5-3.4,3.5-5.5,4.3c-1,0.4-1.8,1.2-2.7,1.9c-1,0.8-2,1.6-3,2.5
		c-2.9,2.3-5.6,4.7-8.5,7c-1.1,0.9-1.7,0.9-2.5-0.4c-3-4.9-6.6-9.5-8.9-14.8c-0.5-1.3-0.7-2.8-0.8-4.2c-0.6-6.7-1.3-13.4-3.2-19.9
		c-0.8-2.6-1.1-5.4-2.3-7.9c-1.2-2.4-2-5.1-3.9-7.2c-2.1-2.3-3.7-5.1-5.6-7.7c-0.2-0.3-0.3-0.6-0.6-0.8c-3.4-2.8-6.7-5.7-10.2-8.4
		c-1.5-1.1-3.4-1.8-5.1-2.6c-0.7-0.4-1.5-0.6-2.3-1c-1.6-0.8-3.1-1.7-4.9-2.7C101.9,245.9,102.8,245.3,103.6,244.8z M338.4,506
		c-0.7-0.4-1.5-0.7-2.2-1.2c-3-2.2-6.2-4.2-9-6.8c-2.1-2-5.3-2.6-6.8-5.4c-0.1-0.1-0.5-0.2-0.7-0.3c-0.2-0.1-0.5-0.3-0.7-0.4
		c-0.4-0.3-0.8-0.7-1.3-0.9c-0.4-0.2-0.7-0.1-1.1-0.4c-0.3-0.3-0.6-0.7-0.9-0.8c-0.1,0-0.3-0.1-0.4-0.1c-0.1,0-0.3-0.1-0.3-0.2
		c-0.3-0.1-0.6,0-0.8,0.1c-0.2,0.1-0.4,0.3-0.6,0.4c-0.1,0-0.4,0-0.5,0c-0.3,0-0.2,0-0.3-0.2c-0.4-0.4-0.5-0.9-0.9-1.3
		c-0.2-0.3-0.4-0.2-0.6-0.5c-0.2-0.3-0.4-0.7-0.6-1c-0.1-0.1-0.3-0.1-0.4-0.2c-0.1-0.1-0.2-0.3-0.2-0.5c-0.1-0.4-0.3-0.7-0.5-1
		c-0.2-0.5-0.4-1.3-0.8-1.6c-0.2-0.2-0.4-0.2-0.7-0.4c-0.3-0.2-0.5-0.1-0.8-0.2c-0.3-0.1-0.6-0.3-0.9-0.4c-0.3-0.1-0.7,0-1,0
		c-0.7-0.2-0.7-0.7-1.1-1.2c-0.4-0.4-0.8-0.9-1.2-1.4c-0.3-0.4-0.8-0.7-1.1-1.1c-0.5-0.6-0.8-1-1.5-1.4c-0.6-0.3-1-1-1.7-1.3
		c-1.5-0.8-3.4-1.2-4.4-2.7c-0.4-0.5-0.6-1-1.2-1.3c-0.8-0.5-1.6-1-2.3-1.5c-1.4-1-2.7-2.2-4.1-3.2c-2.1-1.6-4.2-3.3-6.3-4.9
		c-4.6-3.5-9.2-6.9-13.9-10.3c-0.7-0.5-1.5-1.1-2.2-1.6c-3.3-2.4-6.5-4.9-9.8-7.3c-2.3-1.7-4.7-3.4-7.1-5.1
		c-0.8-0.6-1.5-1.3-2.3-1.9c-2.6-2-5.1-4-7.8-5.9c-2.6-1.9-5.2-3.6-7.7-5.5c-1.2-0.9-2.2-2-3.3-3c-0.3-0.3-0.6-0.5-1-0.8
		c-2.4-1.7-4.9-3.4-7.3-5.2c-0.9-0.7-1.8-0.9-2.8-0.4c-0.5,0.2-1.1,0.5-1.6,0.8c-2.6,2.1-5.2,4.3-7.9,6.5c-2,1.6-4,3.2-6.1,4.8
		c-1.4,1.1-2.8,2.1-4.2,3.1c-2.3,1.7-4.6,3.4-6.8,5.1c-1.2,0.9-2.1,2.3-3.3,3c-4.7,2.4-8.1,6.4-12.3,9.5c-4.4,3.3-8.9,6.6-13.2,9.9
		c-1.7,1.3-3.2,2.9-4.9,4.2c-0.8,0.6-1.7,1.1-2.5,1.6c-0.3,0.2-0.7,0.3-0.9,0.5c-1.5,2.1-3.9,3-5.8,4.5c-2.1,1.7-4.2,3.5-6.4,5.2
		c-1.6,1.2-3.3,2.3-4.8,3.5c-1.4,1.1-2.7,2.4-4.1,3.6c-0.5,0.4-1,0.9-1.6,1.2c-3.3,1.7-6,4.1-8.8,6.5c-2.2,2-4.7,3.7-7.1,5.5
		c-2.5,2-5,3.9-7.4,5.9c-0.4,0.3-0.8,0.5-1.4,1c-0.1-2-0.3-3.6-0.3-5.2c-0.1-4.4-0.1-8.8-0.1-13.3c0-3.8,0.1-7.7,0.1-11.5
		c0-4.5-0.2-9-0.2-13.5c0-3.4,0.2-6.8,0.2-10.2c0-0.9-0.2-1.8-0.2-2.7c0-1.6,0.1-3.1,0.1-4.7c0-1.8,0-3.7-0.1-5.5
		c0-2.2,0-4.3-0.2-6.5c-0.1-1.5-0.2-3.1-0.3-4.6c-0.1-2-0.3-4.1-0.6-6.1c-0.2-1.5-0.5-2.9-0.5-4.4c0.1-3.1-0.1-6.3,1.8-8.9
		c0.8-1,1.8-2,2.4-3.1c0.6-1.2,1.7-2.5,2.7-3.4c0.9-0.9,2.9,0,4.1-0.2c4.4-0.9,8.7-1.7,12.8-3.9c4.3-2.4,6.6-5.7,8.1-10.1
		c1.6-4.5,3-9,3.8-13.7c0.4-2.4,0.3-4.8,0.8-7.2c0.8-4,0.7-8,1-12c0.2-2.8,0.4-3.1,3.3-3.2c3.1-0.2,6.2,0.1,9.2-0.8
		c1-0.3,2.1-0.5,3.1-0.8c3-1,4.3-3.8,3-6.7c-1.1-2.4-2.5-4.7-3.7-7.1c-0.5-1-1.1-2-1.8-3.1c1.3-1,2.6-1.9,3.7-2.8
		c3-2.4,5.8-5,8.8-7.3c1.7-1.4,3.8-2.4,5.5-3.9c2.3-2.1,4.6-4.2,7.4-5.5c0.3-0.1,0.6-0.3,0.8-0.6c4.2-4.9,10.4-7.4,14.8-12.2
		c0.9-1,2.2-1.5,3.2-2.3c0.9-0.7,1.8-1.5,2.7-2.2c0.3-0.2,0.5-0.5,0.7-0.7c3.1-2.3,6.1-4.6,9.4-7c0.9,0.7,2,1.7,3.1,2.6
		c1.1,0.9,2.3,1.7,3.4,2.6c3.5,2.7,6.8,5.7,10.5,8c2,1.3,3.6,2.9,5.5,4.2c2.6,1.8,5,3.9,7.5,5.7c4.5,3.2,8.9,6.3,13.3,9.7
		c2.8,2.1,3.5,4.5,3.6,7.6c0.1,1.7,0.8,3.3,0.8,4.9c0.2,4.5,1.8,8.6,2.5,13c0.5,2.7,1.9,5.3,2.9,7.9c0.1,0.4,0.3,0.8,0.4,1.2
		c1.6,6.2,4.9,11.6,8.3,17c1.3,2.1,2.9,4.1,4.4,6c1.1,1.4,2.1,1.6,3.5,0.9c0.8-0.4,1.2-1,1.3-1.9c0.5-3.8,0.9-7.6,1.8-11.3
		c0.7-2.8,2-5.5,3-8.2c0.4-1.2,0.9-2.3,1.4-3.5c0.2-0.5,0.4-1,0.7-1.3c3.1-4,3.4-3.9,7-0.9c1.1,0.9,2.4,1.5,3.5,2.4
		c2.4,1.8,4.8,3.6,7.2,5.4c1.1,0.9,2.2,1.7,3.4,2.6c1.8,1.4,3.5,2.8,5.3,4.2c0.5,0.4,0.9,0.7,1.4,1c1.8,1.3,3.6,2.7,5.4,4
		c3.2,2.4,6.5,4.8,9.7,7.1c2.4,1.7,5,3.4,7.4,5.1c0.4,0.3,0.7,1,0.7,1.4c0,6.6-0.1,13.1-0.2,19.7c0,1.8,0.2,3.7,0.2,5.5
		c0,1.3-0.1,2.6-0.2,3.9c0,0.3-0.1,0.7-0.1,1c0.1,3.1,0.7,6.2,0.3,9.2c-0.4,3.5-0.1,7,0.1,10.4c0.2,4.8-1.2,9.7,0.1,14.5
		c0,0.2,0,0.3,0,0.5c-0.8,5.2-0.2,10.5-0.2,15.7c0,4.7,0.3,9.3,0.3,14c0,2.7-0.3,5.3-0.4,8c-0.1,5.6-0.2,11.2-0.2,16.8
		C339,502.7,339.6,504.3,338.4,506z M196,456.1c3.4-2.1,6.6-4.6,10.3-6.2c4.1-1.8,8.5-2.8,12.8-4.1c3.3-0.9,6.6-1.7,9.9-2.4
		c0.6-0.1,1-0.1,1.6-0.1c0.6,0,1.2-0.2,1.8-0.2c0.8,0,1.5,0,2.2,0c0.8,0,1.3,0.1,2,0.5c0.6,0.3,1.1,0.3,1.8,0.5
		c0.3,0.1,0.5,0.3,0.7,0.5c0.3,0.3,0.6,0.3,1,0.5c0.3,0.2,0.5,0.3,0.8,0.4c0.4,0.2,0.9,0.2,1.3,0.4c0.6,0.3,1.1,0.6,1.7,0.9
		c0.5,0.2,1.2,0.4,1.7,0.7c0.4,0.3,0.7,0.7,1,1c0.2,0.2,0.5,0.3,0.8,0.4c0.2,0.2,0.4,0.4,0.7,0.6c0.5,0.4,1.2,0.6,1.6,1.2
		c0.4,0.5,0.8,1.3,1.1,1.9c0.2,0.5,0.4,1.1,0.6,1.6c0.1,0.3,0.3,0.7,0.3,0.9c0,0.3-0.3,0.8-0.5,1.1c-0.7,1.5-2.2,2.1-3.8,2.1
		c-2.2,0-4.3,0.2-6.5,0.3c-4.5,0.1-9,0.2-13.5,0.2c-3.3,0-6.6-0.5-9.9-0.5c-4.1,0-8.1,0.2-12.2,0.3c-3.2,0.1-6.3,0.1-9.5,0
		c-0.5,0-1.1-0.3-2.1-0.6C194.6,457.4,195.2,456.6,196,456.1z M191.6,453.7c-1.5,1.3-2.9,2.7-4.3,4.2c-0.8,0.8-1.6,1.1-2.7,1.1
		c-1.8,0-3.7,0.1-5.5,0.1c-2.8-0.1-5.6-0.2-8.4-0.4c-0.4,0-0.8-0.1-1.3-0.2c0-1.4,1-1.9,1.8-2.5c3.7-2.9,7.3-5.7,11-8.6
		c0.7-0.6,1.5-1.1,2.2-1.7c2.1-1.6,4.2-3.3,6.2-4.9c0.9-0.7,1.8-1.3,2.7-1.9c0.6-0.4,1.3-0.7,1.9-1.2c3.4-2.7,6.6-5.5,10-8.2
		c2.6-2.1,5.4-4,8.1-6.1c1-0.8,2-1.8,3-2.7c7.6,5.7,15.1,11.3,22.7,17c0,0.2-0.1,0.4-0.1,0.6c-0.9,0-1.8,0.1-2.6,0.1
		c-1.7,0.1-3.3,0.1-5,0.3c-2.7,0.3-5.4,0.8-8.2,1.2c-4.8,0.6-9.3,2.6-13.9,4c-4.2,1.3-8.1,3.3-11.8,5.5
		C195.3,450.5,193.4,452.1,191.6,453.7z M70.2,354.7c-2.9-2.8-6-5.3-9-7.9c-3.5-3.1-6.8-6.7-8-11.3c-1.2-4.4-2.1-9.2,1.4-13.4
		c1-1.1,1.8-2.4,3-3.3c2.9-2.2,6.8-1.6,8.6,1.5c1.6,2.6,3.1,5.4,4.4,8.1c0.8,1.8,1.2,3.7,1.9,5.6c0.3,0.8,0.5,1.6,0.9,2.4
		c0.5,1.1,1.4,1.6,2.6,1.5c3.2-0.2,6.5-0.4,9.7-0.6c1.6-0.1,2.8-1.3,2.7-3c-0.1-2.5-0.5-5-0.7-7.4c-0.1-1.2-0.1-2.5-0.2-3.8
		c-0.1-3.1-0.2-6.2-0.3-9.2c0-1.7,0.1-3.5,0.1-5.2c0-1,0.2-2,0.1-3c-0.1-1.5,0.1-2.8,0.8-4.1c0.4-0.7,0.4-1.6,0.6-2.4
		c0.8-4.3,2.2-8.4,4.7-12c1-1.4,2.3-2.6,3.7-3.7c3.9-3.3,8.6-5.2,13.3-6.8c3.9-1.3,7.9-2.3,12.1-1.8c1.2,0.1,2.5,0,3.7-0.3
		c1.3-0.3,2.1,0.2,2.6,1.4c1.1,3,2.4,5.9,3.3,8.9c0.6,2.1,0.8,4.4,1.2,6.6c0.4,2.5,1,4.9,1.4,7.4c0.2,1.5,0.3,3,0.4,4.5
		c0.1,1.3-0.6,1.8-1.9,1.8c-5.4-0.1-10.8-0.1-16.2-0.1c-1.7,0-3.3,0.1-5,0.2c-1.4,0.1-2,1.4-1.7,2.6c0.3,1.4,2.1,1.5,3.2,1.7
		c0.4,0.1,0.8,0.2,1.2,0.2c0.2,0,0.3,0.1,0.5,0.1c0.2,0,0.3,0,0.5,0c0.4,0,0.7,0.1,1.1,0.1c0.6,0,1.2,0,1.8,0c0.3,0,0.5,0.1,0.8,0.1
		c0.2,0,0.5,0,0.7,0c0.3,0,0.7-0.1,1,0c0.3,0.1,0.6,0.2,0.9,0.3c0.1,0,0.3,0,0.4,0c0.2,0,0.3,0.1,0.5,0.1c0.3,0.1,0.5,0.1,0.7,0.1
		c0.2,0.1,0.5,0.1,0.7,0.2c0.4,0,0.7-0.1,1,0.1c0.4,0.2,0.9,0.3,1.4,0.4c0.2,0.1,0.5,0.2,0.8,0.3c0.1,0,0.2,0.1,0.4,0.2
		c0.2,0.1,0.3,0.1,0.5,0.1c0.5,0.1,0.9,0.4,1.4,0.6c0.3,0.1,0.6,0.1,0.9,0.3c0.2,0.1,0.4,0.3,0.6,0.4c0.4,0.2,0.8,0.3,1.2,0.4
		c0.2,0.1,0.4,0.2,0.6,0.3c0.2,0.1,0.5,0.3,0.8,0.4c0.7,0.6,1.5,1.2,2.1,2c0.4,0.4,0.6,0.9,0.5,1.5c-0.2,1.8-0.1,3.5-0.2,5.3
		c0,0.3,0,0.7-0.1,1c-0.1,2.1,0.2,4.2,0.2,6.3c0,3.9,0.3,7.8-0.3,11.7c-0.5,3.2-0.1,6.5-0.6,9.7c-0.5,3.5,0.3,7-1,10.4
		c-0.1,0.3-0.2,0.7-0.2,1c0,4.6-1.2,9.1-2.1,13.6c-0.8,3.6-1.6,7.2-3.7,10.3c-0.6,0.9-1.4,1.6-2.3,2.1c-1.6,1-3.1,1.9-4.8,2.5
		c-2.3,0.8-4.8,1.5-7.2,1.9c-2.4,0.4-4.8,0.4-7.2,0.4c-2.7,0.1-5.3,0-8,0c-1.7,0-2.7-0.8-3.3-2.2c-0.4-0.9-0.8-1.8-1.2-2.7
		c-0.3-0.7-0.5-1.4-1-2c-3-4-6.1-7.9-9.2-11.8c-0.3-0.4-0.7-0.7-1.1-1c-3.1-2-6.1-4-9.4-6.2c0.1-1.2,0.1-2.6,0.3-3.9
		C74.3,360.1,72.7,357.1,70.2,354.7z M140.9,320.5c0.2-0.1,0.3-0.2,0.5-0.3c1.5,2.2,3.2,4.1,4.4,6.5c0.5,1.1,1.3,2.1,1.9,3.2
		c1.3,2.1,2.6,4.3,3.9,6.4c0.7,1.1,1.4,2.1,2.1,3.1c1.1,1.5,0.8,2.4-1.1,2.9c-0.8,0.2-1.6,0.4-2.5,0.4c-3,0.1-5.8,0-7.6-1.5
		c-1-0.9-1.6-2.3-1.6-4.5c0-1.3,0-2.7,0-4c0-2.1,0-4.1,0-6.2c0-1,0-2,0-3.1c0-0.5,0-1,0-1.5C140.9,321.8,140.8,320.6,140.9,320.5z
		 M265.6,343.1c2.7,0,5-0.1,7.3,0c2.2,0.1,4.3,0.7,6.4,0.7c2.2,0,3.8,1.1,5.8,2.2c-3.7,6.7-6.5,13.5-7.9,20.8c-0.2,0-0.4,0-0.6,0.1
		c-1-1.5-2.1-2.9-3-4.4c-1-1.7-1.9-3.5-2.7-5.4c-1.4-3.4-2.8-6.8-4.1-10.2C266.5,345.8,266.1,344.6,265.6,343.1z M333.8,371.6
		c-2.1-1.5-3.9-3.4-5.9-4.9c-3.8-2.8-7.7-5.3-11.4-8c-3.2-2.4-6.3-4.9-9.5-7.4c1.5-3.9,3.7-7.1,7.1-9.7c3.6-2.8,7.7-4.3,11.9-5.6
		c1.6-0.5,3.2-0.7,4.9-0.9c1.5-0.1,2.2,1,2.8,2.2c2.8,6.1,4.4,12.6,5.3,19.2c0.3,2.2,0.9,4.4,1.1,6.6c0.3,3.2,0.3,6.5,0.4,9.7
		c0,0.8-0.1,1.6-0.3,2.6C337.4,374.7,335.7,373,333.8,371.6z M334.8,329.4c-0.2-0.5-0.4-1.2-0.2-1.6c0.6-1.4,1.2-2.7,2-4
		c0.4-0.7,1.1-1.2,1.6-1.9c2.7-3.9,6.7-5,11.1-5.1c1.5,0,2.8,1.1,3,2.5c0.3,3.1,0.8,6.1,0.8,9.2c0,4.6-0.5,9.1-1.3,13.6
		c-0.4,2.2-0.6,4.5-1.2,6.6c-1.2,4.4-2.7,8.8-4.7,12.9c-0.1,0.2-0.4,0.3-0.9,0.7c-0.2-1-0.5-1.7-0.5-2.5c0-5.1-1.6-9.9-2.9-14.7
		C340,339.6,337.5,334.4,334.8,329.4z M93.9,251.4c1.1-0.9,2.2-1.4,3.6-0.5c0.6,0.4,1.4,0.6,2.1,0.8c2.5,0.6,4.9,1.4,7,3.1
		c2.3,1.8,5.2,3,7.7,4.6c1.6,1,2.9,2.5,4.3,3.7c0.6,0.5,1,1.2,1.6,1.5c1.8,1.1,2.5,2.8,3.4,4.6c-2,0.8-3.9,1.1-5.9,1.4
		c-3.5,0.5-6.9,1.3-10.3,2c-0.7,0.1-1.5,0.3-2.2,0.5c-3.4,0.9-6.5,2.5-9.1,4.9c-0.9,0.8-1.9,1.4-2.8,2.1c-0.8,0.7-1.8,1.3-2.4,2.1
		c-1.2,1.6-2.3,3.3-3.3,5c-1.4,2.3-2.2,4.8-2.6,7.4c-0.4,2.4-1.2,4.7-1.8,7c-0.9,3.4-0.8,6.9-0.6,10.5c0.2,3.3,0,6.6,0,9.9
		c0,0.5,0,1,0,1.5c0.2,2.4,0.4,4.8,0.5,7.2c0.1,1.3-0.6,1.8-1.8,2c-0.2,0-0.3,0-0.5,0c-4.2,0-4.5,0.5-5.2-3.8
		c-0.5-2.6-1.7-4.9-3.1-7.1c-1.2-2-2.4-4-3.8-5.8c-3.2-3.8-8.6-4.3-12.9-1.7c-3.9,2.3-6.3,5.7-7.6,9.8c-0.7,2.3-1,4.8-0.8,7.2
		c0.4,3.2,0.9,6.5,3,9.2c0.3,0.3,0.5,0.7,0.6,1.1c1.4,3.6,4,6.3,6.6,9c0.5,0.5,1,1,1.6,1.2c2.9,1.1,4.9,3.5,7.2,5.3
		c2.6,2.1,2.7,5.2,2.6,8.3c0,0.9-0.8,1.4-1.6,1c-3.6-1.7-7.4-1-11.1-1.1c-4.1-0.1-8.3,0.4-12.3,2c-3.4,1.4-6.9,2.6-10.2,4
		c-1.7,0.7-3.3,1.7-4.7,2.8c-2.7,2.1-5.2,4.5-7.8,6.7c-0.2,0.2-0.5,0.4-0.9,0.6c-2.5-1.8-4.6-3.8-5.8-6.7c-0.7-1.7-2-3.1-2.8-4.7
		c-1.4-2.8-2.8-5.5-3.8-8.5c-1.1-3.4-2-6.9-2-10.5c0-5.3-0.2-10.5-0.2-15.8c0-2.9,0.4-5.8,0.4-8.7c0-2.6-0.2-5.1-0.3-7.7
		c-0.1-1.6,0.4-3,1.8-3.9c1.4-1,2.9-1.9,4.4-2.9c4.5-3.2,9-6.3,13.4-9.6c4.4-3.3,8.7-6.7,13-10.1c0.7-0.5,1.3-1.1,2-1.5
		c2-1,3.8-2.4,5.5-3.9c2.5-2.1,5.3-3.8,7.9-5.7c3.3-2.4,6.5-5,9.7-7.3c3.5-2.6,7.1-5,10.6-7.5c1.9-1.4,3.8-3,5.7-4.5
		c2.5-2.1,5-4.1,8-5.6c1.5-0.8,2.8-2.1,4.1-3.3C92.6,252.6,93.2,252,93.9,251.4z M17.1,385.8c-3.8,6-8.2,12.2-11,19.2
		c0-11.3,0-22.6,0-34.2C9.8,375.9,13.4,380.7,17.1,385.8z M54.2,266.3C54.3,266.3,54.3,266.2,54.2,266.3c0.8,1.3,1.6,2.6,2.4,3.9
		c0.4,0.7,0.9,1.3,1.5,2.1c-8.4,6.2-16.7,12.2-25.2,18.5c-1.7-3.3-2.4-6.5-2.9-9.8c1.4-0.5,2.8-1,4.2-1.7c0.6-0.3,1.3-0.5,1.9-0.8
		c0.6-0.3,1.5-0.6,2-1c0.4-0.3,0.6-0.4,1.1-0.6c0.4-0.2,0.8-0.4,1.2-0.6c0.3-0.2,0.7-0.5,1.1-0.6c0.3-0.1,0.7-0.2,0.9-0.4
		c0.5-0.4,1-0.8,1.6-1.1c0.6-0.3,1.3-0.6,1.8-1c0.3-0.3,0.5-0.4,0.9-0.6c0.3-0.1,0.7-0.3,1-0.5c0.6-0.4,1.2-1,1.8-1.4
		c0.6-0.4,1.1-0.9,1.7-1.3c0.3-0.2,0.5-0.3,0.7-0.6c0.3-0.3,0.5-0.3,0.8-0.5C53.3,267.7,53.7,266.9,54.2,266.3z M51.4,263.2
		c-0.4,0.4-0.9,0.8-1.3,1.3c-0.3,0.4-0.6,0.7-1,1c-0.3,0.2-0.6,0.3-0.9,0.6c-0.3,0.2-0.5,0.5-0.8,0.7c-0.6,0.3-1,0.6-1.5,1.1
		c-0.5,0.5-1.1,1-1.8,1.3c-0.6,0.3-1,0.8-1.5,1.2c-1.1,0.8-2.5,1.3-3.8,2c-0.6,0.4-1.1,0.7-1.8,1c-0.6,0.3-1.2,0.3-1.8,0.6
		c-1.2,0.6-2.5,1-3.8,1.3c-0.6,0.1-1.2,0.3-1.8,0.5c-0.1,0-0.1,0-0.2,0.1c0.1-4.1,0.9-8.1,1.1-12.1c0-0.7,0.2-1.3,0.4-1.9
		c0.3,0,0.5-0.1,0.7-0.2c0.3-0.1,0.6,0,0.9,0c0.4,0,0.6-0.2,1-0.3c0.4-0.1,0.9,0.1,1.3,0c0.3-0.1,0.4-0.2,0.7-0.3
		c0.6-0.1,1.2-0.3,1.7-0.5c0.7-0.2,1.3-0.4,2-0.7c0.7-0.2,1.4-0.3,2-0.6c1.1-0.5,2.3-1.1,3.3-1.9c1-0.8,2-1.6,2.9-2.4
		c0.1-0.1,0.2-0.1,0.3-0.2c0.8,1.8,1.7,3.6,2.6,5.4c0.4,0.8,0.9,1.6,1.3,2.4C51.8,262.7,51.6,262.9,51.4,263.2z M44.9,251.4
		c-1.4,0.9-2.8,1.8-4.2,2.5c-1,0.5-1.8,1-2.9,1.4c-0.9,0.3-2,0.5-2.9,0.9c-0.7,0.3-1.4,0.6-2.1,0.7c0.5-1.6,1.1-3.1,1.7-4.6
		c0.8-1.8,1.9-3.5,2.8-5.2c0.4-0.7,0.6-1.4,1-2c1.5-2.5,3-4.9,4.7-7.7c0.4,0.8,0.8,1.3,0.9,1.8c0.4,2,0.6,4,1,5.9
		c0.4,1.8,0.9,3.6,1.4,5.4C46,250.8,45.4,251.1,44.9,251.4z M6.1,175c0-3.9,0-7.8,0-11.9c0.7,0,1.3,0,1.9,0c1.5,0.1,3,0.1,4.4,0.2
		c0.4,0,0.8-0.1,1.2-0.1c4.1,0.1,8.1,0.3,12.2,0.3c3.2,0,6.3-0.3,9.5-0.3c4.3,0,8.7,0.2,13,0.3c2.4,0,4.8-0.1,7.2-0.3
		c3.2-0.2,6.3-0.2,9.4,0.2c1.9,0.3,3.8-0.2,5.7-0.2c1.7,0,3.5,0.1,5.2,0.1c2,0,4,0,6,0c1.6,0,3.1,0,4.7,0c1,0,2,0,3.2,0
		c0.1,2.7,0.2,5.4,0.1,8c-0.1,2.5-0.3,5.1-0.5,7.8c-0.5,0-1.1,0.1-1.7,0.1c-3.9,0.2-7.8,0.4-11.7,0.5c-1,0-2-0.2-3-0.2
		c-2.4,0-4.8,0.2-7.3,0.2c-2.5,0-5-0.2-7.5-0.2c-2.6,0-5.1,0-7.7-0.1c-4.5-0.3-8.9,0.2-13.4,0.2c-3.2,0-6.4,0-9.6,0
		c-3,0-6,0.1-8.9,0.1c-3.8-0.1-7.7-0.2-11.5-0.3c-1,0-1.3-0.7-1.3-1.5C5.9,176.8,6.1,175.9,6.1,175z M5.9,238.8c0-0.2,0-0.3,0-0.5
		c0.8-3.5-0.1-7,0-10.5c0.1-4,0.4-8,0.4-12c0-4.3-0.3-8.5-0.3-12.8c0-3.5,0.2-7,0.2-10.5c0-2.2-0.2-4.4-0.3-6.7c0-0.6,0-1.1,0-1.9
		c27.9,0,55.7,0,83.8,0c0,1.6,0,3.3,0,5c0,4.1,0,8.2,0.1,12.3c0,1.7,0,3.3,0.1,5c0,2,0.1,4,0.1,6c0,2.4-0.1,4.8-0.2,7.2
		c0,0.2-0.1,0.5-0.1,0.7c0,3.3,0.1,6.7,0.1,10c0,1,0,2,0.1,3c0.1,4.5,0.1,9,0.2,13.5c0,1.4-0.4,2.4-1.6,3.2
		c-4.7,3.2-9.1,6.7-13.5,10.3c-1.9,1.6-4.2,2.6-6.3,4.1c-1.5,1-2.9,2.3-4.3,3.4c-0.6,0.5-1.2,1.1-2,1.9c-0.6-0.8-1.1-1.4-1.6-2.1
		c-1.1-1.6-2.3-3.3-3.3-5c-0.8-1.3-1.6-2.7-2.2-4.2c-1.3-2.8-2.6-5.6-3.7-8.5c-0.8-2-1.2-4.1-1.8-6.2c-0.1-0.2,0-0.5-0.1-0.7
		c-1.6-3.5-1.2-7.4-1.8-11c-0.2-1.3-0.3-2.9-2.1-3.4c-1.9-0.5-2.8,0.9-3.7,2.1c-2.3,3-4.6,5.9-6.6,9.1c-1.5,2.4-2.9,4.8-3.6,7.6
		c-0.3,1-0.9,1.9-1.5,2.9c-0.5,0.9-1.3,1.7-1.4,2.6c-0.3,2.4-1.6,4.4-2.1,6.7c-0.5,2.3-1.3,4.6-1.2,7.1c0.1,2.5-0.5,5-0.7,7.5
		c-0.3,3.2-0.1,6.3,0.8,9.4c0.8,2.7,1.5,5.5,2.3,8.2c0.6,2.2,0.3,2.9-1.6,4.2c-3.2,2.2-6.5,4.4-9.7,6.6c-0.7,0.5-1.4,1.2-2,1.8
		c-0.4,0.3-0.7,0.8-1.1,1c-1.3,0.8-2.7,1.4-3.9,2.3c-1.2,0.8-2.3,1.9-3.6,3c0-3.9,0-7.4,0-10.8c0-2.4-0.2-4.8-0.2-7.2
		c0-4.6,0.1-9.1,0.2-13.7c0-0.6-0.2-1.2-0.1-1.7c0-1.2,0.1-2.5,0.2-3.7c0-0.4,0.1-0.8,0.1-1.2c-0.2-3.2-0.4-6.5-0.6-9.7
		c0-0.6-0.1-1.2,0-1.8c0.1-3.2,0.3-6.3,0.5-9.5c0-0.5,0.1-1,0-1.5C6.2,246.1,6,242.4,5.9,238.8z M256.1,561.3
		c-0.3,1.2-0.8,2.4-1.2,3.5c-0.6,1.3-1.6,1.8-3.1,1.7c-1.9-0.1-3.8-0.1-5.7-0.1c-5.8-0.1-11.5-0.1-17.3-0.2c-0.4,0-0.8,0-1.2,0
		c-4.3,0.8-8.6,0.1-13,0c-1.9,0-3.8,0-5.7,0.1c-7.1,0.1-14.2,0.4-21.3,0.3c-2.7,0-5.5,0.5-8.2-0.5c-0.5-0.2-1.2,0-1.7,0.1
		c-4,0.5-8,0.3-11.9,0c-2.2-0.2-4.5-0.5-6.7-0.1c-3.3,0.5-6.6,0.2-10,0.3c-4,0.1-8-0.1-12-0.1c-2.1,0-4.2,0.1-6.3,0.2
		c-0.6,0-1.2,0.1-1.7,0c-4.6-1.1-9.2,0.2-13.7-0.1c-2.8-0.2-5.7-0.1-8.5-0.1c-4.3,0.1-8.7,0.3-13,0.3c-1.9,0-3.8-0.3-5.7-0.4
		c-1.7-0.1-3.4-0.1-5.1,0c-4.2,0.1-8.5,0.3-12.7,0.3c-1.5,0-3-0.3-4.5-0.3c-1.9,0-3.8,0.2-5.7,0.3c-0.5,0-1,0.1-1.5,0
		c-5.2-0.9-10.3-0.3-15.5-0.1c-0.7,0-1.3,0.1-2,0.1c-4.2,0-8.3,0-12.5-0.1c-1.3,0-2.7-0.3-4-0.3c-2.3,0-4.6,0.1-7,0.1
		c-1.9,0-3.8,0.1-5.7,0.1c-1.9,0-3.8,0-5.9,0c0.1-1.2,0.3-2.4,0.2-3.5c-0.1-3.4-0.3-6.8-0.4-10.2c-0.1-2.1,0-4.2,0.1-6.3
		c0-3.6,0-7.3,0-10.9c0-3.6,0.2-7.3,0.2-10.9c0-1.9-0.1-3.8-0.2-5.7c0-0.5-0.3-1-0.2-1.5c1.1-3.7-0.2-7.5,0.1-11.2
		c0.3-2.9-0.1-5.8-0.1-8.7c0-0.6-0.1-1.2,0-1.8c0.5-2.8,0.3-5.6,0.1-8.5c-0.1-1.9,0.4-3.8,0.4-5.7c-0.1-4.6-0.3-9.1-0.5-13.7
		c0-0.8-0.2-1.8,0.1-2.5c0.7-2,0.5-3.9,0-5.9c-0.1-0.4-0.1-0.8-0.1-1.2c0.1-2,0.3-4,0.4-6c0-1.7-0.1-3.5-0.1-5.2
		c0-0.7-0.3-1.4-0.1-2c0.7-2,0.3-4,0.1-6c-0.4-5.8-0.3-11.5,0.8-17.2c0.8-4,2.2-7.9,3.4-11.7c1.1-3.5,2.4-6.9,3.6-10.4
		c0.1-0.4,0.3-0.8,0.5-1.1c1.4-2.3,2.7-4.6,4.2-6.8c1.8-2.7,3.6-5.5,5.9-7.7c3.2-3.1,6.7-6.1,10.7-8.1c2.3-1.2,4.6-2.8,7.1-3.4
		c3.8-1,7.6-2.1,11.7-2.3c3.3-0.1,6.5-0.1,9.7,0.5c3.1,0.6,6.4,0.7,9.1,2.4c3.2,1.9,6.6,3.7,9.2,6.4c0.7,0.7,1.2,1.6,1.8,2.4
		c0.2,0.3,0.3,0.8,0.6,1.1c2.3,1.9,3.3,4.8,4.7,7.3c1.6,2.9,2.9,6,4.2,9.1c2.1,5.1,3,10.4,3.9,15.8c0.9,5.1,1.5,10.2,2.1,15.3
		c0.2,1.7-0.2,3.5-0.2,5.2c0,1.4,0.3,2.8,0.4,4.2c0,1.3,0.1,2.7-0.2,4c-0.5,2.3-0.4,4.5,0,6.7c0.1,0.7,0.3,1.3,0.2,2
		c-0.8,5-0.5,10,0,15c0,0.2,0,0.5,0,0.8c-0.2,3-0.4,6.1-0.5,9.1c-0.1,1.8-0.1,3.7,0.1,5.5c0.6,4.3,0.1,8.7,0,13
		c-0.1,3.5-0.1,7,0,10.5c0.1,2.3,1.1,3.1,3.4,3c3.2-0.1,6.3-0.3,9.5-0.3c1.6,0,3.2,0.2,4.7,0.3c0.5,0,1,0.1,1.5,0.1
		c1.8-0.1,3.6-0.2,5.5-0.2c3.2,0,6.4,0.6,9.5,0.2c4.3-0.5,8.5,0.3,12.7-0.1c4-0.3,8.2,0.1,12.2,0.1c2.1,0,4.1-0.2,6.2-0.2
		c6.1-0.1,12.1-0.2,18.2-0.1c3.3,0,6.6,0.3,10,0.3c1.2,0,2.5-0.4,3.7-0.4c3.5,0.1,7,0.3,10.5,0.4c0.5,0,1,0.1,1.5,0.1
		c3.6-0.1,7.2-0.3,10.7-0.4c0.3,0,0.7-0.1,1,0c3.5,0.8,7-0.1,10.5,0c4.2,0.1,8.5,0.3,12.7,0.5c3.4,0.1,6.8,0.2,10.2,0.1
		c3.3-0.1,6.4,0.8,9.6,1.3c4,0.6,8,1.7,11.9,3c3.2,1.1,6.6,2,9.7,3.5c3.8,1.7,7.4,3.8,10.9,5.9c2,1.2,3.7,2.7,5.9,4.3
		c-0.9,0.5-1.5,0.9-2.1,1.3c-1.7,0.9-3.3,2-4,4c-0.1,0.2-0.2,0.4-0.4,0.7c-1.9,2.9-2.1,2.8-5,0.9c-1.7-1.1-3.7-2-5.6-2.9
		c-2.6-1.1-5.3-2.1-7.9-3.1c-0.5-0.2-1-0.3-1.5-0.3c-1.7-0.3-2.8,0.2-3,1.4c-0.3,1.2,0.7,2.6,2,3.1c3,1.1,5.9,2.3,8.9,3.5
		c0.4,0.2,0.8,0.5,1.6,1c-4.2,1.9-7.1,4.8-9.6,8.6c-1.6-0.6-3.1-1.2-4.6-1.8c-2-0.7-3.9-1.6-5.9-2.1c-3.5-0.9-7-2-10.7-2.4
		c-1.6-0.2-2.2,0.1-2.4,1.4c-0.3,1.4,0.4,2.8,1.6,3c2.7,0.6,5.4,1.2,8,1.8c2.2,0.5,2.3,0.6,4.2,2.2c-1.7,1.9-3.4,3.8-5.1,5.7
		C258.1,555.8,256.9,558.4,256.1,561.3z M279.5,509.6c5.3,0,10.3,0,15.5,0c0.4,2.5,0.8,5.1,1.4,8.3c-1.3-0.5-2.4-0.8-3.2-1.3
		c-4.1-2.4-8.3-4.5-12.7-6.2C280.1,510.4,280,510.2,279.5,509.6z M320.2,511c-2.8,5-6.5,9.2-11.6,12c-1.7,0.9-3.5,1-5.2-0.1
		c-0.5-0.4-1.1-0.9-1.3-1.4c-0.8-1.9-1.6-3.8-1.4-6c0.1-1.1-0.3-2.1-0.4-3.2c-0.1-0.8-0.1-1.6-0.2-2.5c3.1-0.3,6-0.5,8.9,0
		c2.4,0.3,5,0.1,7.4,0.1c1.3,0,2.6,0.2,3.9,0.3C320.2,510.5,320.3,510.8,320.2,511z M291.4,566.5c-10.5-0.1-20.9,0.2-31.5-0.3
		c-0.1-1.9,0.6-3.5,1.5-5.1c1.3-2.4,2.5-4.9,4.3-6.9c1.8-2.1,4.2-3.5,7.2-3.7c0.5,0,1,0.2,1.4,0.4c2.7,1.2,5.1,2.7,7.5,4.3
		c3.6,2.5,6.4,5.6,9,8.9c0.4,0.5,0.7,1.1,1,1.6C291.6,566,291.5,566.2,291.4,566.5z M311.1,566.5c-3.8,0-7.6-0.1-11.5-0.2
		c-0.8,0-1.6,0-2.6,0c-2.2-3.8-3.8-7.7-6.9-10.8c-3.1-3-6.6-5.3-10.4-7.1c1.8-5.1,6-6.5,10.2-7.8c0.6-0.2,1.5,0.1,2.1,0.5
		c1.6,1,3,2.4,4.7,3.3c3.4,1.8,5.7,4.9,8.1,7.7c2.7,3.1,5.4,6.4,6.4,10.6c0.2,0.7,0.8,1.3,1.1,2
		C312.7,565.8,312.3,566.5,311.1,566.5z M327,566.1c-3,0-6.1,0-9.5,0c-1-2.6-1.9-5.6-3.1-8.4c-0.8-2-2-3.8-3.2-5.6
		c-1.7-2.4-3.4-4.7-5.9-6.5c-2.4-1.8-4.5-3.9-6.8-5.9c-0.8-0.7-0.9-1.3-0.5-2.2c1-2.3,2.3-4.1,5.1-4.6c4.3-0.8,5.1-0.6,7.6,3.1
		c0.3,0.5,0.6,1,1.1,1.4c3.2,3,5.5,6.8,7.7,10.4c2.9,4.6,5.4,9.5,6.8,14.9c0.2,0.9,0.6,1.7,0.9,2.6
		C327.2,565.5,327.1,565.7,327,566.1z M398,566.4c-4.1,0-8.2-0.1-12.3-0.1c-0.3,0-0.7,0-1,0c-4.3,0.8-8.6,0.1-13,0c-2,0-4,0-6,0.1
		c-2.9,0.1-5.8,0.1-8.7,0.2c-1.4,0-2.9,0.2-4.4,0.1c-0.5,0-0.9-0.2-1.4-0.2c-0.6,0-1.2,0-1.8-0.2c-0.8-0.2-1.7-0.3-2.5-0.5
		c-0.4-0.1-0.8,0-1.2,0c-0.4-0.1-0.6-0.2-1-0.3c-0.7-0.1-1.3-0.4-2-0.7c-0.6-0.3-1.3-0.5-2-0.9c-0.6-0.3-1.2-0.8-1.7-1.2
		c-0.3-0.2-0.7-0.5-1.1-0.7c-0.3-0.2-0.6-0.1-0.9-0.4c-0.4-0.3-0.8-0.7-1.2-1c-0.5-0.3-0.9-0.5-1.4-0.9c-0.5-0.4-0.8-0.8-1.4-1.1
		c-0.5-0.2-0.9-0.6-1.2-1c-0.4-0.4-0.5-0.9-0.9-1.4c-0.4-0.6-1-1.1-1.4-1.6c-0.6-0.6-1-1.2-1.3-1.9c-0.4-1-0.8-1.9-1.4-2.8
		c-0.3-0.4-0.7-0.6-1-1c-0.4-0.5-0.6-1.2-0.9-1.8c-0.4-0.6-0.9-1.3-1.3-1.9c-0.4-0.5-0.8-0.9-1.1-1.4c-2.7-4.5-5.7-8.6-9.5-12.2
		c-1.2-1.1-2.1-2.6-3.2-4c0.9-1.2,2.3-1.5,3.4-2.1c0.9-0.5,2-0.9,2.7-1.7c2.1-2.1,4.4-4,6-6.7c1.4-2.4,3.3-4.6,3.9-7.4
		c0.1-0.5,0.5-0.9,0.7-1.3c0.9-1.7-0.1-3.5-2-3.6c-5.7-0.2-11.3-0.4-17-0.4c-5.5,0-11,0.4-16.5,0.5c-1.1,0-2.2-0.2-3.2-0.3
		c-0.5-0.1-1-0.3-1.5-0.2c-5.2,0.3-10.5,0-15.7,0c-6.2,0-12.3,0.4-18.5,0c-5.4-0.3-10.8,0.6-16.2,0.1c-3.8-0.4-7.6-0.2-11.5,0.1
		c-0.9,0.1-1.8-0.3-2.7-0.3c-2.1,0-4.2,0.1-6.2,0.1c-0.7,0-1.5,0.3-2.2,0.2c-4.5-0.7-9-0.2-13.5-0.1c-0.6,0-1.2,0-1.8,0
		c-3.3-0.1-6.6-0.3-9.9-0.4c-1.3,0-2.7,0.2-4,0.2c-5.6,0.1-11.2,0.2-16.7,0.2c-3.1,0-6.2-0.2-9.2-0.3c-0.8,0-1.6,0.2-2.5,0.2
		c-1.2,0-2.4,0-3.7,0c-1.4,0-2.8-0.1-4.2-0.1c-1,0-2,0.2-3,0.2c-2.6-0.1-5.3-0.5-7.9-0.3c-1.9,0.1-3.8,0.3-5.7,0.3
		c-4.2-0.2-8.3-0.1-12.5-0.1c-2.4,0-4.8,0.1-7.2,0.2c-0.5,0-0.9-0.1-1.5-0.2c0.3-1.5,1.2-2.2,2.3-3c3.2-2.3,6.7-4.3,9.5-6.9
		c3.4-3.2,7.4-5.4,10.8-8.5c2.7-2.5,5.8-4.4,8.7-6.7c1.8-1.4,3.6-3,5.4-4.4c3.7-2.8,7.4-5.6,11.1-8.5c0.3-0.2,0.6-0.4,0.8-0.6
		c1.6-2.2,3.7-2.8,6.4-2.5c1.6,0.2,3.3-0.2,5-0.4c0.6,0,1.2-0.1,1.8-0.1c3.4,0.1,6.8,0.4,10.2,0.4c1.2,0,2.5-0.2,3.7-0.3
		c0.6-0.1,1.2-0.2,1.7-0.1c3.5,0.1,7,0.3,10.5,0.4c0.8,0,1.7,0,2.5-0.1c2.5-0.1,4.9-0.5,7.5,0.1c1.3,0.3,2.8-0.2,4.2-0.2
		c3.4,0,6.9,0.2,10.3,0.2c4.8-0.1,9.7-0.3,14.5-0.4c2,0,4,0.2,6,0.3c5.6,0.1,11.1,0.1,16.7,0.2c1.9,0,3.8-0.2,5.8-0.2
		c1,0,2,0.1,3,0.2c0.7,0,1.6,0.2,2.2,0c2.3-1,3.8,0.4,5.4,1.5c1.3,1,2.6,2,3.9,3.1c3.1,2.6,6.6,4.8,9.6,7.5
		c3.2,2.8,6.9,4.9,10.3,7.4c2.9,2.1,5.6,4.4,8.5,6.5c2.5,1.9,5.2,3.6,7.7,5.5c4.1,3.1,8.2,6.3,12.2,9.5c3.2,2.5,6.3,4.9,9.5,7.4
		c2.8,2.2,5.6,4.4,8.4,6.6c1.2,0.9,2.2,2.1,3.3,3c2.5,2.2,4.8,4.7,7.5,6.6c3.4,2.4,5.9,5.7,9.1,8c2.3,1.7,4.3,3.6,6.5,5.4
		c2.4,1.9,4.4,4.3,6.8,6.1c3.7,2.8,6.3,6.7,10.5,8.9c0.6,0.3,1.1,0.8,1.5,1.3c2.8,2.7,5.6,5.4,8.7,8.4
		C399.1,566.3,398.5,566.4,398,566.4z M404.5,479.7c-0.1,1.6,0.2,3.2,0.3,4.7c0,0.5,0.1,1,0.1,1.5c-0.1,3.3-0.3,6.7-0.4,10
		c0,1.5,0.1,3,0.2,4.5c0,0.6,0.2,1.2,0.2,1.7c-0.1,3.5-0.3,7-0.4,10.5c0,0.6,0,1.2,0,1.8c0.1,2.9,0.8,5.8-0.1,8.7
		c-0.4,1.2,0.3,2.6,0.3,3.9c0,3.3-0.2,6.7-0.2,10c0.1,5,0.3,10,0.4,15c0,2.2-0.2,4.3-0.3,6.5c0,1.6,0,3.2,0,5.3
		c-2.6-2.5-5-4.7-7.4-6.9c-1.1-1-2.2-1.8-3.3-2.6c-1.3-1-2.9-1.8-3.6-3.4c0-0.1-0.1-0.1-0.2-0.2c-3.5-3-7.1-6-10.6-9
		c-1.5-1.2-2.8-2.6-4.3-3.9c-0.1-0.1-0.2-0.3-0.3-0.4c-3.4-1.6-5.1-5.4-8.2-7.2c-2.9-1.6-4.8-4.3-7.5-6.2c-2.9-2-5.2-4.7-7.9-6.9
		c-2-1.7-4-3.3-6-4.9c-1-0.8-1.6-1.5-1.5-2.9c0.1-2.8-0.2-5.6,0.4-8.5c0.4-2.2,0-4.5-0.1-6.7c-0.1-4.6-0.4-9.2-0.4-13.7
		c0-4.7,0.3-9.3,0.4-14c0-1.9-0.2-3.8-0.3-5.7c0-0.7-0.2-1.3-0.2-2c0.1-4.9,0.4-9.8,0.4-14.7c0-5.4-0.2-10.7-0.3-16.1
		c0-2.6,0.2-5.3,0.3-7.9c0.2-4.5,0.1-9-0.2-13.5c-0.2-3.9-0.2-7.8-0.2-11.8c0-0.9,0.2-1.8,0.3-2.7c0.1-1.1,0.1-2.1,0.2-3.2
		c0.1-4.5-0.3-9,1.5-13.5c1.2-2.9,1.8-6,3.2-8.9c1.7-3.6,3.5-7.2,5.3-10.8c0.2-0.3,0.5-0.6,0.8-0.8c3.1,0.7,6.1,1.4,9.2,2.1
		c0,0.5,0.1,1.1-0.2,1.6c-1,2.2-0.8,4.6-0.8,6.9c0,1.7-0.1,3.3-0.1,5c0,1.2,0.8,1.9,1.9,2c1.2,0.1,1.9-0.5,2.1-1.7
		c0.1-0.6,0.1-1.2,0.3-1.7c0.3-1.2,0.6-2.4,0.9-3.8c4.3,1.4,8.7,1.1,12.9,1.3c0,2.3-0.1,4.7,0,7c0.1,1.2,0.2,2.5,0.6,3.7
		c0.3,0.9,1.1,1.6,2.1,1.4c1-0.2,1.6-0.9,1.7-1.9c0.1-1.1,0.1-2.2,0.2-3.2c0.1-1.3,0.2-2.6,0.3-3.8c0.4-0.1,0.5-0.2,0.6-0.1
		c3,1.4,6.3,2,9.6,2.7c1.7,0.3,3.2,0.5,4.9-0.1c0.9-0.4,1.9-0.4,2.9-0.5c0.5,2,0.2,3.8,0.4,5.4c0.4,2.4,0.2,4.8,0.3,7.2
		c0.1,4.3,0.4,8.7,0.1,13c-0.2,3.4,0.6,6.8-0.4,10.2c-0.4,1.4,0.3,3.1,0.3,4.7c0,3.4-0.3,6.8-0.2,10.2c0.1,3.1,0,6.1-0.2,9.2
		c-0.2,3.1,0.1,6.3,0.2,9.5c0,1.5,0,3,0.1,4.5c0.1,4.2,0.3,8.3,0.3,12.5c0,4.7,0.3,9.5-0.2,14.2
		C404.4,474.6,404.6,477.1,404.5,479.7z"/>
	<path d="M25.4,86.4c0.3,4.6,1.9,9,3.5,13.2c1.8,4.6,4.2,9.1,6.4,13.6c0.3,0.6,0.7,1.1,1.1,1.7c1.6,2.1,2.4,4.7,4.5,6.5
		c0.2,0.2,0.3,0.6,0.5,0.9c0.9,1.5,1.8,3,2.8,4.4c1.3,1.7,3.1,1.9,4.4,0.2c1-1.4,1.6-3.1,2.4-4.6c0.2-0.5,0.3-1.2,0.6-1.6
		c1.4-2,2.8-3.9,4.2-5.8c1.2-1.6,2.2-3.4,3.5-4.8c2.3-2.4,4.7-4.7,8.1-5.6c0.8-0.2,1.5-0.7,2.2-1.2c1.3-0.9,2.8-1.2,4.3-1
		c2.4,0.3,4.7,0.8,7.1,1c3.7,0.3,6.8,2.2,9.9,3.9c2.3,1.3,4.6,2.7,7,3.9c1.6,0.8,3.4,1.3,5.1,2.1c2.7,1.3,5.6,2.1,8.6,2
		c1,0,2-0.1,3,0.1c3.6,0.5,6.9-0.2,10.2-1.8c2.5-1.2,5-2.3,7.6-3.5c1,0.7,2.2,1.1,2.9,2c1.9,2.5,4.9,3.1,7.3,4.8
		c1.1,0.8,2.3,1.4,3.6,1.8c3.1,1.1,6.3,2,9.5,3c0.9,0.3,1.8,0.3,2.7,0.4c1.2,0.1,2.3,0.3,3.5,0.3c3.7,0.2,7.4,1.4,11.1,0.3
		c0.3-0.1,0.7-0.1,1,0c5.1,0.7,9.5-1.4,14-3.2c2.7-1.1,5-3,7.5-4.6c1.1-0.7,2.2-1.5,3.4-2.3c2.2,1.4,4.4,2.8,6.6,4.1
		c1.6,0.9,3.3,1.7,5,2.2c2.7,0.8,5.2,2.3,8,2.6c0.4,0,0.7,0.4,1.1,0.5c0.7,0.2,1.4,0.5,2.1,0.6c1.4,0.2,2.8,0.4,4.2,0.5
		c5.7,0.5,11.4,1.8,17.2,0.1c0.5-0.2,1.2,0,1.7-0.1c1.5-0.2,3-0.3,4.4-0.7c2-0.6,3.9-1.4,5.9-2.2c1.2-0.5,2.6-0.7,3.7-1.4
		c3.3-1.8,6.5-3.7,9.1-6.6c0.3-0.3,0.8-0.6,1.3-0.7c2-0.3,4-0.4,5.9-0.7c3.1-0.5,6.3-0.7,9.3-1.7c2.7-0.9,5.5-1.7,8.1-3.1
		c4.2-2.4,8.6-4.4,12-8c0.2-0.2,0.5-0.5,0.8-0.6c2.3-1,3.3-3.2,4.8-4.9c3.1-3.6,3.7-8.3,5.2-12.6c1.2-3.4,1-7.1,0.8-10.7
		c-0.1-1.3,0.3-2.7,0-4c-0.5-2.3-1-4.7-1.8-6.9c-1.8-4.8-4.2-9.4-7.6-13.1c-2.7-3-5.7-6.1-9.7-7.7c-1.7-0.7-3.2-1.8-4.9-2.5
		c-2.6-1-5.2-1.9-7.8-2.6c-1.8-0.5-3.8-0.6-5.7-0.5c-2.2,0.1-3.4-1-4.2-2.8c-1.3-2.9-3.3-5.3-5.3-7.8c-3-3.7-6.7-6.5-10.5-9.1
		c-2.4-1.6-5.1-2.8-7.9-3.7c-4.7-1.6-9.7-2-14.6-2.2c-3.7-0.1-7.5,0.2-11.2,1.2c-4.5,1.2-8.8,2.8-12.8,5.2c-1.5,0.9-2.4,0.8-3.7-0.2
		c-1.4-1.1-2.9-2.2-4.5-3.2c-4.2-2.8-8.9-4.7-13.5-6.4c-4-1.5-8.2-2-12.4-2.4c-5.1-0.5-10,0.1-14.9,1c-7,1.3-13.6,3.8-20,7
		c-3.3,1.7-6.3,3.7-9.5,5.5c-1.7,1-3.6,1.7-5.3,2.7c-2.2,1.4-4.2,3-6.6,4.7c-3.3-2.1-7.1-2.9-11-3.2c-2-0.1-4-0.4-6.1-0.6
		c-1-0.1-2-0.1-3-0.1c-0.4,0-0.8,0-1.3,0c-0.3,0-0.6,0.1-1,0.1c-0.3,0-0.7-0.1-1,0c-0.2,0-0.3,0.2-0.5,0.2c-0.2,0-0.3,0-0.5,0
		c-0.3,0.1-0.7,0.2-1,0.3c-0.5,0.2-1.3,0.3-1.8,0.2c-0.3-0.1-0.6-0.3-0.8-0.4c-0.3-0.1-0.6,0.2-0.9,0.3c-0.7,0.4-0.9,1.1-1.3,1.7
		c-0.2,0.3-0.5,0.2-0.8,0.2c-0.3,0-0.5,0.2-0.8,0.4c-1.2,0.5-2.1,1.3-3.3,1.8c-1.4,0.5-2.7,0.9-4,1.5c-0.6,0.3-1.1,0.7-1.6,1.2
		c-0.4,0.4-0.9,0.8-1.4,1.1c-0.6,0.4-1.3,0-2,0.3c-0.4,0.2-0.6,0.4-1,0.7c-0.3,0.2-0.7,0.3-1,0.5c-0.6,0.4-1,1-1.5,1.5
		c-0.3,0.2-0.6,0.4-0.8,0.7c-1.3,1.4-2.6,2.6-3.8,4.1c-1.3,1.5-2.5,2.9-3.7,4.4c-0.2,0.2-0.4,0.6-0.5,0.9c-0.8,2.3-2.5,2.9-4.8,2.7
		c-1.3-0.1-2.8-0.3-4,0.1c-4.1,1.3-8.3,1.8-12.2,4.3c-6.7,4.2-12.3,9.1-16.1,16c-1.2,2.1-1.8,4.5-2.5,6.8c-0.4,1.5-0.6,3.1-0.8,4.7
		c-0.2,2.2-0.3,4.5-0.4,6.7c0,0.9,0.1,1.8,0.2,2.7C25,84.1,25.4,85.2,25.4,86.4z M29.3,75.8c0.3-5.2,2.7-9.6,4.6-14.2
		c0.1-0.2,0.1-0.3,0.3-0.4c3.1-2.5,5-6.3,8.7-8.2c0.5-0.3,1-0.6,1.4-1c2.3-2.4,5.3-3.3,8.4-4.1c1.9-0.5,3.7-1.1,5.5-1.6
		c2.1-0.5,4.1-0.2,6.2,0.4c0.9,0.3,2,0.6,2.9,0.5c1.8-0.1,3.5,0.3,5.1,0.9c2.7,1,5.5,1.8,8.3,2.8c1.1,0.4,2.2,0.9,3.2,1.5
		c0.9,0.6,1.6,0.8,2.4,0c0.9-0.9,1.3-2.3,0.5-3.2c-0.7-0.8-1.5-1.6-2.5-2c-2.7-1.1-5.5-1.9-8.3-2.8c-2.1-0.7-4.3-1.2-6.8-1.9
		c1-1.6,1.6-3.1,2.6-4.2c3-3,6-6,9.3-8.7c2.3-1.8,4.8-3.6,7.5-4.4c3.8-1.2,7.5-3.4,11.8-2.9c0.9,0.1,1.8-0.2,2.7-0.3
		c4-0.5,7.8,0.7,11.6,1.3c2.6,0.4,5,1.9,7.4,3.1c2.7,1.4,5.5,2.8,7.5,5.3c0.6,0.8,1.3,1.5,2,2.2c0.9,0.8,1.8,1.6,2.8,2
		c0.6,0.3,1.8,0.1,2.2-0.3c0.4-0.4,0.4-1.5,0.2-2.3c-0.2-0.8-0.6-1.6-1.2-2.2c-1.8-1.7-3.7-3.3-5.6-5c-1-0.8-2.1-1.6-3.5-2.6
		c1.2-0.8,2.1-1.3,3-1.9c1.7-1.1,3.4-2.2,5.1-3.2c1-0.6,2-1.2,3-1.8c0.6-0.3,1.2-0.6,1.7-1c0.5-0.3,0.9-0.8,1.4-1
		c5.2-2.2,10-5.3,15.5-6.9c2.4-0.7,4.7-1.6,7.2-2.2c1.8-0.4,3.7-0.2,5.5-0.6c4.6-1.2,9-0.3,13.4,0.6c2.8,0.6,5.5,1.2,8.2,2.2
		c3.4,1.1,6.6,2.7,9.6,4.7c1.6,1.1,3.3,2.1,5.3,3.4c-1.9,1.7-3.4,3.2-5.1,4.5c-4,3.2-7.9,6.4-11.2,10.3c-0.2,0.2-0.2,0.5-0.3,0.8
		c0.4,0.5,0.7,1,1.2,1.5c1.1,1,2,1,3.1,0.1c1-0.9,2.1-1.7,2.9-2.7c4-5,9.6-7.9,14.6-11.7c1.9-1.5,4.4-2.1,6.6-3.2
		c1.6-0.8,3-1.7,4.6-2.4c4.1-1.7,8.4-2.4,12.9-2.4c5,0,9.8,0.9,14.5,2.2c1.9,0.5,3.8,1.4,5.4,2.5c4.4,3,8.9,6,12.3,10.2
		c1.5,1.8,2.3,4,3.5,6.1c-0.7,0.3-1.1,0.6-1.6,0.8c-1.5,0.3-3,0.6-4.5,0.9c-0.6,0.1-0.8,0.5-1.3,0.7c-0.3,0.1-0.6,0.2-0.9,0.3
		c-0.3,0.2-0.6,0.4-1,0.6c-0.7,0.4-1.3,0.9-2,1.4c-0.6,0.4-1.1,0.8-1.6,1.2c-0.5,0.5-1.1,0.9-1.5,1.5c-0.4,0.5-0.9,1.5,0.2,1.5
		c0.9,0,1.7-0.4,2.5-0.8c1.1-0.6,2.4-0.9,3.5-1.4c0.9-0.4,1.7-0.6,2.6-0.6c1.1,0,2-0.3,3-0.5c1.3-0.3,2.6-0.5,3.8-0.6
		c1.1-0.1,2.2-0.2,3.2-0.2c1.1,0,2.2,0,3.2,0.1c0.5,0.1,1.1,0.1,1.6,0.2c0.5,0.1,1,0.1,1.4,0.2c0.4,0.1,0.6,0.4,1,0.5
		c0.4,0.1,0.5-0.1,0.8-0.2c0.1,0,0.4-0.1,0.5-0.1c0.2,0,0.4-0.1,0.5-0.2c0.3-0.1,0.7-0.1,1,0c0.1,0,0.2,0.1,0.3,0.2
		c0.2,0.1,0.3,0,0.5,0.1c0.2,0.1,0.3,0.5,0.3,0.7c0,0.5-0.3,0.5-0.7,0.5c0,0.3,1.5,0.1,1.8,0.1c0.7,0,1.2,0.3,1.8,0.5
		c0.3,0.1,0.5,0.1,0.8,0.2c0.3,0.1,0.7,0.1,0.9,0.3c0.2,0.2,0.2,0.6,0.3,0.9c0.1,0.3,0.5,0.5,0.8,0.5c0,0.2,0,0.3,0.1,0.4
		c0,0.2,1.4-0.1,1.6-0.1c0.5-0.1,1.1-0.3,1.6-0.1c0.9,0.3,1.3,1.2,1.8,1.9c0.6,1,1.8,1.7,2.7,2.4c1,0.9,2,1.8,2.9,2.7
		c0.3,0.3,0.6,0.5,0.9,0.8c1.1,1.1,2,2.4,2.9,3.7c2.1,3,3.1,6.4,3.9,9.9c0.5,2.2,1.1,4.4,1.3,6.6c0.1,2.1-0.2,4.1-0.4,6.2
		c-0.4,3.8-1,7.5-3,10.8c-1.6,2.6-3.3,5.3-5.5,7.4c-4.1,4.1-9,7.2-14.4,9.4c-1.7,0.7-3.4,1.2-5.2,1.7c-1.1,0.3-2.4,0.7-3.6,0.6
		c-1.2-0.1-2.4-0.9-3.4-1.7c-1.2-1-1.4-2.6-1.1-4.1c0.8-3.8,1.7-7.5,1.6-11.5c-0.1-2.9-0.8-5.8-1.2-8.7c-0.2-1.1-0.8-1.8-2.1-1.7
		c-1.4,0.1-2.2,0.8-2.1,2.2c0.1,2.7,0.4,5.3,0.7,8c0.4,3.3-0.1,6.4-1.2,9.6c-0.8,2.5-1.6,4.9-3.2,7c-1.4,1.8-2.4,3.9-4.1,5.3
		c-3.4,2.8-6.7,5.9-11.3,6.7c-0.6,0.1-1.2,0.3-1.6,0.6c-2.9,1.8-6.2,1.8-9.4,2.3c-2.4,0.4-5,0.3-7.5,0.1c-2.8-0.2-5.6-0.5-8.4-1.1
		c-2.1-0.4-4.1-0.9-6.2-1.4c-2.6-0.6-5.7-1.1-7.5-3.2c-1.9-2.3-4.4-4.9-5.1-7.9c-0.3-1.3,0.1-2.3,0.8-3.4c1-1.5,2-2.9,2.8-4.5
		c1.1-2.4,2.1-4.9,3.2-7.3c0.2-0.5,0.4-1,0.3-1.4c-0.2-0.8-0.5-1.7-1-2.1c-0.8-0.6-1.8-0.2-2.4,0.6c-0.9,1.1-1.9,2.1-2,3.7
		c0,0.6-0.3,1.2-0.6,1.6c-2.6,3.9-5,8.1-8.1,11.7c-2.4,2.9-5.7,5.1-8.7,7.4c-2.8,2.1-5.8,4-9.2,5c-1.4,0.4-2.9,0.7-4.4,0.9
		c-3.3,0.5-6.6,1.1-9.9,0.3c-0.9-0.2-2,0-3,0c-3.7,0.2-7.2-1.2-10.8-2c-1.9-0.4-3.8-1-5.6-1.8c-0.7-0.3-1.3-0.6-2-0.9
		c-0.8-0.3-1.5-0.8-1.9-1.4c-0.3-0.5-0.8-0.9-1.3-1.2c-0.3-0.2-0.5-0.1-0.7-0.4c-0.2-0.2-0.3-0.5-0.5-0.7c-0.4-0.6-0.9-1.1-1.2-1.8
		c-0.3-0.6-0.7-1.2-1-1.8c-0.3-0.5-0.5-0.9-0.6-1.5c0-0.6,0.1-1.4,0.2-1.9c0.1-0.5,0.6-0.9,0.9-1.3c0.9-1.1,1.6-2.2,2.4-3.3
		c1.4-2.2,2.7-4.6,3.7-7c0.2-0.4,0.3-0.8,0.4-1.2c0.2-1.2-0.8-2.7-1.8-3c-1-0.3-2.6,0.4-3.1,1.6c-0.5,1.1-0.7,2.2-1.2,3.3
		c-1.1,2.4-2.4,4.7-4.3,6.7c-1.8,2-3.4,4.1-5.4,5.9c-2,1.9-4.2,3.2-6.7,4.3c-2.7,1.3-5.4,2-8.4,2.1c-4.4,0.2-8.5-0.8-12.4-2.6
		c-4.5-2-8.8-4.3-13.3-6.5c-1.7-0.8-3.4-1.9-5.2-2.4c-3.2-0.8-6.5-1.3-9.8-1.8c-0.7-0.1-1.5-0.2-2.2,0c-5.8,1.6-11.6,3.3-15.6,8.3
		c-1.2,1.5-2.7,2.8-4,4.2c-0.5,0.5-0.9,1.2-1.3,1.8c-0.1,0.1-0.1,0.3-0.2,0.5c-1.9,2.8-3.8,5.6-5.8,8.6c-0.3-0.3-0.8-0.4-0.9-0.7
		c-2.2-3.5-4.4-6.9-6.4-10.5c-1.5-2.7-2.6-5.6-3.8-8.4c-0.3-0.7-0.8-1.3-1-2c-0.5-1.1-0.9-2.3-1.3-3.5c-0.3-0.9-0.1-1.9-0.6-2.7
		c-2-3.7-1.7-7.9-2.3-11.9C29.4,79.2,29.2,77.6,29.3,75.8z"/>
	<path d="M309.7,167c0.7,8.4,2.1,17,7.3,24.5c5,7.3,11.3,13.1,19.5,16.9c8.2,3.8,16.9,5.2,25.7,4.2c4.8-0.6,9.6-2.1,14.1-4
		c5.9-2.6,10.8-6.8,15.2-11.5c3.8-4.1,6.3-9.1,8.4-14.1c3.1-7.6,3.3-15.6,2.2-23.6c-1.4-10.2-6-18.7-13.3-25.9
		c-9.6-9.5-21.3-13.3-34.4-13.3c-8.3,0-15.7,3.3-22.9,7.3c-7.6,4.2-11.9,11.4-16.8,18.1C311.7,152.3,310,159.2,309.7,167z
		 M316.5,154.9c0.4-1.2,0.5-2.5,0.9-3.6c1.4-3.5,3.5-6.6,5.8-9.6c1.2-1.6,2.3-3.2,3.7-4.7c1.2-1.3,2.6-2.3,4-3.4
		c1.2-0.9,2.3-1.9,3.6-2.7c1-0.6,2.1-1,3.2-1.4c3.4-1.4,6.8-2.7,10.3-4c1-0.4,2.1-0.3,3.2-0.3c2.8-0.1,5.6-0.3,8.5-0.3
		c0.6,0,1.3,0.2,1.9,0.3c0.9,0.2,1.8,0.5,2.7,0.5c2.4-0.1,4.4,0.9,6.5,1.6c3.5,1.2,6.4,3.4,9.7,5.2c1.2,0.6,2.1,1.8,3.2,2.7
		c0.6,0.6,1.1,1.3,1.8,1.7c1.6,0.9,2.6,2.3,3.6,3.8c2.5,3.7,5.2,7.4,6.5,11.7c0.9,2.9,1.7,6,2,9c0.4,4.2,0.3,8.4-0.3,12.7
		c-0.8,5.8-3.3,10.6-6.4,15.3c-4.2,6.4-9.8,11.3-16.6,14.7c-1.7,0.8-3.6,1.4-5.4,2c-2.6,0.7-5.1,1.4-7.7,1.9
		c-1.1,0.2-2.3,0.2-3.5,0.2c-3.3-0.4-6.6,0.1-9.9-1c-1.8-0.6-3.8-0.8-5.5-1.5c-3.8-1.5-7.5-3.1-10.6-5.9c-2-1.8-4.1-3.4-6.1-5.2
		c-2.8-2.4-4.5-5.6-6-8.8c-1.4-3-2.8-6-3.8-9.2c-1-3.5-1.6-7.2-1-10.9c0.1-0.9,0.4-1.8,0.3-2.7C314.9,160.3,315.5,157.6,316.5,154.9
		z"/>
	<path d="M1.9,491.9c0.9,0,0.2-1.3,0.3-1.7c0.1-0.4,0.3-0.8,0.2-1.3c-0.1-0.4-0.4-0.6-0.5-1l-0.7-0.5C1.7,488.2,0.3,491.9,1.9,491.9
		z"/>
	<path d="M0.2,476.2v0.2c0,0.4-0.6,2,0.5,1.7C0.8,477.7,0.8,476.4,0.2,476.2z"/>
	<path d="M179.4,302.2c0.2-0.1,0.3-0.2,0.5-0.3c0.3-0.2,0.5-0.5,0.8-0.7c0.4-0.3,0.8-0.3,1.2-0.6c0.3-0.2,0.5-0.6,0.8-0.9
		c0.3-0.3,0.7-0.6,0.7-1.1c0.1-1.5-1.9-0.3-2.5-0.2h0.2c0.1,0.5-0.7,1-1,1.3c-0.4,0.3-0.8,0.5-1.2,0.8c-0.4,0.3-1.3,1.1-1.3,1.7
		c0.5,0,0.8,0.2,1.2,0.2C178.7,302.4,179.5,302.2,179.4,302.2z"/>
	<path d="M190,293c0.3,0.6,0.9,0,1.2-0.2c0.3-0.2,0.8-0.5,0.5-1c-0.4-0.6-1.2,0-1.7-0.1h0.8C190.5,292,189.8,292.6,190,293z"/>
	<path d="M184.9,295.4c0.2-0.1,0.4-0.5,0.3-0.7c-0.1-0.4-0.4-0.2-0.8-0.2l-0.2-0.5c0.2,0.4,0.2,0.6,0.2,1
		C184.5,295.3,184.4,295.7,184.9,295.4z"/>
	<path d="M283.4,38.7c0.1,0,0.4-0.2,0.5-0.3c0.2-0.1,0.3-0.4,0.2-0.6c0,0-0.1,0-0.1,0c0,0-0.4,0.1-0.4,0.1c-0.2,0.1-0.5,0.2-0.8,0.2
		C282.9,38.5,283.2,38.8,283.4,38.7z"/>
	<path d="M283.8,37.7h0.3C284,37.7,283.9,37.7,283.8,37.7z"/>
	<path d="M284,37.7c0.1,0,0.1,0.1,0.2,0.2c0.1,0,0.2-0.1,0.2-0.2H284z"/>
	<path d="M288.9,39.2l-0.2,0.2c0,0,0.1,0,0.1,0C288.9,39.4,288.9,39.3,288.9,39.2z"/>
	<path d="M287.1,39.8c0.1,0.1,0.1,0.2,0.2,0.3c0.3,0.2,0.5,0.1,0.8,0.2c0.2,0.2,0.4,0.4,0.7,0.5c0.6,0.2,1-0.1,1.4-0.5
		c-0.3-0.7-0.7-0.9-1.4-0.9c-0.1,0.1-0.4-0.2-0.6-0.2c-0.3-0.1-0.7,0-1,0c-0.3,0-0.8,0-0.5,0.5C286.8,39.7,287.1,39.8,287.1,39.8z"
		/>
	<path d="M88.8,20.4c0.5-0.2,1.7-0.3,1.8-1c-0.6-0.2-1.6-0.1-2.1,0.1l0.2,0.3c-0.3,0.3-0.6,0.3-1,0.5c-0.3,0.2-0.8,0.4-0.9,0.8
		C87.5,21.4,88.2,20.7,88.8,20.4z"/>
	<path d="M81.1,23.9c0.3-0.3,1.2-1,1.3-1.3c0,0-0.1,0-0.1,0l0.2-0.3c-0.3,0.4-3.8,1.8-3.3,2.5C79.4,25.1,80.9,24.1,81.1,23.9z"/>
	<path d="M313.7,487.1c-0.3-0.3-0.5-0.7-0.8-1c-0.6-0.6-1.2-1.3-2.1-1c0,0,0,0.1,0,0.1l0.3,0.3c0.2,0.1,0.2,0.5,0.3,0.7
		c0.1,0.2,0.2,0.4,0.3,0.7c0.2,0.4,0.4,0.6,0.7,1c0.2,0.2,0.4,0.6,0.8,0.6c0.2,0,0.3-0.2,0.5-0.2c0.4,0,0.5,0.1,0.5-0.3
		C314.3,487.5,314,487.3,313.7,487.1z"/>
	<path d="M304.9,480.7l-0.3-0.2c0.2,0.2,1,1.5,1.3,1c0.1-0.2-0.1-0.6-0.3-0.7C305.4,480.7,305.2,480.7,304.9,480.7z"/>
</g>
</svg>
